<svg width="240" height="224" viewBox="0 0 240 224" fill="none" xmlns="http://www.w3.org/2000/svg">
<g id="libra icon">
<path id="Fill 95 Copy" fill-rule="evenodd" clip-rule="evenodd" d="M27.0957 69.3224C27.0811 53.3144 40.0359 41.8856 54.6986 37.388C66.6292 33.728 79.2313 33.9296 91.5804 34.0472C98.0469 34.1072 105.119 35.0336 111.284 32.7008C117.548 30.3344 122.173 32.5856 130.459 33.308C150.314 35.0408 203.725 30.3267 208.481 56.8083C210.345 67.1859 214.668 67.2536 214.038 58.9352C212.965 44.7368 195.335 34.0472 163.407 32.3264C155.642 31.9078 148.321 31.016 140.75 30.9632C137.079 31.0688 133.408 30.98 129.744 30.6944C122.803 30.2648 105.092 31.3088 101.161 31.6496C81.7177 33.3344 62.7659 29.5832 44.5853 38.8928C32.7107 44.9768 23.1594 56.336 23.3394 70.1C23.4635 79.808 27.103 80.3216 27.0957 69.3224Z" fill="#6F9157"/>
<path id="Fill 96" fill-rule="evenodd" clip-rule="evenodd" d="M90.8874 169.05C89.4114 168.97 85.569 169.405 84.369 168.654C80.1042 165.982 85.9266 165.654 86.9826 165.38C87.4626 165.255 90.1866 164.094 89.073 163.126C85.5426 160.047 79.1754 152.794 83.5194 147.855C82.1778 148.306 80.8338 148.755 79.4922 149.206C80.5338 149.319 83.2986 153.716 83.9202 154.556C85.881 157.213 87.6234 160.014 89.2266 162.901C89.997 164.288 94.3938 163.551 94.437 161.859C94.5666 156.702 94.7538 150.927 98.6322 147.039C97.0698 147.142 95.5075 147.246 93.945 147.349C95.5218 152.761 95.0322 157.95 92.541 162.987C91.629 164.83 96.729 163.412 97.2258 163.035C98.8194 161.816 101.673 159.786 99.6186 163.098C98.685 164.6 96.5058 166.038 95.0394 166.846C93.4842 167.706 90.129 169.15 88.2738 168.711C85.7346 168.104 92.8914 167.785 93.5082 167.818C94.1946 166.863 94.8786 165.91 95.5626 164.955C91.7874 164.778 87.381 165.274 85.245 168.79C83.9298 170.953 88.5858 169.885 89.2722 169.542C91.461 168.445 96.8226 164.379 94.1034 161.648C93.069 160.611 91.3626 160.717 90.033 161.026C86.5722 161.835 85.1322 164.749 81.1002 165.116C79.3746 165.272 76.4178 168.025 79.7034 167.938C82.8978 167.85 90.1938 166.633 91.617 163.179C92.3322 161.449 90.873 160.191 89.9106 158.881C87.7074 155.871 85.3794 152.946 83.1162 149.984C82.0962 148.647 77.0874 150.327 78.2634 151.995C81.033 155.931 84.7986 161.173 89.2602 163.345C92.829 165.085 96.7554 163.304 99.8922 161.449C98.5506 161.199 97.209 160.947 95.8674 160.698C94.6026 162.414 93.225 163.885 91.5906 165.26C89.4474 167.065 93.6906 167.12 94.6866 166.669C97.8258 165.248 100.593 163.498 103.137 161.173C105.333 159.166 100.197 159.279 98.9754 160.395C97.0314 162.171 95.0586 163.544 92.6562 164.634C93.6882 165.102 94.7202 165.57 95.7522 166.038C97.6362 164.451 99.2442 162.738 100.708 160.75C102.17 158.763 97.3386 159.61 96.681 159.999C91.7346 162.925 85.4106 153.246 83.1162 149.984C81.4986 150.654 79.881 151.326 78.2634 151.995C79.9626 154.22 81.6618 156.442 83.361 158.667C83.9346 159.421 85.401 160.729 85.6266 161.634C86.4906 162.265 86.3754 162.87 85.2762 163.446C84.549 164.737 83.3754 165.279 81.7578 165.075C81.2922 166.016 80.8242 166.954 80.3586 167.895C82.6674 167.686 84.8706 167.202 86.961 166.165C87.297 166.002 90.261 164.343 90.1242 164.132C90.6162 164.9 86.4594 167.89 86.061 168.092C87.4026 168.342 88.7442 168.594 90.0858 168.843C91.1106 167.919 92.2506 167.576 93.5082 167.818C95.4306 167.907 99.0738 165.138 95.5626 164.955C92.8026 164.811 81.4146 164.079 81.3114 169.026C81.2058 174.058 92.7354 170.749 95.121 169.796C98.061 168.622 107.767 163.395 105.935 159.147C103.91 154.441 95.013 160.767 93.0642 162.255C94.6266 162.27 96.1866 162.286 97.749 162.303C100.341 157.064 100.792 151.546 99.1602 145.952C98.6946 144.356 95.2218 145.508 94.4706 146.262C89.997 150.745 89.385 156.442 89.229 162.543C90.9666 162.198 92.7042 161.85 94.4418 161.504C92.0298 157.153 89.3178 153.013 86.1306 149.187C84.4266 147.147 82.8858 145.534 80.0826 146.811C77.6466 147.92 77.0634 150.882 77.1618 153.344C77.3562 158.269 80.697 162.063 84.2226 165.138C84.9186 164.384 85.617 163.635 86.313 162.882C83.7858 163.539 76.3698 163.729 76.9098 168.255C77.4306 172.623 86.1138 171.764 88.833 171.913C90.7626 172.018 94.3938 169.239 90.8874 169.05Z" fill="#B8B8D1"/>
<path id="Fill 99" fill-rule="evenodd" clip-rule="evenodd" d="M40.7754 33.421C38.8434 33.2386 36.9858 32.8762 35.1666 32.1802C33.6498 31.597 31.0986 30.6994 30.1194 29.3266C29.9322 29.1514 29.745 28.9762 29.5554 28.801C30.1554 27.8842 30.8442 27.8266 31.6194 28.6306C32.4138 29.101 33.1122 29.7442 33.8178 30.3274C35.4738 31.6954 37.101 33.0994 38.7402 34.4842C40.0746 33.457 41.409 32.4298 42.7434 31.4026C39.0306 29.2186 35.3202 27.0322 31.6098 24.8482C30.1242 23.9722 25.3458 25.393 27.2274 27.5554C30.273 31.0546 35.5242 31.4482 38.325 35.0386C39.8226 36.961 44.3682 35.2234 43.0914 32.7058C41.973 30.505 37.869 24.8002 40.533 22.5058C39.1578 22.4794 37.7802 22.4506 36.405 22.4242C38.4738 26.4778 39.1074 30.8938 38.4762 35.3842C38.0946 38.0962 43.4274 37.4602 43.7706 35.0218C44.5074 29.7874 43.5642 24.7834 41.169 20.089C40.4802 18.7378 37.905 19.2634 37.0434 20.0074C31.941 24.3994 35.9106 30.289 38.325 35.0386C39.9138 34.261 41.5026 33.4834 43.0914 32.7058C40.1682 28.9618 35.0058 28.6834 31.9914 25.2202C30.5298 26.1226 29.0682 27.025 27.609 27.9274C31.3194 30.1138 35.0298 32.2978 38.7402 34.4842C40.6554 35.6122 45.1986 33.4762 42.7434 31.4026C39.7674 28.8922 36.6162 25.2658 32.7282 24.253C29.8914 23.5162 26.1834 24.3346 24.669 27.073C21.1074 33.5122 35.0178 36.9562 39.0042 37.3306C41.6346 37.5802 44.2938 33.7498 40.7754 33.421Z" fill="#B8B8D1"/>
<path id="Fill 110" fill-rule="evenodd" clip-rule="evenodd" d="M37.6626 37.6184C33.8418 39.0008 30.7938 41.3504 28.4922 44.6936C28.1442 45.1976 28.5162 45.8456 29.0298 46.016C36.3594 48.4616 43.557 43.2776 43.7154 35.5976C43.737 34.4408 41.937 34.4408 41.9154 35.5976C41.7786 42.152 35.6754 46.3376 29.5098 44.2808C29.6874 44.7224 29.8674 45.1616 30.0474 45.6032C32.0682 42.6656 34.7922 40.5656 38.1402 39.356C39.2226 38.9648 38.757 37.2248 37.6626 37.6184Z" fill="#304227"/>
<path id="Fill 94 Copy" fill-rule="evenodd" clip-rule="evenodd" d="M122.33 136.784C116.729 129.697 109.871 124.82 108.003 115.832C105.912 105.774 105.61 102.244 111.841 93.9396C112.758 92.718 112.495 87.2978 111.841 88.169C104.069 98.5298 100.41 111.438 106.389 123.349C109.522 129.594 115.569 133.676 119.498 139.436C125.493 148.215 124.67 158.002 118.04 166.39C117.099 167.581 120.95 167.223 121.626 166.369C128.846 157.237 129.703 146.115 122.33 136.784Z" fill="#6F9157"/>
<path id="Fill 94 Copy 2" fill-rule="evenodd" clip-rule="evenodd" d="M124.731 52.7841C119.129 45.6969 112.271 40.8201 110.403 31.8321C109.474 27.3612 108.898 24.1802 109.092 21.2964C109.335 17.6923 108.338 13.5117 106.953 18.6054C105.103 25.4042 105.372 32.5394 108.79 39.3489C111.923 45.5937 117.969 49.6761 121.898 55.4361C127.893 64.2153 127.071 74.0025 120.44 82.3905C119.499 83.5809 123.351 83.2233 124.026 82.3689C131.246 73.2369 132.104 62.1153 124.731 52.7841Z" fill="#6F9157"/>
<path id="Fill 3 Copy 4" fill-rule="evenodd" clip-rule="evenodd" d="M208.561 147.662C202.629 147.849 197.452 146.436 193.187 142.799C196.283 143.108 199.644 142.617 202.656 142.253C203.109 142.199 203.109 141.602 202.656 141.547C199.208 141.13 195.303 140.547 191.862 141.189C191.76 141.206 191.678 141.251 191.604 141.306C191.34 141.031 191.079 140.749 190.822 140.453C190.322 139.873 189.846 139.271 189.379 138.661C190.627 138.96 191.959 139.063 192.983 139.177C196.388 139.562 199.901 138.613 202.736 136.73C202.907 136.616 202.758 136.354 202.575 136.453C199.401 138.172 195.878 137.703 192.463 137.135C191.337 136.947 190.186 136.542 189.032 136.265C189.01 136.228 188.988 136.191 188.957 136.161C187.717 134.976 186.432 133.707 185.373 132.295C185.266 132.083 185.145 131.878 185.039 131.665C184.662 130.905 184.238 130.018 183.862 129.072C189.03 132.929 196.67 131.853 202.656 131.445C202.862 131.431 202.864 131.134 202.656 131.122C199.725 130.956 196.793 130.89 193.863 130.729C189.906 130.512 186.863 129.255 183.535 127.218C183.426 127.151 183.317 127.136 183.211 127.141C182.773 125.514 182.642 123.85 183.256 122.452C183.268 122.42 183.233 122.387 183.204 122.413C182.84 122.775 182.55 123.176 182.318 123.608C182.251 123.064 182.196 122.528 182.154 122.007C182.535 122.262 183.021 122.373 183.486 122.318C189.576 125.413 197.514 124.112 203.907 124.294C213.62 124.571 223.276 125.744 232.964 124.855C233.194 125.566 233.805 125.845 234.426 125.783C234.444 126.28 234.441 126.766 234.424 127.247C234.387 127.245 234.35 127.243 234.31 127.248C231.926 127.605 229.799 129.504 227.376 130.163C224.558 130.929 221.434 130.793 218.551 130.578C217.761 130.519 217.581 131.823 218.363 131.964C221.587 132.547 224.655 132.623 227.876 131.976C229.911 131.568 232.827 130.662 234.285 128.941C234.092 130.489 233.719 131.946 233.184 133.307C231.198 134.742 229.118 136.053 226.754 136.784C223.783 137.702 219.905 137.959 216.784 138.008C216.387 138.014 216.303 138.594 216.69 138.702C220.599 139.781 226.232 140.103 230.322 138.181C229.91 138.686 229.467 139.17 229.004 139.638C223.847 141.338 219.297 146.336 213.479 143.281C213.042 143.051 212.542 143.632 212.934 143.987C214.39 145.3 216.276 145.911 218.274 145.98C215.154 146.995 211.834 147.56 208.561 147.662ZM198.947 86.6541C200.02 83.3501 200.684 75.0965 201.55 71.7336C201.98 70.0665 202.402 73.2011 202.937 71.5625C203.053 71.2096 203.234 70.5323 203.463 70.0332C203.864 70.1525 204.268 70.2382 204.659 70.2836C205.747 70.4079 206.626 70.2752 207.428 69.9659C208.234 78.3638 213.744 86.9684 217.871 93.6554C223.214 102.315 229.281 111.004 232.03 120.896C223.443 121.595 214.8 120.835 206.197 120.649C199.346 120.503 191.86 121.929 184.932 121.02C188.658 109.177 195.117 98.4501 198.947 86.6541ZM121.917 39.5388C121.894 39.1876 121.868 38.8397 121.845 38.4884C121.845 38.47 121.843 38.4498 121.842 38.4313C121.83 37.917 121.818 37.4011 121.806 36.8869C121.865 36.8919 121.919 36.9037 121.981 36.9037C136.435 36.9305 152.435 36.973 165.269 39.9472C174.773 42.1498 178.451 45.0459 185.318 47.15C190.696 48.7986 196.813 53.3064 202.006 55.4121C201.901 55.4508 201.797 55.4928 201.688 55.5499C201.124 55.8424 200.659 56.6003 200.716 57.2473C200.794 58.1128 200.981 58.7447 201.564 59.2707C201.76 59.6085 201.978 59.9312 202.208 60.2472C202.204 60.2488 202.203 60.2522 202.199 60.2539C190.156 53.7467 176.745 45.3351 163.328 42.9554C149.676 40.5371 135.787 39.2413 121.917 39.5388ZM57.8906 204.775C57.9912 205.708 58.2227 206.598 58.6505 207.4C57.8839 206.565 57.5836 205.687 57.8906 204.775ZM60.0664 208.148C61.1115 205.741 60.5361 203.079 60.5412 200.498C60.5462 197.08 61.2139 193.656 61.7943 190.298C61.8044 190.241 61.8027 190.184 61.7926 190.13C64.6646 191.339 67.6608 192.313 70.5446 193.295C76.4849 195.318 82.5409 196.878 88.696 198.083C99.2782 200.158 110.008 200.745 120.756 200.066C130.396 199.456 140.013 198.128 149.502 196.338C154.164 195.459 158.795 194.401 163.368 193.132C166.037 192.391 169.205 191.715 171.696 190.241C171.112 195.382 171.025 200.673 171.151 205.824C171.037 205.704 170.854 205.652 170.654 205.743C169.203 206.407 167.718 206.966 166.215 207.466C167.807 202.805 167.111 197.384 163.867 193.65C163.793 193.565 163.667 193.673 163.717 193.767C166.024 198.185 164.814 203.123 165.083 207.83C163.167 208.425 161.224 208.934 159.278 209.432C159.649 205.993 159.325 202.466 159.109 199.027C159.06 198.239 157.941 198.239 157.891 199.027C157.668 202.594 157.321 206.259 157.762 209.82C155.329 210.442 152.904 211.082 150.527 211.889C150.758 210.48 150.6 209.012 150.582 207.561C150.542 204.711 150.505 201.873 150.344 199.027C150.295 198.158 149.045 198.158 148.997 199.027C148.854 201.548 148.807 204.064 148.773 206.59C148.747 208.507 148.45 210.583 148.931 212.457C148.914 212.462 148.899 212.469 148.884 212.474C146.123 213.521 142.972 213.818 139.963 214.166C140.731 209.551 138.5 204.392 141.033 200.024C141.182 199.767 140.815 199.572 140.646 199.797C139.201 201.72 138.289 203.866 138.148 206.303C138.002 208.828 137.686 211.832 138.215 214.378C135.556 214.724 132.883 215.038 130.204 215.309C128.498 211.485 126.601 206.793 127.841 202.634C127.925 202.35 127.52 202.189 127.373 202.434C125.854 204.94 125.502 207.04 125.873 210.022C126.057 211.496 126.462 212.966 127.113 214.304C127.364 214.823 127.591 215.21 127.829 215.532C120.729 216.186 113.585 216.546 106.488 216.495C105.915 211.805 104.864 207.111 104.182 202.446C104.103 201.901 103.356 202.11 103.301 202.565C102.759 207.061 103.007 211.914 103.868 216.448C101.199 216.389 98.5266 216.27 95.8525 216.09C96.1411 214.507 95.4919 212.595 95.2872 211.126C94.7957 207.625 94.2001 204.143 93.6784 200.649C93.5794 199.985 92.6769 200.244 92.6081 200.795C92.1417 204.545 92.5561 208.386 92.999 212.122C93.0929 212.917 93.0661 214.65 93.472 215.926C90.803 215.712 88.1373 215.443 85.4817 215.116C85.2385 210.514 84.4366 205.077 86.4749 201.022C86.6929 200.59 86.1159 200.068 85.7703 200.478C82.4973 204.37 82.9134 209.882 83.066 214.793C80.907 214.499 78.7546 214.174 76.6124 213.808C74.5288 208.476 74.0641 202.923 75.9246 197.375C76.089 196.881 75.3592 196.602 75.1042 197.031C72.1869 201.888 71.427 207.84 73.1918 213.196C73.1566 213.19 73.1196 213.183 73.0844 213.178C71.0462 212.791 69.0331 212.275 67.0569 211.642C68.7814 206.049 67.9477 199.232 67.3001 193.718C67.2045 192.892 66.1158 192.893 66.0184 193.718C65.6225 197.073 65.287 200.419 64.9716 203.78C64.7569 206.044 64.1849 208.244 63.7856 210.465C62.1818 209.812 60.8196 209.118 59.798 208.39C59.9087 208.356 60.006 208.284 60.0664 208.148ZM171.159 206.398C171.171 206.383 171.176 206.366 171.186 206.351C171.218 206.538 171.28 206.703 171.365 206.845C171.065 206.958 170.767 207.071 170.466 207.182C170.703 206.936 170.934 206.677 171.159 206.398ZM83.0442 174.884C93.7405 170.627 105.138 169.056 116.619 169.355C123.457 169.532 129.882 171.242 136.081 173.726C131.478 173.926 126.774 175.753 122.414 176.992C116.811 178.585 111.155 179.956 105.421 180.993C105.024 181.065 105.126 181.691 105.515 181.685C110.625 181.623 115.465 180.489 120.402 179.232C125.982 177.813 132.097 176.869 137.451 174.782C137.628 174.713 137.735 174.582 137.79 174.434C139.787 175.284 141.761 176.208 143.721 177.183C142.169 177.783 140.629 178.413 139.096 178.955C135.635 180.178 132.137 181.292 128.606 182.294C121.075 184.43 113.296 185.778 105.515 186.576C105.433 186.584 105.432 186.699 105.515 186.705C113.18 187.354 120.434 186.201 127.899 184.339C131.852 183.353 135.729 182.025 139.572 180.689C141.719 179.941 143.976 179.254 146.146 178.415C148.955 179.857 151.736 181.341 154.504 182.853C148.777 184.806 143.202 187.221 137.428 189.107C128.72 191.95 119.939 193.093 110.815 193.397C110.392 193.411 110.411 193.996 110.815 194.039C119.542 194.996 128.361 193.315 136.733 190.905C143.325 189.009 149.834 186.635 156.037 183.694C156.729 184.075 157.42 184.453 158.111 184.835C158.883 185.263 159.639 185.673 160.391 186.068C158.329 187.099 156.279 188.112 154.021 188.826C150.802 189.845 147.483 190.529 144.252 191.515C143.692 191.685 143.929 192.487 144.491 192.382C149.904 191.379 157.566 190.717 162.244 187.005C163.788 187.746 165.331 188.388 166.94 188.877C165.482 189.398 164.036 189.954 162.607 190.367C158.368 191.589 154.053 192.549 149.73 193.418C140.469 195.281 131.075 196.538 121.657 197.251C111.258 198.039 100.927 197.537 90.6453 195.745C84.8778 194.74 79.1858 193.288 73.5575 191.685C67.9292 190.083 62.4536 187.62 56.7431 186.341C65.8306 183.309 74.1463 178.427 83.0442 174.884ZM112.561 128.66C112.487 116.918 112.409 105.175 112.336 93.435C112.194 69.8346 112.085 46.2359 111.961 22.6339C112.375 22.7566 112.801 22.8557 113.246 22.8994C116.089 23.1868 118.445 21.9953 120.302 20.1281C120.397 20.1012 120.493 20.0693 120.588 20.0407C120.043 23.7531 120.078 27.5613 120.015 31.3023C119.966 34.0719 120.026 36.8331 120.139 39.5892C118.817 39.7119 118.837 41.8059 120.214 41.7639C120.223 41.7622 120.229 41.7622 120.238 41.7622C120.375 44.5217 120.555 47.2762 120.729 50.0323C120.496 62.6417 120.377 75.2578 120.35 87.8756C119.723 97.7087 118.971 107.538 118.621 117.378C118.309 126.134 118.208 134.896 118.357 143.654C118.429 147.975 118.587 152.29 118.882 156.601C118.988 158.1 119.033 159.678 119.127 161.261C118.292 161.223 117.456 161.193 116.619 161.184C115.178 161.167 113.752 161.218 112.34 161.322C112.939 150.444 112.632 139.563 112.561 128.66ZM109.995 17.5737C109.766 17.2527 109.56 16.9081 109.367 16.5502C111.993 16.33 114.64 14.3621 116.227 12.4748C116.361 12.3151 116.16 12.1202 116 12.2479C115.042 13.0092 114.044 13.6008 112.903 14.0394C111.795 14.4646 109.857 15.2981 108.681 14.9856C108.257 13.7705 108.025 12.4546 108.015 11.1538C110.171 11.2227 112.219 11.3942 114.365 10.6547C114.442 10.6278 114.41 10.5135 114.329 10.5303C112.254 10.9824 110.134 10.5337 108.047 10.2262C108.084 9.74888 108.153 9.27832 108.257 8.81784C109.62 8.11032 111.021 7.46497 112.581 7.3759C112.991 7.3507 112.997 6.7272 112.581 6.73224C111.162 6.75073 109.849 7.18936 108.57 7.74227C108.708 7.36414 108.866 6.99777 109.058 6.64821C109.956 5.02141 111.35 4.43489 112.915 4.46346C114.336 6.63141 117.151 7.86159 119.73 7.36414C119.802 7.34901 119.854 7.31204 119.892 7.26499C120.048 7.37086 120.199 7.47842 120.349 7.58598C120.328 7.6095 120.31 7.63303 120.292 7.65488C119.267 8.85145 117.616 8.72709 116.25 8.32711C115.611 8.14225 115.353 9.11362 115.977 9.31865C117.295 9.74888 118.607 9.80602 119.736 9.36067C120.602 9.4531 121.446 9.38419 122.241 9.13379C122.655 9.53041 122.984 9.92198 123.241 10.3119C121.343 10.6665 119.617 11.4194 117.799 12.2227C117.626 12.2983 117.752 12.5588 117.921 12.5168C119.85 12.0429 121.726 11.379 123.69 11.1555C123.828 11.5017 123.908 11.8429 123.939 12.1773C123.541 12.3471 123.16 12.5773 122.756 12.7622C121.771 13.2193 120.733 13.5352 119.646 13.584C118.948 13.6176 118.941 14.6931 119.646 14.6763C120.758 14.6511 121.79 14.3839 122.828 13.9907C123.127 13.8764 123.44 13.7655 123.744 13.6377C123.467 14.4108 122.925 15.1166 122.211 15.7233C121.363 15.9973 120.553 16.5182 119.688 16.7434C117.98 17.1922 116.099 17.2728 114.346 17.4442C114.195 17.4611 114.128 17.5753 114.135 17.6846C113.684 17.5686 113.251 17.4123 112.855 17.1989C112.338 16.9199 111.9 17.4611 112.11 17.9451C112.459 18.7585 112.987 19.3399 113.62 19.7534C112.288 19.6559 111.038 19.0408 109.995 17.5737ZM118.72 6.50704C116.967 6.10707 115.083 5.66171 113.71 4.52396C115.369 4.7542 117.156 5.56592 118.72 6.50704ZM121.28 8.29518C121.392 8.38593 121.501 8.475 121.605 8.56407C121.33 8.64474 121.051 8.71028 120.771 8.76406C120.947 8.62289 121.119 8.46996 121.28 8.29518ZM206.004 62.205C206.913 63.0655 207.757 64.3192 207.672 65.4351C207.553 65.5225 207.46 65.6519 207.442 65.8183C207.425 65.9678 207.415 66.1174 207.402 66.267C207.291 66.4451 207.145 66.6149 206.957 66.7712C206.563 66.7493 206.165 66.7342 205.759 66.7527C204.947 66.788 204.058 66.6586 203.409 66.1494C203.219 65.8905 203.041 65.6099 202.884 65.3124C202.783 64.1713 204.734 62.8974 206.004 62.205ZM30.4387 61.8317C30.4101 61.8619 30.3665 61.909 30.2826 62.0048C30.1619 62.1426 30.031 62.272 29.9002 62.4014C29.8515 62.4484 29.6217 62.6417 29.5361 62.719C29.2593 62.9173 28.9657 63.0887 28.6604 63.2417C28.5833 63.2719 28.4356 63.3324 28.3803 63.3526C28.2477 63.3946 28.1085 63.4198 27.9726 63.4484C27.8954 63.4501 27.6019 63.4837 27.5063 63.4837C27.4526 63.4837 27.4224 63.4837 27.3871 63.4837C27.3737 63.4786 27.3452 63.4702 27.2915 63.4585C26.7128 63.3308 26.337 63.0316 25.9578 62.4905C25.3606 61.6435 25.0335 60.6822 24.7936 59.6688C25.1945 59.0335 25.6072 58.4218 26.2363 57.9596C27.0097 57.3899 27.9827 57.0874 28.9255 56.8084C29.0228 56.8723 29.1251 56.9177 29.2291 56.9446C29.464 57.0958 29.7005 57.2471 29.932 57.405C29.8934 57.3899 30.2441 57.6622 30.2692 57.6857C30.4823 57.8722 30.6853 58.0621 30.8799 58.2705C30.905 58.2991 30.9184 58.3125 30.9352 58.326C30.9503 58.3613 30.9839 58.4251 31.0594 58.5478C31.1047 58.6201 31.1365 58.6722 31.1617 58.7092C31.1651 58.7276 31.1701 58.7445 31.1835 58.7797C31.2422 58.9461 31.2808 59.1192 31.3194 59.2906C31.3194 59.294 31.3194 59.294 31.3194 59.294C31.3194 59.3377 31.3194 59.4016 31.3211 59.5007C31.3244 59.5763 31.3043 59.7948 31.2942 59.9209C31.2607 60.0856 31.2271 60.2486 31.1835 60.4082C31.1583 60.5007 31.1214 60.5897 31.0896 60.6805C31.0761 60.6855 30.9117 61.067 30.8648 61.1544C30.749 61.3678 30.6148 61.5712 30.4772 61.7729C30.4571 61.8014 30.4487 61.8166 30.4387 61.8317ZM44.1042 125.013C39.7459 129.468 33.4717 131.404 27.159 131.491C23.4851 131.542 19.8447 130.78 16.5265 129.355C18.5111 129.201 19.9303 128.194 20.8228 126.409C20.8714 126.312 20.754 126.218 20.6718 126.293C19.1771 127.653 16.9979 127.441 15.1861 127.142C13.485 126.861 12.0708 125.525 10.4067 125.648C10.3077 125.566 10.2037 125.488 10.1064 125.404C10.0158 125.329 9.93696 125.248 9.84805 125.171C11.6984 125.315 13.5823 125.177 15.5267 124.902C15.8337 124.858 15.8337 124.325 15.5267 124.282C12.8073 123.892 10.1114 123.562 7.51453 122.742C6.69923 121.735 6.0131 120.68 5.42259 119.586C9.24915 120.463 13.2837 120.035 17.2076 119.798C17.8686 119.756 17.8686 118.81 17.2076 118.769C12.8593 118.504 8.12014 118.316 4.05704 116.581C3.41453 114.896 2.91964 113.144 2.48179 111.353C2.49857 111.361 2.51031 111.373 2.52877 111.38C8.12182 113.864 13.7652 113.447 19.2643 110.936C19.8666 110.66 19.4371 109.692 18.8214 109.879C13.8658 111.381 8.41036 111.728 3.62758 109.494C3.01191 109.207 2.4365 109.509 2.15131 109.96C1.95 109.084 1.75372 108.2 1.55577 107.311C10.1198 109.282 19.2777 109.876 28.0246 110.257C32.7051 110.462 37.3973 110.491 42.0626 110.02C45.4698 109.677 48.3267 108.832 51.1568 107.355C50.063 110.218 50.2442 113.506 49.2879 116.479C49.2427 116.618 49.1873 116.754 49.1403 116.892C47.196 117.332 45.1863 118.578 43.3594 119.114C40.1619 120.05 36.3404 120.576 33.2637 119.006C33.0037 118.873 32.6245 119.164 32.8259 119.445C34.6662 122.006 37.8871 122.204 40.8011 121.887C42.5743 121.695 45.2248 121.309 47.508 120.488C46.5753 122.124 45.4362 123.651 44.1042 125.013ZM237.829 123.392C238.506 122.108 238.036 120.172 236.377 120.414C235.994 120.469 235.613 120.514 235.231 120.563C232.674 111.219 227.18 102.914 222.008 94.8234C219.108 90.2858 216.18 85.7415 213.657 80.9805C211.579 77.0597 210.327 73.0767 209.252 68.9122C209.576 68.6652 209.901 68.403 210.242 68.1089C210.678 67.7341 210.396 66.9375 209.854 66.8619C210.834 64.4553 209.24 61.2589 207.197 59.4993C206.833 59.1867 206.296 58.943 205.808 59.1329C205.647 59.1951 205.482 59.2657 205.318 59.3346C205.281 59.2035 205.231 59.0741 205.167 58.9531C204.993 58.6254 204.863 58.3061 204.748 57.97C204.781 57.5549 204.697 57.1717 204.571 56.7247C204.536 56.6037 204.479 56.4894 204.422 56.3751C204.57 56.4339 204.716 56.4944 204.863 56.5516C205.308 56.7247 205.694 56.0491 205.331 55.7466C200.337 51.5687 194.489 47.6739 188.368 45.6169C181.21 43.2153 173.56 38.0986 166.101 36.9238C151.508 34.6231 136.742 33.8316 121.981 33.8215C121.894 33.8215 121.815 33.8349 121.736 33.845C121.711 32.877 121.694 31.9073 121.669 30.9393C121.664 30.8082 121.583 30.7309 121.488 30.7023C121.434 28.9898 121.395 27.2773 121.372 25.5648C121.348 23.8237 121.36 22.086 121.301 20.3449C121.296 20.2088 121.306 20.0088 121.323 19.7853C123.997 18.7316 126.452 16.4779 126.995 13.6428C127.458 11.2311 126.436 9.16908 124.875 7.45489C124.952 7.3759 125.029 7.2986 125.103 7.21289C125.297 6.98937 125.009 6.72048 124.786 6.89526C124.702 6.95912 124.611 7.01626 124.526 7.07844C123.167 5.69869 121.481 4.56094 120 3.66687C117.337 2.06192 114.262 0.942651 111.134 1.46195C108.06 1.97285 106.202 4.08029 105.358 6.78434C105.334 6.79778 105.311 6.80787 105.289 6.82635C104.891 7.17255 104.858 7.7658 104.984 8.40274C104.125 13.8075 106.68 20.6289 111.436 22.4608C111.404 28.2168 111.374 33.9727 111.343 39.7304C111.196 39.643 111.023 39.5859 110.815 39.5791C96.3793 39.1321 81.9118 40.4379 67.7011 42.9554C55.7852 45.0696 43.8744 48.1535 32.9215 53.375C31.8529 52.6608 30.6232 52.2524 29.37 52.333C29.1587 51.7969 28.9976 51.2407 28.9272 50.6508C34.1545 48.5333 39.3047 46.283 44.7182 44.6259C51.5829 42.5218 58.6824 41.1135 65.7601 39.9472C80.0413 37.5944 94.5944 36.9305 109.048 36.9037C111.033 36.9003 111.033 33.8198 109.048 33.8215C94.2874 33.8316 79.523 34.6231 64.928 36.9238C57.4712 38.0986 50.1435 39.8632 42.9853 42.2647C37.6892 44.0444 32.3595 46.1183 27.7814 49.35C27.3267 49.3399 26.8805 49.5903 26.753 50.1063C26.3974 50.3785 26.0434 50.6575 25.6995 50.9466C25.3371 51.2491 25.723 51.9247 26.1659 51.7516C26.3739 51.6709 26.5819 51.5852 26.7899 51.5028C26.8587 52.0658 26.9761 52.6238 27.1338 53.175C26.8033 53.5447 26.6238 54.0439 26.8554 54.5178C25.2885 54.6018 23.7837 55.1396 22.4785 56.1933C21.1281 57.2824 20.1954 58.3613 20.4839 60.178C20.6919 61.4771 21.1063 62.6972 21.6414 63.8921C22.3125 65.3962 23.3643 66.5037 24.6158 67.1927C18.2276 82.7095 11.3428 90.433 2.19157 104.612C1.47189 105.726 3.2518 106.762 3.96477 105.647C12.8492 91.7456 21.2539 83.7162 25.5871 67.6347C27.206 68.2061 29.053 68.149 30.8279 67.3877C30.8379 67.3843 30.8463 67.3793 30.8564 67.3742C31.4603 75.1839 34.131 80.8006 38.2142 87.3646C42.2975 93.9285 46.2549 97.1839 50.0026 104.634C47.3571 104.797 44.7098 104.884 42.0626 105.167C37.4073 105.664 32.7034 105.77 28.0246 105.75C19.2408 105.716 9.86818 104.607 1.21858 106.558C0.893125 106.632 0.886415 107.113 1.17999 107.222C0.284163 110.963 0.601226 114.546 1.81412 117.821C1.83257 117.946 1.87786 118.063 1.94665 118.173C2.50192 119.589 3.21993 120.942 4.0822 122.225C3.68965 122.67 3.63765 123.379 4.32545 123.71C4.75324 123.915 5.18102 124.095 5.6088 124.255C10.7053 130.325 19.0261 134.37 27.159 134.733C34.1914 135.049 41.2607 132.397 46.2968 127.856C49.1219 125.31 51.1165 122.067 52.4166 118.628C53.6413 115.4 54.8508 110.817 53.6312 107.409C53.8006 107.076 53.8392 106.672 53.6379 106.251C53.5943 106.16 53.549 106.069 53.5071 105.978C53.6044 105.916 53.7017 105.859 53.8023 105.795C54.3828 105.412 54.2318 104.269 53.4131 104.358C53.19 104.382 52.9669 104.394 52.7421 104.415C45.354 89.5289 35.411 83.1565 32.2689 66.586C34.5303 65.0281 36.03 62.4064 36.2397 59.6755C36.3874 57.7664 35.5117 55.8068 34.131 54.3867C57.9996 44.599 85.3576 40.9488 110.815 41.7639C111.018 41.7689 111.189 41.7252 111.333 41.6513C111.244 58.4604 111.155 75.2679 111.065 92.0754C111.004 103.821 110.917 115.565 110.842 127.309C110.768 138.698 110.427 150.077 111.063 161.443C101.278 162.411 92.1249 166.076 83.321 170.572C73.6514 175.508 64.2721 181.008 54.6109 185.973C54.017 185.704 53.289 186.282 53.6329 187.03C55.24 190.527 54.3744 194.127 53.9684 197.777C53.7486 199.747 53.6312 202.247 55.7064 203.175C56.1962 203.393 56.7448 203.138 56.7683 202.565C56.8773 199.821 56.5603 197.199 56.827 194.397C57.0837 191.72 56.7247 189.065 55.3105 186.798C55.4178 186.764 55.5252 186.732 55.6326 186.699C55.646 186.821 55.7047 186.941 55.8355 187.028C57.4762 188.115 59.241 189.025 61.0662 189.828C61.031 189.861 60.9991 189.9 60.974 189.952C59.5866 192.863 58.8099 195.796 58.3066 198.985C58.0583 200.562 57.7631 202.383 57.8419 204.116C57.7849 204.113 57.7245 204.125 57.6708 204.175C56.9058 204.886 56.5972 205.61 56.6139 206.329C55.7533 205.252 55.0488 204.009 54.4079 202.501C54.3643 202.397 54.1949 202.431 54.1731 202.531C53.4903 205.59 55.0135 208.649 56.7918 211.064C59.4356 214.657 62.7069 216.731 66.8505 218.307C77.3757 222.308 89.1456 222.408 100.249 221.942C102.809 221.834 105.368 221.707 107.926 221.561C112.368 221.717 116.797 221.35 121.244 220.987C127.488 220.475 133.69 219.665 139.83 218.556C142.09 218.263 144.345 217.902 146.497 217.307C146.775 217.23 147.049 217.142 147.317 217.048C156.046 215.097 164.63 212.507 173.006 209.235C173.991 208.85 174.142 207.75 173.754 207.042C173.959 206.81 174.095 206.501 174.105 206.104C174.246 200.668 174.149 195.068 173.489 189.646C174.155 189.156 174.264 188.04 173.674 187.366C170.032 183.215 165.727 180.699 161.09 177.792C156.574 174.958 152.197 171.926 147.547 169.316C139.782 164.96 131.276 162.369 122.491 161.505C122.33 159.846 122.132 158.194 122.038 156.601C121.942 154.968 121.855 153.334 121.771 151.701C122.251 131.606 122.489 111.493 122.477 91.3796C122.783 85.6824 123.085 79.9853 123.309 74.2814C123.741 63.3055 122.821 52.5902 122.065 41.7152C148.743 41.0917 177.353 50.1771 201.75 61.2841C201.738 61.3916 201.733 61.4807 201.735 61.5462C201.688 61.5883 201.641 61.6303 201.594 61.674C201.501 61.637 201.352 61.5681 201.111 61.4773C200.631 61.3009 200.008 61.7664 200.059 62.2807C200.094 62.6336 200.153 63.005 200.233 63.3848C199.564 64.6267 199.43 66.0636 200.265 67.6652C200.649 68.398 201.275 68.971 202 69.3979C199.93 72.7288 199.069 77.1034 197.96 80.8006C193.872 94.42 185.939 106.53 181.595 120.096C181.303 120.022 180.971 120.136 180.874 120.506C179.866 124.326 179.394 127.677 181.11 131.455C181.917 133.231 182.973 134.633 184.336 135.623C185.271 137.481 186.257 139.12 186.957 140.249C191.367 147.378 198.091 150.494 206.207 151.239C221.998 152.686 240.185 141.812 238.103 124.207C238.066 123.894 237.969 123.625 237.829 123.392Z" fill="#232625"/>
<path id="Fill 4" fill-rule="evenodd" clip-rule="evenodd" d="M118.261 213.824C117.911 209.562 117.576 205.13 116.757 201.017C116.614 200.297 115.827 200.4 115.868 201.198C116.093 205.461 116.083 209.968 116.78 214.127C116.986 215.352 118.369 215.126 118.261 213.824Z" fill="black"/>
<path id="Fill 5" fill-rule="evenodd" clip-rule="evenodd" d="M32.2818 123.54C38.4808 124.378 45.8919 122.474 50.7404 118.225C51.6385 117.437 50.4956 116.171 49.5671 116.632C46.7647 118.02 44.2004 119.62 41.2224 120.638C38.2681 121.646 35.2226 122.145 32.1704 122.674C31.6606 122.765 31.8581 123.482 32.2818 123.54Z" fill="#232625"/>
<path id="Fill 6" fill-rule="evenodd" clip-rule="evenodd" d="M45.7295 130.939C42.0851 130.731 35.4109 136.877 32.2603 133.042C32.1308 132.884 31.8667 133.02 31.8667 133.198C31.8857 138.629 44.5745 133.99 46.1853 131.704C46.4235 131.365 46.0989 130.959 45.7295 130.939Z" fill="#232625"/>
</g>
</svg>
