<svg width="278" height="214" viewBox="0 0 278 214" fill="none" xmlns="http://www.w3.org/2000/svg">
<g id="target icon">
<path id="Fill 143 Copy" fill-rule="evenodd" clip-rule="evenodd" d="M198.631 174.893C196.599 166.031 198.69 157.351 204.655 150.466C202.183 150.837 199.708 151.205 197.236 151.573C198.676 160.007 196.738 168.034 191.482 174.802C193.948 174.591 196.415 174.378 198.882 174.167C201.082 170.114 203.527 166.242 206.314 162.567C206.679 162.087 210.594 157.429 210.559 157.386C209.548 157.533 208.535 157.679 207.524 157.826C208.21 158.831 208.434 159.935 208.199 161.141C207.14 166.983 197.028 170.391 193.396 174.815C195.767 174.77 198.14 174.722 200.511 174.674C203.959 169.418 207.85 164.594 212.258 160.114C209.887 160.159 207.516 160.207 205.143 160.253C201.964 164.594 198.786 168.935 195.604 173.277C193.538 176.101 200.695 174.474 201.49 174.093C204.988 172.41 213.54 166.418 216.844 168.218C221.135 170.557 212.351 171.453 210.924 171.626C207.583 172.034 204.239 172.359 200.884 172.629C200.506 173.815 200.127 175.005 199.748 176.191C206.799 174.285 213.756 172.111 220.65 169.701C219.684 168.834 218.719 167.97 217.754 167.106C211.311 169.903 204.807 172.53 198.226 174.983C194.884 176.229 195.607 178.655 199.068 178.127C203.828 177.405 208.135 178.503 212.183 181.01C213.239 179.991 214.298 178.97 215.354 177.949C209.983 179.306 205.418 178.157 200.463 176.026C198.026 174.981 196.834 174.89 194.199 175.493C192.935 175.783 190.802 176.629 190.772 178.159C190.759 178.871 190.9 178.994 191.495 179.383C193.503 180.709 197.122 179.498 198.66 177.885C198.746 177.791 198.828 177.703 198.914 177.615C200.906 175.525 193.335 176.146 191.802 177.757C191.716 177.845 191.631 177.935 191.546 178.023C193.935 177.522 196.324 177.021 198.714 176.522C198.642 176.375 198.57 176.231 198.5 176.09C197.359 176.978 196.215 177.866 195.074 178.757C195.378 178.685 195.682 178.615 195.986 178.546C194.804 178.573 193.618 178.602 192.434 178.631C200.604 182.015 207.447 183.431 216.228 181.213C216.564 181.125 221.154 179.234 219.402 178.149C213.442 174.453 207.18 173.383 200.279 174.434C200.559 175.479 200.842 176.53 201.122 177.578C207.703 175.125 214.21 172.501 220.65 169.701C225.706 167.501 220.994 165.973 217.754 167.106C211.53 169.279 205.239 171.207 198.874 172.927C196.756 173.501 193.423 176.834 197.74 176.49C203.148 176.058 227.535 176.575 226.047 166.186C224.527 155.57 200.466 170.573 196.834 172.322C198.796 172.591 200.756 172.863 202.719 173.135C205.898 168.794 209.079 164.453 212.258 160.114C214.247 157.397 206.431 158.943 205.143 160.253C200.735 164.735 196.844 169.559 193.396 174.815C191.575 177.594 199.239 176.223 200.511 174.674C202.679 172.031 224.418 159.021 213.466 154.175C203.778 149.89 194.436 169.325 191.196 175.298C190.098 177.325 197.562 175.997 198.596 174.663C204.276 167.343 206.524 158.645 204.964 149.503C204.532 146.983 198.394 149.629 197.543 150.61C191.159 157.975 188.722 167.45 190.903 176.962C191.42 179.226 199.178 177.282 198.631 174.893Z" fill="#EB9078"/>
<path id="Fill 145 Copy" fill-rule="evenodd" clip-rule="evenodd" d="M194.177 176.415C191.82 176.738 190.855 176.917 189.036 178.655C187.945 179.701 187.711 181.343 186.708 182.346C182.583 186.471 176.468 184.967 171.295 184.391C162.623 183.426 154.332 179.253 146.439 184.519C144.263 185.973 147.449 187.226 148.98 186.205C154.257 182.682 162.532 186.167 168.236 186.93C172.769 187.538 177.78 188.037 182.38 187.546C184.031 187.367 185.657 187.263 187.14 186.399C189.556 184.991 191.596 179.458 193.809 179.154C195.905 178.869 196.809 176.053 194.177 176.415Z" fill="#304227"/>
<path id="Fill 146" fill-rule="evenodd" clip-rule="evenodd" d="M18.0761 157.143C16.9028 156.141 15.9268 155.077 15.2575 153.669C15.0281 153.186 14.2468 149.807 13.7775 150.114C12.4761 150.458 11.1775 150.807 9.87612 151.157C11.7135 151.173 12.4068 155.965 12.3615 157.09C14.9428 156.607 17.5241 156.122 20.1055 155.639C19.5908 153.378 20.0041 149.906 22.3401 148.666C20.5215 148.399 18.7028 148.13 16.8841 147.863C17.3135 149.794 17.0255 151.535 16.1988 153.322C15.9108 153.946 15.5615 154.554 15.2095 155.143C15.2441 155.09 13.9961 157.343 14.1481 157.263C15.4521 157.117 16.7561 156.967 18.0601 156.821C16.8521 156.615 15.7695 155.791 14.5881 155.455C13.2548 155.077 11.8255 154.965 10.4495 155.031C7.65212 155.167 5.03612 156.082 2.71612 157.634C1.42012 158.498 0.673452 159.919 2.13212 161.005C7.19345 164.77 13.6468 165.45 19.6388 163.823C20.7855 163.511 22.7508 162.629 22.9321 161.218C23.2575 158.703 23.5828 156.189 23.9108 153.674C24.3481 150.295 16.5268 151.573 16.1455 154.509C15.8201 157.021 15.4948 159.535 15.1695 162.047C16.2655 161.178 17.3641 160.311 18.4628 159.442C14.7241 160.455 11.2415 159.255 8.21212 157.005C8.01745 158.125 7.82279 159.25 7.63079 160.373C9.77745 158.938 11.9748 161.447 14.3001 161.517C16.6201 161.583 18.7935 160.487 20.2815 158.762C23.2815 155.279 25.6441 150.431 24.6095 145.791C24.1535 143.746 20.3268 144.367 19.1535 144.991C14.3615 147.538 11.1001 152.103 12.3775 157.709C13.0281 160.562 20.0228 158.826 20.1241 156.258C20.3401 150.823 16.4495 144.517 10.2308 146.727C3.72145 149.042 7.09212 157.021 10.9375 160.306C13.1988 162.237 20.4521 159.175 18.0761 157.143Z" fill="#B8B8D1"/>
<path id="Fill 141" fill-rule="evenodd" clip-rule="evenodd" d="M153.449 91.2391C153.408 89.3604 153.498 87.4385 153.685 85.4736C154.447 86.8718 155.086 88.3209 155.608 89.8162C154.889 90.292 154.169 90.7663 153.449 91.2391ZM157.435 106.427C156.233 104.333 155.338 102.185 154.704 99.9781C155.605 99.4206 156.506 98.8678 157.397 98.298C157.646 100.967 157.641 103.692 157.435 106.427ZM147.189 81.0079C140.337 90.5253 121.89 101.657 120.962 102.662C120.658 102.564 120.364 102.453 120.042 102.373C113.973 100.885 103.313 104.954 102.118 111.806C98.4884 116.538 98.1128 122.427 104.055 126.811C111.257 132.125 121.315 129.601 126.325 122.753C127.902 120.599 128.82 118.208 129.138 115.835C140.479 110.921 156.033 112.505 156.549 112.442C155.481 116.943 153.263 125.664 151.702 129.544C141.882 153.964 115.87 168.15 90.8982 156.416C80.2024 151.399 72.0711 142.075 68.2714 130.969C66.911 126.993 66.2479 122.93 66.1072 118.856C66.1165 108.23 69.0041 97.7498 75.9327 89.3049C85.0765 78.1652 99.2969 71.3264 113.471 69.4431C126.367 67.7307 140.717 70.1484 149.83 80.0762C150.001 80.2656 150.159 80.4612 150.326 80.6506C149.261 80.4458 147.803 80.1549 147.189 81.0079ZM119.033 123.979C116.663 122.693 114.286 121.335 112.667 119.253C112.936 119.276 113.207 119.205 113.398 118.973C114.024 118.215 114.683 117.498 115.352 116.792C116.051 116.645 116.751 116.501 117.445 116.337C118.02 116.605 118.656 116.754 119.358 116.691C121.163 116.529 123 116.357 124.852 116.192C124.587 117.485 124.124 118.782 123.456 119.998C122.418 121.885 120.945 123.305 119.237 124.272C119.218 124.159 119.167 124.053 119.033 123.979ZM118.393 124.709C114.918 126.312 110.661 126.181 107.077 124.363C103.016 122.302 102.089 119.252 102.985 116.229C103.417 116.467 103.97 116.463 104.341 116.044C106.247 113.897 107.008 111.155 109.054 109.108C109.852 108.309 110.787 107.698 111.798 107.24C107.949 114.181 109.583 122.73 118.393 124.709ZM111.416 117.13C111.364 117.003 111.342 116.869 111.297 116.742C111.497 116.933 111.744 117.079 112.029 117.176C111.951 117.404 111.873 117.63 111.783 117.856C111.658 117.616 111.523 117.385 111.416 117.13ZM115.559 108.725C115.459 108.837 115.352 108.945 115.266 109.068C115.176 109.173 115.086 109.275 114.998 109.381C114.143 110.405 113.653 111.538 113.281 112.721C112.896 112.876 112.517 113.043 112.132 113.197C111.466 113.462 111.047 113.91 110.834 114.412C110.702 111.899 111.508 109.194 112.479 106.971C114.026 106.393 115.706 106.141 117.337 106.158C117.496 106.159 117.637 106.184 117.792 106.192C117.045 107.034 116.286 107.864 115.559 108.725ZM196.745 132.455C192.502 146.596 184.643 159.742 176.116 171.723C168.575 182.302 159.233 191.634 147.859 198.071C130.27 208.034 106.972 209.528 86.7955 204.03C73.6866 199.426 62.2193 190.386 52.7818 180.439C44.1946 171.384 37.1871 160.604 32.3888 149.057C29.934 142.078 28.1268 134.896 26.9659 127.792C26.3537 121.877 26.3398 115.882 26.6799 109.946C27.8671 89.2048 35.2996 67.6799 47.8196 50.8563C55.8705 42.3468 65.6991 35.5511 76.0224 29.972C76.0796 29.9428 76.0394 29.8565 75.9806 29.8719C72.0248 30.8313 68.2328 32.1341 64.6123 33.7325C77.7908 23.7415 94.0023 18.2117 112.642 20.058C138.182 22.5897 165.78 37.476 182.191 57.0191C184.592 59.8772 186.731 62.8738 188.653 65.966C187.337 66.9654 186.025 67.9694 184.707 68.9657C176.714 75.0022 168.61 80.9771 160.308 86.6532C151.859 65.3115 125.062 59.1903 102.559 65.5009C88.7186 69.383 76.0672 77.7509 67.9313 89.6345C58.6762 103.152 58.3794 118.913 64.7144 133.627C65.0204 134.321 65.3389 135.011 65.6697 135.695C65.8799 136.137 66.237 136.317 66.6142 136.343C66.7812 136.764 66.9265 137.185 67.1058 137.603C72.9291 151.134 86.0674 160.789 100.252 164.038C137.999 172.662 164.556 133.211 162.951 99.3605C162.878 97.8283 162.71 96.3639 162.495 94.9333C171.017 89.174 179.198 82.9404 187.117 76.9117C188.897 75.5566 190.665 74.1907 192.437 72.8278C201.395 91.179 202.759 112.414 196.745 132.455ZM256.647 37.8487C252.048 37.4853 246.967 37.2112 242.166 36.3288C244.93 34.5717 247.759 32.9163 250.496 31.1208C253.165 29.3699 254.97 26.8675 257.328 24.7317C258.318 23.8308 257.269 22.3371 256.086 22.6066C253.738 23.141 250.68 23.1348 248.499 24.2004C245.244 25.7881 242.18 27.6375 239.103 29.5439C238.502 29.9166 237.91 30.3046 237.313 30.6835C239.637 27.0169 241.943 23.3442 244.177 19.5945C247.069 14.7407 252.402 8.14681 251.433 2.19812C251.337 1.61757 250.546 1.17408 249.999 1.38813C244.288 3.61176 241.612 11.5223 238.904 16.5224C235.627 22.5758 233.036 28.7355 230.541 35.1076C228.694 36.3534 226.857 37.6131 225.033 38.8912C226.045 36.0793 227.033 33.2551 228.05 30.4201C230.592 23.3458 235.539 16.4331 236.624 9.0415C236.828 7.65404 235.566 6.39593 234.177 7.16743C227.781 10.7246 225.61 18.7183 223.237 25.2368C221.072 31.1793 219.578 37.2235 218.689 43.4185C216.636 44.8984 214.589 46.386 212.553 47.8905C212.553 44.1654 213.19 40.5787 214.428 37.0492C216.331 31.6272 218.104 26.6427 219.429 21.1237C219.746 19.8024 218.264 19.1187 217.296 19.8871C214.322 22.2478 213.037 26.2038 211.132 29.5439C208.835 33.5723 206.424 37.6827 205.175 42.1315C203.941 46.531 201.516 50.2896 200.696 54.78C200.585 55.3929 200.529 56.2106 200.404 57.0191C198.136 58.7453 195.87 60.4716 193.605 62.2009C162.11 25.2368 116.186 1.97021 72.3573 24.2004C31.6794 44.8337 16.533 91.4707 23.5111 134.06C26.9676 155.171 35.6083 171.933 51.2138 186.885C54.4215 190.15 60.183 194.563 63.9565 197.227C79.5373 208.884 97.8943 212.392 118.381 212.392C130.749 211.221 142.116 206.207 152.486 200.001C174.191 187.02 189.668 161.357 198.579 138.367C207.599 115.091 207.752 91.6764 197.217 69.1567C200.179 66.8699 203.139 64.5847 206.102 62.3041C206.483 62.5936 206.917 62.8677 207.473 63.1264C208.767 63.73 209.1 63.2573 210.282 64.2551C211.977 65.6888 215.077 65.4161 217.296 65.8895C226.336 67.8185 234.177 67.8185 244.978 67.8185C246.513 67.8185 245.873 65.5179 244.605 64.9881C237.02 61.8174 228.242 63.3651 220.25 61.4864C217.205 60.7703 214.79 58.7222 212.049 57.749C215.302 55.2743 218.565 52.8151 221.853 50.3882C228.333 51.2228 234.585 52.8844 240.807 54.9155C247.204 57.0021 253.07 59.7986 259.866 58.7284C261.231 58.5143 261.104 56.7326 260.212 56.1013C254.445 52.022 247.105 50.8071 240.34 48.9792C236.016 47.8088 231.703 46.8772 227.321 46.4506C230.68 44.0499 234.076 41.7031 237.51 39.4102C242.565 42.1651 248.246 43.3569 254.026 44.1654C260.461 45.0663 269.761 47.39 275.558 43.4463C276.561 42.7641 276.547 41.4598 275.558 40.7745C270.42 37.2112 262.594 38.3168 256.647 37.8487Z" fill="#232625"/>
</g>
</svg>
