<svg width="246" height="170" viewBox="0 0 246 170" fill="none" xmlns="http://www.w3.org/2000/svg">
<g id="cycle icon">
<path id="Fill 168 Copy" fill-rule="evenodd" clip-rule="evenodd" d="M56.1796 45.4678C51.1103 33.9318 49.2703 21.9478 50.7476 9.41446C49.4596 9.67846 48.1769 9.94246 46.8889 10.2065C52.4943 21.9558 50.5529 34.7718 51.9316 47.3291C52.0596 48.4678 55.8116 47.5745 55.7956 46.2918C55.6836 36.1051 54.7903 26.0385 53.1049 15.9905C52.9156 14.8598 49.3076 15.7691 49.2489 16.7851C48.6463 27.5505 50.7769 37.8331 53.2356 48.2625C53.5129 49.4385 57.3876 48.4571 57.0969 47.2305C54.6836 36.9745 52.5049 26.8358 53.0943 16.2358C51.8116 16.4971 50.5289 16.7638 49.2409 17.0251C50.9289 27.0758 51.8223 37.1371 51.9316 47.3291C53.2196 46.9825 54.5103 46.6385 55.7956 46.2918C54.4196 33.7371 56.3583 20.9238 50.7556 9.17179C50.2516 8.12112 47.0276 8.86779 46.8996 9.96379C45.4089 22.6438 47.1743 34.7985 52.3129 46.5051C52.8463 47.7105 56.6303 46.4971 56.1796 45.4678Z" fill="#6F9157"/>
<path id="Fill 201 Copy" fill-rule="evenodd" clip-rule="evenodd" d="M58.1795 53.137C53.7342 45.1317 47.4702 38.4383 39.4675 33.8783C34.4195 31.0037 26.1475 26.9557 20.0888 28.0037C14.5395 28.961 16.7582 33.4677 19.6142 36.9077C25.5742 44.0917 35.8115 48.7957 44.2702 52.1637C45.4862 51.7397 46.7048 51.313 47.9208 50.889C45.4648 50.0277 25.5715 44.929 25.7075 51.4143C25.7875 55.4063 36.8462 57.193 39.7982 57.6117C45.4408 58.4143 50.9235 57.825 56.4302 56.529C58.6782 56.001 58.4222 54.9477 56.1502 55.481C50.4088 56.8357 39.0008 57.6677 33.6168 53.537C32.2782 52.5103 30.0275 51.6677 32.8995 49.8783C34.5342 48.8597 42.8595 51.6703 44.2702 52.1637C45.2595 52.5103 48.2035 51.001 47.9208 50.889C41.7342 48.4223 35.8222 45.433 30.3502 41.6117C27.3848 39.5423 24.1342 37.2437 22.1475 34.145C20.0968 30.9423 19.5208 29.7583 23.5288 30.2357C36.4302 31.7717 48.3742 43.481 54.3155 54.1743C54.8008 55.0463 58.4355 53.601 58.1795 53.137Z" fill="#B8B8D1"/>
<path id="Fill 206 Copy" fill-rule="evenodd" clip-rule="evenodd" d="M56.4034 55.4998C44.3927 57.5158 31.7181 58.1932 21.3821 65.2038C20.2807 65.9505 20.6327 67.0598 21.9127 67.1878C35.5954 68.5345 48.8781 64.6412 59.0674 55.2812C60.6301 53.8438 57.6087 53.3878 56.6701 53.8652C49.8114 57.3532 42.7901 59.5745 35.1794 60.7052C31.1047 61.3132 27.5767 61.7985 23.9634 63.8465C22.8514 64.4758 23.2114 65.8465 24.4941 65.8305C32.4674 65.7398 39.8514 64.2225 47.1874 61.0812C46.6461 60.4358 46.1047 59.7878 45.5661 59.1398C42.7634 60.3398 39.9447 61.2945 36.9954 62.0572C37.3687 62.7665 37.7421 63.4705 38.1127 64.1772C40.2594 63.1078 42.3527 62.2038 44.6007 61.3718C47.1047 60.4465 44.8647 58.7345 42.9794 59.4305C40.7314 60.2598 38.6407 61.1665 36.4941 62.2385C34.4674 63.2465 35.7101 64.8492 37.6114 64.3558C40.9287 63.4972 44.0407 62.4305 47.1874 61.0812C49.6381 60.0305 47.4381 58.3398 45.5661 59.1398C39.2381 61.8492 32.8087 63.2438 25.9127 63.3238C26.0887 63.9852 26.2674 64.6492 26.4434 65.3105C31.3341 62.5345 37.9847 62.9372 43.4274 61.5398C48.6141 60.2065 53.5234 58.2305 58.2941 55.8038C57.4941 55.3345 56.6967 54.8598 55.8967 54.3878C46.9127 62.6438 35.3581 65.8625 23.3314 64.6812C23.5101 65.3425 23.6861 66.0038 23.8647 66.6652C33.1687 60.3558 45.1341 59.8092 55.9714 57.9932C57.9447 57.6625 59.0434 55.0572 56.4034 55.4998Z" fill="#6F9157"/>
<path id="Fill 97" fill-rule="evenodd" clip-rule="evenodd" d="M225.438 143.43C224.404 144.481 225.968 145.46 224.834 146.403C221.559 140.565 217.734 134.917 214.27 129.257C210.974 123.872 207.555 118.607 203.772 113.592C204.072 112.302 204.035 110.929 203.737 109.699C203.711 109.592 203.689 109.484 203.664 109.377C215.692 114.392 227.359 120.517 237.694 128.421C235.689 133.842 229.863 138.929 225.438 143.43ZM183.556 156.839C182.858 156.708 182.168 156.552 181.48 156.397C185.874 144.588 188.784 132.445 193.8 120.899C194.395 121.03 195.025 121.102 195.688 121.066C196.597 121.007 197.409 120.792 198.135 120.457C200.805 132.278 202.728 144.254 205.765 155.991C198.498 157.866 190.829 158.2 183.556 156.839ZM143.402 147.096C141.449 140.959 138.559 135.12 135.15 129.651C133.575 127.12 131.886 124.66 129.985 122.368C130.602 121.365 131.087 120.278 131.401 119.168C134.46 119.801 137.617 120.171 140.793 120.362C141.804 124.063 143.372 127.741 145.11 131.251C147.482 136.039 149.993 140.541 153.078 144.624C152.994 144.72 152.903 144.803 152.818 144.899C152.028 145.782 153.372 146.976 154.182 146.117C154.194 146.105 154.204 146.093 154.216 146.081C154.354 146.248 154.496 146.415 154.635 146.582C154.167 146.618 153.699 146.63 153.231 146.666C149.954 146.797 146.679 146.953 143.402 147.096ZM120.206 122.917C117.844 122.607 115.837 120.099 114.976 118.129C114.396 116.792 114.246 115.538 114.406 114.368C116.256 114.714 118.339 113.914 119.362 111.729C120.395 112.051 121.42 112.636 122.414 113.568C122.842 113.974 123.209 114.547 123.507 115.192C123.281 115.228 123.052 115.239 122.826 115.275C122.44 115.323 122.209 115.741 122.336 116.051C121.97 115.896 121.604 115.741 121.249 115.61C120.096 115.168 119.22 115.956 118.1 115.789C117.764 115.741 117.581 116.195 117.896 116.362C118.655 116.768 119.304 118.416 119.964 119.072C120.806 119.92 121.492 120.983 122.144 122.045C121.462 122.475 120.818 122.762 120.206 122.917ZM101.873 124.911C100.214 136.768 92.6811 146.093 83.2128 152.946C69.3784 162.964 50.9828 163.49 35.695 157.388C39.1955 152.135 41.2307 145.567 43.0803 139.705C44.5181 135.156 45.6638 130.499 46.5772 125.795C46.594 125.818 46.6108 125.842 46.6275 125.854C47.5362 126.953 48.7824 126.845 50.0981 126.833C51.1767 126.833 52.2362 126.523 53.1808 125.998C53.8632 126.177 54.5743 126.177 55.2543 126.021C55.4542 137.15 55.787 148.242 61.5992 158.164C62.1284 159.06 63.4919 158.164 62.9556 157.269C57.2631 147.741 56.7747 136.588 56.0599 125.759C56.8824 125.401 57.5947 124.78 58.0269 123.896C59.1666 121.568 59.8023 119.359 59.6299 116.911C64.2425 116.195 68.4518 114.487 72.8238 112.338C80.4796 108.565 87.8003 104.529 95.6728 101.21C96.6425 100.804 96.1744 99.4187 95.1568 99.6695C82.2897 102.762 72.2719 112.386 59.5173 115.944C59.4862 115.741 59.4647 115.55 59.424 115.347C63.9552 112.457 67.7682 108.207 71.2292 104.29C74.3442 100.756 77.2856 97.1023 80.2773 93.4845C84.2351 91.6696 88.2839 90.1412 92.4034 88.7323C92.9121 89.4367 93.403 90.1412 93.8759 90.8576C100.427 100.78 103.523 113.126 101.873 124.911ZM18.7588 146.535C26.9474 138.212 33.6958 127.024 44.1781 121.723C44.4188 121.974 44.6953 122.189 44.9982 122.38C45.0233 122.618 45.0568 122.857 45.1035 123.096C45.2029 123.609 45.4196 124.099 45.6913 124.565C43.1653 135.777 39.1584 146.212 33.867 156.624C28.2104 154.129 23.0363 150.714 18.7588 146.535ZM8.15317 108.302C8.46562 107.132 8.84393 106.01 9.25216 104.911C15.7396 108.457 22.4449 111.562 29.2699 114.428C31.5864 115.407 34.0178 116.457 36.5079 117.472C34.9372 117.974 33.3714 118.499 31.8019 119.048C26.034 121.03 20.1942 122.117 14.3664 123.753C13.9929 123.86 14.0049 124.493 14.4083 124.541C22.5574 125.46 30.7256 121.484 38.7263 118.368C40.2802 118.989 41.8461 119.574 43.4191 120.111C43.4443 120.326 43.4682 120.553 43.5353 120.756C43.5819 120.887 43.6514 121.03 43.7256 121.15C32.8255 125.735 25.8795 137.066 17.582 145.329C8.71703 135.991 4.20134 123.132 8.15317 108.302ZM30.1713 76.2667C39.3823 70.9056 49.2756 66.9773 60.2632 68.1355C60.2716 68.1355 60.2799 68.1474 60.2895 68.1474C60.2201 68.3982 60.1387 68.637 60.0716 68.8877C56.7244 81.413 54.7227 93.9621 50.7912 106.177C49.6264 102.141 48.2353 98.1889 46.8382 94.1651C44.2883 86.8457 42.7332 79.4906 41.0476 71.9325C40.9386 71.4549 40.285 71.6698 40.2562 72.0877C39.7774 79.1801 42.3465 86.2368 44.6773 92.8278C46.4659 97.8784 48.4209 102.869 50.2142 107.932C49.9006 108.851 49.5749 109.771 49.2349 110.702L47.6176 110.786C47.3326 110.81 47.0645 110.845 46.8047 110.917C43.8896 107.192 39.6193 104.875 35.4903 102.583C32.5705 100.959 29.6302 99.3948 26.793 97.6277C23.3942 95.5143 21.0885 92.6248 18.1243 90.1054C21.9445 85.3771 26.2339 80.9712 30.1713 76.2667ZM75.9041 48.6611C76.3901 49.3058 76.8882 49.9626 77.2174 50.8342C79.7206 57.5207 83.8712 63.5982 88.0313 69.3295C91.053 73.4966 94.0231 77.5563 96.8269 81.6637C96.3791 82.3085 96.1481 83.0846 96.2822 83.9323C96.087 83.9204 95.8895 83.9204 95.6884 83.9204C89.1794 75.8011 80.5431 69.3534 70.7946 65.64C70.5324 65.5325 70.2679 65.449 70.0045 65.3534C71.7487 59.7296 73.9419 54.2133 75.9041 48.6611ZM89.5218 44.1119C97.6745 42.894 106.017 42.7985 114.244 42.691C121.06 42.6074 133.192 42.7388 140.001 42.691C134.255 52.0043 130.444 62.8341 126.733 72.9354C123.916 80.601 119.305 91.5263 117.178 99.562C108.461 90.7263 103.195 79.6816 98.276 72.6011C93.9734 66.4161 89.5667 60.3027 85.488 53.9506C83.8562 51.4193 80.0618 45.7835 83.1146 45.2462C86.1673 44.7089 83.0894 45.2223 83.0787 45.2104C85.2312 44.876 87.3825 44.4343 89.5218 44.1119ZM148.985 35.6582C149.07 35.5747 149.15 35.4911 149.235 35.4075C149.373 35.5269 149.525 35.6224 149.684 35.706C149.45 35.6941 149.218 35.6702 148.985 35.6582ZM175.908 60.4341C181.161 57.5565 186.315 56.2073 191.283 56.0282C190.368 63.9087 192.848 72.9951 193.399 80.7324C193.847 87.0129 194.043 93.7352 192.958 100.123C192.844 99.9322 192.719 99.7411 192.603 99.562C191.981 86.4636 185.536 72.1474 178.295 61.9505C178.033 61.5923 177.408 61.8669 177.569 62.3087C179.907 68.7206 183.688 74.6429 186.456 80.8995C188.845 86.2845 190.368 91.8009 191.312 97.4844C185.595 88.4218 178.874 80.016 171.942 71.8489C170.725 69.8788 169.497 67.9206 168.239 65.9743C170.473 63.8967 172.997 62.0341 175.908 60.4341ZM232.75 85.7114C222.053 90.5352 212.692 97.6993 202.45 103.323C207.324 92.4695 214.519 82.7264 220.142 72.2429C220.514 71.5504 219.432 71.0011 219.058 71.6937C213.305 82.2846 206.258 92.0994 201.769 103.252C200.906 102.249 199.65 101.46 198.556 101.353C196.777 101.186 195.177 101.162 193.753 101.472C195.195 95.8128 195.311 89.8188 195.212 83.9084C195.121 78.4637 194.64 73.019 194.176 67.5743C193.856 63.8012 193.842 59.7535 192.992 56.0043C209.847 56.3267 224.348 70.2847 232.75 85.7114ZM238.461 99.4784C226.607 101.663 214.995 105.066 202.99 106.225C202.918 105.854 202.844 105.496 202.772 105.126C202.725 104.887 202.638 104.649 202.529 104.41C212.987 98.8814 222.546 91.7292 233.454 87.0248C234.487 89.0188 235.425 91.0248 236.245 93.0188C237.119 95.1561 237.858 97.3053 238.461 99.4784ZM156.52 120.433C167.707 120.171 178.849 119.144 190.01 118.416C190.136 118.583 190.265 118.738 190.404 118.893C178.722 124.612 166.822 131.466 157.31 140.35C153.961 135.812 151.534 130.63 149.212 125.532C148.483 123.932 147.792 122.272 147.178 120.565C150.359 120.577 153.502 120.505 156.52 120.433ZM145.081 112.362C148.135 105.914 150.432 98.9411 152.959 92.1472C164.456 96.4456 174.451 108.672 186.669 110.177C186.741 110.583 186.991 110.917 187.433 111.025C185.598 111.168 183.761 111.311 181.926 111.454C179.464 111.55 176.996 111.753 174.527 112.063C169.05 112.529 163.573 113.019 158.093 113.448C153.874 113.783 149.617 113.914 145.354 114.022C145.248 113.472 145.156 112.911 145.081 112.362ZM187.216 105.616C186.183 104.505 185.218 103.335 184.285 102.141C184.873 102.666 185.484 103.192 186.116 103.681C186.488 104.326 186.855 104.971 187.216 105.616ZM162.352 72.7922C166.696 79.0846 171.011 85.3771 175.452 91.5979C175.757 92.0278 176.063 92.4457 176.369 92.8755C179.426 98.4396 182.942 103.86 187.435 108.302C187.36 108.422 187.275 108.541 187.195 108.66C174.782 106.01 165.71 94.4039 153.753 90.0457C156.098 83.9204 158.721 77.9981 162.352 72.7922ZM17.2923 91.1322C19.3658 95.9203 25.4246 98.9172 29.7248 101.258C35.3562 104.314 41.129 106.953 45.8769 111.251C44.3302 112.063 43.4706 113.771 43.6155 115.502C42.4183 115.777 41.2307 116.087 40.0479 116.422C36.6324 115.335 33.2097 114.284 29.9547 113.102C22.9704 110.559 16.1155 107.657 9.46047 104.362C11.3532 99.4665 14.1234 95.168 17.2923 91.1322ZM42.1717 117.102C42.726 116.911 43.2791 116.72 43.8333 116.553C43.8381 116.565 43.8465 116.589 43.8513 116.601C43.7974 116.768 43.7424 116.947 43.7029 117.114C43.6717 117.257 43.6406 117.424 43.6083 117.58C43.1294 117.424 42.6529 117.257 42.1717 117.102ZM86.5421 83.3592C85.3054 84.5532 84.1298 85.8069 82.9877 87.0965C81.0423 87.789 79.1113 88.5173 77.203 89.3412C74.859 90.3323 75.0816 93.1621 77.2257 94.1053C75.5222 96.2904 73.8414 98.4993 72.1175 100.649C68.1908 105.544 63.9624 109.687 59.2324 113.532C59.0445 112.887 58.7069 112.314 58.2615 111.836C60.0573 107.932 61.2209 103.693 62.351 99.5142C64.7777 90.5352 66.164 81.2935 68.1608 72.219C68.3153 71.5026 68.5044 70.8101 68.6804 70.1056C76.6104 72.9474 83.6916 78.3324 89.2285 84.7323C88.5401 84.9592 87.8565 85.2099 87.1718 85.5204C87.4435 85.2219 87.7057 84.9353 87.9786 84.6487C88.8406 83.7293 87.4244 82.4995 86.5421 83.3592ZM131.656 114.487C131.655 114.475 131.655 114.463 131.652 114.451C130.746 109.64 127.268 106.38 123.07 104.135C122.753 103.968 122.444 103.801 122.138 103.646C125.717 92.9233 129.181 82.1532 132.724 71.419C135.274 63.6937 137.984 55.9565 141.118 48.4581C141.365 47.8611 141.698 46.8939 142.108 45.7835C143.935 47.8969 145.784 49.9864 147.541 52.1118C151.822 57.2938 155.574 62.8818 159.353 68.434C153.113 76.9473 142.31 107.287 139.695 114.177C137.008 114.248 134.328 114.332 131.656 114.487ZM179.831 155.967C171.641 153.627 164.294 148.803 158.815 142.26C158.708 142.141 158.612 141.997 158.509 141.878C168.13 133.054 179.755 126.081 191.036 119.502C191.558 119.956 192.147 120.314 192.792 120.577C186.723 131.383 183.295 144.242 179.834 155.908C179.828 155.92 179.834 155.943 179.831 155.967ZM207.223 155.609C204.12 143.824 201.933 131.812 198.964 120.004C199.971 119.335 200.757 118.392 201.289 117.293C201.538 117.078 201.792 116.863 202.039 116.636C202.604 116.135 203.019 115.526 203.327 114.857C206.65 119.872 209.753 125.042 212.817 130.212C216.238 135.968 219.282 142.2 222.959 147.884C218.258 151.37 212.888 153.973 207.223 155.609ZM238.319 126.606C227.644 118.559 215.783 112.613 203.333 107.884C203.292 107.681 203.244 107.49 203.203 107.287C215.299 106.75 226.974 103.275 238.907 101.198C240.989 109.783 240.894 118.523 238.319 126.606ZM173.266 56.4461C170.315 57.9505 167.72 59.7416 165.415 61.7714C161.521 56.1834 157.238 50.8461 152.737 45.7477C151.749 44.6253 150.682 43.5029 149.55 42.4283C149.644 42.4283 149.739 42.4164 149.834 42.4164C152.7 42.3686 156.4 42.7865 159.071 41.6403C160.93 40.8403 161.833 37.6403 159.441 36.7448C157.112 35.8851 154.483 35.9926 151.996 35.8732C152.525 35.6702 153.005 35.2881 153.335 34.703C153.542 34.3209 153.777 33.9747 154.013 33.6403C154.064 33.6165 154.111 33.6165 154.16 33.6045C155.904 32.9836 157.41 32.0404 158.949 31.1449C162.902 30.5837 166.849 29.8553 170.688 28.912C173.7 28.1598 179.448 27.515 182.047 24.9957C183.227 24.4942 184.253 23.7778 184.993 22.727C185.923 21.4136 185.884 20.0763 184.781 18.8704C183.166 17.1032 181.089 16.7211 178.909 16.7928C178.367 16.7808 177.812 16.8405 177.262 16.9241C176.171 17.0555 175.08 17.2465 174.027 17.3778C168.605 18.0823 163.22 19.0614 157.819 19.9092C148.357 21.3778 137.667 23.6584 128.025 23.0494C128.005 23.0375 127.982 23.0375 127.961 23.0255C126.994 22.5957 126.167 23.5867 126.651 24.4822C129.074 28.9717 134.354 30.9896 139.928 31.7896C139.415 32.721 138.957 33.7 138.569 34.7269C129.815 33.8911 121.123 33.5568 112.316 33.6284C103.74 33.7 95.1149 34.4165 86.7037 36.1358C83.9885 36.6851 81.3392 37.4254 78.8814 38.6075C79.9696 33.3777 80.3276 27.9688 80.0618 22.6315C80.2606 22.3927 80.3946 22.0823 80.3851 21.6644C80.3839 21.5569 80.3659 21.4733 80.3623 21.3659C84.8864 23.9091 89.4847 26.3091 94.2542 28.3867C94.6408 28.5538 95.0144 28.6255 95.3807 28.6732C95.6501 28.7926 95.9589 28.8523 96.33 28.8165C96.7036 28.7688 97.0699 28.6971 97.435 28.6255C97.5368 28.6016 97.6373 28.5897 97.7379 28.5538C99.6701 28.1121 101.514 27.324 103.491 27.1091C104.799 26.9658 105.337 25.7957 105.16 24.8046C105.318 24.7091 105.473 24.6136 105.628 24.53C106.586 23.9927 106.753 22.942 106.419 22.0823C106.49 22.0345 106.56 21.9867 106.632 21.9509C108.885 20.6853 106.677 17.4614 104.441 18.6435C102.161 19.8375 99.6749 20.5897 97.2878 21.5688C90.197 18.8704 83.1481 15.7182 76.2285 12.3749C75.0409 11.36 73.657 10.5122 72.1618 9.74807C72.218 9.60479 72.2803 9.27047 72.2958 9.11525C72.3928 8.07645 72.0468 6.85855 70.9933 6.38095C70.8581 6.32125 70.7276 6.27349 70.5947 6.23767C70.8712 5.48544 70.7335 4.76903 70.3169 4.17202C70.3349 4.14814 70.354 4.11232 70.3696 4.0765C71.2088 2.42875 69.5124 -0.0309216 67.585 0.852651C65.2697 1.90339 61.75 3.44367 60.754 5.97498C60.5972 6.38095 60.5289 6.75109 60.511 7.1093C59.9759 8.13615 60.1291 9.50927 61.4663 10.2854C61.7728 10.4525 62.0745 10.6436 62.3786 10.8227C62.4959 11.4078 62.9161 11.9331 63.5566 12.0406C63.9708 12.1122 64.3886 12.1839 64.8052 12.2555C68.8313 14.6316 72.8406 17.0435 76.8882 19.3838C77.0151 19.6704 77.124 19.9808 77.2293 20.2912C74.3957 35.4075 66.565 48.9238 61.7285 63.4549C49.6025 62.1176 37.6045 66.9056 27.6334 74.2369C17.8023 78.798 10.7929 88.9711 5.95518 98.3202C1.65977 106.607 -0.17189 116.135 1.02647 125.401C3.29868 142.953 16.7464 156.97 32.4855 163.931C49.8503 171.597 70.2212 169.842 86.0488 159.49C105.175 146.976 112.265 124.947 105.946 103.395C104.807 99.5262 103.22 95.8008 101.28 92.2785C103.485 95.4665 105.828 98.559 108.209 101.64C108.918 103.275 109.583 104.935 110.198 106.643C110.119 106.654 110.051 106.702 110.028 106.81C109.885 107.478 109.763 108.183 109.662 108.899C109.156 109.878 108.746 110.917 108.461 112.016C106.106 121.078 117.374 132.875 125.239 127.323C126.846 130.451 128.147 133.747 129.619 136.935C131.275 140.517 132.968 144.469 135.183 148.015C133.69 148.588 132.598 149.615 132.7 151.466C132.827 153.77 134.652 154.606 136.743 154.857C136.874 154.893 137.012 154.905 137.158 154.905C138.542 155.012 139.98 154.917 141.11 154.821C141.975 155.49 142.897 156.099 143.896 156.6C144.559 156.946 145.576 156.421 145.447 155.597C145.393 155.251 145.311 154.905 145.25 154.558C149.763 154.272 154.276 153.997 158.779 153.615C159.653 153.532 160.343 153.233 160.862 152.815C161.1 153.006 161.333 153.209 161.576 153.4C174.262 163.418 191.166 165.675 206.602 161.949C221.84 158.272 235.395 147.681 241.948 133.412C250.212 115.43 244.777 95.2755 235.142 79.0369C222.146 57.1147 197.607 44.0283 173.266 56.4461Z" fill="#232625"/>
</g>
</svg>
