<svg width="180" height="226" viewBox="0 0 180 226" fill="none" xmlns="http://www.w3.org/2000/svg">
<g id="plant icon">
<path id="Fill 96 Copy" fill-rule="evenodd" clip-rule="evenodd" d="M15.3058 222.192C13.6927 222.106 9.49365 222.582 8.18226 221.758C3.52155 218.831 9.88445 218.471 11.0385 218.171C11.563 218.034 14.5399 216.761 13.3229 215.701C9.4648 212.326 2.50653 204.378 7.25379 198.965C5.78765 199.46 4.31888 199.951 2.85274 200.446C3.99103 200.569 7.01249 205.388 7.69179 206.309C9.83462 209.22 11.7388 212.29 13.4908 215.454C14.3327 216.974 19.1377 216.167 19.1849 214.312C19.3265 208.66 19.5311 202.332 23.7695 198.071C22.0621 198.184 20.3546 198.297 18.6472 198.41C20.3704 204.341 19.8353 210.028 17.1129 215.548C16.1162 217.568 21.6896 216.014 22.2326 215.601C23.9741 214.265 27.0926 212.04 24.8475 215.669C23.8272 217.316 21.4457 218.891 19.8432 219.778C18.1436 220.719 14.477 222.303 12.4495 221.821C9.67463 221.156 17.4958 220.806 18.1699 220.843C18.92 219.796 19.6675 218.752 20.415 217.705C16.2893 217.511 11.4739 218.055 9.13958 221.908C7.70229 224.278 12.7905 223.108 13.5406 222.731C15.9326 221.529 21.7919 217.074 18.8203 214.081C17.6899 212.945 15.8251 213.06 14.3721 213.4C10.59 214.286 9.01631 217.479 4.61001 217.881C2.72422 218.052 -0.50706 221.069 3.08355 220.975C6.57448 220.877 14.5478 219.544 16.1031 215.759C16.8847 213.862 15.29 212.484 14.2383 211.048C11.8306 207.75 9.28645 204.544 6.81316 201.298C5.69847 199.833 0.2247 201.674 1.50987 203.502C4.53657 207.816 8.65174 213.56 13.5275 215.94C17.4276 217.847 21.7185 215.896 25.1465 213.862C23.6803 213.589 22.2142 213.313 20.7481 213.039C19.3659 214.92 17.8604 216.532 16.0742 218.039C13.7321 220.017 18.3692 220.078 19.4576 219.583C22.8883 218.026 25.9123 216.109 28.6925 213.56C31.0924 211.361 25.4796 211.485 24.1446 212.708C22.0201 214.654 19.8642 216.159 17.2388 217.353C18.3666 217.866 19.4944 218.379 20.6222 218.891C22.6811 217.153 24.4383 215.275 26.0382 213.097C27.6355 210.919 22.3558 211.848 21.6372 212.274C16.2316 215.48 9.32055 204.872 6.81316 201.298C5.0454 202.032 3.27763 202.768 1.50987 203.502C3.36681 205.94 5.22375 208.376 7.08068 210.814C7.70753 211.64 9.31006 213.073 9.5566 214.065C10.5008 214.757 10.3749 215.42 9.17367 216.051C8.37897 217.466 7.09642 218.06 5.32866 217.837C4.81984 218.868 4.30839 219.896 3.79957 220.927C6.3227 220.698 8.73042 220.167 11.0149 219.031C11.3821 218.852 14.6212 217.034 14.4717 216.803C15.0094 217.645 10.4667 220.922 10.0313 221.143C11.4975 221.416 12.9636 221.693 14.4298 221.966C15.5497 220.953 16.7955 220.577 18.1699 220.843C20.2707 220.94 24.2521 217.905 20.415 217.705C17.3988 217.547 4.9536 216.745 4.84082 222.166C4.72541 227.682 17.3253 224.054 19.9324 223.01C23.1453 221.724 33.7519 215.996 31.7507 211.34C29.537 206.182 19.8144 213.115 17.6846 214.746C19.3921 214.762 21.0969 214.78 22.8043 214.799C25.637 209.057 26.13 203.01 24.3465 196.879C23.8377 195.13 20.0425 196.393 19.2216 197.219C14.3327 202.132 13.6639 208.376 13.4934 215.062C15.3923 214.683 17.2912 214.302 19.1901 213.923C16.5542 209.154 13.5905 204.617 10.1074 200.425C8.2452 198.189 6.56137 196.422 3.49795 197.821C0.835811 199.036 0.198472 202.282 0.306006 204.98C0.518453 210.377 4.16938 214.536 8.02227 217.905C8.78288 217.079 9.54611 216.259 10.3067 215.433C7.54492 216.153 -0.559516 216.361 0.030613 221.322C0.599759 226.109 10.089 225.167 13.0607 225.33C15.1694 225.446 19.1377 222.4 15.3058 222.192Z" fill="#B8B8D1"/>
<path id="Fill 62" fill-rule="evenodd" clip-rule="evenodd" d="M93.5982 215.993C93.6887 215.615 93.7227 215.237 93.6887 214.847C93.6321 214.322 93.1906 213.785 92.6472 213.993C91.6737 214.371 90.9378 215.127 90.236 215.956C89.0813 215.81 87.9605 215.505 86.9191 214.981C84.021 213.517 82.7418 210.382 83.4323 207.077C83.5116 206.65 82.9795 206.503 82.8323 206.894C81.4852 210.626 81.2362 214.005 84.2587 216.945C85.1531 217.823 86.387 218.384 87.6323 218.738C87.5417 218.811 87.4511 218.896 87.3379 218.957C84.6663 220.665 81.2928 220.079 78.5079 219.14C77.523 218.799 76.8325 220.494 77.7947 220.945C80.806 222.385 83.9191 223.263 87.1455 222.189C88.4473 221.763 90.1567 220.726 91.5152 219.384C93.2359 219.555 95.2623 219.482 95.9189 217.859C96.0547 217.506 96.0208 217.225 95.8057 216.92C95.251 216.164 94.4472 216.005 93.5982 215.993Z" fill="#232625"/>
<path id="Fill 63" fill-rule="evenodd" clip-rule="evenodd" d="M117.037 214.306C117.197 214.363 117.357 214.42 117.506 214.466C116.992 214.762 116.466 215.023 115.929 215.285C116.306 214.978 116.683 214.659 117.026 214.318C117.037 214.306 117.037 214.306 117.037 214.306ZM149.185 196.522C149.071 195.907 148.145 195.816 147.871 196.351C145.928 200.086 144.556 203.695 140.797 206.018C138.134 207.646 134.637 208.021 131.768 206.849C131.791 206.78 131.814 206.723 131.837 206.655C132.043 206.109 131.266 205.699 130.888 206.097C130.82 206.166 130.751 206.234 130.683 206.314C130.1 205.972 129.551 205.551 129.06 205.061C128.808 204.799 128.408 205.13 128.568 205.437C128.934 206.109 129.346 206.689 129.803 207.202C128.843 208.124 127.837 209.012 126.774 209.809C126.854 209.638 126.934 209.479 127.003 209.308C127.334 208.545 126.534 207.919 125.871 208.443C124.374 209.604 122.957 210.765 121.506 211.847C120.272 211.87 119.015 211.688 117.86 211.448C117.643 209.741 117.289 208.101 116.957 206.393C116.877 205.995 116.238 205.995 116.158 206.393C115.758 208.5 115.289 210.469 115.129 212.621C115.106 212.974 115.243 213.27 115.46 213.509C112.763 214.42 109.678 215.217 106.901 214.693C104.032 214.158 100.787 211.437 99.6324 208.784C99.4838 208.465 98.9581 208.693 99.061 209.023C100.112 212.393 101.027 214.818 103.849 216.492C102.432 216.23 101.004 215.9 99.5524 215.593C98.7181 215.422 98.3524 216.435 98.9924 216.913C105.621 221.866 116.055 220.534 122.466 215.228C123.62 215.171 124.763 214.91 125.906 214.386C128.591 213.099 130.043 210.959 131.14 208.42C132.545 209.433 134.191 209.9 135.917 209.946C135.505 210.253 135.048 210.606 135.071 211.05C135.094 211.619 135.803 211.539 136.202 211.494C136.317 211.483 136.362 211.312 136.237 211.3C135.357 211.164 135.665 210.936 136.282 210.606C137.037 210.219 137.951 210.002 138.751 209.65H138.762C140.385 209.262 141.985 208.579 143.425 207.634C143.585 207.555 143.745 207.475 143.894 207.384C143.996 207.316 144.088 207.224 144.156 207.133C147.608 204.606 149.962 200.655 149.185 196.522Z" fill="#232625"/>
<path id="Fill 64" fill-rule="evenodd" clip-rule="evenodd" d="M60.6921 187.834C61.5925 187.697 61.5009 186.816 60.6921 186.648C58.4639 186.176 57.0294 185.546 56.3731 183.94C55.6558 182.209 56.2815 180.173 56.8004 178.462C57.1362 177.329 54.7249 176.846 54.2671 177.979C52.8325 181.59 51.871 189.219 60.6921 187.834Z" fill="#232625"/>
<path id="Fill 65" fill-rule="evenodd" clip-rule="evenodd" d="M72.1557 180.21C70.4563 181.727 69.5756 183.725 69.3372 185.867C69.2958 186.193 69.5652 186.625 69.8864 186.76C72.5287 187.884 76.7875 188.498 79.5334 187.49C80.1551 187.259 80.1551 186.539 79.5334 186.318C77.0362 185.396 74.1763 185.982 71.5961 185.156C71.6998 183.725 72.2075 182.342 73.2126 181.199C73.8136 180.517 72.8603 179.576 72.1557 180.21Z" fill="#232625"/>
<path id="Fill 66" fill-rule="evenodd" clip-rule="evenodd" d="M118.805 187.621C117.599 187.108 116.76 185.029 116.32 183.476C115.932 182.085 114.377 182.612 114.715 184.106C115.298 186.669 116.433 189.363 118.284 190.359C120.094 191.341 122.201 189.891 122.651 187.152C122.763 186.493 122.272 185.878 121.833 186.259C120.789 187.181 120.104 188.192 118.805 187.621Z" fill="#232625"/>
<path id="Fill 67" fill-rule="evenodd" clip-rule="evenodd" d="M77.7308 172.931C78.27 172.473 78.9346 172.119 79.5366 171.78C79.9002 171.588 80.3266 171.529 80.6652 171.292C80.8784 171.086 81.1041 170.894 81.3424 170.717C81.6684 170.658 82.007 170.599 82.3331 170.569C82.772 170.51 82.7845 169.816 82.3331 169.772C81.1417 169.654 80.2012 169.196 78.9848 169.374C78.0568 169.506 77.2542 169.787 76.4767 170.407C75.1098 171.47 74.3825 173.211 74.7712 175.115C74.8465 175.499 75.1474 175.913 75.486 176.075C75.8121 176.503 76.1757 176.887 76.6021 177.211C77.1915 177.654 77.8687 176.798 77.5426 176.104C77.3545 175.75 77.2417 175.381 77.1539 174.997C77.2542 174.289 77.041 173.536 77.7308 172.931Z" fill="#232625"/>
<path id="Fill 68" fill-rule="evenodd" clip-rule="evenodd" d="M105.595 172.043C102.6 172.89 100.613 174.074 99.3572 176.245C98.5843 177.569 98.1151 178.545 99.8816 179.56C100.365 179.839 101.22 180.118 101.855 179.948C102.518 179.779 103.249 179.202 104.008 179.5C104.712 179.769 105.347 179.142 104.836 178.724C103.87 177.917 102.366 178.356 101.455 177.818C102.449 175.906 103.829 174.333 106.272 173.188C107.072 172.83 106.561 171.775 105.595 172.043Z" fill="#232625"/>
<path id="Fill 69" fill-rule="evenodd" clip-rule="evenodd" d="M122.269 203.335C122.826 203.028 122.77 201.987 122.269 201.667C120.51 200.545 118.372 200.439 116.467 199.704C114.318 198.863 112.057 197.715 110.198 196.14C109.596 195.619 109.073 196.674 109.474 197.275C112.124 201.253 117.926 205.712 122.269 203.335Z" fill="#232625"/>
<path id="Fill 70" fill-rule="evenodd" clip-rule="evenodd" d="M87.5951 196.774C87.4656 195.747 85.4807 195.737 85.3944 196.774C85.2218 198.471 85.3369 200.221 86.7465 201.646C88.156 203.071 90.1697 203.71 92.4998 203.993C93.1902 204.077 93.6936 203.406 93.0032 203.123C89.6375 201.74 87.9547 199.561 87.5951 196.774Z" fill="#232625"/>
<path id="Fill 71" fill-rule="evenodd" clip-rule="evenodd" d="M111.353 204.19C110.856 203.861 110.331 203.822 109.765 203.664C109.13 203.48 108.564 203.085 108.067 202.677C107.129 201.888 106.3 200.862 106.135 199.639C105.969 198.376 104.078 198.31 104.009 199.639C103.912 201.388 104.603 203.072 105.79 204.388C106.839 205.558 109.351 207.163 111.035 206.519C112.126 206.098 112.374 204.848 111.353 204.19Z" fill="#232625"/>
<path id="Fill 72" fill-rule="evenodd" clip-rule="evenodd" d="M169.196 71.339C161.01 75.4464 152.453 78.9507 144.077 82.6371C139.035 84.8558 133.982 87.0403 128.895 89.1679C127.885 89.5889 126.874 89.9871 125.852 90.3967C126.975 88.5308 128.132 86.6876 129.299 84.8671C143.178 74.593 162.245 70.0874 173.755 57.094C173.16 61.9068 171.767 66.6627 169.196 71.339ZM155.137 86.7672C148.725 88.9859 142.572 91.9327 136.239 94.3448C131.298 95.5053 126.324 96.4725 121.484 97.9402C122.338 96.4269 123.202 94.9251 124.067 93.4232C125.021 93.1843 125.976 92.7633 126.346 92.604C131.186 90.5219 135.969 88.326 140.753 86.1187C150.14 81.7838 159.775 77.5968 168.679 72.272C168.623 72.363 168.578 72.454 168.522 72.5337C165.007 78.4501 160.482 83.1832 155.137 86.7672ZM145.087 91.8303C147.266 90.8177 149.444 89.8278 151.645 88.8835C149.568 90.0213 147.378 90.9998 145.087 91.8303ZM109.638 69.9737C110.233 66.8903 111.187 63.9321 112.422 61.0763C112.13 72.0672 112.501 82.876 114.006 93.8214C113.444 94.5269 112.883 95.2323 112.333 95.9491C109.436 87.5182 107.908 79.0417 109.638 69.9737ZM126.593 40.437C124.392 53.7262 124.202 67.1634 124.1 80.6119C124.1 81.5335 125.538 81.5335 125.527 80.6119C125.425 66.822 125.381 53.0322 127.581 39.3903C132.578 34.1212 138.069 29.3391 143.83 24.8722C138.013 40.6759 131.006 57.1509 129.389 74.1379C128.502 75.3098 127.581 76.4476 126.616 77.5399C125.886 78.3818 127.099 79.622 127.84 78.78C128.289 78.268 128.716 77.7219 129.153 77.1872C129.12 77.6081 129.12 78.0291 129.109 78.4501C126.863 80.1909 124.718 82.1023 122.652 84.139C117.857 72.6929 117.318 60.8828 119.643 48.8224C120.956 47.0361 122.326 45.3067 123.741 43.6455C124.673 42.5533 125.628 41.4951 126.593 40.437ZM169.207 15.7484C162.705 35.796 149.287 54.0448 135.082 69.1317C146.019 52.4405 152.341 32.2735 161.201 14.6789C161.313 14.4445 160.976 14.2374 160.841 14.4718C155.092 25.1316 150.14 36.2159 144.773 47.0702C140.607 55.5125 136.374 64.3303 130.871 72.0672C132.814 55.7856 138.889 39.9933 144.144 24.6242C151.982 18.5644 160.302 13.0621 168.5 7.65427C168.601 10.3497 168.859 13.0485 169.207 15.7484ZM173.384 40.5166C168.601 47.002 162.604 52.3154 155.957 57.0713C150.747 60.8032 144.908 63.7955 139.394 67.1975C145.783 60.7122 151.14 52.8843 156.002 45.3636C161.526 36.8075 166.377 27.505 169.476 17.7088C170.599 25.3376 172.373 32.9652 173.384 40.5166ZM115.6 91.8531C114.017 81.1808 113.512 70.4629 113.051 59.6882C114.623 56.3204 116.577 53.1118 118.733 50.074C115.668 61.6907 116.308 74.411 121.473 85.2995C119.429 87.3703 117.475 89.5775 115.6 91.8531ZM173.912 55.6946C166.355 63.2153 155.979 68.1646 146.738 72.8295C141.797 75.3098 136.834 77.7333 132.107 80.6005C133.128 79.0986 134.162 77.6081 135.217 76.1632C135.745 75.435 134.734 74.5248 134.038 74.9571C132.792 75.7422 131.579 76.6069 130.389 77.4944C130.422 76.8231 130.478 76.1632 130.535 75.5146C130.939 74.9799 131.332 74.4451 131.736 73.9104C131.949 74.0128 132.196 74.0469 132.444 73.9331C141.786 69.4162 151.095 62.9536 159.427 56.7299C164.917 52.6226 169.701 47.7643 173.597 42.2119C174.125 46.7403 174.327 51.2459 173.912 55.6946ZM77.916 112.39C81.8349 113.266 85.9784 113.858 89.3583 112.959C89.3246 115.36 89.1449 117.76 88.9428 120.081C85.8324 116.861 82.0146 114.483 77.916 112.39ZM52.0671 97.2006C50.0347 94.9365 48.4177 92.3765 47.1039 89.623C53.1788 94.9137 59.8712 99.5331 67.3608 102.469C74.3564 105.222 81.6777 106.69 89.0888 107.543C89.2235 108.635 89.3021 109.75 89.3358 110.865C87.3483 111.434 85.3608 111.741 83.0139 111.65C79.8698 111.525 76.737 110.899 73.6153 110.319C65.8337 106.724 57.6928 103.481 52.0671 97.2006ZM38.9405 34.945C59.2648 39.6064 68.8206 58.9372 77.916 77.0961C75.2772 73.8535 72.5037 70.7132 69.674 67.664C59.5905 56.8324 48.8556 46.5241 38.031 36.4775C37.9861 36.4434 37.9524 36.432 37.9075 36.432C37.8401 36.0679 37.7839 35.7095 37.7053 35.3477C38.1096 35.1998 38.525 35.0758 38.9405 34.945ZM62.0833 35.9314C67.3047 43.7479 73.1662 51.1207 78.062 59.1762C81.2622 64.4213 83.9347 69.9737 85.7875 75.856C87.2697 80.5777 87.4493 85.2085 87.6852 89.9302C87.4269 89.7141 87.1462 89.5093 86.8767 89.3158C79.9821 77.4033 74.8618 64.5806 67.0577 53.2028C61.0727 44.4875 52.2243 35.92 41.6354 34.1929C48.6872 32.5795 55.6042 33.4374 62.0833 35.9314ZM85.4394 53.3508C88.5161 61.0649 90.3464 68.7335 90.6608 77.3009C90.8517 82.4551 90.6833 87.5978 90.5036 92.7519C90.2566 92.4561 90.0095 92.1717 89.7513 91.8872C90.8292 81.852 86.4724 70.736 81.9472 62.3051C77.0177 53.1004 70.2579 44.8629 63.7788 36.6255C71.9984 40.1981 79.4319 46.3534 85.4394 53.3508ZM97.9708 73.6487C97.8136 80.4298 96.3763 87.2451 95.0176 93.8328C94.7144 95.3119 94.299 96.8479 93.906 98.4067C93.367 97.2234 92.7718 96.0742 92.0981 94.9933C92.4574 81.7269 92.7606 68.5628 87.8424 56.2976C88.853 57.5947 89.8074 58.9031 90.7057 60.2229C93.4231 64.2165 95.9496 68.7904 97.9708 73.6487ZM96.9265 113.471C96.9378 113.05 96.9265 112.64 96.9153 112.208C97.589 111.787 98.1954 111.229 98.7456 110.604C98.2066 111.582 97.6115 112.538 96.9265 113.471ZM61.7576 73.5121C67.8886 80.2136 74.6259 86.9948 82.4076 91.8872C83.6989 93.9466 84.9902 95.9149 86.0906 98.0198C77.1412 96.2335 69.034 92.6837 61.6341 86.6535C54.2904 80.6574 48.5412 72.9546 41.4558 66.6741C41.4109 66.2418 41.366 65.8094 41.3098 65.3884C40.5912 58.9827 40.1757 52.5429 39.4234 46.16C46.5649 55.5467 53.7851 64.7968 61.7576 73.5121ZM82.6434 87.1541C82.329 87.0403 82.0033 86.9379 81.6665 86.8582C80.8018 86.6307 80.0944 87.4385 80.3078 88.2463C73.4581 83.388 67.3945 77.2099 61.7576 71.2025C53.9311 62.8853 46.8344 53.8855 39.3223 45.2839C38.9742 42.485 38.5475 39.6974 38.0085 36.9327C46.4639 47.5595 56.6934 56.6844 65.8899 66.6514C71.0664 72.2833 76.0969 78.086 80.6559 84.2414C81.3633 85.1971 82.0146 86.1642 82.6434 87.1541ZM96.3202 106.439C96.0619 104.994 95.7138 103.549 95.2871 102.127C97.3083 93.6622 99.0937 84.7306 98.914 76.0608C100.587 80.5436 101.8 85.2199 102.316 89.862C101.059 95.5964 99.1611 101.297 96.3202 106.439ZM100.138 107.725C100.014 107.896 99.9022 108.066 99.7674 108.226C98.9253 109.284 97.8473 110.069 96.8592 110.945C96.8255 110.296 96.7581 109.637 96.6907 108.977C96.8255 108.738 96.9602 108.499 97.095 108.248C97.488 108.283 97.8698 108.317 98.2628 108.328C99.3071 108.396 99.3071 106.747 98.2628 106.69C98.1617 106.678 98.0607 106.667 97.9596 106.667C100.104 102.446 101.609 97.8947 102.575 93.2298C102.754 98.2588 102.036 103.185 100.138 107.725ZM41.5905 67.8005C48.137 75.7991 55.054 84.0252 63.0826 90.465C70.0895 96.0856 78.5336 98.9983 87.236 100.455C87.7188 101.592 88.1455 102.787 88.4712 104.084C88.6171 104.642 88.7294 105.222 88.8305 105.791C73.256 103.72 59.2536 98.5432 46.6211 88.5877C43.7353 82.1023 42.4439 74.6954 41.5905 67.8005ZM41.3435 201.66C40.9954 203.15 41.2312 204.8 42.6797 205.517C43.3759 205.87 44.0946 206.143 44.8357 206.313C44.2742 206.541 43.7802 206.882 43.331 207.315C41.613 206.211 40.7708 204.39 39.8613 202.468C40.3666 202.24 40.8719 201.967 41.3435 201.66ZM177.146 36.4548C177.528 35.7607 177.921 35.0656 178.269 34.3476C178.493 33.8755 177.82 33.4624 177.561 33.9312C177.359 34.3169 177.123 34.6719 176.91 35.0508C175.091 24.5309 172.564 13.9063 172.868 3.56852C172.912 1.93467 170.947 0.732042 169.566 1.6525C140.349 21.0391 86.551 56.4683 110.469 98.4522C106.46 103.959 102.833 109.682 99.5316 115.166C98.4312 116.998 97.3532 118.921 96.3426 120.923C96.5223 119.512 96.6795 118.102 96.7806 116.702C112.445 101.831 104.596 75.5715 94.3439 59.4151C82.0595 40.0502 58.4114 22.6183 34.9992 32.2871C34.0223 32.6933 33.4159 33.5341 33.6742 34.6514C38.4914 55.4443 34.5949 79.0759 46.9018 97.6216C51.8537 105.074 59.7589 109.409 67.5742 113.152C75.019 116.713 83.654 119.922 88.2578 127.227C87.6065 134.326 87.3595 142.075 90.9415 148.059C91.0763 148.344 91.2223 148.628 91.3682 148.901C80.6783 153.339 70.8194 159.812 61.4657 166.605C51.1239 174.126 41.4221 182.534 33.0341 192.262C32.6748 192.273 32.3267 192.478 32.2593 192.876C31.7765 196.233 31.6305 200.579 34.943 202.581C35.2799 202.786 35.6504 202.923 36.021 203.014C36.021 203.15 36.0322 203.275 36.0659 203.412C36.953 207.781 39.1988 210.876 43.331 212.526C44.3865 212.935 45.3859 212.218 45.981 211.433C46.7109 210.455 47.1264 210.25 47.9461 210.079C48.6311 211.035 49.5743 211.832 50.8656 212.366C52.2468 212.935 54.0546 212.935 55.8512 212.526C55.7726 212.912 55.8849 213.322 56.2667 213.652C58.7483 215.791 61.185 217.111 64.475 217.316C66.6871 217.452 68.8318 216.792 70.5049 215.461C74.0084 215.654 77.8037 213.413 79.6116 210.614C79.9597 210.079 79.3758 209.237 78.7469 209.488C76.6584 210.296 74.6596 211.615 72.4812 212.218C72.2903 211.9 71.8973 211.706 71.4706 211.775C70.6958 211.923 69.9547 212.127 69.2248 212.355C66.5411 211.536 65.6428 207.94 65.4407 205.335C65.4183 205.005 65.261 204.766 65.0477 204.607C67.4282 204.379 69.4831 203.014 71.1225 200.806C71.5492 200.238 70.7183 199.418 70.1456 199.828C67.9111 201.444 65.9572 202.286 63.3746 201.808C63.3072 199.714 63.1163 197.655 62.8693 195.55C62.7458 194.492 61.3646 194.492 61.2523 195.55C60.9604 198.019 60.7358 200.408 60.7133 202.889C60.7133 203.514 61.1288 204.026 61.7015 204.208C62.4314 204.436 63.1388 204.573 63.8237 204.618C63.6441 204.777 63.5206 205.016 63.5093 205.335C63.4083 208.361 63.936 211.388 65.8674 213.379C65.8337 213.39 65.8113 213.402 65.7776 213.413C63.296 214.027 60.5112 212.912 58.3328 211.706C60.2417 210.864 61.8924 209.602 62.6784 208.145C62.9928 207.542 62.465 206.996 61.8699 207.087C58.6248 207.565 56.132 210.193 52.651 210.136C51.6179 210.125 50.8431 209.784 50.2592 209.226C50.54 208.998 50.787 208.737 50.9554 208.35C51.2811 207.656 51.0116 206.962 50.2929 206.689C49.8887 206.541 49.3609 206.404 48.8332 206.279C48.7883 206.063 48.7433 205.858 48.7209 205.642C49.6753 204.948 50.5287 203.935 51.4832 203.378C52.0559 203.037 51.6516 202.24 51.0453 202.342C50.1806 202.502 49.3834 202.775 48.5749 203.082C48.5861 202.581 48.6086 202.092 48.6423 201.671C48.7433 200.26 46.6548 200.317 46.5088 201.671C46.4414 202.342 46.3965 203.037 46.3853 203.731C45.5094 203.799 44.7234 203.583 43.8251 203.184C43.5556 202.149 43.4321 201.148 43.7914 200.09C44.0272 199.396 44.4539 198.77 44.409 198.008C44.3865 197.496 43.6454 197.348 43.5107 197.882V197.894C43.4433 197.427 43.0727 196.984 42.5338 197.211C41.5793 197.609 40.9729 197.268 40.1195 197.928C39.6142 198.303 39.1089 198.679 38.5812 199.02C37.9861 199.407 37.0877 199.896 36.3803 199.544C35.6392 199.168 35.3024 198.155 35.0553 197.427C34.5949 196.016 34.2356 194.571 33.9773 193.104C36.56 190.521 39.2437 187.972 42.006 185.469C41.9723 185.56 41.9386 185.651 41.9386 185.776C41.86 188.154 41.2986 191.01 42.1632 193.274C42.3878 193.855 43.1177 193.855 43.3422 193.274C44.2069 191.01 43.6454 188.154 43.5668 185.776C43.5444 185.128 42.9605 184.878 42.5001 185.014C57.704 171.327 75.3558 159.244 94.0295 151.746C94.1642 151.791 94.2877 151.848 94.4225 151.894C94.546 151.928 94.6471 151.962 94.7481 152.007C94.7257 151.996 94.7144 151.985 94.6808 151.962C94.7144 151.985 94.7481 151.996 94.7818 152.019C94.9839 152.098 95.1299 152.178 95.2422 152.246C95.2534 152.246 95.2647 152.246 95.2759 152.258C95.2759 152.258 95.2647 152.258 95.2647 152.269C95.2534 152.258 95.2534 152.258 95.2422 152.246C95.085 152.178 94.9278 152.11 94.7818 152.019C94.7706 152.007 94.7594 152.007 94.7481 152.007C94.9839 152.167 95.1299 152.258 95.231 152.314C93.9621 154.146 93.0301 155.876 94.2541 158.208C95.6577 160.927 100.396 162.145 103.091 161.883C103.574 161.838 103.945 161.075 103.372 160.825C100.913 159.778 97.9933 159.642 95.9608 157.73C94.4337 156.297 94.546 154.044 95.4555 152.292C96.3426 152.542 97.3757 152.371 98.2628 152.303C98.8467 152.258 99.206 151.689 98.9253 151.143C98.8467 150.858 98.7681 150.699 98.7119 150.653C98.7232 150.631 98.7232 150.608 98.7344 150.585C103.001 151.916 107.122 153.27 111.131 155.614C117.071 159.096 122.192 163.931 126.964 168.869C131.309 173.352 135.341 178.142 139.237 183.023C142.74 187.403 145.84 193.206 150.107 196.824C151.611 198.11 153.576 196.665 152.992 194.89C154.093 195.14 154.261 194.663 154.677 195.516C154.003 196.836 153.161 197.928 151.667 198.429C150.23 198.906 148.793 199.225 147.412 199.874C146.682 200.203 147.232 201.216 147.917 201.091C149.568 200.784 151.252 200.909 152.88 200.442C154.767 199.896 156.069 198.383 157.091 196.767C158.09 195.175 156.967 192.728 155.272 192.08C154.228 191.682 152.768 192 151.634 192.296C149.029 187.984 145.054 183.899 142.067 180.156C137.519 174.433 132.713 168.96 127.458 163.897C120.653 157.332 109.829 147.889 99.4193 148.059C99.453 147.9 99.4755 147.775 99.5092 147.684C100.16 145.192 100.464 142.621 101.328 140.038C103.945 132.278 107.437 125.11 111.086 117.794C113.377 113.198 115.757 108.544 118.228 103.914C127.615 101.024 137.294 99.351 146.614 96.2563C157.226 92.7406 164.951 85.5157 171.363 76.459C180.234 63.9548 179.448 50.3129 177.146 36.4548Z" fill="#232625"/>
<path id="Fill 73" fill-rule="evenodd" clip-rule="evenodd" d="M107.296 161.888C106.593 164.177 106.228 166.85 107.579 169.043C108.782 170.978 111.404 172.636 114.214 171.759C114.66 171.609 114.89 171.075 114.363 170.871C112.377 170.101 110.566 169.834 109.471 168.166C108.323 166.433 108.688 164.112 109.188 162.294C109.444 161.332 107.606 160.915 107.296 161.888Z" fill="#232625"/>
<path id="Fill 74" fill-rule="evenodd" clip-rule="evenodd" d="M116.323 164.124C113.097 167.995 114.87 171.971 119.175 174.594C119.628 174.86 120.215 174.34 119.921 173.947C118.815 172.537 117.469 171.266 116.429 169.821C115.137 168.019 115.776 166.112 116.843 164.39C117.043 164.078 116.549 163.847 116.323 164.124Z" fill="#232625"/>
<path id="Fill 75" fill-rule="evenodd" clip-rule="evenodd" d="M130.495 184.242C128.595 182.462 127.133 180.587 126.045 177.631C125.799 176.963 125.17 177.535 125.373 178.203C126.44 181.54 127.87 183.924 130.196 185.291C130.612 185.546 130.847 184.576 130.495 184.242Z" fill="#232625"/>
<path id="Fill 76" fill-rule="evenodd" clip-rule="evenodd" d="M138.045 190.436C138.952 187.93 137.299 185.258 137.459 182.729C137.459 182.646 137.192 182.646 137.219 182.729C137.379 185.258 135.699 187.93 136.632 190.436C136.765 190.743 137.912 190.743 138.045 190.436Z" fill="#232625"/>
<path id="Fill 77" fill-rule="evenodd" clip-rule="evenodd" d="M136.722 201.287C138.494 201.443 140.265 201.272 141.728 199.752C142.912 198.515 144.302 196.085 143.942 193.925C143.829 193.257 143.262 193.186 142.933 193.555C141.903 194.664 141.645 196.568 140.492 197.62C139.379 198.629 138.01 199.055 136.722 199.226C135.764 199.354 135.754 201.187 136.722 201.287Z" fill="#232625"/>
<path id="Fill 78" fill-rule="evenodd" clip-rule="evenodd" d="M83.1448 159.424C82.4228 161.436 82.3827 163.624 83.9871 165.191C85.5781 166.758 88.3323 167.068 90.311 166.163C90.7923 165.934 90.7789 165.123 90.311 164.894C88.974 164.259 87.4499 164.124 86.1129 163.462C84.7492 162.8 84.9096 161.301 85.2439 160.018C85.6048 158.627 83.6127 158.114 83.1448 159.424Z" fill="#232625"/>
<path id="Fill 79" fill-rule="evenodd" clip-rule="evenodd" d="M97.7279 169.419C95.2721 170.853 93.07 173.11 90.6719 174.8C89.0808 173.423 86.4521 171.989 85.9563 169.986C85.8525 169.575 85.3107 169.632 85.3337 170.086C85.5182 172.883 88.4813 175.197 89.9455 177.001C90.2568 177.398 90.6949 177.412 91.0754 177.185C93.8194 175.623 97.1053 173.92 98.5811 170.469C98.8924 169.759 98.2928 169.092 97.7279 169.419Z" fill="#232625"/>
<path id="Fill 80" fill-rule="evenodd" clip-rule="evenodd" d="M63.0868 174.501C64.8731 175.041 66.7344 174.059 68.5808 174.35C69.2713 174.458 69.6165 173.832 69.0461 173.551C67.9053 172.99 66.6894 172.731 65.3084 172.882C64.5729 172.958 64.0625 173.228 63.5371 172.699C63.2669 172.439 64.0775 171.198 64.2276 170.906C65.1283 169.071 66.8095 168.24 68.941 167.214C69.3163 167.042 69.0912 166.567 68.6408 166.685C67.2748 167.02 65.8788 167.279 64.6629 167.84C63.1768 168.531 62.5164 169.676 61.9159 170.831C61.2104 172.234 60.715 173.789 63.0868 174.501Z" fill="#232625"/>
<path id="Fill 81" fill-rule="evenodd" clip-rule="evenodd" d="M60.0564 195.999C60.6376 196.011 60.8418 195.872 61.156 195.537C61.423 195.248 61.3602 194.866 61.156 194.577C58.9568 191.327 56.2236 188.494 53.7417 185.406C53.616 185.256 53.2547 185.36 53.349 185.522C55.2497 188.887 56.7106 192.241 58.9568 195.537C59.1611 195.826 59.6323 195.988 60.0564 195.999Z" fill="#232625"/>
<path id="Fill 82" fill-rule="evenodd" clip-rule="evenodd" d="M43.8223 193.882C43.552 192.937 42.4705 193.297 42.6976 194.317C43.2059 196.582 43.9954 198.472 45.3688 199.927C46.872 201.516 48.5698 201.486 50.3542 201.142C50.776 201.052 50.7652 200.062 50.3542 199.957C47.4127 199.282 44.9903 197.947 43.8223 193.882Z" fill="#232625"/>
<path id="Fill 83" fill-rule="evenodd" clip-rule="evenodd" d="M77.7549 200.859C79.2206 201.529 81.3114 201.64 82.5185 200.189C82.7879 199.854 82.6801 199.101 82.2814 199.031C81.0096 198.766 79.7595 199.422 78.4554 199.143C77.1945 198.864 76.2784 197.705 75.6534 196.338C75.2869 195.571 74.4355 196.24 74.7265 197.05C75.3408 198.752 76.3431 200.217 77.7549 200.859Z" fill="#232625"/>
<path id="Fill 84" fill-rule="evenodd" clip-rule="evenodd" d="M112.159 188.735C115.816 190.917 120.89 194.758 124.885 192.789C125.498 192.496 125.467 191.258 124.885 190.949C122.835 189.826 120.457 190.021 118.3 189.37C116.271 188.768 114.284 188.393 112.223 188.003C111.937 187.954 111.937 188.589 112.159 188.735Z" fill="#232625"/>
<path id="Fill 85" fill-rule="evenodd" clip-rule="evenodd" d="M129.099 198.604L134.849 198.667C136.384 198.682 136.384 195.969 134.849 196L129.099 196.063C127.634 196.078 127.634 198.589 129.099 198.604Z" fill="#232625"/>
<path id="Fill 86" fill-rule="evenodd" clip-rule="evenodd" d="M97.4788 185.653C97.2355 185.361 96.7976 185.272 96.457 185.374C93.6957 186.135 95.0338 188.254 96.8462 189.066C96.8706 189.117 96.8949 189.18 96.9314 189.244C97.2598 189.815 97.6977 190.335 98.1478 190.817C96.4448 190.576 94.5229 190.855 92.9294 190.842C91.9805 190.842 91.0317 191.02 90.0708 190.995C89.7788 190.982 89.4261 190.766 89.3896 191.02C89.4747 190.475 90.2289 189.904 90.5817 189.561C91.0439 189.13 90.4479 188.305 89.9248 188.673C88.1367 189.891 86.8472 191.883 89.5599 192.847C91.0317 193.368 92.6861 193.38 94.2066 193.291C95.9461 193.19 98.0991 193.279 99.7048 192.53C99.8386 192.479 99.9238 192.365 99.9846 192.238C100.654 192.568 101.371 192.771 102.138 192.822C105.361 193.038 109.266 192.01 111.735 189.815C112.258 189.345 111.942 188.47 111.346 188.279C109.023 187.543 106.748 188.305 104.449 188.762C101.529 189.32 99.3277 187.899 97.4788 185.653Z" fill="#232625"/>
</g>
</svg>
