<svg width="176" height="248" viewBox="0 0 176 248" fill="none" xmlns="http://www.w3.org/2000/svg">
<g id="cube icon">
<path id="Fill 227 Copy 2" fill-rule="evenodd" clip-rule="evenodd" d="M28.1771 222.177C24.0835 223.502 19.4666 224.415 15.6048 226.34C13.2195 227.529 12.2664 230.33 14.9668 231.979C17.6333 233.606 21.3597 231.973 23.9039 230.904C27.0417 229.584 30.1223 227.943 31.8748 224.859C32.4217 223.9 31.0311 223.863 30.4296 223.953C25.0653 224.768 20.016 226.645 15.4642 229.664C13.4799 230.981 16.235 231.238 17.313 230.773C21.167 229.122 24.6564 226.951 27.7995 224.139C29.3619 222.74 25.6381 222.974 24.8257 223.704C22.1331 226.112 19.1984 228.039 15.8912 229.459C16.511 229.826 17.1255 230.197 17.7427 230.569C21.4665 228.097 25.4402 226.486 29.8463 225.82C29.3619 225.517 28.8828 225.217 28.3984 224.917C27.4271 226.627 26.1381 227.774 24.4195 228.692C22.7607 229.581 17.9432 231.692 17.175 229.035C16.5839 226.993 20.615 226.414 22.0524 225.95C24.2372 225.244 26.422 224.535 28.6093 223.829C30.7889 223.122 30.4165 221.455 28.1771 222.177Z" fill="#EB9078"/>
<path id="Fill 228 Copy 3" fill-rule="evenodd" clip-rule="evenodd" d="M16.8769 228.218C13.9556 226.208 10.7392 224.284 6.77821 224.732C3.77379 225.071 0.445741 226.585 0.00753743 229.34C-0.0612003 229.776 0.351226 229.951 0.795158 230.028C5.78724 230.898 10.3898 232.579 14.5542 235.07C15.4621 235.613 18.3319 235.319 18.5553 234.161C19.7582 227.923 10.9368 226.881 5.65549 226.883C4.96811 226.883 1.96084 227.521 2.90598 228.514C5.18865 230.917 8.51384 232.01 12.1226 231.823C12.8815 231.785 14.5427 231.61 14.8664 230.883C15.1671 230.21 14.6172 229.868 13.7637 229.912C10.8652 230.065 8.5568 229.049 6.76389 227.165C5.85025 227.707 4.93374 228.252 4.01438 228.795C8.27612 228.793 15.3876 229.582 14.4138 234.629C15.7485 234.326 17.0831 234.023 18.4178 233.72C13.8467 230.988 8.84034 229.141 3.3585 228.187C3.622 228.417 3.88263 228.647 4.14612 228.875C4.87933 224.298 10.8194 228.059 13.0133 229.568C14.1074 230.321 17.9452 228.955 16.8769 228.218Z" fill="#EB9078"/>
<path id="Fill 220 Copy" fill-rule="evenodd" clip-rule="evenodd" d="M68.7366 57.3638C68.256 44.5577 67.5681 30.8292 70.1455 18.1798C70.7367 15.2794 71.0709 10.1292 74.1317 8.83059C77.7147 7.31245 75.5489 14.2264 75.3472 16.6956C74.7588 23.9179 73.3058 30.965 71.3831 37.9704C70.8444 39.9354 74.6953 39.2299 75.3389 38.0906C77.2561 34.6911 79.9164 28.859 82.7313 26.3871C84.7894 24.5816 90.3502 19.8547 89.9607 25.2348C89.5878 30.4137 80.3694 38.4381 77.3528 42.8175C76.0406 44.7275 79.0766 45.3285 80.3832 44.3382C94.0657 33.9778 84.3059 47.9807 82.1236 50.2801C78.2948 54.3197 73.3914 57.1757 68.2283 59.4098C69.2035 59.7599 70.1842 60.1101 71.1621 60.4602C72.8527 43.779 74.5406 27.1005 76.2285 10.4219C76.4163 8.59542 73.2781 8.95601 72.5102 9.94632C68.7256 14.83 69.4936 20.474 69.0543 26.4394C68.4659 34.4324 67.4908 42.1956 68.9134 50.1285C69.2145 51.8087 72.3417 51.0065 72.8389 49.8699C77.6981 38.6968 84.2452 28.8381 92.7646 19.8521C91.6375 19.4497 90.5132 19.0473 89.3889 18.6449C82.3529 28.9269 70.0267 41.3542 68.651 53.9774C68.4549 55.7935 71.6179 55.4538 72.372 54.453C77.4439 47.7168 81.781 40.795 85.5739 33.3298C84.2921 33.1652 83.0103 33.0005 81.7285 32.8333C79.4274 40.3978 76.8031 47.8161 73.8306 55.1663C73.024 57.1574 76.5379 57.2097 77.4412 56.0182C80.4882 51.9968 83.5352 47.9781 86.5822 43.9567C87.6016 42.611 85.875 41.5423 84.5076 41.9944C77.4495 44.3304 72.7809 48.046 69.5074 54.5026C68.593 56.3082 71.814 56.4415 72.7698 55.668C78.9274 50.6903 84.1899 45.3599 88.9856 39.1593C90.4994 37.2048 86.748 36.4862 85.6126 37.9547C81.0352 43.8679 75.9854 49.0598 70.0875 53.8311C71.1731 54.2204 72.2643 54.6098 73.35 54.9991C75.4715 49.9012 79.4467 46.473 85.2811 44.7145C84.5905 44.0612 83.8998 43.4054 83.2092 42.7521C80.1595 46.7709 77.1152 50.7922 74.0654 54.811C75.2699 55.0958 76.4716 55.3806 77.676 55.6628C80.6484 48.3125 83.2728 40.8943 85.5739 33.3298C86.2424 31.1349 82.5186 31.2864 81.7285 32.8333C78.0766 40.0216 73.8914 46.7447 68.9963 53.2458C70.2367 53.4052 71.4742 53.562 72.7174 53.7214C74.0212 41.7357 85.9745 29.7735 92.7646 19.8521C94.2011 17.7486 90.6127 17.3515 89.3889 18.6449C80.6318 27.8843 73.9826 37.9025 68.9935 49.3734C70.3002 49.2872 71.6068 49.2009 72.9163 49.1147C71.651 42.0545 72.4466 35.2973 72.966 28.2502C73.3472 23.0634 72.4522 15.5851 75.8832 11.1509C74.6456 10.9941 73.4052 10.8347 72.1649 10.678C70.4742 27.3565 68.7864 44.0351 67.0985 60.7137C66.9493 62.1874 69.093 62.1691 70.0322 61.7641C80.8059 57.1026 88.4883 49.8568 93.3696 39.6166C93.9249 38.4512 92.5657 37.9312 91.6099 37.9234C85.8916 37.8685 82.1567 39.1279 77.6981 42.5013C78.7092 43.0082 79.7202 43.5177 80.7285 44.022C85.6651 36.8547 98.6183 25.726 95.5299 16.0267C95.3033 15.3107 94.4055 15.0338 93.69 15.0886C82.9136 15.9065 75.839 29.8989 71.4908 37.5941C72.8113 37.6333 74.129 37.6725 75.4467 37.7143C78.2395 27.5447 82.8252 11.9426 79.06 1.60834C78.7782 0.837517 77.9743 0.691191 77.2202 0.670287C60.1923 0.17121 64.3554 49.2009 64.6758 57.6199C64.7504 59.6633 68.8057 59.1407 68.7366 57.3638Z" fill="#B8B8D1"/>
<path id="Fill 221 Copy" fill-rule="evenodd" clip-rule="evenodd" d="M67.2389 55.377C66.5557 57.6954 66.4792 59.1056 67.0384 61.5446C67.3048 62.7024 70.2669 61.3361 70.6941 60.9136C77.0613 54.6226 82.9933 47.9639 88.5429 40.8827C89.4344 39.7441 85.6784 40.4272 85.0559 41.0775C82.7428 43.4918 80.4269 45.9034 78.1137 48.3178C79.3244 48.1751 80.5377 48.0379 81.7484 47.8953C83.2386 38.2763 86.9788 29.9193 93.2035 22.5967C94.066 21.5815 90.3839 22.0068 89.7166 22.7915C83.4074 30.2129 79.4827 38.7399 77.966 48.5428C77.755 49.8981 81.1971 48.5428 81.598 48.1203C83.9139 45.7086 86.227 43.2943 88.5429 40.8827C87.3797 40.9485 86.2165 41.0116 85.0559 41.0775C79.5064 48.1587 73.5718 54.8173 67.2046 61.1084C68.4232 60.8999 69.6417 60.6886 70.8603 60.4801C70.164 58.5898 70.2194 56.672 71.0238 54.7296C71.3061 53.7748 67.5633 54.2769 67.2389 55.377Z" fill="#B8B8D1"/>
<path id="Fill 223 Copy 2" fill-rule="evenodd" clip-rule="evenodd" d="M39.9709 233.386C35.963 232.219 30.0658 232.039 27.5475 236.218C24.5262 241.229 29.8897 245.657 34.4146 245.977C38.5259 246.263 43.4618 243.832 42.559 238.901C41.6674 234.032 35.6975 234.33 32.6035 236.755C29.0037 239.579 29.8086 245.54 35.0938 244.473C37.2515 244.038 39.2694 242.699 40.0827 240.537C40.8345 238.532 40.365 235.949 38.4086 234.873C35.4292 233.237 28.5537 235.334 30.281 239.756C32.2737 244.865 40.024 242.036 42.0196 238.432C42.995 236.673 42.886 234.301 40.6277 233.855C38.2576 233.389 35.214 234.816 33.6544 236.63C29.5291 241.426 37.2906 244.853 40.4405 240.817C41.0358 240.051 39.9234 239.765 39.3812 239.75C38.4952 239.727 37.2766 240.099 36.6981 240.843C37.6651 240.691 37.8887 240.477 37.3689 240.202C37.1592 240.068 36.9832 239.899 36.8378 239.69C36.4661 239.121 36.4549 238.437 36.6534 237.8C36.9161 236.947 38.157 235.305 38.5427 236.753C38.8278 237.808 37.9167 239.521 36.9999 239.988C35.6276 240.677 34.2106 239.17 34.096 237.845C33.9171 235.852 35.3453 236.595 35.9546 237.705C36.4242 238.56 36.4549 239.673 36.2146 240.597C36.1531 240.831 35.6192 242.419 35.2503 242.365C34.8003 242.307 34.4398 241.195 34.3587 240.857C34.1044 239.779 34.4957 238.638 35.2084 237.84C36.8518 236 38.4365 238.898 38.5735 240.471C38.6461 241.318 38.5148 242.528 37.9474 243.217C37.1005 244.255 35.5494 243.803 34.4621 243.363C32.1144 242.408 30.4123 239.965 30.9322 237.313C31.5387 234.21 34.3839 234.599 36.7176 235.28C37.6455 235.548 38.7495 235.368 39.574 234.85C39.9709 234.602 40.9352 233.666 39.9709 233.386Z" fill="#B8B8D1"/>
<path id="Fill 530" fill-rule="evenodd" clip-rule="evenodd" d="M172.536 182.497C172.111 189.192 169.884 193.928 165.622 197.294C158.181 198.984 151.216 203.438 144.779 207.355C137.853 211.566 130.746 215.957 124.232 220.782C120.305 223.701 115.928 226.965 111.28 229.55C111.139 229.499 110.997 229.461 110.83 229.448C106.839 229.141 103.723 227.131 101.715 224.046C101.818 221.051 101.56 218.069 101.419 215.688C100.646 202.465 102.294 189.435 102.101 176.225C101.972 167.278 100.517 158.344 100.118 149.396C99.8995 144.545 99.6548 139.016 100.337 133.742C100.363 133.64 100.389 133.55 100.402 133.448C101.354 133.204 102.101 132.232 101.496 131.003C101.496 130.99 101.496 130.977 101.483 130.977C103.543 127.585 106.543 124.616 109.002 121.492C109.517 121.275 110.019 121.057 110.508 120.84C111.01 120.622 111.242 120.148 111.267 119.662C120.498 114.363 130.424 110.74 140.569 107.156C145.757 105.326 150.894 103.38 155.902 101.115C159.765 99.3739 165.648 97.3259 166.794 92.8458C166.897 92.4234 166.588 92.065 166.176 92.0394C161.837 91.809 157.589 95.6746 153.778 97.4923C147.315 100.577 140.415 102.766 133.669 105.159C124.348 108.449 114.731 112.02 106.98 118.216C101.779 118.766 96.2303 119.636 91.3252 121.352C90.5013 121.083 89.7031 120.724 88.9692 120.225C88.4028 119.854 87.8749 119.931 87.4758 120.225C75.6315 116.872 63.8001 113.326 51.7756 110.663C41.4118 108.359 29.9924 101.281 19.1523 103.175C18.663 103.265 18.7918 103.879 19.1523 104.033C24.2118 106.132 29.825 107.028 35.0133 108.91C40.2403 110.791 45.4028 112.801 50.7328 114.427C62.886 118.164 75.4384 120.98 87.7076 124.385C87.9007 124.436 88.0809 124.462 88.2612 124.462C88.3642 124.564 88.4671 124.68 88.5701 124.782C88.6474 124.948 88.7761 125.102 88.9821 125.217C90.7459 127.06 92.4968 128.929 93.9902 130.99C95.1489 132.577 96.0114 134.369 96.5522 136.251C96.6165 136.481 96.6552 136.699 96.6809 136.904C95.7153 146.26 96.7453 155.886 97.5435 165.192C98.5477 176.84 97.8267 188.245 97.4147 199.931C97.2087 205.729 97.7237 211.361 98.1614 217.134C98.4833 221.563 99.6548 230.497 95.548 233.608C95.2905 233.787 95.1618 234.03 95.0716 234.273C94.3893 234.248 93.6941 234.171 92.9989 234.081C92.9216 234.005 92.8573 233.928 92.7414 233.877C86.8836 230.958 80.6654 228.833 74.666 226.209C66.6968 222.715 58.5603 221.781 50.0504 220.385C37.4594 218.325 19.2295 211.809 16.2298 198.075C14.5304 190.344 15.3544 181.985 15.6634 174.152C16.011 165.294 15.8822 156.385 15.8951 147.515C15.8951 142.484 15.6891 137.518 15.3029 132.552C15.29 131.028 15.2642 129.505 15.2385 127.982C15.1226 122.401 15.1999 116.833 15.4316 111.265C16.3457 105.671 17.6717 101.204 23.5681 97.2234C29.7864 93.0378 37.5238 91.2074 44.5145 88.7242C52.9471 85.7162 60.3498 80.801 68.01 76.2954C76.404 71.3418 84.1414 68.2826 93.1019 68.5386C97.2087 70.1386 102.243 70.049 106.504 70.5226C115.529 71.5082 124.669 75.0794 133.36 77.6266C141.921 80.1354 150.482 81.697 159.25 83.2714C160.357 83.4762 161.322 83.7322 162.224 84.0266C164.116 86.6506 166.601 88.7754 168.725 91.1946C168.738 91.2202 168.764 91.2458 168.777 91.2842C169.768 95.841 171.699 100.347 170.141 105.057C169.91 105.787 170.231 106.337 170.746 106.631C170.746 107.067 170.772 107.515 170.811 107.963C171.442 114.171 172.626 120.072 172.626 126.356C172.613 137.211 171.004 148.027 171.57 158.881C171.982 166.753 173.025 174.587 172.536 182.497ZM175.626 167.726C174.776 156.283 175.265 145.3 175.78 133.844C176.076 127.265 176.192 120.712 175.162 114.209C175.021 113.275 174.866 112.353 174.712 111.444C176.488 106.35 175.986 98.9899 174.364 94.2794C173.991 93.1914 173.463 92.2314 172.819 91.3482C172.291 89.8122 171.557 88.4426 170.553 87.4058C170.515 87.0474 170.489 86.7018 170.476 86.3434C169.382 84.6026 167.863 83.105 165.558 81.9402C161.747 79.9946 157.074 79.6618 152.928 78.945C146.556 77.8314 140.415 76.3594 134.235 74.465C131.634 73.6714 104.663 65.3897 94.8399 65.4153C88.48 63.5465 81.3863 65.4537 75.2067 68.0778C63.6585 72.9674 53.9899 81.1722 42.0942 85.409C29.5289 89.889 5.93043 97.4795 11.505 115.464C11.4921 116.884 11.5307 118.305 11.608 119.713C11.6723 120.635 11.7367 121.556 11.7882 122.478C11.2089 130.76 11.4921 139.22 12.7666 146.76C12.8053 146.964 12.9469 147.054 13.1014 147.092C12.9211 164.129 10.5394 182.049 13.4232 198.843C15.5604 211.246 28.5118 216.251 39.0558 220.117C47.9648 223.381 57.4016 223.56 66.5681 225.8C74.4986 227.745 83.3432 231.957 90.9776 235.31C97.2731 242.722 113.559 232.84 119.095 229.32C125.764 225.045 132.201 220.36 138.831 215.995C147.972 209.979 157.293 205.333 167.077 200.52C167.386 200.366 167.579 200.161 167.734 199.931C176.772 193.736 176.424 178.35 175.626 167.726Z" fill="black"/>
<path id="Fill 531" fill-rule="evenodd" clip-rule="evenodd" d="M133.244 157.388C133.244 157.411 133.244 157.434 133.258 157.457C133.258 157.48 133.244 157.503 133.244 157.526C133.244 157.48 133.244 157.434 133.244 157.388ZM142.348 154.339C141.01 152.153 137.782 148.99 134.5 150.313C127.261 153.246 131.299 165.809 138.147 165.74C138.539 166.028 139.146 166.097 139.565 165.844C139.714 165.844 139.849 165.855 139.997 165.832C143.658 165.326 144.414 163.29 143.766 160.851C144.441 158.711 143.563 156.353 142.348 154.339Z" fill="black"/>
<path id="Fill 532" fill-rule="evenodd" clip-rule="evenodd" d="M112.663 137.653C113.098 138.377 113.658 139.06 114.302 139.65C114.232 139.69 114.162 139.703 114.092 139.73C113.21 139.114 112.593 138.431 112.663 137.653ZM112.383 144.339C112.789 144.661 113.336 144.795 113.812 144.513C113.84 144.5 113.854 144.486 113.882 144.473C114.022 144.486 114.176 144.5 114.316 144.5C114.709 144.674 115.185 144.674 115.535 144.406C116.278 144.285 116.978 144.031 117.552 143.616C119.472 142.222 120.018 139.958 119.822 137.68C120.172 136.113 120.088 134.505 118.827 133.406C118.757 133.353 118.701 133.326 118.645 133.286C118.505 132.991 118.365 132.696 118.211 132.428C117.272 130.713 115.633 129.146 113.602 128.771C111.991 128.463 110.562 128.851 109.595 129.762C107.914 130.874 106.934 132.857 106.709 134.961C106.415 137.734 107.676 140.574 109.721 142.517C110.058 142.986 110.436 143.415 110.926 143.723C111.36 144.004 111.795 144.151 112.243 144.205C112.299 144.245 112.327 144.299 112.383 144.339Z" fill="black"/>
<path id="Fill 533" fill-rule="evenodd" clip-rule="evenodd" d="M160.296 127.719C160.673 128.035 161.087 128.314 161.539 128.544C161.816 128.69 162.155 128.569 162.318 128.338C163.047 128.556 163.8 128.678 164.592 128.666C165.509 128.654 166.237 127.95 166.25 127.064C166.263 126.324 166.288 125.56 166.3 124.784C166.338 124.747 166.363 124.723 166.388 124.687C168.85 121.739 168.348 117.553 165.861 114.824C165.509 114.448 165.094 114.12 164.667 113.829C164.491 113.586 164.24 113.441 163.964 113.392C163.411 113.101 162.821 112.907 162.218 112.786C162.017 112.664 161.778 112.628 161.552 112.713C160.447 112.616 159.329 112.858 158.349 113.477C154.718 113.647 154.128 117.286 155.058 120.38C155.485 121.799 156.238 123.279 157.256 124.602C157.507 125.148 157.783 125.657 158.072 126.07C158.7 126.967 159.479 127.501 160.296 127.719Z" fill="black"/>
<path id="Fill 534" fill-rule="evenodd" clip-rule="evenodd" d="M119.07 204.707C118.942 203.726 118.687 202.844 118.332 202.223C117.666 201.08 116.829 200.496 115.935 200.284C115.524 199.862 115.112 199.464 114.672 199.117C114.389 198.893 113.977 198.769 113.58 198.781C113.566 198.769 113.552 198.756 113.538 198.732C112.871 197.924 111.14 197.601 110.573 198.732C109.736 200.409 109.282 202.98 109.523 205.44C108.573 209.416 111.254 212.869 116.006 213.95C116.701 214.112 117.595 213.876 117.921 213.267C118.332 212.509 118.602 211.764 118.758 211.018C119.921 209.95 120.233 208.248 119.836 206.596C119.694 205.95 119.424 205.316 119.07 204.707Z" fill="black"/>
<path id="Fill 535" fill-rule="evenodd" clip-rule="evenodd" d="M164.223 176.855C162.426 176.128 160.557 177.609 159.819 179.53C157.201 180.71 156.844 184.072 157.855 186.967C158.189 190.699 160.867 194.349 164.104 191.838C164.116 191.838 164.116 191.824 164.128 191.81C164.854 191.92 165.592 191.755 166.223 191.179C166.604 190.836 166.794 190.383 166.866 189.889C167.52 189.08 167.937 187.996 167.996 186.665C168.044 185.224 167.592 183.743 166.877 182.425C166.723 179.846 165.973 177.568 164.223 176.855Z" fill="black"/>
<path id="Fill 536" fill-rule="evenodd" clip-rule="evenodd" d="M28.1359 136.444C29.0822 135.896 29.8552 135.224 30.4815 134.47C30.8014 134.621 31.1879 134.634 31.5344 134.442C34.4932 132.728 35.1729 127.751 34.3332 124.721C33.6402 122.171 31.028 120.759 28.8423 121.389C28.6024 121.211 28.3758 121.033 28.1226 120.882C27.2829 120.361 26.0701 120.827 25.8435 121.828C25.7369 122.28 25.6303 122.76 25.537 123.268C25.1505 123.775 24.9239 124.488 24.7907 125.228C23.6178 128.876 23.5512 132.591 25.9635 135.855C26.4966 136.581 27.3096 136.924 28.1359 136.444Z" fill="black"/>
<path id="Fill 537" fill-rule="evenodd" clip-rule="evenodd" d="M83.8986 147.113C85.6065 146.475 86.6361 145.076 87.0721 143.456C87.169 143.321 87.266 143.174 87.3629 143.015C88.1502 141.591 88.1744 139.481 87.6172 137.578C87.6657 133.983 85.6186 130.547 81.3791 131.492C76.4371 132.596 76.3159 140.057 79.4289 143.334C79.9134 145.604 81.258 148.095 83.8986 147.113Z" fill="black"/>
<path id="Fill 538" fill-rule="evenodd" clip-rule="evenodd" d="M77.31 213.556C78.1001 214.742 79.1536 215.761 80.458 216.468C81.198 216.864 82.2013 216.66 82.6152 215.929C83.1921 214.934 83.5433 213.856 83.6938 212.789C84.7473 211.674 85.249 210.224 85.3243 208.738C85.3368 208.559 85.3368 208.367 85.3243 208.199C85.3117 207.48 85.2239 206.773 85.0358 206.102C84.7975 205.287 84.4087 204.616 83.907 204.101C83.4179 203.01 82.7281 201.979 81.8752 201.093C81.3736 200.577 80.5834 200.565 79.9814 200.865C79.4672 201.117 79.0157 201.416 78.5893 201.752C78.351 201.644 77.9998 201.704 77.8618 202.015C77.7615 202.231 77.6612 202.471 77.5734 202.722C77.0591 203.298 76.6578 203.945 76.3443 204.628C76.131 204.736 75.9304 204.868 75.7548 205.047C74.2247 206.557 74.6009 208.81 75.1277 210.668C75.5165 212.07 76.3192 213.017 77.31 213.556Z" fill="black"/>
<path id="Fill 539" fill-rule="evenodd" clip-rule="evenodd" d="M27.1263 201.84C27.4545 202.192 27.7969 202.532 28.1965 202.827C29.0241 203.462 30.4796 203.541 31.2929 202.827C31.3072 202.815 31.3072 202.804 31.3214 202.793C34.846 202.158 34.846 195.728 34.5463 193.834C34.4179 193.029 34.104 192.337 33.6759 191.758C33.3477 190.908 32.8483 190.069 32.1491 189.298C31.9065 189.025 31.6211 188.821 31.3214 188.697C29.338 187.177 26.4842 186.689 23.7587 188.481C20.3055 190.749 21.1189 196.045 22.6457 198.926C23.616 200.751 25.414 201.783 27.1263 201.84Z" fill="black"/>
<path id="Fill 540" fill-rule="evenodd" clip-rule="evenodd" d="M91.2344 76.6345C91.7781 76.4501 92.3218 76.2441 92.8532 75.9838C93.5946 75.6475 93.4463 74.5738 92.6184 74.4111C92.5196 74.3894 92.4083 74.3677 92.3095 74.346C92.3095 74.3352 92.3218 74.3243 92.3218 74.3243C92.7049 73.4892 91.7658 72.7625 90.9132 72.6974C89.6651 72.6106 88.4047 72.7083 87.1938 72.9686C85.0313 72.6974 82.77 72.9143 80.7806 73.6953C79.6067 74.1508 77.333 75.1378 77.333 76.5044C77.333 77.0901 77.506 77.5131 77.7531 77.8493C77.7037 78.0011 77.6419 78.1313 77.6049 78.294C77.4319 78.9881 77.852 79.5087 78.5687 79.769C79.3472 80.051 80.138 80.2246 80.9536 80.3113C85.229 81.4827 88.8372 79.628 91.2344 76.6345Z" fill="black"/>
<path id="Fill 541" fill-rule="evenodd" clip-rule="evenodd" d="M96.854 107.089C96.2382 107.267 95.5963 107.406 94.9544 107.533C94.8889 107.507 94.8234 107.495 94.7448 107.469C95.0461 107.241 95.3736 107.038 95.7142 106.874C96.1203 106.836 96.5133 106.81 96.9195 106.81C96.9064 106.912 96.8802 107 96.854 107.089ZM103.286 105.758C103.299 105.758 103.299 105.758 103.299 105.758C103.627 105.429 103.679 104.947 103.457 104.554C100.103 98.7116 92.7142 104.453 88.6661 106.392C88.1552 106.633 87.8801 107.343 88.0504 107.862C88.653 109.599 89.6356 110.79 90.7884 111.55C91.4041 112.602 92.7404 112.856 94.1946 112.539C96.2906 112.539 98.4653 111.601 100.103 110.017C101.321 109.599 102.5 108.94 103.575 108.002C104.02 107.609 104.151 106.798 103.797 106.316C103.653 106.113 103.47 105.936 103.286 105.758Z" fill="black"/>
<path id="Fill 542" fill-rule="evenodd" clip-rule="evenodd" d="M90.5028 99.2821C92.0052 98.9296 93.1229 98.2976 94.1205 97.3739C96.6084 97.1794 98.5795 96.3044 98.6636 94.1166C98.7958 90.5434 95.0579 88.3313 91.9331 88.7081C91.5124 88.7567 91.1038 88.854 90.6711 88.9633C90.5509 88.9026 90.4307 88.8297 90.2865 88.7932C89.0365 88.4286 87.8226 88.9512 86.8491 89.8141C84.6136 90.3367 82.8949 91.6858 82.7267 94.5785C82.7147 94.7973 82.7868 95.0039 82.8949 95.1862C82.8829 95.2226 82.8589 95.247 82.8469 95.2834C82.5945 95.8547 82.5584 96.5353 83.0632 96.9971C84.842 98.6379 87.0054 99.9384 89.3731 99.039C89.6735 99.2578 90.0702 99.3793 90.5028 99.2821Z" fill="black"/>
</g>
</svg>
