<svg width="208" height="202" viewBox="0 0 208 202" fill="none" xmlns="http://www.w3.org/2000/svg">
<g id="airplane icon">
<path id="Fill 223 Copy 3" fill-rule="evenodd" clip-rule="evenodd" d="M110.637 132.719C106.629 131.552 100.732 131.372 98.2136 135.551C95.1923 140.563 100.556 144.99 105.081 145.311C109.192 145.597 114.128 143.165 113.225 138.234C112.333 133.366 106.364 133.663 103.27 136.089C99.6697 138.912 100.475 144.873 105.76 143.806C107.917 143.371 109.935 142.033 110.749 139.87C111.501 137.865 111.031 135.282 109.075 134.207C106.095 132.571 99.2197 134.667 100.947 139.089C102.94 144.198 110.69 141.369 112.686 137.765C113.661 136.006 113.552 133.635 111.294 133.189C108.924 132.722 105.88 134.15 104.32 135.963C100.195 140.76 107.957 144.187 111.106 140.151C111.702 139.384 110.589 139.098 110.047 139.084C109.161 139.061 107.943 139.433 107.364 140.176C108.331 140.025 108.555 139.81 108.035 139.536C107.825 139.401 107.649 139.232 107.504 139.024C107.132 138.454 107.121 137.771 107.319 137.133C107.582 136.281 108.823 134.639 109.209 136.086C109.494 137.142 108.583 138.855 107.666 139.321C106.294 140.011 104.877 138.503 104.762 137.179C104.583 135.185 106.011 135.929 106.621 137.039C107.09 137.894 107.121 139.007 106.881 139.93C106.819 140.165 106.285 141.752 105.916 141.698C105.466 141.641 105.106 140.528 105.025 140.191C104.77 139.112 105.162 137.971 105.874 137.173C107.518 135.334 109.103 138.231 109.239 139.805C109.312 140.651 109.181 141.861 108.613 142.55C107.767 143.589 106.215 143.137 105.128 142.696C102.78 141.741 101.078 139.298 101.598 136.647C102.205 133.543 105.05 133.932 107.384 134.613C108.312 134.882 109.416 134.702 110.24 134.184C110.637 133.935 111.601 133 110.637 132.719Z" fill="#B8B8D1"/>
<path id="Fill 224 Copy" fill-rule="evenodd" clip-rule="evenodd" d="M92.8323 8.35084C90.7381 8.36109 88.5655 8.56351 86.8209 9.64992C85.3745 10.5519 84.6724 12.079 85.8355 13.4114C87.0438 14.7924 89.5087 14.6208 91.0484 13.7522C92.552 12.9015 93.0763 11.1745 92.9859 9.71654C92.763 6.03965 87.2548 5.81673 84.9737 8.3534C82.5692 11.0284 84.9346 14.3338 88.6167 14.6413C90.7501 14.8181 93.3566 14.0776 94.3148 12.3275C95.0621 10.9593 94.6251 9.27327 92.9468 8.60707C91.9855 8.23041 90.7049 8.42258 89.8431 8.91967C89.2616 9.25277 88.5233 10.1214 89.5056 10.5109C90.1595 10.7696 90.3554 11.3334 90.2469 11.9201C90.2047 12.1558 90.0721 12.3173 89.9878 12.5299C90.4759 12.4889 90.6055 12.43 90.3765 12.3557C90.1414 12.3019 89.9215 12.2199 89.7136 12.1046C89.0778 11.7766 88.5746 11.2437 88.4329 10.6133C88.3425 10.2341 88.3697 9.84978 88.4902 9.47569C88.5655 9.25277 88.8608 8.94529 88.8819 8.75056C89.1712 8.52508 89.0024 8.53276 88.3817 8.77362C87.6947 8.78643 87.5651 8.87611 87.99 9.05035C88.0955 9.34501 88.4118 9.59868 88.5083 9.9369C88.7041 10.6082 88.6047 11.3615 88.3516 12.0149C88.2973 12.2122 88.2039 12.3967 88.0804 12.5735C89.8974 12.7144 90.5301 12.5274 89.9757 12.0124C89.9516 11.7126 89.5117 11.4743 89.6412 11.0951C89.8341 10.5262 90.6025 10.639 91.19 10.6364C92.1543 10.6313 93.5554 10.393 94.0617 9.58587C94.5257 8.83768 93.6609 8.34828 92.8323 8.35084Z" fill="#B8B8D1"/>
<path id="Fill 226 Copy" fill-rule="evenodd" clip-rule="evenodd" d="M115.523 12.5675C112.474 15.2077 108.902 17.7368 106.19 20.6858C104.156 22.8987 106.034 25.1265 108.788 25.3167C111.658 25.5168 114.049 23.8817 115.945 22.0689C118.489 19.6386 121.018 16.9267 121.33 13.3949C121.446 12.0217 118.43 13.1331 117.921 13.4492C113.669 16.0796 110.139 19.4781 107.466 23.5409C106.554 24.924 110.368 24.1262 110.988 23.4866C113.687 20.6932 115.813 17.5763 117.41 14.1235C117.837 13.1998 114.104 13.5678 113.608 14.6397C112.083 17.9344 110.036 20.8784 107.466 23.5409C108.64 23.5236 109.812 23.5039 110.988 23.4866C113.545 19.5966 116.861 16.376 120.931 13.8567C119.794 13.874 118.663 13.8913 117.526 13.9111C117.333 16.124 116.309 17.9245 114.832 19.6312C113.885 20.7228 111.545 23.9534 109.825 23.121C107.226 21.859 111.825 18.7865 112.851 17.8974C114.745 16.2574 116.642 14.615 118.536 12.9726C120.092 11.6265 116.333 11.8636 115.523 12.5675Z" fill="#EB9078"/>
<path id="Fill 1194" fill-rule="evenodd" clip-rule="evenodd" d="M147.673 195.157C144.975 194.545 141.42 193.696 138.179 193.666C138.565 187.501 136.966 181.276 136.352 175.104C135.567 167.091 135.081 159.048 134.496 151.02C134.311 148.483 134.082 145.952 133.825 143.421C134.139 143.473 134.468 143.479 134.839 143.398C142.006 141.825 149.458 141.354 156.753 140.689C158.438 140.537 158.438 138.186 156.753 138.034C148.887 137.32 141.363 137.081 133.54 138.383C133.454 138.396 133.383 138.43 133.297 138.451C133.226 137.907 133.154 137.362 133.083 136.818C133.397 136.986 133.754 137.101 134.182 137.117C143.761 137.448 153.312 134.429 162.649 131.995C162.563 133.219 162.492 134.445 162.421 135.668C161.721 146.477 160.907 157.28 160.308 168.098C160.022 173.262 159.808 178.427 159.665 183.595C159.523 188.65 158.823 194.391 159.88 199.353C159.922 199.491 159.965 199.616 160.037 199.729C156.053 197.547 152.099 196.159 147.673 195.157ZM71.6088 50.0527C69.5102 55.4181 67.0118 62.5675 67.3973 68.4971C66.1267 68.0446 64.8561 67.5935 63.5855 67.1409C63.7282 65.4482 63.4142 63.5887 63.6426 61.9975C64.0994 58.8673 65.0559 55.7532 65.9125 52.7173C65.9268 52.6418 65.9553 52.5722 65.9696 52.5012C66.2266 53.6195 66.6549 54.6798 67.3402 55.6574C67.7542 56.2637 68.7107 56.0853 68.725 55.2846C68.8106 51.8876 68.368 48.6428 68.882 45.24C69.3674 41.9488 70.1526 38.7288 70.4809 35.4086C70.4952 35.3158 70.4809 35.2331 70.4667 35.1548C73.5932 35.2824 76.7197 35.4463 79.8462 35.6537C76.0773 39.8558 73.6789 44.7309 71.6088 50.0527ZM162.649 199.353C163.491 194.685 162.906 189.529 163.02 184.783C163.149 179.217 163.406 173.656 163.706 168.098C164.305 157.279 165.147 146.475 165.876 135.665C165.976 134.152 166.075 132.633 166.175 131.112C167.075 130.896 167.974 130.688 168.874 130.495C169.231 130.419 169.131 129.895 168.788 129.875C167.946 129.827 167.103 129.799 166.261 129.783C167.517 111.033 168.531 91.5469 165.247 73.0749C165.562 73.278 165.976 73.3302 166.332 73.0894C171.5 69.6532 175.526 64.3284 179.524 59.6245C184.892 53.3192 189.988 46.7529 194.614 39.8616C200.81 30.6234 211.617 14.1981 204.108 2.90167C204.079 2.86686 204.051 2.8509 204.022 2.81899C204.393 2.61157 204.764 2.3998 205.121 2.16337C205.478 1.92404 205.35 1.3482 204.907 1.33659C202.123 1.27422 199.396 2.13291 196.655 2.62463C193.272 3.23673 189.874 3.75021 186.491 4.36667C179.981 5.55462 173.728 7.49247 167.846 10.5994C161.05 14.1894 154.983 19.327 149.344 24.5531C146.488 27.2119 143.747 29.9997 141.006 32.7861C139.007 34.824 136.709 36.8692 134.967 39.2306C134.839 39.0957 134.667 38.9971 134.453 38.9565C124.174 37.11 113.881 35.4666 103.531 34.0886C96.9065 32.95 90.2823 31.794 83.6438 30.7844C72.4511 29.0874 61.2584 28.249 49.9801 27.75C39.4441 27.2858 28.8796 26.9464 18.3294 27.1292C14.3035 27.1974 10.2918 27.5208 6.323 28.1982C4.5099 28.5086 2.08292 28.7102 1.35483 30.7105C1.24061 31.0368 1.59752 31.3211 1.89733 31.2529C8.05044 29.8053 15.0173 30.3072 21.3274 30.2753C29.9646 30.2318 38.6018 30.5219 47.239 30.915C43.8698 31.105 40.2151 31.0049 37.3027 32.8369C36.4033 33.4055 36.5889 34.7225 37.5882 35.0431C40.8004 36.0787 44.2696 35.2476 47.5817 35.0677C51.7361 34.8385 55.8762 34.8139 60.0307 34.8647C62.8717 34.9009 65.7126 34.9807 68.5394 35.0808C68.5394 35.1054 68.5251 35.1272 68.5251 35.1548C68.4965 35.3158 68.468 35.4855 68.4394 35.6537C65.5699 41.1627 62.2435 46.3656 59.6166 52.0471C58.4174 54.6551 56.2617 60.0437 56.1047 64.5083C51.6219 62.9447 47.1391 61.4072 42.6278 59.9349C35.7608 57.6939 28.7654 55.8474 21.87 53.6499C15.7026 51.6816 9.62084 48.8793 3.38207 47.2707C3.09654 47.1996 2.75391 47.5506 2.95378 47.8277C6.3801 52.4982 12.7188 54.5347 17.8297 56.6365C24.9108 59.5476 32.4202 61.4695 39.6726 63.8991C46.1112 66.0618 52.4214 68.5711 58.8314 70.844C58.86 70.8571 58.8743 70.8687 58.8885 70.8803C59.2026 71.0413 59.4882 71.1312 59.788 71.1835C61.0157 71.6128 62.2435 72.0363 63.4855 72.4454C72.3083 75.342 81.0883 77.8427 90.1538 79.7413C92.1239 80.1547 92.852 77.3176 90.9532 76.6852C86.0993 75.078 81.2739 73.4013 76.4485 71.7056C76.6341 70.9876 76.7197 70.2784 76.7626 69.7533C76.9767 65.9791 78.3901 62.4428 79.9747 59.0661C83.0727 52.4286 87.1129 46.0175 88.1408 38.6287C88.2407 37.9731 87.327 37.4567 86.9987 38.1573C83.9007 44.6642 79.0182 50.205 75.4777 56.474C74.821 57.6402 73.5218 60.0713 72.4368 62.7895C72.5082 62.173 72.5938 61.5566 72.6938 60.9459C73.2363 57.9521 74.0215 55.012 74.9209 52.1139C76.6626 46.4845 79.3466 40.935 82.4445 35.9395C82.4588 35.9076 82.4731 35.8742 82.4874 35.8408C83.2726 35.8974 84.0578 35.9482 84.843 36.0105C92.4665 36.611 100.047 37.4509 107.642 38.3096C107.871 38.3473 108.085 38.3879 108.313 38.4271C115.766 39.718 123.589 41.6094 131.17 41.1337C131.455 41.1177 131.684 41.0118 131.855 40.861C132.497 40.919 133.14 40.9814 133.782 41.035C133.54 41.4861 133.297 41.9488 133.111 42.429C132.612 43.6155 133.625 44.6642 134.796 44.155C138.208 42.6654 140.692 39.5874 143.205 36.8982C145.889 34.0393 148.587 31.1993 151.357 28.4288C156.896 22.8851 162.906 17.7909 169.645 13.8239C175.369 10.4631 181.865 8.64706 188.247 7.03992C192.687 5.91579 198.212 5.42552 202.623 3.49637C202.637 3.56745 202.651 3.64142 202.694 3.71104C205.364 8.73409 203.822 14.7754 202.038 19.8376C199.525 26.958 195.299 33.5012 191.031 39.6411C186.491 46.1727 181.423 52.3387 176.197 58.306C172.428 62.5951 168.06 66.5622 164.933 71.3619C164.876 71.0558 164.819 70.7483 164.762 70.4408C164.648 69.8693 163.777 70.0042 163.777 70.5714C163.834 81.4109 164.305 92.2373 164.048 103.083C163.82 111.994 163.334 120.906 162.792 129.808C159.351 129.921 155.968 130.287 152.47 130.81C146.346 131.733 140.349 132.094 134.182 132.436C133.497 132.475 132.983 132.745 132.612 133.135C132.426 131.852 132.24 130.569 132.026 129.289C133.425 128.822 134.867 127.758 136.209 127.23C139.364 125.98 142.734 125.13 146.017 124.306C151.999 122.803 157.738 121.771 163.049 118.455C163.591 118.115 163.249 117.263 162.635 117.411C156.525 118.849 150.114 119.302 143.904 120.166C140.478 120.642 137.209 121.411 133.968 122.651C132.997 123.02 132.055 123.445 131.141 123.899C130.17 118.726 128.9 113.644 126.758 108.858C127.329 108.526 127.929 108.204 128.5 107.865C129.157 107.478 128.743 106.329 128 106.586C127.329 106.813 126.673 107.054 126.002 107.288C125.945 107.154 125.873 107.021 125.802 106.884C125.402 106.098 124.246 106.632 124.431 107.453C124.46 107.572 124.488 107.694 124.517 107.814C115.509 111.07 106.714 114.933 98.1914 119.335C93.266 121.878 88.5406 124.762 84.172 128.208C80.7885 130.88 74.9352 134.702 74.3784 139.364C74.3356 139.741 74.564 140.082 74.8781 140.289C71.6944 147.382 70.6523 155.618 68.8963 163.152C67.8684 167.521 66.9547 171.905 65.7983 176.244C65.2558 178.296 64.6276 180.321 63.9709 182.336C63.2999 184.323 62.2578 186.181 62.1007 188.281C62.0436 189.046 62.6861 189.577 63.3428 189.649C62.6432 190.644 62.0151 191.681 61.4297 192.555C61.0871 193.064 61.7724 193.766 62.272 193.416C64.5705 191.812 68.0254 189.947 68.7107 186.946C68.8392 186.381 68.3395 185.888 67.797 186.019C67.1403 186.171 66.5407 186.47 65.9839 186.856C67.126 184.455 67.6971 181.506 68.368 179.167C69.6815 174.532 70.7379 169.782 71.5802 165.039C73.0364 156.929 74.6782 148.696 75.5633 140.504C75.6347 140.498 75.7204 140.489 75.7918 140.463C77.819 139.799 78.9183 138.309 80.3887 136.812C82.3018 134.853 84.4147 133.083 86.5704 131.419C90.8248 128.163 95.436 125.339 100.047 122.669C108.142 117.976 116.751 114.341 124.945 109.883C126.13 115.602 127.072 121.314 127.815 127.039C127.643 127.406 127.472 127.777 127.244 128.131C126.773 128.859 127.429 129.68 128.157 129.718C129.057 137.144 129.671 144.61 130.185 152.179C130.727 160.196 131.198 168.215 131.941 176.215C132.497 182.113 132.597 188.582 135.181 193.931C134.696 194.031 134.225 194.162 133.768 194.333C132.383 194.874 132.041 197.129 133.768 197.515C135.667 197.937 137.594 197.655 139.521 197.679C141.977 197.71 144.418 198.021 146.831 198.413C151.1 199.106 155.382 200.232 159.565 201.307C160.236 201.482 160.708 200.75 160.508 200.202C161.279 200.645 162.464 200.386 162.649 199.353Z" fill="black"/>
<path id="Fill 1196" fill-rule="evenodd" clip-rule="evenodd" d="M101.612 76.1347C93.0214 82.753 86.2503 92.2519 80.3738 101.038C77.3199 105.625 74.4665 110.331 71.6748 115.069C69.2841 119.158 65.644 123.709 65.3355 128.486C65.2738 129.34 66.3535 129.548 66.9396 129.113C70.811 126.201 72.6927 120.868 75.0063 116.839C77.7363 112.073 80.5743 107.369 83.582 102.747C89.4122 93.7351 96.4609 85.6148 102.569 76.8176C102.954 76.2406 102.106 75.7549 101.612 76.1347Z" fill="black"/>
<path id="Fill 1197" fill-rule="evenodd" clip-rule="evenodd" d="M63.1889 186.522C62.8738 183.81 61.7998 181.104 61.0838 178.459C60.1817 175.1 59.5229 171.674 58.7496 168.284C57.6756 163.537 56.4871 157.148 52.8068 153.453C53.308 152.454 53.0646 150.998 51.6326 150.557C42.3675 147.683 32.2432 149.994 23.1499 146.696C24.811 145.895 26.3003 144.523 27.9471 143.67C32.0284 141.541 36.4246 139.98 40.7636 138.413C45.432 136.72 50.086 134.943 54.7114 133.103C58.2628 131.695 62.4442 130.458 65.1507 127.708C65.5946 127.258 65.165 126.555 64.5493 126.682C60.3965 127.566 56.4155 129.504 52.3772 130.822C47.3652 132.454 42.2959 133.939 37.3268 135.706C33.8184 136.959 17.8515 141.347 20.2429 146.924C20.3432 147.164 20.6869 147.341 20.9446 147.326C21.0305 147.321 21.1021 147.306 21.1881 147.299C20.8157 147.983 20.8873 148.912 21.7179 149.289C30.8541 153.443 41.1789 151.522 50.6158 154.351C50.8736 154.424 51.1027 154.444 51.3175 154.433C52.0049 156.646 52.9643 158.772 53.666 160.989C54.6255 163.971 55.1839 167.071 55.7424 170.142C56.7448 175.682 56.974 182.975 60.6399 187.562C61.4132 188.539 63.3321 187.746 63.1889 186.522Z" fill="black"/>
<path id="Fill 1198" fill-rule="evenodd" clip-rule="evenodd" d="M178.322 43.6241C178.365 43.6014 178.408 43.5788 178.436 43.5562C178.722 44.1738 179.351 44.6134 180.094 44.3152C180.951 43.9731 181.766 43.5562 182.566 43.1195C181.866 44.2756 181.066 45.3638 180.18 46.3249C180.165 46.3334 180.165 46.3433 180.151 46.3489C179.637 45.4246 179.022 44.5074 178.322 43.6241ZM172.935 37.8846C172.563 37.5285 172.192 37.1907 171.806 36.86C173.292 34.7626 174.278 32.2469 176.036 30.3107C176.207 30.1185 176.293 29.9079 176.336 29.7044C176.436 29.5927 176.536 29.4839 176.65 29.3765C179.594 27.1463 182.195 24.5133 183.981 21.2556C184.038 21.144 184.081 21.0252 184.11 20.9065C184.71 20.3256 185.31 19.7434 185.91 19.1625C188.682 18.8911 191.455 18.7244 194.241 18.5859C193.598 19.8211 192.984 21.0662 192.398 22.3255C191.998 22.1234 191.512 22.0852 191.069 22.3198C184.31 25.9012 179.522 32.1381 174.221 37.4564C173.821 37.8549 173.763 38.3849 173.935 38.8428C173.578 38.5065 173.249 38.1786 172.935 37.8846ZM178.994 20.7072C178.965 20.7256 178.922 20.7468 178.879 20.7694C179.022 20.5362 179.151 20.3016 179.294 20.0656C179.437 20.0402 179.58 20.0105 179.737 19.9836C179.479 20.2239 179.251 20.467 178.994 20.7072ZM162.003 31.6138C161.56 31.4908 161.102 31.382 160.659 31.2816C163.089 29.5503 165.418 27.6876 167.79 25.887L162.003 31.6138ZM169.934 34.7004C169.948 34.7117 169.962 34.7216 169.962 34.7329C169.891 34.9039 169.805 35.0778 169.734 35.2502C169.305 34.9548 168.862 34.675 168.419 34.4036C168.805 34.2029 169.191 33.9994 169.576 33.7945C169.534 34.1294 169.691 34.4644 169.934 34.7004ZM187.854 31.2152C188.239 30.8986 188.597 30.575 188.954 30.2457C188.768 30.7135 188.568 31.1855 188.382 31.6533C188.239 31.4752 188.054 31.324 187.854 31.2152ZM183.438 50.4221C189.368 39.9071 192.541 28.1483 198.471 17.6361C199.043 16.6072 198.3 15.1487 197.042 15.2095C194.556 15.3296 192.012 15.4681 189.44 15.6759C189.511 15.6094 189.583 15.5402 189.64 15.4738C189.783 15.3239 189.597 15.0738 189.425 15.1826C189.111 15.3692 188.797 15.5614 188.482 15.755C188.039 15.7946 187.582 15.8341 187.139 15.8794C186.939 14.907 185.653 14.1679 184.738 15.0851C184.324 15.4935 183.895 15.8977 183.495 16.3062C172.892 17.7393 162.631 21.0662 156.058 30.0563C155.844 30.3474 156.272 30.7615 156.558 30.558C157.087 30.1976 157.616 29.8415 158.144 29.4853C158.016 29.6111 157.887 29.7326 157.758 29.8598C157.716 29.8994 157.673 29.9404 157.63 29.9814C157.616 29.9899 157.601 30.0026 157.601 30.0111C157.358 30.2485 157.115 30.4845 156.872 30.7248C155.629 31.9572 157.415 33.8312 158.716 32.8801C159.259 33.0242 159.802 33.1952 160.331 33.379C160.088 33.8595 160.188 34.3584 160.488 34.7301C160.874 35.2884 161.617 35.6064 162.36 35.1937C162.717 35.0368 163.074 34.87 163.417 34.6962C166.404 36.2339 169.048 38.3595 171.448 40.8568C171.834 41.2483 172.192 41.6511 172.549 42.0624C171.734 43.1435 172.992 44.8381 174.249 44.2191C174.992 45.2381 175.678 46.2924 176.35 47.3609C177.465 49.1232 178.079 50.9012 180.008 51.8962C180.494 52.1449 181.294 51.9442 181.38 51.3252C181.394 51.2517 181.38 51.1768 181.394 51.1019C182.095 51.3959 182.966 51.2771 183.438 50.4221Z" fill="#B8B8D1"/>
<path id="Fill 1199" fill-rule="evenodd" clip-rule="evenodd" d="M171.842 54.5111C172.452 52.9733 171.188 51.4472 169.837 52.1968C169.459 52.4115 169.052 52.6278 168.645 52.8525C168.311 52.7351 167.904 52.7536 167.498 53.0018C167.469 53.0253 167.425 53.0521 167.381 53.0739C165.798 53.1846 164.229 53.5468 163.023 54.7526C161.831 55.9466 161.483 57.5214 161.526 59.1598C161.497 59.2386 161.453 59.3124 161.424 59.3896C161.221 59.8876 161.381 60.3589 161.671 60.6054C161.788 61.3517 161.962 62.0912 162.165 62.8006C161.831 64.533 163.531 66.2922 164.824 64.7258C165.362 64.0668 165.841 63.3943 166.263 62.705C167.12 61.8715 167.992 61.0515 168.791 60.1526C170.186 58.6047 171.043 56.5034 171.842 54.5111Z" fill="black"/>
<path id="Fill 1200" fill-rule="evenodd" clip-rule="evenodd" d="M144.882 73.0523C143.211 73.7091 142.809 75.4696 142.67 77.0905C142.608 77.7844 143.289 78.3216 143.923 78.3418C144.665 78.3666 145.408 78.3666 146.15 78.317C146.754 78.7982 147.728 78.7967 148.316 78.2254C148.455 78.0918 148.579 77.9614 148.718 77.8295C149.012 77.7317 149.306 77.6199 149.6 77.4833C151.904 76.4136 153.791 74.1671 155.57 72.4127C156.437 71.5448 155.88 70.3308 154.89 69.9256C152.554 68.977 148.594 66.8702 146.197 68.7643C144.99 69.716 144.758 71.357 144.882 73.0523Z" fill="black"/>
<path id="Fill 1201" fill-rule="evenodd" clip-rule="evenodd" d="M124.222 95.4024C124.18 95.477 124.152 95.548 124.11 95.6244C123.702 96.3811 124.518 97.3936 125.109 96.8927C125.165 96.8412 125.235 96.7861 125.292 96.7328C127.177 97.1574 129.188 97.7648 131.031 96.8767C133.366 95.7594 135.181 92.9778 136.897 90.8338C137.882 89.5939 137.052 87.878 135.87 87.6915C135.082 87.5672 134.013 87.203 132.916 86.9473C132.55 86.6897 132.114 86.5902 131.706 86.7306C130.708 86.6169 129.779 86.6986 129.09 87.2492C128.175 87.9828 127.711 89.1463 127.43 90.4448C127.317 90.5691 127.219 90.7006 127.12 90.832C125.995 91.7201 125.165 92.9298 124.377 94.3544C124.208 94.6563 124.166 95.0347 124.222 95.4024Z" fill="black"/>
<path id="Fill 1202" fill-rule="evenodd" clip-rule="evenodd" d="M113.974 100.028C109.702 100.837 106.789 102.172 103.589 105.374C103.03 105.933 102.97 106.709 103.211 107.357C103 107.822 102.849 108.328 102.713 108.855C102.441 109.923 103.392 110.879 104.389 110.625C109.536 109.305 112.917 107.234 115.755 102.48C116.555 101.157 115.242 99.7867 113.974 100.028Z" fill="black"/>
<path id="Fill 1203" fill-rule="evenodd" clip-rule="evenodd" d="M153.113 40.5418C153.331 39.4123 152.343 38.204 151.079 38.8452C149.262 39.7845 147.722 41.0525 146.458 42.5767C146.124 42.8506 145.804 43.1309 145.499 43.4241C145.194 43.7206 145.078 44.0976 145.107 44.4714C143.945 46.3983 143.145 48.6201 142.68 51.0465C142.55 51.8118 143.334 52.3032 143.857 51.7877C145.339 50.328 146.153 48.8151 147.112 46.9091C147.533 46.0584 148.027 45.314 148.579 44.6502C150.207 43.9059 151.747 43.0197 153.084 41.6486C153.447 41.2877 153.374 40.8334 153.113 40.5418Z" fill="black"/>
<path id="Fill 1204" fill-rule="evenodd" clip-rule="evenodd" d="M120.02 65.03C119.687 65.2763 119.355 65.5325 119.039 65.8102C118.225 66.516 118.84 68.0994 119.953 67.9953C122.297 67.7705 125.205 67.8151 127.199 66.3986C129.177 65.0069 130.374 62.3805 131.77 60.4863C132.302 59.7673 131.836 58.8268 131.122 58.4334C130.822 57.6153 129.792 57.0483 128.795 57.4847C127.15 58.1971 125.704 59.5012 124.441 60.8797C123.061 61.7193 121.748 62.6813 120.518 63.8003C120.12 64.1738 119.987 64.6119 120.02 65.03Z" fill="black"/>
<path id="Fill 1205" fill-rule="evenodd" clip-rule="evenodd" d="M106.992 80.9423C107.261 81.2496 107.688 81.4323 108.163 81.2772C108.971 81.0162 109.73 80.677 110.459 80.2826C110.569 80.8031 111.282 81.2308 111.725 80.7147C112.168 80.2174 112.5 79.6984 112.801 79.1547C114.511 78.3153 116.141 77.2889 117.866 76.2175C119.196 75.3984 118.832 73.2977 117.043 73.334C116.299 73.3456 115.492 73.3659 114.685 73.4644C114.384 73.3311 114.004 73.3514 113.688 73.637C112.627 73.882 111.662 74.3386 111.06 75.2085C110.997 75.2911 110.965 75.3738 110.918 75.4593C109.129 76.2596 107.372 77.1149 105.852 78.3892C104.681 79.3693 105.678 80.8364 106.992 80.9423Z" fill="black"/>
<path id="Fill 1206" fill-rule="evenodd" clip-rule="evenodd" d="M95.5975 95.244C95.1154 95.1733 94.8525 95.0305 94.6918 94.7478C95.5244 94.1238 96.4155 93.5149 97.3651 93.2548C97.4965 93.2187 97.628 93.1961 97.7595 93.1706C97.0583 93.8908 96.3425 94.5884 95.5975 95.244ZM101.192 90.1664C100.944 90.1589 100.681 90.1423 100.433 90.1258C100.404 89.6296 99.863 89.1409 99.2787 89.4101C98.7966 89.6296 98.3 89.8236 97.8033 90.0145C97.3943 90.019 96.9706 90.0431 96.5616 90.1002C94.8963 90.3378 93.2602 91.6309 91.8724 92.518C91.3904 92.8353 91.0398 93.3886 91.0105 93.9825C90.47 94.5824 89.9588 95.2245 89.4767 95.8845C89.1991 96.28 89.3598 96.8874 89.652 97.2137C90.4116 98.0272 91.1566 98.8421 91.9016 99.6586C92.2814 100.062 92.8366 100.083 93.304 99.854C96.7369 98.1264 99.4832 95.4214 102.23 92.745C103.194 91.8083 102.434 90.213 101.192 90.1664Z" fill="black"/>
<path id="Fill 1207" fill-rule="evenodd" clip-rule="evenodd" d="M79.5369 108.805C79.3094 108.306 78.5569 108.65 78.6794 109.16C78.8719 109.874 79.1869 110.449 79.5894 110.99C79.5194 111.068 79.4494 111.144 79.3794 111.228C78.2069 112.723 78.7844 114.512 80.1319 115.664C80.8494 116.27 81.8119 116.039 82.1094 115.105C82.4594 114.071 82.6869 113.017 82.3369 112.049C82.4419 111.967 82.5294 111.889 82.6169 111.807C83.1944 111.264 83.9993 110.371 83.9993 109.515C83.9993 108.618 83.3344 107.798 82.4244 108.044C81.5669 108.281 81.3044 109.235 80.7269 109.848C80.6569 109.937 80.5519 110.027 80.4819 110.112C80.0619 109.752 79.7644 109.317 79.5369 108.805Z" fill="black"/>
</g>
</svg>
