<svg width="258" height="234" viewBox="0 0 258 234" fill="none" xmlns="http://www.w3.org/2000/svg">
<g id="money icon">
<g id="Group 24">
<path id="Fill 219" fill-rule="evenodd" clip-rule="evenodd" d="M75.7926 121.598C76.3126 111.372 76.814 100.806 74.0753 90.8197C73.894 90.1611 72.2566 83.6304 71.326 83.5131C68.734 83.1931 69.854 88.1797 69.918 89.4304C70.2166 95.5077 70.9446 101.51 71.9206 107.516C72.5206 111.201 65.4566 109.233 64.3873 107.385C61.3633 102.169 54.8353 93.6277 48.1046 92.8331C49.15 92.5424 50.19 92.2491 51.2326 91.9584C44.6486 101.846 75.086 117.686 81.0166 121.689C78.894 122.044 76.7713 122.398 74.6486 122.75C72.6513 109.772 70.6566 96.7931 68.6593 83.8144C71.2513 84.0757 73.8433 84.3344 76.4353 84.5931C76.4246 94.7131 76.4113 104.833 76.4006 114.95C76.3953 118.348 70.7846 117.033 69.3473 115.446C65.1073 110.774 60.47 106.598 55.158 103.169C51.182 100.606 47.062 99.0011 43.87 95.4624C40.958 92.2357 46.7313 91.8677 48.654 92.6437C55.8966 95.5691 57.5473 103.681 64.0833 106.998C68.8166 109.398 64.5286 112.732 60.846 110.86C54.3926 107.588 51.7713 99.0731 45.4166 96.5077C47.014 95.5691 48.6086 94.6304 50.2033 93.6891C54.006 97.9024 60.23 100.081 64.7286 103.494C68.7233 106.526 72.31 109.966 75.678 113.673C73.326 113.841 70.974 114.004 68.622 114.172C68.6353 104.052 68.646 93.9317 68.6593 83.8144C68.662 80.1531 75.9793 81.6304 76.4353 84.5931C78.4326 97.5744 80.43 110.553 82.4273 123.532C82.9153 126.708 77.3926 125.497 76.0566 124.596C68.0913 119.222 34.7713 102.766 44.1073 88.7451C44.702 87.8517 46.31 87.7584 47.2353 87.8677C57.6513 89.0997 66.6806 98.2437 71.678 106.862C69.1686 106.82 66.654 106.777 64.1446 106.734C63.07 100.142 56.494 67.0651 73.9953 77.6197C79.6193 81.0117 81.654 89.7824 82.7766 95.7451C84.5046 104.945 83.9926 114.377 83.518 123.668C83.3686 126.644 75.6193 124.953 75.7926 121.598Z" fill="#EB9078"/>
<path id="Fill 220" fill-rule="evenodd" clip-rule="evenodd" d="M116.478 58.529C116.942 45.4597 117.606 31.449 115.118 18.5397C114.548 15.5797 114.225 10.3237 111.27 8.99837C107.812 7.44903 109.902 14.505 110.097 17.025C110.665 24.3957 112.068 31.5877 113.924 38.737C114.444 40.7424 110.726 40.0224 110.105 38.8597C108.254 35.3904 105.686 29.4384 102.969 26.9157C100.982 25.073 95.6144 20.249 95.9904 25.7397C96.3504 31.025 105.249 39.2144 108.161 43.6837C109.428 45.633 106.497 46.2464 105.236 45.2357C92.0278 34.6624 101.449 48.953 103.556 51.2997C107.252 55.4224 111.985 58.337 116.969 60.617C116.028 60.9744 115.081 61.3317 114.137 61.689C112.505 44.665 110.876 27.6437 109.246 10.6224C109.065 8.75836 112.094 9.12636 112.836 10.137C116.489 15.121 115.748 20.881 116.172 26.969C116.74 35.1264 117.681 43.049 116.308 51.145C116.017 52.8597 112.998 52.041 112.518 50.881C107.828 39.4784 101.508 29.417 93.2838 20.2464C94.3717 19.8357 95.4571 19.425 96.5424 19.0144C103.334 29.5077 115.233 42.1904 116.561 55.073C116.75 56.9264 113.697 56.5797 112.969 55.5584C108.073 48.6837 103.886 41.6197 100.225 34.001C101.462 33.833 102.7 33.665 103.937 33.4944C106.158 41.2144 108.692 48.785 111.561 56.2864C112.34 58.3184 108.948 58.3717 108.076 57.1557C105.134 53.0517 102.193 48.9504 99.2518 44.8464C98.2678 43.473 99.9344 42.3824 101.254 42.8437C108.068 45.2277 112.574 49.0197 115.734 55.609C116.617 57.4517 113.508 57.5877 112.585 56.7984C106.641 51.7184 101.561 46.2784 96.9318 39.9504C95.4704 37.9557 99.0918 37.2224 100.188 38.721C104.606 44.7557 109.481 50.0544 115.174 54.9237C114.126 55.321 113.073 55.7184 112.025 56.1157C109.977 50.913 106.14 47.4144 100.508 45.6197C101.174 44.953 101.841 44.2837 102.508 43.617C105.452 47.7184 108.39 51.8224 111.334 55.9237C110.172 56.2144 109.012 56.505 107.849 56.793C104.98 49.2917 102.446 41.721 100.225 34.001C99.5798 31.761 103.174 31.9157 103.937 33.4944C107.462 40.8304 111.502 47.6917 116.228 54.3264C115.03 54.489 113.836 54.649 112.636 54.8117C111.377 42.5797 99.8384 30.3717 93.2838 20.2464C91.8971 18.0997 95.3611 17.6944 96.5424 19.0144C104.996 28.4437 111.414 38.6677 116.23 50.3744C114.969 50.2864 113.708 50.1984 112.444 50.1104C113.665 42.905 112.897 36.009 112.396 28.817C112.028 23.5237 112.892 15.8917 109.58 11.3664C110.774 11.2064 111.972 11.0437 113.169 10.8837C114.801 27.905 116.43 44.9264 118.06 61.9477C118.204 63.4517 116.134 63.433 115.228 63.0197C104.828 58.2624 97.4118 50.8677 92.6998 40.417C92.1638 39.2277 93.4758 38.697 94.3984 38.689C99.9184 38.633 103.524 39.9184 107.828 43.361C106.852 43.8784 105.876 44.3984 104.902 44.913C100.137 37.5984 87.6331 26.241 90.6144 16.3424C90.8331 15.6117 91.6998 15.329 92.3904 15.385C102.793 16.2197 109.622 30.4997 113.82 38.353C112.545 38.393 111.273 38.433 110.001 38.4757C107.305 28.097 102.878 12.1744 106.513 1.6277C106.785 0.841032 107.561 0.691698 108.289 0.670365C124.726 0.161032 120.708 50.1984 120.398 58.7904C120.326 60.8757 116.412 60.3424 116.478 58.529Z" fill="#B8B8D1"/>
<path id="Fill 227" fill-rule="evenodd" clip-rule="evenodd" d="M208.569 74.3105C212.761 75.6411 217.489 76.5585 221.444 78.4918C223.887 79.6865 224.863 82.4998 222.097 84.1558C219.367 85.7905 215.551 84.1505 212.945 83.0758C209.732 81.7505 206.577 80.1025 204.783 77.0038C204.223 76.0411 205.647 76.0038 206.263 76.0945C211.756 76.9131 216.927 78.7985 221.588 81.8305C223.62 83.1531 220.799 83.4118 219.695 82.9451C215.748 81.2865 212.175 79.1051 208.956 76.2811C207.356 74.8758 211.169 75.1105 212.001 75.8438C214.759 78.2625 217.764 80.1985 221.151 81.6251C220.516 81.9931 219.887 82.3665 219.255 82.7398C215.441 80.2571 211.372 78.6385 206.86 77.9691C207.356 77.6651 207.847 77.3638 208.343 77.0625C209.337 78.7798 210.657 79.9318 212.417 80.8545C214.116 81.7478 219.049 83.8678 219.836 81.1985C220.441 79.1478 216.313 78.5665 214.841 78.0998C212.604 77.3905 210.367 76.6785 208.127 75.9691C205.895 75.2598 206.276 73.5851 208.569 74.3105Z" fill="#EB9078"/>
<path id="Fill 228" fill-rule="evenodd" clip-rule="evenodd" d="M220.286 79.3558C223.006 77.1425 226.001 75.0252 229.689 75.5185C232.486 75.8918 235.585 77.5585 235.993 80.5905C236.057 81.0705 235.673 81.2625 235.26 81.3478C230.612 82.3052 226.326 84.1558 222.449 86.8972C221.604 87.4945 218.932 87.1718 218.724 85.8972C217.604 79.0305 225.817 77.8838 230.734 77.8865C231.374 77.8865 234.174 78.5878 233.294 79.6812C231.169 82.3265 228.073 83.5292 224.713 83.3238C224.006 83.2812 222.46 83.0892 222.158 82.2892C221.878 81.5478 222.39 81.1718 223.185 81.2198C225.884 81.3878 228.033 80.2705 229.702 78.1958C230.553 78.7932 231.406 79.3932 232.262 79.9905C228.294 79.9878 221.673 80.8572 222.58 86.4118C221.337 86.0785 220.094 85.7452 218.852 85.4118C223.108 82.4038 227.769 80.3718 232.873 79.3212C232.628 79.5745 232.385 79.8278 232.14 80.0785C231.457 75.0412 225.926 79.1798 223.884 80.8412C222.865 81.6705 219.292 80.1665 220.286 79.3558Z" fill="#EB9078"/>
</g>
<path id="Fill 222" fill-rule="evenodd" clip-rule="evenodd" d="M236.666 186.6C235.496 188.081 235.959 190.05 237.345 191.224C239.001 192.63 241.331 192.415 243.186 191.551C244.964 190.717 246.309 189.041 246.601 187.061C246.908 185.005 246.157 182.732 243.984 182.183C239.253 180.995 235.137 185.806 236.939 190.346C237.778 192.46 239.926 193.182 241.991 192.295C243.854 191.492 244.741 188.218 243.736 186.478C242.46 184.263 239.142 184.534 237.436 186.107C235.233 188.137 237.03 190.669 238.789 192.184C239.716 192.981 241.411 192.326 242.242 191.704C244.092 190.321 244.583 187.853 243.195 185.965C242.422 184.913 238.554 186.271 239.471 187.521C240.285 188.625 240.172 190.273 239.054 191.11C240.205 190.948 241.359 190.786 242.51 190.63C241.917 190.117 241.254 189.59 240.837 188.915C240.575 188.494 240.387 187.959 240.426 187.454C240.484 186.751 241.166 186.564 239.912 186.888C238.687 187.203 239.377 187.052 239.805 187.68C240.061 188.062 240.114 188.508 240.111 188.951C240.108 189.953 239.634 190.895 239.217 191.779C239.976 191.333 240.738 190.887 241.5 190.441C242.021 190.374 241.527 190.257 241.271 189.897C241.022 189.551 240.856 189.108 240.749 188.695C240.545 187.914 240.503 187.038 240.625 186.243C240.702 185.755 240.832 185.22 241.086 184.79C241.179 184.595 241.306 184.428 241.469 184.294C241.671 184.141 241.629 184.127 241.34 184.261C242.204 184.439 242.543 185.783 242.623 186.497C242.709 187.247 242.593 188.039 242.309 188.737C242.151 189.124 241.941 189.462 241.685 189.791C241.491 190.042 241.224 190.031 241.428 190.059C241.778 190.1 241.014 189.629 240.928 189.554C240.641 189.303 240.387 188.968 240.227 188.625C239.904 187.933 239.896 187.247 240.379 186.637C240.972 185.881 239.863 185.538 239.311 185.515C238.402 185.479 237.251 185.861 236.666 186.6Z" fill="#B8B8D1"/>
<path id="Fill 223" fill-rule="evenodd" clip-rule="evenodd" d="M14.6369 201.386C10.629 200.219 4.73177 200.039 2.21356 204.218C-0.807742 209.229 4.55569 213.657 9.08065 213.977C13.192 214.263 18.1278 211.832 17.225 206.901C16.3334 202.032 10.3635 202.33 7.26955 204.755C3.6697 207.579 4.47464 213.54 9.75981 212.473C11.9175 212.038 13.9354 210.699 14.7487 208.537C15.5006 206.532 15.031 203.949 13.0746 202.873C10.0952 201.237 3.21972 203.334 4.94698 207.756C6.93975 212.865 14.69 210.036 16.6856 206.432C17.661 204.673 17.552 202.301 15.2937 201.855C12.9237 201.389 9.87999 202.816 8.32043 204.63C4.19515 209.426 11.9566 212.853 15.1065 208.817C15.7018 208.051 14.5894 207.765 14.0472 207.75C13.1612 207.727 11.9426 208.099 11.3641 208.843C12.3311 208.691 12.5547 208.477 12.0349 208.202C11.8253 208.068 11.6492 207.899 11.5038 207.69C11.1321 207.121 11.1209 206.437 11.3194 205.8C11.5821 204.947 12.823 203.305 13.2087 204.753C13.4938 205.808 12.5827 207.521 11.6659 207.988C10.2936 208.677 8.87662 207.17 8.76203 205.845C8.58316 203.852 10.0114 204.595 10.6206 205.705C11.0902 206.56 11.1209 207.673 10.8806 208.597C10.8191 208.831 10.2853 210.419 9.91633 210.365C9.46635 210.307 9.1058 209.195 9.02475 208.857C8.77041 207.779 9.1617 206.638 9.8744 205.84C11.5178 204 13.1025 206.898 13.2395 208.471C13.3121 209.318 13.1808 210.528 12.6134 211.217C11.7666 212.255 10.2154 211.803 9.12816 211.363C6.78044 210.408 5.07834 207.965 5.59819 205.313C6.20469 202.21 9.04991 202.599 11.3837 203.28C12.3116 203.548 13.4156 203.368 14.2401 202.85C14.6369 202.602 15.6012 201.666 14.6369 201.386Z" fill="#B8B8D1"/>
<path id="Fill 229" fill-rule="evenodd" clip-rule="evenodd" d="M255.78 228.369C256.92 225.583 258.198 222.252 256.536 219.413C255.222 217.168 252.9 216.389 250.382 216.752C249.698 216.851 248.105 217.278 248.2 218.227C248.681 222.907 248.165 227.438 246.696 231.914C246.435 232.704 247.942 232.701 248.323 232.645C250.862 232.292 253.11 231.124 254.393 228.89C256.149 225.828 255.098 222.293 254.093 219.18C253.695 217.953 250.891 218.965 250.414 219.66C248.658 222.242 248.239 225.118 249.371 228.034C249.851 229.266 253.626 228.172 253.187 227.042C252.194 224.489 252.389 221.986 253.953 219.691C252.729 219.85 251.502 220.011 250.275 220.172C250.909 222.122 251.546 224.067 251.467 226.13C251.407 227.653 250.814 230.419 248.871 230.692C249.416 230.935 249.959 231.178 250.501 231.423C252.026 226.782 252.513 222.073 252.018 217.232C251.288 217.723 250.564 218.216 249.835 218.705C252.16 218.37 253.363 221.289 253.442 223.029C253.534 225.084 252.742 226.978 251.973 228.862C251.517 229.979 255.298 229.555 255.78 228.369Z" fill="#EB9078"/>
<path id="Fill 207" fill-rule="evenodd" clip-rule="evenodd" d="M76.2388 225.285C66.1588 224.004 54.8655 223.787 44.5855 224.899C44.3188 219.561 43.8255 214.623 44.1455 209.261C46.2655 209.239 48.3855 209.265 50.4921 209.315C50.3321 213.779 49.6921 218.592 50.2521 222.995C50.3188 223.484 50.9588 223.484 51.0255 222.995C51.5855 218.595 50.9455 213.785 50.7855 209.323C57.0655 209.479 63.3188 209.9 69.5855 210.372C68.5321 213.573 67.9721 216.789 68.3855 220.171C68.4388 220.628 69.0788 220.543 69.0121 220.087C68.4788 216.781 68.9321 213.576 69.8521 210.392C72.3721 210.583 74.8921 210.776 77.4255 210.965C76.3455 215.059 75.8388 219.344 76.2255 223.559C76.2788 224.048 76.9455 224.048 76.9855 223.559C77.3855 219.345 77.0521 215.175 77.6521 210.984C81.3188 211.256 84.9721 211.511 88.6255 211.7C89.1455 215.005 89.7855 218.281 89.8121 221.643C89.8655 228.404 80.0521 225.768 76.2388 225.285ZM90.1588 208.232C74.3321 207.66 58.5855 205.715 42.7321 206.239C41.8655 206.267 41.2921 206.907 41.2255 207.751C40.8121 213.213 39.6388 220.163 42.5188 225.141C42.1721 225.185 41.7988 225.217 41.4521 225.267C40.8788 225.347 40.9455 226.237 41.4521 226.367C50.0788 228.561 58.9855 228.756 67.8655 228.884C73.6655 228.968 79.4121 229.819 85.1988 229.836C96.6921 229.873 92.9188 216.821 91.8655 209.537C91.7588 208.749 90.8788 208.259 90.1588 208.232Z" fill="black"/>
<path id="Fill 208" fill-rule="evenodd" clip-rule="evenodd" d="M105.131 222.204C105.158 219.547 105.105 216.94 104.505 214.421C105.491 212.071 105.571 209.631 105.771 207.008C113.171 206.391 120.571 207.456 127.985 207.117C135.558 206.773 143.038 206.633 150.611 207.027C150.518 209.664 150.385 212.281 150.451 214.877C150.171 214.92 149.891 215.101 149.771 215.435C149.465 216.239 149.211 217.06 149.051 217.893C149.025 217.675 148.691 217.677 148.678 217.912C148.638 219.364 148.598 220.815 148.571 222.265C134.291 224.508 119.491 222.809 105.131 222.204ZM153.865 205.492C153.878 204.575 153.118 203.941 152.251 203.885C144.158 203.363 136.078 203.356 127.985 203.867C120.105 204.363 112.278 202.959 104.411 203.837C104.038 203.409 103.225 203.293 102.945 203.916C101.905 206.201 101.598 208.636 101.638 211.124C101.598 210.896 101.278 210.901 101.251 211.137C100.798 215.569 100.185 219.508 101.758 223.785C101.878 224.136 102.238 224.361 102.585 224.384C102.851 224.723 103.251 224.952 103.705 224.972C120.291 225.724 137.398 228.108 153.811 224.531C154.625 224.355 155.198 223.359 154.918 222.571C152.971 216.993 153.745 211.273 153.865 205.492Z" fill="black"/>
<path id="Fill 209" fill-rule="evenodd" clip-rule="evenodd" d="M132.731 156.197C131.145 159.704 131.571 163.359 131.611 167.101C131.625 167.511 132.251 167.511 132.251 167.101C132.238 163.519 131.825 159.916 133.398 156.569C133.465 156.417 133.425 156.276 133.345 156.169C134.105 156.135 134.865 156.109 135.625 156.064C139.665 155.821 143.771 154.928 147.811 155.669C151.065 156.268 148.678 167.679 148.425 169.409C148.131 171.316 136.771 170.477 134.345 170.497C129.051 170.543 123.931 170.137 118.665 170.56C118.678 170.533 118.705 170.52 118.705 170.489C118.998 166.723 119.185 162.963 119.571 159.197C119.585 159.127 119.465 159.112 119.451 159.181C118.771 162.897 117.838 166.693 118.065 170.489C118.065 170.539 118.105 170.563 118.118 170.6C115.331 170.853 112.558 171.144 109.771 171.273C110.985 167.02 111.278 162.448 110.798 158.069C110.758 157.668 110.118 157.661 110.158 158.069C110.625 162.625 109.891 166.851 109.091 171.309C107.838 171.353 106.598 171.371 105.345 171.315C104.598 171.283 104.091 170.877 103.758 170.269C103.651 168.515 103.478 166.739 103.225 164.967C103.345 163.668 103.518 162.531 103.545 161.984C103.705 159.673 103.118 157.709 102.238 155.592C102.051 155.139 101.611 154.988 101.225 155.06C101.225 155.019 101.211 154.977 101.198 154.935C101.291 154.959 101.358 155.001 101.451 155.012C111.585 156.045 122.438 156.619 132.731 156.197ZM101.291 172.539C101.291 172.548 101.291 172.556 101.305 172.567C101.305 172.627 101.305 172.687 101.305 172.748C101.345 173.957 102.731 174.271 103.438 173.684C109.491 174.729 115.851 173.44 121.905 173.003C130.931 172.349 140.358 173.067 149.438 173.007C150.011 173.003 150.665 172.591 150.771 171.988C151.851 166.24 155.438 154.232 147.318 152.724C142.118 151.756 136.625 153.571 131.371 153.256C121.398 152.66 111.398 153.131 101.451 152.093C101.038 152.051 100.731 152.176 100.505 152.375C100.451 152.196 100.185 152.187 100.131 152.375C98.9313 157.324 100.065 162.497 100.798 167.6C100.745 169.233 100.825 170.876 101.291 172.539Z" fill="black"/>
<path id="Fill 210" fill-rule="evenodd" clip-rule="evenodd" d="M149.598 179.812C149.452 185.89 148.985 191.957 150.372 197.889C139.452 198.424 128.545 199.31 117.585 199.172C116.732 199.16 115.878 199.11 115.025 199.076C115.198 199.062 115.372 198.95 115.372 198.717C115.505 194.181 115.292 189.698 115.065 185.168C115.052 185.085 114.932 185.085 114.932 185.168C114.705 189.698 114.492 194.181 114.612 198.717C114.625 198.946 114.785 199.057 114.958 199.073C112.905 198.986 110.838 198.857 108.772 198.68C103.572 198.232 103.745 197.568 104.065 192.946C104.198 190.869 104.358 188.972 104.332 187.12C104.905 184.536 105.305 182.002 104.518 179.906C119.545 179.814 134.585 178.949 149.598 179.812ZM101.638 201.026C101.692 200.866 101.745 200.692 101.798 200.51C101.918 200.586 102.052 200.65 102.198 200.674C118.732 203.585 135.625 201.492 152.252 200.768C153.198 200.726 153.985 199.846 153.692 198.886C151.665 192.184 152.532 185.28 152.625 178.393C152.638 177.537 151.932 176.95 151.132 176.896C135.332 175.844 119.518 176.821 103.705 176.87C103.092 176.873 102.705 177.182 102.465 177.586C102.092 177.645 101.772 177.953 101.758 178.393C101.692 180.029 102.118 181.557 102.105 183.197C102.092 185.629 101.478 188.076 101.145 190.481C100.905 192.213 101.145 193.85 101.358 195.477C101.225 196.742 101.132 198.008 101.132 199.282C101.132 199.573 101.238 199.885 101.412 200.141C101.372 200.402 101.332 200.661 101.265 200.926C101.198 201.166 101.545 201.252 101.638 201.026Z" fill="black"/>
<path id="Fill 211" fill-rule="evenodd" clip-rule="evenodd" d="M47.1183 213.96C47.0783 217.16 47.0383 220.359 46.9983 223.559C46.9983 223.885 47.505 223.885 47.505 223.559C47.465 220.359 47.425 217.16 47.3716 213.96C47.3716 213.797 47.1183 213.797 47.1183 213.96Z" fill="black"/>
<path id="Fill 212" fill-rule="evenodd" clip-rule="evenodd" d="M55.0382 211.073C53.3849 214.464 52.8649 218.939 54.2782 222.515C54.4249 222.888 54.9849 222.751 54.8915 222.345C54.0382 218.519 53.6515 214.912 55.2649 211.201C55.3315 211.055 55.1182 210.924 55.0382 211.073Z" fill="black"/>
<path id="Fill 213" fill-rule="evenodd" clip-rule="evenodd" d="M58.4113 211.137C58.318 214.865 57.958 218.71 58.2246 222.429C58.2513 222.837 58.8246 222.837 58.8646 222.429C59.118 218.71 58.758 214.865 58.6646 211.137C58.6646 210.974 58.4246 210.974 58.4113 211.137Z" fill="black"/>
<path id="Fill 214" fill-rule="evenodd" clip-rule="evenodd" d="M61.7446 211.137C61.718 214.525 61.6913 217.912 61.678 221.3C61.678 221.626 62.1846 221.626 62.1846 221.3C62.158 217.912 62.1446 214.525 62.118 211.137C62.118 210.893 61.7446 210.893 61.7446 211.137Z" fill="black"/>
<path id="Fill 215" fill-rule="evenodd" clip-rule="evenodd" d="M64.0651 211.137C63.9851 214.682 63.6784 218.328 63.9318 221.865C63.9584 222.19 64.4118 222.19 64.4384 221.865C64.7051 218.328 64.3851 214.682 64.3184 211.137C64.3051 210.974 64.0651 210.974 64.0651 211.137Z" fill="black"/>
<path id="Fill 216" fill-rule="evenodd" clip-rule="evenodd" d="M73.4787 221.865C73.4387 220.325 73.2654 218.44 73.3454 216.623C73.1187 218.331 73.0121 220.056 72.9721 221.865C72.9587 222.192 73.4787 222.192 73.4787 221.865Z" fill="black"/>
<path id="Fill 217" fill-rule="evenodd" clip-rule="evenodd" d="M74.2787 212.249C74.212 212.476 74.172 212.697 74.1053 212.922C74.1987 212.713 74.292 212.496 74.412 212.301C74.452 212.218 74.3187 212.153 74.2787 212.249Z" fill="black"/>
<path id="Fill 218" fill-rule="evenodd" clip-rule="evenodd" d="M74.1053 212.923C73.6119 214.013 73.4119 215.293 73.3453 216.623C73.5053 215.389 73.7586 214.163 74.1053 212.923Z" fill="black"/>
<path id="Fill 219_2" fill-rule="evenodd" clip-rule="evenodd" d="M79.9322 213.396C79.8655 216.971 79.8122 220.548 79.7455 224.123C79.7322 224.449 80.2522 224.449 80.2522 224.123C80.1855 220.548 80.1188 216.971 80.0655 213.396C80.0522 213.315 79.9322 213.315 79.9322 213.396Z" fill="black"/>
<path id="Fill 220_2" fill-rule="evenodd" clip-rule="evenodd" d="M83.3186 212.267C83.2119 215.615 82.8119 219.089 83.0652 222.429C83.0919 222.837 83.6652 222.837 83.7052 222.429C83.9452 219.089 83.5586 215.615 83.4519 212.267C83.4386 212.184 83.3186 212.184 83.3186 212.267Z" fill="black"/>
<path id="Fill 221" fill-rule="evenodd" clip-rule="evenodd" d="M86.7053 212.267C86.6119 215.867 86.0519 219.392 85.3986 222.927C85.3319 223.249 85.8386 223.38 85.8786 223.061C86.4253 219.473 86.8653 215.903 86.8386 212.267C86.8386 212.184 86.7053 212.184 86.7053 212.267Z" fill="black"/>
<path id="Fill 222_2" fill-rule="evenodd" clip-rule="evenodd" d="M87.7048 215.654L87.5848 224.686C87.5714 225.097 88.2248 225.097 88.2114 224.686L88.0914 215.654C88.0914 215.409 87.7048 215.409 87.7048 215.654Z" fill="black"/>
<path id="Fill 223_2" fill-rule="evenodd" clip-rule="evenodd" d="M106.839 211.137C106.759 213.679 106.225 216.649 106.732 219.143C106.799 219.508 107.385 219.508 107.465 219.143C107.959 216.649 107.439 213.679 107.345 211.137C107.332 210.811 106.852 210.811 106.839 211.137Z" fill="black"/>
<path id="Fill 224" fill-rule="evenodd" clip-rule="evenodd" d="M110.292 208.829C109.078 212.528 108.598 216.291 109.038 220.171C109.078 220.576 109.718 220.572 109.665 220.171C109.158 216.351 109.545 212.612 110.665 208.931C110.732 208.695 110.372 208.597 110.292 208.829Z" fill="black"/>
<path id="Fill 225" fill-rule="evenodd" clip-rule="evenodd" d="M113.812 210.009C113.678 213.535 113.225 217.22 113.492 220.736C113.532 221.227 114.212 221.227 114.252 220.736C114.518 217.22 114.065 213.535 113.932 210.009C113.932 209.927 113.812 209.927 113.812 210.009Z" fill="black"/>
<path id="Fill 226" fill-rule="evenodd" clip-rule="evenodd" d="M117.372 210.073C117.465 209.936 117.238 209.816 117.145 209.945C114.812 213.124 115.718 217.932 117.012 221.368C117.132 221.672 117.558 221.556 117.505 221.233C116.785 217.521 114.985 213.579 117.372 210.073Z" fill="black"/>
<path id="Fill 227_2" fill-rule="evenodd" clip-rule="evenodd" d="M120.519 211.137C120.425 214.678 120.065 218.332 120.332 221.865C120.359 222.273 120.932 222.273 120.959 221.865C121.225 218.332 120.865 214.678 120.772 211.137C120.772 210.974 120.519 210.974 120.519 211.137Z" fill="black"/>
<path id="Fill 228_2" fill-rule="evenodd" clip-rule="evenodd" d="M123.905 211.737C124.932 214.485 124.985 217.272 124.972 220.171C124.972 220.416 125.358 220.416 125.345 220.171C125.332 217.232 125.225 214.439 124.158 211.669C124.092 211.519 123.852 211.583 123.905 211.737Z" fill="black"/>
<path id="Fill 229_2" fill-rule="evenodd" clip-rule="evenodd" d="M128.479 210.009C128.306 213.564 127.906 217.184 128.172 220.736C128.199 221.227 128.892 221.227 128.932 220.736C129.186 217.184 128.786 213.564 128.612 210.009C128.612 209.927 128.492 209.927 128.479 210.009Z" fill="black"/>
<path id="Fill 230" fill-rule="evenodd" clip-rule="evenodd" d="M132.065 208.88C132.078 208.716 131.825 208.72 131.812 208.88C131.372 213.096 132.758 217.104 132.812 221.3C132.812 221.626 133.332 221.626 133.318 221.3C133.172 217.108 131.705 213.098 132.065 208.88Z" fill="black"/>
<path id="Fill 231" fill-rule="evenodd" clip-rule="evenodd" d="M135.199 208.88C135.612 212.637 136.305 216.376 136.132 220.17C136.119 220.528 136.679 220.604 136.759 220.254C137.585 216.422 136.172 212.6 135.439 208.846C135.412 208.708 135.185 208.737 135.199 208.88Z" fill="black"/>
<path id="Fill 232" fill-rule="evenodd" clip-rule="evenodd" d="M139.705 208.88V217.348C139.705 217.512 139.972 217.512 139.972 217.348V208.88C139.972 208.716 139.705 208.716 139.705 208.88Z" fill="black"/>
<path id="Fill 233" fill-rule="evenodd" clip-rule="evenodd" d="M142.358 208.4C142.625 210.337 142.718 212.273 142.758 214.228C142.771 215.859 142.558 217.529 142.918 219.127C142.985 219.431 143.465 219.431 143.531 219.127C144.291 215.788 143.545 211.584 142.971 208.232C142.891 207.823 142.305 208.005 142.358 208.4Z" fill="black"/>
<path id="Fill 234" fill-rule="evenodd" clip-rule="evenodd" d="M147.612 212.88C147.799 211.005 147.639 209.335 146.772 207.655C146.665 207.435 146.345 207.627 146.452 207.847C148.412 212.081 145.252 216.696 147.412 220.928C147.612 221.309 148.252 221.043 148.105 220.635C147.159 217.967 147.332 215.632 147.612 212.88Z" fill="black"/>
<path id="Fill 235" fill-rule="evenodd" clip-rule="evenodd" d="M106.279 196.46L106.345 184.039C106.345 183.548 105.585 183.548 105.585 184.039L105.652 196.46C105.652 196.868 106.279 196.868 106.279 196.46Z" fill="black"/>
<path id="Fill 236" fill-rule="evenodd" clip-rule="evenodd" d="M108.412 195.896C108.652 191.592 108.359 187.219 108.292 182.911C108.292 182.828 108.159 182.828 108.159 182.911C108.092 187.219 107.799 191.592 108.039 195.896C108.052 196.14 108.399 196.14 108.412 195.896Z" fill="black"/>
<path id="Fill 237" fill-rule="evenodd" clip-rule="evenodd" d="M111.865 196.46C112.319 192.401 111.905 188.122 111.865 184.038C111.865 183.71 111.359 183.71 111.359 184.038C111.319 188.122 110.892 192.401 111.359 196.46C111.399 196.786 111.825 196.786 111.865 196.46Z" fill="black"/>
<path id="Fill 238" fill-rule="evenodd" clip-rule="evenodd" d="M120.945 197.109C121.718 192.741 120.598 188.481 122.265 184.173C122.505 183.562 121.518 183.3 121.278 183.904C119.758 187.849 119.545 192.973 120.332 197.109C120.398 197.409 120.892 197.414 120.945 197.109Z" fill="black"/>
<path id="Fill 239" fill-rule="evenodd" clip-rule="evenodd" d="M127.105 198.152C127.132 198.563 127.705 198.559 127.732 198.152C128.052 194.179 127.999 189.98 126.479 186.247C126.385 186.024 126.025 186.115 126.105 186.348C127.572 190.316 126.852 194.076 127.105 198.152Z" fill="black"/>
<path id="Fill 240" fill-rule="evenodd" clip-rule="evenodd" d="M132.185 195.896C132.291 191.557 131.905 187.237 131.998 182.91C131.998 182.822 131.865 182.822 131.865 182.91C131.958 187.237 131.571 191.557 131.678 195.896C131.691 196.222 132.185 196.222 132.185 195.896Z" fill="black"/>
<path id="Fill 241" fill-rule="evenodd" clip-rule="evenodd" d="M137.825 195.827C136.932 191.519 136.612 187.303 136.519 182.911C136.519 182.828 136.385 182.828 136.385 182.911C136.305 187.207 135.999 191.815 137.332 195.961C137.439 196.276 137.892 196.148 137.825 195.827Z" fill="black"/>
<path id="Fill 242" fill-rule="evenodd" clip-rule="evenodd" d="M142.399 193.552C141.172 189.496 141.732 185.953 142.279 181.832C142.319 181.595 141.959 181.487 141.919 181.729C141.239 185.699 140.065 189.949 141.825 193.796C141.972 194.127 142.505 193.891 142.399 193.552Z" fill="black"/>
<path id="Fill 243" fill-rule="evenodd" clip-rule="evenodd" d="M146.918 194.117C145.625 189.976 145.705 186.068 145.678 181.781C145.678 181.535 145.305 181.536 145.291 181.781C145.198 185.923 144.491 190.487 146.345 194.361C146.491 194.688 147.025 194.457 146.918 194.117Z" fill="black"/>
<path id="Fill 244" fill-rule="evenodd" clip-rule="evenodd" d="M149.065 192.508C148.798 189.284 147.958 186.169 147.865 182.911C147.865 182.748 147.611 182.747 147.611 182.911C147.611 186.083 147.891 189.476 148.691 192.559C148.745 192.763 149.078 192.725 149.065 192.508Z" fill="black"/>
<path id="Fill 245" fill-rule="evenodd" clip-rule="evenodd" d="M106.732 170.025C106.812 170.452 107.479 170.348 107.479 169.925C107.425 167.661 107.452 165.463 107.612 163.203C107.745 161.459 107.812 159.701 107.212 158.036C107.159 157.883 106.919 157.944 106.972 158.103C108.132 162.007 105.945 166.081 106.732 170.025Z" fill="black"/>
<path id="Fill 246" fill-rule="evenodd" clip-rule="evenodd" d="M114.185 169.36C114.452 165.776 114.692 162.264 115.239 158.701C115.292 158.383 114.812 158.241 114.759 158.567C114.119 162.085 113.359 165.771 113.545 169.36C113.572 169.771 114.159 169.767 114.185 169.36Z" fill="black"/>
<path id="Fill 247" fill-rule="evenodd" clip-rule="evenodd" d="M123.212 168.796C123.185 165.575 123.132 162.327 124.212 159.249C124.292 159.015 123.932 158.923 123.852 159.147C122.665 162.239 122.625 165.529 122.585 168.796C122.585 169.205 123.225 169.205 123.212 168.796Z" fill="black"/>
<path id="Fill 248" fill-rule="evenodd" clip-rule="evenodd" d="M127.665 168.231C127.692 165.031 127.719 161.833 127.732 158.635C127.732 158.224 127.092 158.224 127.105 158.635C127.119 161.833 127.145 165.031 127.159 168.231C127.172 168.559 127.665 168.559 127.665 168.231Z" fill="black"/>
<path id="Fill 249" fill-rule="evenodd" clip-rule="evenodd" d="M138.399 164.194C138.306 164.594 138.932 164.762 139.012 164.364C139.506 161.892 139.119 158.988 137.746 156.844C137.612 156.638 137.292 156.824 137.412 157.036C138.652 159.102 138.959 161.873 138.399 164.194Z" fill="black"/>
<path id="Fill 250" fill-rule="evenodd" clip-rule="evenodd" d="M142.985 166.471C142.931 166.791 143.411 166.927 143.465 166.605C143.985 163.668 143.585 160.641 142.318 157.941C142.171 157.645 141.745 157.904 141.878 158.197C143.078 160.765 143.465 163.677 142.985 166.471Z" fill="black"/>
<path id="Fill 251" fill-rule="evenodd" clip-rule="evenodd" d="M145.798 167.666V159.764C145.798 159.354 145.172 159.354 145.172 159.764V167.666C145.172 168.076 145.798 168.076 145.798 167.666Z" fill="black"/>
<path id="Fill 252" fill-rule="evenodd" clip-rule="evenodd" d="M197.771 223.598C186.638 219.969 174.385 222.465 162.851 221.545C162.731 216.633 162.465 211.917 161.665 207.145C164.491 207.149 167.318 207.172 170.145 207.216C169.985 211.961 169.678 216.693 170.531 221.4C170.611 221.878 171.371 221.68 171.265 221.197C170.278 216.581 170.438 211.904 170.451 207.221C171.958 207.245 173.465 207.28 174.971 207.324C175.971 211.022 174.998 214.949 176.291 218.544C176.411 218.856 176.825 218.726 176.785 218.408C176.278 214.757 176.398 210.842 175.158 207.332C178.465 207.433 181.758 207.578 185.051 207.829C187.278 208 198.038 207.968 198.065 210.764C198.118 215.097 198.265 219.313 197.771 223.598ZM201.331 208.313C201.331 207.616 200.838 206.87 200.131 206.724C187.211 204.088 174.145 203.856 161.011 203.844C160.958 203.578 160.905 203.314 160.838 203.046C160.665 202.288 159.425 202.442 159.465 203.233C159.478 203.478 159.491 203.726 159.505 203.973C158.225 204.516 158.265 206.617 159.638 207.053C159.825 212.36 159.798 217.688 159.718 222.992C159.705 223.625 160.198 224.42 160.878 224.516C173.331 226.265 186.718 222.712 198.678 227.405C199.451 227.709 200.585 227.078 200.718 226.253C201.651 220.274 201.411 214.346 201.331 208.313Z" fill="black"/>
<path id="Fill 253" fill-rule="evenodd" clip-rule="evenodd" d="M161.852 180.988C161.905 181.008 161.945 181.033 161.999 181.051C170.345 183.527 178.705 182.108 187.199 181.352C193.425 180.797 198.065 181.557 197.599 188.884C197.385 192.161 197.239 195.152 197.732 198.277C196.959 198.305 196.172 198.313 195.399 198.336C195.439 198.287 195.479 198.233 195.492 198.152C195.745 194.245 195.345 190.211 195.239 186.296C195.239 186.215 195.105 186.215 195.105 186.296C194.999 190.211 194.599 194.245 194.852 198.152C194.865 198.239 194.905 198.297 194.945 198.348C183.905 198.664 172.879 198.583 161.839 198.263C162.065 192.673 163.345 186.395 161.852 180.988ZM160.172 201.471C173.319 202.133 186.532 202.013 199.692 201.469C200.759 201.425 201.519 200.468 201.252 199.413C199.599 192.836 201.759 186.253 200.105 179.657C199.985 179.167 199.519 178.612 198.985 178.533C186.919 176.733 174.692 181.493 162.852 177.992C161.985 177.739 161.345 178.181 161.052 178.808C160.812 178.271 160.545 177.741 160.225 177.231C160.185 177.176 160.105 177.199 160.105 177.263C159.785 184.821 158.919 192.297 158.545 199.847C158.492 200.763 159.319 201.427 160.172 201.471Z" fill="black"/>
<path id="Fill 254" fill-rule="evenodd" clip-rule="evenodd" d="M161.691 156.087C169.118 153.169 178.945 154.955 186.851 154.929C188.185 154.925 197.225 154.029 197.251 155.904C197.265 157.296 197.918 171.465 196.558 171.459C185.198 171.389 172.531 168.94 161.411 172.268C161.758 167.02 162.878 161.215 161.278 156.181C161.411 156.168 161.545 156.144 161.691 156.087ZM160.478 174.993C172.118 170.953 185.931 173.877 197.998 174.027C198.505 174.033 199.145 173.636 199.225 173.087C200.211 166.584 199.945 160.105 199.891 153.552C199.891 152.819 199.291 152.213 198.558 152.211C191.785 152.189 185.011 152.168 178.238 152.147C172.345 152.128 166.531 151.108 160.905 153.275C160.425 153.46 160.145 153.816 160.011 154.215C159.771 154.3 159.571 154.532 159.678 154.816C161.838 160.704 159.225 167.749 159.011 173.876C158.985 174.597 159.771 175.237 160.478 174.993Z" fill="black"/>
<path id="Fill 255" fill-rule="evenodd" clip-rule="evenodd" d="M161.585 129.091C161.705 129.148 161.825 129.197 161.971 129.233C169.491 131.117 176.971 130.271 184.611 129.811C186.811 129.679 188.985 129.715 191.185 129.804C195.718 129.991 195.785 130.619 195.825 134.599C195.865 138.492 196.185 142.339 196.705 146.18C186.891 145.513 176.878 146.28 167.051 146.381C163.185 146.423 161.811 146.064 161.491 141.785C161.185 137.541 161.638 133.325 161.585 129.091ZM161.211 148.957C164.278 150.633 170.451 149.54 173.678 149.572C182.011 149.659 190.225 148.744 198.558 149.508C199.691 149.612 200.251 148.413 200.105 147.48C199.158 141.417 199.065 135.393 199.065 129.276C199.065 128.549 198.571 127.881 197.865 127.693C186.318 124.607 174.438 128.877 162.878 125.931C161.358 125.543 160.478 127.091 160.838 128.219C159.291 133.293 155.798 145.995 161.211 148.957Z" fill="black"/>
<path id="Fill 256" fill-rule="evenodd" clip-rule="evenodd" d="M162.052 109.516C162.185 107.896 162.358 106.281 162.545 104.667C162.932 104.647 163.332 104.623 163.732 104.603C165.065 108.604 163.998 112.733 164.305 116.855C164.345 117.348 165.025 117.343 165.065 116.855C165.398 113.009 165.425 108.287 163.918 104.592C174.518 104.013 185.092 103.28 195.718 103.532C196.398 109.187 196.292 114.516 195.252 120.131C189.532 120.596 183.972 122.08 178.238 122.352C172.718 122.615 167.358 120.843 161.945 119.915C162.038 116.871 162.238 113.3 161.465 110.223C161.772 110.144 162.025 109.896 162.052 109.516ZM158.438 121.371C158.412 122.067 158.972 122.94 159.705 123.044C165.345 123.845 170.772 125.663 176.465 126.096C183.252 126.613 190.105 124.124 196.865 123.853C197.678 123.821 198.532 123.297 198.718 122.447C200.238 115.239 200.318 108.381 199.318 101.091C199.198 100.223 198.212 99.6852 197.425 99.6559C185.172 99.1905 172.972 100.145 160.732 100.717C159.825 100.76 159.025 101.303 158.785 102.203C158.065 104.833 157.998 106.585 159.198 108.337C159.798 112.588 158.545 117.152 158.438 121.371Z" fill="black"/>
<path id="Fill 257" fill-rule="evenodd" clip-rule="evenodd" d="M39.1714 176.807C43.8247 178.447 48.7447 176.249 52.7314 173.741C59.5047 169.473 65.9447 164.492 72.358 159.713C85.4247 149.984 97.958 139.765 110.771 129.708C124.705 118.771 139.238 108.593 153.691 98.3519C156.678 96.2306 159.611 94.0132 162.505 91.7559C163.558 93.6999 164.718 95.5892 166.131 97.3386C166.971 98.3666 168.545 97.8919 169.185 96.9452C174.891 88.4252 180.398 80.0092 186.918 72.2266C188.118 71.2972 189.345 70.3879 190.558 69.4826C191.318 69.0826 192.065 68.6892 192.771 68.3066C195.011 67.1119 193.038 63.7372 190.785 64.9106C181.785 69.6226 168.425 76.8812 157.891 75.3372C156.265 75.0986 154.451 76.6852 155.558 78.3812C156.985 80.5732 158.158 82.9012 159.278 85.2426C156.905 87.0306 154.518 88.8119 152.118 90.5586C138.211 100.647 123.905 110.199 110.025 120.34C97.158 129.743 85.0114 140.08 71.7314 148.892C60.6514 156.235 44.5714 162.917 38.7447 175.781C38.558 176.209 38.7047 176.647 39.1714 176.807Z" fill="black"/>
<path id="Fill 258" fill-rule="evenodd" clip-rule="evenodd" d="M41.6247 201.645C43.958 203.522 47.5047 203.417 50.3047 203.346C55.6514 203.209 60.4514 202.572 65.7847 203.525C72.8514 204.79 82.158 207.79 88.6914 203.484C94.598 199.594 92.998 189.281 92.838 183.473C92.8247 182.842 92.3847 182.081 91.7047 181.977C83.3047 180.688 74.9047 180.446 66.4114 180.586C61.518 180.665 56.6247 180.898 51.7314 181.097C48.198 181.241 44.118 180.702 40.798 181.99C39.8914 182.337 39.878 183.486 40.798 183.825C44.6514 185.265 49.6647 184.226 53.7314 184.06C60.1314 183.798 66.5314 183.572 72.9314 183.58C74.6247 183.581 89.7314 183.605 89.718 185.189C89.6514 191.824 90.5847 201.038 81.7047 201.789C76.198 202.254 70.4247 200.553 65.0247 199.601C60.0914 198.733 55.2647 199.312 50.3047 199.64C45.8114 199.936 41.3447 198.853 42.2114 193.101C42.438 191.506 42.8247 189.972 42.998 188.366C43.198 186.465 42.278 185.137 40.478 185.04C40.4114 185.036 40.358 185.1 40.358 185.166C40.558 191.022 35.9847 197.124 41.6247 201.645Z" fill="black"/>
<path id="Fill 259" fill-rule="evenodd" clip-rule="evenodd" d="M47.6387 194.765C47.532 191.941 47.4254 189.119 47.3187 186.296C47.3187 186.215 47.1987 186.215 47.1987 186.296C47.092 189.119 46.9854 191.941 46.8787 194.765C46.852 195.256 47.652 195.256 47.6387 194.765Z" fill="black"/>
<path id="Fill 260" fill-rule="evenodd" clip-rule="evenodd" d="M50.2785 198.817C50.4385 199.272 51.1451 199.096 51.0118 198.616C49.7851 194.066 51.2518 189.742 50.7718 185.166C50.7585 185.008 50.5051 185.001 50.5185 185.166C50.7851 189.72 48.6651 194.368 50.2785 198.817Z" fill="black"/>
<path id="Fill 261" fill-rule="evenodd" clip-rule="evenodd" d="M55.545 196.458C55.4383 192.694 55.3316 188.93 55.225 185.166C55.225 185.085 55.105 185.085 55.0916 185.166C54.985 188.93 54.8783 192.694 54.785 196.458C54.7583 196.949 55.5583 196.949 55.545 196.458Z" fill="black"/>
<path id="Fill 262" fill-rule="evenodd" clip-rule="evenodd" d="M62.3047 196.921C61.198 192.561 61.078 188.512 60.998 184.037C60.9847 183.792 60.6247 183.793 60.6114 184.037C60.478 188.251 59.5314 193.321 61.6114 197.215C61.8114 197.604 62.398 197.332 62.3047 196.921Z" fill="black"/>
<path id="Fill 263" fill-rule="evenodd" clip-rule="evenodd" d="M65.6387 197.023C65.9053 193.105 65.6253 189.093 65.572 185.167C65.572 184.84 65.0787 184.84 65.0653 185.167C65.0253 189.093 64.732 193.105 64.9987 197.023C65.0387 197.431 65.612 197.431 65.6387 197.023Z" fill="black"/>
<path id="Fill 264" fill-rule="evenodd" clip-rule="evenodd" d="M70.5848 197.023C70.6248 197.513 71.3181 197.513 71.3448 197.023C71.6114 193.085 70.9048 189.111 71.0381 185.167C71.0381 185.08 70.8914 185.08 70.9048 185.167C71.0381 189.111 70.3314 193.085 70.5848 197.023Z" fill="black"/>
<path id="Fill 265" fill-rule="evenodd" clip-rule="evenodd" d="M75.2383 197.022C74.8383 193.629 74.6116 190.276 74.5449 186.86C74.5316 186.614 74.1716 186.614 74.1583 186.86C74.0916 190.218 73.7983 193.817 74.6116 197.106C74.6916 197.448 75.2783 197.381 75.2383 197.022Z" fill="black"/>
<path id="Fill 266" fill-rule="evenodd" clip-rule="evenodd" d="M81.5046 198.716C81.4913 194.953 81.4646 191.189 81.4513 187.425C81.4379 187.016 80.8113 187.016 80.8113 187.425C80.7846 191.189 80.7713 194.953 80.7446 198.716C80.7446 199.208 81.5179 199.208 81.5046 198.716Z" fill="black"/>
<path id="Fill 267" fill-rule="evenodd" clip-rule="evenodd" d="M87.0921 198.716L86.9721 186.296C86.9588 186.049 86.5855 186.049 86.5855 186.296L86.4521 198.716C86.4521 199.127 87.0921 199.127 87.0921 198.716Z" fill="black"/>
<path id="Fill 268" fill-rule="evenodd" clip-rule="evenodd" d="M168.385 119.113C168.305 114.784 168.225 110.457 168.132 106.128C168.132 106.047 168.012 106.047 168.012 106.128C167.919 110.457 167.839 114.784 167.759 119.113C167.745 119.521 168.399 119.521 168.385 119.113Z" fill="black"/>
<path id="Fill 269" fill-rule="evenodd" clip-rule="evenodd" d="M172.652 104.999C172.665 104.912 172.519 104.912 172.519 104.999C172.572 106.157 172.585 107.32 172.585 108.487C172.585 107.32 172.599 106.157 172.652 104.999Z" fill="black"/>
<path id="Fill 270" fill-rule="evenodd" clip-rule="evenodd" d="M172.906 119.113C172.826 115.613 172.599 112.071 172.586 108.549C172.572 112.071 172.346 115.613 172.266 119.113C172.266 119.521 172.919 119.521 172.906 119.113Z" fill="black"/>
<path id="Fill 271" fill-rule="evenodd" clip-rule="evenodd" d="M175.652 117.42C175.679 117.828 176.265 117.828 176.292 117.42C176.532 113.289 175.852 109.131 176.039 104.999C176.052 104.912 175.905 104.912 175.905 104.999C176.105 109.131 175.412 113.289 175.652 117.42Z" fill="black"/>
<path id="Fill 272" fill-rule="evenodd" clip-rule="evenodd" d="M179.678 117.984L179.492 106.128C179.492 105.964 179.238 105.964 179.238 106.128L179.052 117.984C179.038 118.393 179.692 118.393 179.678 117.984Z" fill="black"/>
<path id="Fill 273" fill-rule="evenodd" clip-rule="evenodd" d="M184.132 119.679L184.065 108.387C184.065 108.141 183.692 108.141 183.692 108.387L183.625 119.679C183.625 120.005 184.132 120.005 184.132 119.679Z" fill="black"/>
<path id="Fill 274" fill-rule="evenodd" clip-rule="evenodd" d="M188.012 116.291C187.999 116.781 188.785 116.781 188.772 116.291C188.745 112.417 189.132 108.504 187.425 104.904C187.319 104.679 187.012 104.875 187.105 105.096C188.652 108.664 188.105 112.519 188.012 116.291Z" fill="black"/>
<path id="Fill 275" fill-rule="evenodd" clip-rule="evenodd" d="M192.105 117.42C192.012 113.656 191.932 109.892 191.852 106.128C191.838 106.047 191.718 106.047 191.718 106.128C191.638 109.892 191.545 113.656 191.465 117.42C191.452 117.828 192.105 117.828 192.105 117.42Z" fill="black"/>
<path id="Fill 276" fill-rule="evenodd" clip-rule="evenodd" d="M165.559 142.26C165.585 142.588 166.039 142.585 166.065 142.26C166.399 138.488 166.519 134.347 164.905 130.84C164.772 130.543 164.332 130.801 164.465 131.097C166.092 134.751 165.292 138.435 165.559 142.26Z" fill="black"/>
<path id="Fill 277" fill-rule="evenodd" clip-rule="evenodd" d="M169.505 143.869C168.252 139.74 168.412 135.792 168.452 131.533C168.452 131.043 167.692 131.044 167.692 131.533C167.652 135.696 167.078 140.233 168.932 144.113C169.078 144.443 169.612 144.209 169.505 143.869Z" fill="black"/>
<path id="Fill 278" fill-rule="evenodd" clip-rule="evenodd" d="M172.905 143.389C172.825 139.991 172.651 136.507 173.785 133.243C173.811 133.165 173.691 133.136 173.651 133.211C172.371 136.441 172.358 139.96 172.265 143.389C172.265 143.797 172.918 143.797 172.905 143.389Z" fill="black"/>
<path id="Fill 279" fill-rule="evenodd" clip-rule="evenodd" d="M177.972 143.305C176.812 139.501 177.305 135.45 177.292 131.533C177.292 131.288 176.919 131.289 176.919 131.533C176.839 135.508 176.265 139.59 177.359 143.473C177.479 143.866 178.092 143.697 177.972 143.305Z" fill="black"/>
<path id="Fill 280" fill-rule="evenodd" clip-rule="evenodd" d="M181.999 142.825C181.959 138.684 181.919 134.544 181.879 130.405C181.865 130.077 181.372 130.077 181.372 130.405C181.319 134.544 181.279 138.684 181.239 142.825C181.239 143.315 182.012 143.315 181.999 142.825Z" fill="black"/>
<path id="Fill 281" fill-rule="evenodd" clip-rule="evenodd" d="M186.439 141.78C186.972 138.185 187.425 134.609 187.399 130.969C187.399 130.805 187.145 130.805 187.145 130.969C187.039 134.564 186.479 138.081 185.825 141.612C185.759 142.015 186.385 142.179 186.439 141.78Z" fill="black"/>
<path id="Fill 282" fill-rule="evenodd" clip-rule="evenodd" d="M190.905 142.892C191.491 139.264 192.385 135.803 191.905 132.099C191.891 131.939 191.638 131.933 191.651 132.099C192.038 135.763 191.078 139.192 190.411 142.757C190.345 143.079 190.851 143.212 190.905 142.892Z" fill="black"/>
<path id="Fill 283" fill-rule="evenodd" clip-rule="evenodd" d="M193.158 145.15C193.745 141.757 194.292 138.372 194.358 134.92C194.372 134.512 193.732 134.512 193.718 134.92C193.705 138.32 193.198 141.664 192.665 145.016C192.612 145.333 193.105 145.474 193.158 145.15Z" fill="black"/>
<path id="Fill 284" fill-rule="evenodd" clip-rule="evenodd" d="M166.131 168.231C166.025 164.409 165.411 160.669 164.811 156.904C164.785 156.764 164.545 156.797 164.558 156.939C165.038 160.696 165.518 164.433 165.491 168.231C165.491 168.64 166.145 168.637 166.131 168.231Z" fill="black"/>
<path id="Fill 285" fill-rule="evenodd" clip-rule="evenodd" d="M168.385 168.23C168.345 164.842 168.305 161.454 168.265 158.068C168.252 157.822 167.879 157.822 167.879 158.068C167.839 161.454 167.799 164.842 167.759 168.23C167.745 168.638 168.399 168.638 168.385 168.23Z" fill="black"/>
<path id="Fill 286" fill-rule="evenodd" clip-rule="evenodd" d="M172.971 168.231C172.878 164.465 172.798 160.703 172.718 156.939C172.705 156.776 172.465 156.776 172.465 156.939C172.371 160.703 172.291 164.465 172.211 168.231C172.198 168.721 172.985 168.721 172.971 168.231Z" fill="black"/>
<path id="Fill 287" fill-rule="evenodd" clip-rule="evenodd" d="M177.118 165.124C177.038 166.723 176.478 168.335 176.665 169.924C176.705 170.312 177.278 170.592 177.492 170.148C178.998 166.975 178.532 162.332 177.652 159.044C177.465 158.335 176.372 158.635 176.558 159.349C177.038 161.267 177.212 163.152 177.118 165.124Z" fill="black"/>
<path id="Fill 288" fill-rule="evenodd" clip-rule="evenodd" d="M180.745 169.358C181.052 165.65 180.678 161.789 180.625 158.068C180.612 157.904 180.372 157.904 180.372 158.068C180.305 161.789 179.932 165.65 180.238 169.358C180.265 169.686 180.718 169.686 180.745 169.358Z" fill="black"/>
<path id="Fill 289" fill-rule="evenodd" clip-rule="evenodd" d="M184.065 169.358C184.039 167.469 183.932 165.545 183.879 163.626C183.825 165.545 183.719 167.469 183.692 169.358C183.679 169.604 184.079 169.604 184.065 169.358Z" fill="black"/>
<path id="Fill 290" fill-rule="evenodd" clip-rule="evenodd" d="M183.945 158.632C183.958 158.545 183.811 158.545 183.811 158.632C183.851 159.216 183.865 159.807 183.878 160.396C183.891 159.807 183.905 159.216 183.945 158.632Z" fill="black"/>
<path id="Fill 291" fill-rule="evenodd" clip-rule="evenodd" d="M188.705 169.275C187.105 165.299 187.465 161.128 187.452 156.939C187.452 156.692 187.078 156.693 187.078 156.939C186.998 161.187 186.545 165.385 188.092 169.444C188.238 169.824 188.852 169.652 188.705 169.275Z" fill="black"/>
<path id="Fill 292" fill-rule="evenodd" clip-rule="evenodd" d="M190.971 167.665C190.758 164.044 190.518 160.435 191.851 156.956C191.878 156.876 191.745 156.835 191.718 156.921C190.825 160.408 189.505 164.104 190.345 167.749C190.425 168.097 190.998 168.023 190.971 167.665Z" fill="black"/>
<path id="Fill 293" fill-rule="evenodd" clip-rule="evenodd" d="M193.172 170.572C193.292 170.88 193.825 170.873 193.799 170.488C193.599 167.74 193.865 165.145 194.239 162.417C194.492 160.576 194.705 158.711 194.159 156.904C194.119 156.748 193.879 156.813 193.919 156.972C194.959 161.46 191.439 166.216 193.172 170.572Z" fill="black"/>
<path id="Fill 294" fill-rule="evenodd" clip-rule="evenodd" d="M168.452 196.459C168.545 194.549 167.838 192.599 167.718 190.672C167.585 188.469 167.878 186.261 168.372 184.123C168.465 183.724 167.878 183.56 167.772 183.952C166.732 187.503 165.638 193.321 167.745 196.651C167.945 196.976 168.438 196.837 168.452 196.459Z" fill="black"/>
<path id="Fill 295" fill-rule="evenodd" clip-rule="evenodd" d="M171.758 196.937C170.985 193.357 170.665 189.961 170.652 186.296C170.638 185.886 170.012 185.886 170.012 186.296C169.985 189.825 169.785 193.772 171.158 197.106C171.305 197.477 171.852 197.348 171.758 196.937Z" fill="black"/>
<path id="Fill 296" fill-rule="evenodd" clip-rule="evenodd" d="M176.292 195.893C176.585 192.367 176.279 188.707 176.225 185.167C176.225 184.84 175.732 184.84 175.719 185.167C175.679 188.707 175.359 192.367 175.652 195.893C175.692 196.301 176.252 196.301 176.292 195.893Z" fill="black"/>
<path id="Fill 297" fill-rule="evenodd" clip-rule="evenodd" d="M181.932 194.765V185.167C181.932 184.759 181.305 184.759 181.305 185.167V194.765C181.305 195.173 181.932 195.173 181.932 194.765Z" fill="black"/>
<path id="Fill 298" fill-rule="evenodd" clip-rule="evenodd" d="M184.199 194.2C184.132 190.812 184.065 187.425 184.012 184.037C183.999 183.875 183.759 183.875 183.759 184.037C183.692 187.425 183.625 190.812 183.559 194.2C183.559 194.608 184.199 194.608 184.199 194.2Z" fill="black"/>
<path id="Fill 299" fill-rule="evenodd" clip-rule="evenodd" d="M188.718 194.765L188.651 185.732C188.651 185.404 188.145 185.404 188.145 185.732L188.078 194.765C188.078 195.173 188.718 195.173 188.718 194.765Z" fill="black"/>
<path id="Fill 300" fill-rule="evenodd" clip-rule="evenodd" d="M192.972 195.329C192.998 193.07 193.012 190.813 193.038 188.553C193.038 188.39 192.785 188.39 192.785 188.553C192.812 190.813 192.825 193.07 192.852 195.329C192.852 195.41 192.972 195.41 192.972 195.329Z" fill="black"/>
<path id="Fill 301" fill-rule="evenodd" clip-rule="evenodd" d="M163.598 209.961C163.545 209.917 163.465 209.973 163.505 210.04C165.305 213.019 163.532 217.069 164.318 220.271C164.412 220.639 164.958 220.631 165.052 220.271C165.598 218.168 165.385 215.789 165.212 213.641C165.092 212.225 164.705 210.911 163.598 209.961Z" fill="black"/>
<path id="Fill 302" fill-rule="evenodd" clip-rule="evenodd" d="M179.665 209.359C179.558 208.967 178.945 209.132 179.051 209.527C179.998 212.871 179.185 216.36 180.118 219.707C180.251 220.179 180.998 219.976 180.865 219.504C179.878 216.18 180.651 212.687 179.665 209.359Z" fill="black"/>
<path id="Fill 303" fill-rule="evenodd" clip-rule="evenodd" d="M184.811 210.008C184.731 213.545 184.371 217.204 184.625 220.735C184.665 221.224 185.358 221.224 185.385 220.735C185.651 217.204 185.291 213.545 185.198 210.008C185.198 209.763 184.825 209.763 184.811 210.008Z" fill="black"/>
<path id="Fill 304" fill-rule="evenodd" clip-rule="evenodd" d="M190.532 210.008C190.399 213.316 189.772 216.998 190.292 220.27C190.346 220.636 190.959 220.636 191.026 220.27C191.532 216.998 190.919 213.316 190.786 210.008C190.772 209.844 190.532 209.844 190.532 210.008Z" fill="black"/>
<path id="Fill 305" fill-rule="evenodd" clip-rule="evenodd" d="M194.918 210.572C194.892 213.772 194.878 216.971 194.852 220.169C194.852 220.579 195.492 220.579 195.492 220.169C195.465 216.971 195.452 213.772 195.425 210.572C195.425 210.245 194.918 210.245 194.918 210.572Z" fill="black"/>
</g>
</svg>
