<svg width="147" height="116" viewBox="0 0 147 116" fill="none" xmlns="http://www.w3.org/2000/svg">
<path fill-rule="evenodd" clip-rule="evenodd" d="M85.6666 73.0111C85.6666 74.337 85.639 75.661 85.5887 76.979C85.2266 86.4628 83.6259 96.2499 78.2871 104.146C72.9477 112.042 63.1198 117.573 53.7057 115.598C49.5384 114.723 45.805 112.511 42.1603 110.334C34.7539 105.909 27.3295 101.473 20.4598 96.2738C13.3706 90.9076 6.7347 84.5116 3.22297 76.4081C1.25283 71.8613 0.333252 67.1767 0.333252 62.5941C0.333252 46.5891 11.559 31.8551 28.458 28.827C38.0521 27.1076 47.9316 28.3316 57.5157 30.1079C61.7502 30.8934 66.0538 31.8194 69.7537 33.9971C73.6402 36.2841 76.6307 39.8348 78.8977 43.6968C84.0511 52.4765 85.6666 62.8107 85.6666 73.0111Z" fill="#D3E4D7"/>
<path fill-rule="evenodd" clip-rule="evenodd" d="M141.473 49.6421C143.067 49.0721 144.067 48.3587 144.533 47.4621C144.687 47.1627 144.68 47.0081 144.673 46.9547C144.647 46.7947 144.427 46.6607 144.1 46.5774C143.787 46.4981 143.387 46.4647 142.96 46.4941V46.4954C138.787 46.7901 131.98 48.3674 131.773 49.6767C131.727 49.9561 131.813 50.0521 131.92 50.1387C133.347 51.3121 139.813 50.2367 141.473 49.6421ZM120.093 62.3827C120.493 61.1854 120.847 59.9634 121.153 58.7541C121.6 56.9834 121.967 53.2727 121.233 52.5227L121.153 52.4721C121.107 52.4614 121.04 52.4607 120.927 52.4867C120.707 52.5347 119.647 53.1367 119.68 60.3041V60.8701C119.673 61.5307 119.667 62.2127 119.9 62.7461L119.92 62.7927C119.973 62.7007 120.033 62.5667 120.093 62.3827ZM50.1134 72.9554L50.1334 72.9541L50.0868 72.8474L50.1134 72.9554ZM53.3001 63.6174C53.0734 63.6054 52.7601 63.7954 52.4468 64.1274C50.5668 66.1427 51.0468 69.4227 51.4934 71.1987C51.5734 71.5081 52.1468 72.9207 52.5334 73.8554C52.7801 74.4601 53.0134 75.0321 53.1668 75.4294C53.2166 75.4995 53.2646 75.5699 53.3127 75.6404C53.3546 75.7019 53.3966 75.7636 53.4401 75.8254C53.6668 76.1654 54.0201 76.6867 54.2734 76.9434C54.3668 76.7914 54.5001 76.5174 54.6534 76.0367C55.6468 73.0107 55.5201 68.9114 54.3268 65.0734C54.0534 64.1961 53.6601 63.6434 53.3001 63.6174ZM42.1334 69.5454C43.8334 70.8427 45.8001 71.7814 47.4934 72.5281C47.6734 72.6054 47.8801 72.6774 48.1134 72.7467C47.3868 70.1441 45.7668 67.8801 43.5334 66.3974C43.1001 66.1087 42.6068 65.8707 42.1334 65.7501C41.5734 65.6074 41.0534 65.6287 40.7134 65.9267C40.2534 66.3207 40.2468 67.1161 40.4734 67.6634C40.7934 68.4494 41.5268 69.0814 42.1334 69.5454ZM60.0134 74.0807C59.9068 74.6574 59.7601 75.2707 59.6068 75.8981L59.5744 76.0353C59.3244 77.0943 59.0696 78.174 58.9801 79.1587C59.2134 79.0354 59.4334 78.8541 59.6468 78.6127C60.7401 77.3887 61.2401 75.1067 61.0068 73.8227C60.9134 73.2887 60.6468 72.9534 60.5401 72.9261L60.5268 72.9241C60.4468 72.9287 60.1801 73.2114 60.0201 74.0794L60.0134 74.0807ZM50.8868 34.1294C50.3068 35.1334 49.9201 36.3681 49.6801 38.0167C49.5201 39.0854 49.5734 39.7174 49.6401 40.0201C49.7868 39.9347 50.0134 39.7721 50.3334 39.4607C52.0468 37.7994 53.4534 34.7421 53.6601 32.1914C53.6734 32.0234 53.6601 31.8794 53.6401 31.7781C52.4934 32.1614 51.5401 33.0001 50.8868 34.1294ZM42.1601 26.4767C41.9068 26.6334 41.7334 27.0594 41.6268 27.7781C41.2134 30.5234 41.3534 35.2714 42.9601 36.7434L43.1268 36.8767C43.1454 36.8852 43.1647 36.8927 43.1843 36.9004C43.2276 36.9173 43.2721 36.9347 43.3134 36.9641C43.3548 36.9945 43.3962 37.0244 43.4376 37.0543L43.4379 37.0546C43.4897 37.0921 43.5416 37.1295 43.5934 37.1681C43.7068 37.2107 43.8068 37.2301 43.8801 37.2041C44.4801 36.9674 45.1201 35.0681 45.2801 33.0574C45.4534 30.8187 44.9668 28.7954 43.9001 27.3601C43.4334 26.7261 42.6001 26.2067 42.1601 26.4767ZM80.0883 18.5159L80.1601 18.6181C81.5001 20.5341 83.7334 23.7187 85.0934 24.2014C85.1468 23.3854 84.4934 21.1467 83.6334 19.3134C82.6601 17.2554 81.1934 15.7414 79.5001 15.0501C79.3734 14.9981 79.2468 14.9574 79.1268 14.9261C78.7068 14.8194 78.3468 14.8361 78.2068 14.9867C78.0868 15.1101 78.0601 15.4054 78.1468 15.6741C78.2601 16.0467 78.5334 16.4067 78.8734 16.8394C79.1973 17.2483 79.6118 17.8381 80.0883 18.5159ZM85.8001 4.94072C85.5468 5.56739 85.6201 6.36539 85.7268 7.13405C86.3468 11.3987 87.2668 14.3887 88.5401 16.2734C89.3001 17.3987 89.7868 17.6267 89.9468 17.5914C90.0268 17.5741 90.1334 17.5187 90.2668 17.3841C90.6468 15.2574 89.2134 9.45005 88.0001 5.82139C87.6668 4.81472 87.3001 4.27339 86.8934 4.16939L86.8601 4.16139C86.4934 4.09005 86.0001 4.45539 85.8001 4.94072ZM94.2534 9.77605L94.1468 10.4467C93.8801 12.2547 93.5868 13.8581 93.2268 15.1941C93.5201 15.0061 93.8268 14.8254 94.1401 14.6521C95.5934 13.3034 96.5068 12.0514 96.8801 10.9087C97.7801 8.12272 97.9801 5.18805 98.0668 2.43272C98.0734 2.23739 98.0601 2.09072 98.0401 1.98605L97.9134 2.08939C96.0734 3.65272 94.8468 6.23872 94.2534 9.77605ZM110.3 13.9014C110.113 13.6594 109.567 13.5774 109.173 13.5334C104.907 13.0907 99.3201 14.0081 95.2268 16.2134C94.5334 16.8461 93.7334 17.4921 92.8334 18.1527C94.9134 19.0821 97.7134 20.2134 99.3868 19.9547C101.193 19.6714 102.96 18.9561 104.667 18.2647C106.433 17.5534 108.253 16.8174 109.607 15.5481C110.147 15.0441 110.567 14.2441 110.3 13.9014ZM98.6801 24.8261C97.9801 24.6261 97.1401 24.3881 96.2668 24.1641C94.0134 23.5867 91.4868 23.1027 90.2601 23.5967C89.8669 23.7547 89.8473 23.8958 89.8405 23.9456L89.8401 23.9481C89.7601 24.6981 91.2934 26.4427 92.6068 27.3447C94.3534 28.5401 96.5801 29.0614 98.7268 28.7734C99.5468 28.6634 100.647 28.3734 101.267 27.6207C101.7 27.0934 101.827 26.1434 101.333 25.7101C100.994 25.4097 100.412 25.2663 99.6563 25.08C99.3568 25.0062 99.03 24.9257 98.6801 24.8261ZM91.6601 42.1727C90.5801 44.9941 89.3601 48.1914 89.6068 51.3247C89.7801 53.5381 91.0068 56.2687 92.7534 57.0081C92.8601 57.0541 92.9534 57.0841 93.0468 57.1061C90.8534 54.6254 90.0401 50.7014 90.8334 46.2147C91.1421 44.4662 91.6382 42.7312 92.1181 41.0531L92.1401 40.9761L92.2201 40.7014L91.6601 42.1727ZM94.5068 53.3994C94.5468 53.0167 94.5868 52.6587 94.6268 52.3494C95.3068 47.6434 95.0468 42.8587 93.9068 38.3101C93.6601 44.4487 93.6934 50.6494 93.7534 56.6807V56.8094C94.2134 56.0914 94.4001 54.3854 94.5068 53.3994ZM93.2801 56.6861C93.2201 50.5814 93.1668 44.3007 93.4201 38.0854C93.1668 39.1061 92.8801 40.1134 92.5934 41.1054C92.1068 42.7967 91.6068 44.5454 91.3001 46.2981C90.5401 50.5701 91.2668 54.3147 93.2801 56.6927V56.6861ZM129.94 49.2507C130.8 45.5754 142.667 44.6214 142.827 44.6107C144.867 44.4627 146.293 45.2374 146.533 46.6314C146.627 47.1654 146.52 47.7381 146.207 48.3341C145.513 49.6734 144.173 50.6827 142.113 51.4207C141.44 51.6607 135.513 53.1327 132.187 52.2827C131.6 52.1327 131.1 51.9101 130.72 51.5954C130.54 51.4494 130.393 51.2841 130.273 51.1067C130.264 51.1088 130.254 51.1111 130.244 51.1135L130.22 51.1193C130.171 51.1316 130.121 51.1442 130.067 51.1427C127.613 51.0767 125.147 51.1407 122.68 51.3281C124.384 53.3475 123.047 58.9618 122.989 59.2056L122.987 59.2134V59.2141C122.667 60.4681 122.3 61.7347 121.893 62.9787C121.3 64.7441 120.213 64.8454 119.773 64.8074C119.68 64.8001 119.593 64.7847 119.5 64.7614C118.933 64.6161 118.46 64.1694 118.167 63.4987C117.773 62.5967 117.78 61.6301 117.793 60.8534V60.3134C117.773 56.7601 117.953 53.3674 119.087 51.6867C113.02 52.4441 107.007 53.9501 101.32 56.1607C97.5601 57.6207 94.6068 59.1174 92.0268 60.8701C82.8734 67.0887 76.7134 76.1287 74.6868 86.3301C75.3134 93.7861 74.9001 100.341 73.4201 106.203C73.3401 106.5 73.1268 106.714 72.8668 106.826C72.6934 107.012 72.4468 107.131 72.1668 107.125C72.0934 107.123 72.0201 107.113 71.9534 107.096C71.5401 106.989 71.2334 106.609 71.2468 106.162C71.3534 100.679 68.6801 94.9061 63.3068 89.0021C61.5401 87.0654 59.6068 85.2047 57.7334 83.4061C55.0601 80.8354 52.3068 78.1814 49.9401 75.2134C49.6868 75.1294 49.4201 75.0501 49.1468 74.9767L49.0801 74.9594C48.9263 74.9188 48.7737 74.8797 48.623 74.841L48.617 74.8395L48.6153 74.839L48.6152 74.839C47.9267 74.6624 47.2788 74.4961 46.7334 74.2567C44.9334 73.4661 42.8468 72.4654 40.9868 71.0461C40.1934 70.4387 39.2134 69.5847 38.7201 68.3754C38.1534 66.9721 38.4601 65.3787 39.4734 64.5001C40.9534 63.2174 43.0801 63.8267 44.5801 64.8234C46.8134 66.3054 48.5201 68.4514 49.5001 70.9387C49.0401 68.6974 48.8334 65.2327 51.0668 62.8387C51.7868 62.0694 52.5934 61.6874 53.4001 61.7307C54.1001 61.7694 55.4068 62.1827 56.1334 64.5114C57.4401 68.7101 57.5601 73.2381 56.4534 76.6234C56.2334 77.2941 55.9268 78.0334 55.4268 78.4967C55.9734 79.0507 56.5201 79.5974 57.0734 80.1381C57.0137 78.6402 57.397 77.0345 57.7689 75.4765L57.7734 75.4574L57.8236 75.2435C57.9465 74.7204 58.0662 74.2104 58.1601 73.7267C58.5868 71.4814 59.7534 71.0787 60.4134 71.0381C61.7668 70.9601 62.6401 72.2487 62.8668 73.4847C63.1868 75.2267 62.5801 78.1634 61.0534 79.8714C60.2468 80.7734 59.2734 81.2414 58.2134 81.2454C58.4457 81.4666 58.6733 81.6877 58.9002 81.9081L59.0401 82.0441L59.0574 82.0607C60.9454 83.8755 62.8989 85.7534 64.7001 87.7294C68.7801 92.2047 71.3801 96.6507 72.5001 101.003C73.4068 94.7674 73.2468 87.7547 71.9868 79.6941C71.7556 78.2335 71.4982 76.7723 71.2406 75.3099L71.2406 75.3098L71.2406 75.3096L71.2406 75.3095L71.2405 75.3094L71.2405 75.3093L71.2405 75.3092L71.2405 75.3091L71.2404 75.309L71.2404 75.3088L71.2404 75.3087L71.2404 75.3086L71.2403 75.3085L71.2403 75.3084L71.2403 75.3083L71.2403 75.3082L71.2403 75.308L71.2334 75.2694L71.228 75.2382C70.6431 71.8795 70.0459 68.4507 69.7734 64.9947C65.1868 54.7421 56.6668 48.7361 47.6468 42.3807L47.5518 42.3137C45.9291 41.1687 44.2814 40.006 42.6401 38.8074C42.3401 38.6554 42.0268 38.4441 41.6868 38.1367C39.1401 35.8087 39.4334 29.6674 39.7601 27.4981V27.4974C39.8801 26.6674 40.1668 25.4927 41.1668 24.8714C42.6201 23.9701 44.4068 24.8754 45.4201 26.2334C46.7534 28.0367 47.3734 30.5121 47.1601 33.2054C47.0868 34.1874 46.7401 37.1094 45.3534 38.4387C46.1534 39.0107 46.9534 39.5781 47.7468 40.1381C47.6534 39.5027 47.6668 38.7141 47.8068 37.7447V37.7434C48.0868 35.8481 48.5468 34.3994 49.2534 33.1814C50.1868 31.5667 51.5668 30.4187 53.1268 29.9501C53.3934 29.8707 53.7201 29.7987 54.0868 29.8654C55.0734 30.0261 55.6534 31.0341 55.5401 32.3467C55.2934 35.3547 53.6934 38.8387 51.6468 40.8194L51.6385 40.8273C51.3815 41.0722 50.8329 41.5948 50.1734 41.8501C57.7868 47.2301 64.9201 52.5414 69.6334 60.5981C69.6534 59.8421 69.6868 59.0854 69.7534 58.3287C70.4534 50.1061 74.2401 42.5247 77.5601 36.7441C72.8068 34.3454 69.4868 28.9434 68.0801 25.0094C67.9001 24.5107 67.4268 23.1834 68.1334 22.1021C68.3801 21.7301 68.8334 21.5787 69.2668 21.7394C72.7068 23.0807 75.6534 25.7341 77.3468 29.0174C78.3934 31.0461 79.0001 32.6594 79.2201 33.9367C80.8668 31.2254 82.6001 28.5614 84.4201 25.9594C82.6401 25.2894 80.7334 22.7287 78.6134 19.7014L78.4307 19.4409C78.0281 18.8666 77.6779 18.3672 77.3934 18.0114C77.0268 17.5494 76.5734 16.9754 76.3401 16.2414C76.0468 15.2921 76.2334 14.3127 76.8401 13.6821C77.5934 12.8907 78.8534 12.7547 80.2134 13.3007C82.3468 14.1714 84.1668 16.0207 85.3401 18.5067V18.5081C85.6934 19.2534 86.4668 21.0194 86.8001 22.6641C87.6201 21.5614 88.4534 20.4707 89.3001 19.3927C88.1401 19.0487 87.2934 17.8107 86.9734 17.3314C85.0601 14.4994 84.2801 10.3094 83.8601 7.40339C83.7068 6.37139 83.6334 5.27339 84.0534 4.23272C84.5134 3.09272 85.7801 2.02872 87.2134 2.30605L87.3734 2.34139C88.8001 2.70605 89.4334 4.15072 89.7934 5.22272C90.0068 5.86405 91.1868 9.47339 91.8068 12.9114C91.9668 12.1321 92.1201 11.2241 92.2801 10.1674L92.3868 9.46539C93.0668 5.42005 94.4734 2.53739 96.6868 0.652054L96.6881 0.650886C96.9296 0.444347 97.6618 -0.182171 98.5801 0.0513874C99.0134 0.162054 100.007 0.620721 99.9534 2.48939C99.8734 5.24539 99.6534 8.47072 98.6801 11.4901C98.5201 11.9814 98.2934 12.4794 97.9934 12.9827C101.787 11.7267 105.98 11.3041 109.367 11.6547C110.167 11.7381 111.173 11.9394 111.793 12.7481C112.827 14.0827 112.053 15.8501 110.9 16.9274C109.29 18.4338 107.215 19.2722 105.384 20.0118L105.373 20.0161C103.573 20.7481 101.7 21.5041 99.6801 21.8214C98.7468 21.9667 97.6601 21.8287 96.5401 21.5414C94.7934 21.0961 92.9868 20.2987 91.5201 19.6294C90.9601 20.3267 90.4068 21.0314 89.8668 21.7401C92.0268 21.0774 95.5068 21.9541 99.2001 23.0094L99.2612 23.0268C99.7965 23.1798 100.275 23.3165 100.667 23.4167V23.4174C101.36 23.5941 102.02 23.7941 102.587 24.2934C103.927 25.4761 103.74 27.5894 102.727 28.8214C101.913 29.8061 100.653 30.4194 98.9801 30.6447C97.6001 30.8307 96.1934 30.7401 94.8601 30.3994C93.6734 30.0947 92.5401 29.5907 91.5334 28.9027L91.5257 28.8971C91.3466 28.7676 88.2076 26.4985 87.9668 24.2587C84.9134 28.4141 82.0734 32.7394 79.4868 37.1907C76.1934 42.8587 72.3268 50.4027 71.6334 58.4894C71.1671 63.9505 72.1453 69.5321 73.0912 74.9302L73.0913 74.9303L73.0934 74.9427C73.3601 76.4301 73.6201 77.9167 73.8468 79.4021C73.909 79.7835 73.9583 80.1557 74.0075 80.5275L74.0075 80.5276L74.0076 80.5278C74.0375 80.7536 74.0674 80.9793 74.1001 81.2067C76.9868 72.4807 82.8401 64.8241 90.9668 59.3067C91.2734 59.0981 91.5868 58.8941 91.9001 58.6921C89.1601 57.4427 87.9001 53.7107 87.7201 51.4727C87.4468 47.9154 88.7463 44.5079 89.8928 41.5017L89.8929 41.5016L89.8934 41.5001L92.7734 33.9474C92.9134 33.5801 93.2668 33.3381 93.6601 33.3394C94.0601 33.3467 94.4068 33.5874 94.5401 33.9547C96.7334 39.8527 97.4068 46.3054 96.5001 52.6201C96.4601 52.9081 96.4201 53.2414 96.3801 53.5987C96.2868 54.5167 96.1734 55.5407 95.9201 56.4541C97.3601 55.7474 98.9134 55.0674 100.633 54.3987C109.933 50.7881 120.06 49.0101 129.94 49.2507ZM123.087 35.0947L123.093 35.0941C123.66 33.3674 124.453 32.2314 125.447 31.7154C126.647 35.9861 125.713 40.7894 122.993 44.2934L122.44 44.9861C122.35 45.104 122.256 45.2223 122.161 45.3417L122.161 45.3419L122.087 45.4354C121.693 42.1981 122.053 38.2334 123.087 35.0947ZM121.34 48.7167L121.447 48.7374C121.82 48.7887 122.193 48.6081 122.387 48.2794C122.82 47.5401 123.353 46.8727 123.92 46.1654L124.487 45.4514C127.607 41.4294 128.647 35.8954 127.207 31.0027L127.203 30.9897C127.136 30.7777 127.027 30.4349 126.733 30.1541C126.22 29.6647 125.44 29.6067 124.647 30.0014C123.167 30.7407 122.04 32.2547 121.293 34.5021C119.893 38.7527 119.633 44.1954 120.66 48.0447C120.747 48.3774 121.007 48.6327 121.34 48.7167ZM131.24 39.6514C132.527 36.8001 134.607 34.7007 137.08 33.8041C137.08 36.2667 136.06 38.8754 134.1 41.2834C130.88 45.2381 129.907 45.0354 129.807 45.0141C129.8 45.0061 129.2 44.1934 131.24 39.6514ZM128.06 45.7327C128.28 46.2507 128.673 46.6181 129.193 46.7941L129.347 46.8407C131.287 47.3367 133.58 44.9201 135.66 42.3594C137.867 39.6501 139.04 36.5187 138.96 33.5414C138.933 32.4981 138.44 32.0701 138.033 31.8947C137.528 31.6848 137.043 31.8258 136.829 31.8881L136.827 31.8887C133.76 32.8254 131.1 35.3727 129.52 38.8761C127.98 42.3021 127.513 44.4807 128.06 45.7327ZM138.68 67.4801L138.66 67.4981C137.387 66.4594 136.367 65.0981 135.38 63.7714L135.38 63.7709L135.38 63.7708L135.38 63.7707L135.379 63.7706L135.379 63.7705L135.379 63.7704L135.379 63.7702L135.379 63.7701L135.379 63.77L135.379 63.7699L135.379 63.7698L135.379 63.7697L135.379 63.7696L135.379 63.7694L135.378 63.7693L135.378 63.7692C135.006 63.2699 134.633 62.7707 134.247 62.2874C133.706 61.6025 133.119 60.9362 132.55 60.2898L132.407 60.1267C131.753 59.3867 131.08 58.6221 130.46 57.8347C129.41 56.5004 128.493 55.04 127.597 53.6147L127.597 53.6143L127.597 53.6142L127.597 53.6141L127.597 53.6141L127.597 53.614L127.597 53.614L127.52 53.4921C127.767 53.3854 128.127 53.4121 128.527 53.5141C129.297 53.7125 130.24 54.191 130.88 54.5157L130.92 54.5361C131.267 54.7134 131.58 54.8721 131.84 54.9881C133.173 55.5761 134.253 56.1194 135.167 56.8614C137.687 58.9067 138.653 62.3501 139.02 64.8767C139.213 66.2014 139.107 67.0034 138.68 67.4801ZM136.46 67.8467C135.133 67.4521 134.047 66.4061 133.16 65.4347C131.353 63.4674 129.84 61.2587 128.613 58.7847C127.12 55.7714 126.973 54.4387 127.193 53.8574C128.093 55.2961 129.027 56.7701 130.087 58.1261C130.713 58.9247 131.393 59.6941 132.053 60.4387L132.236 60.6475C132.786 61.2755 133.352 61.9213 133.88 62.5807C134.26 63.0614 134.633 63.5567 135 64.0527C135.98 65.3701 136.993 66.7174 138.26 67.7794C137.727 68.0281 137.007 68.0001 136.46 67.8467ZM132.6 53.2594C132.367 53.1561 132.087 53.0127 131.78 52.8547L131.768 52.8487C130.028 51.9613 127.41 50.6261 125.887 52.4067C124.28 54.287 126.066 57.8885 126.966 59.7042L126.967 59.7054C128.227 62.2561 129.84 64.6134 131.767 66.7121C132.827 67.8727 134.153 69.1314 135.92 69.6567L135.957 69.6676L135.958 69.6677C136.01 69.6829 136.06 69.6974 136.113 69.7114C137.653 70.1054 139.2 69.7327 140.087 68.7421C141.16 67.5481 141.08 65.9041 140.887 64.6047C140.287 60.4454 138.76 57.3461 136.353 55.3947C135.28 54.5194 134.08 53.9081 132.6 53.2594ZM33.8068 41.3967C31.8401 42.0367 29.4534 43.0201 28.4068 44.9574C28.1068 45.5267 27.9668 46.3134 28.3134 46.6514C28.5468 46.8741 29.0268 46.9501 29.7401 46.8761C31.3334 46.7141 32.9334 46.1761 34.3068 45.6841C34.6468 45.5627 35.1268 45.4161 35.6868 45.2454L35.6971 45.2422L35.6972 45.2422C37.5077 44.6883 42.9659 43.0185 42.5201 41.5187C42.3801 41.0627 42.1201 40.7467 41.7001 40.5247C39.7031 39.4736 35.2734 40.9184 33.8133 41.3946L33.8068 41.3967ZM36.0803 47.1003C35.6218 47.2405 35.2279 47.361 34.9468 47.4627C33.4668 47.9914 31.7334 48.5707 29.9334 48.7554L29.9318 48.7556C29.6309 48.7863 28.9455 48.8564 28.2401 48.6754C27.8068 48.5654 27.3734 48.3654 27.0068 48.0114C25.9201 46.9641 26.0934 45.2734 26.7468 44.0621C28.1068 41.5334 30.9201 40.3494 33.2201 39.6001C36.3201 38.5927 40.1801 37.5954 42.5801 38.8521C43.4534 39.3127 44.0468 40.0274 44.3268 40.9781C45.3134 44.2794 39.6334 46.0147 36.2401 47.0514L36.0803 47.1003ZM24.8868 31.3554C24.9068 31.1287 25.1734 30.8654 25.4934 30.7527C25.9468 30.5981 26.5068 30.6427 27.0468 30.7141C28.8801 30.9587 35.0134 32.8374 36.3734 34.6647C36.4734 34.7981 36.5868 34.9894 36.4668 35.2734C35.6601 35.7154 32.5334 35.2867 26.3001 32.5847C25.4001 32.1974 24.8601 31.7247 24.8868 31.3554ZM25.6134 34.3461C28.3134 35.5167 30.5934 36.3401 32.4401 36.8134C34.7734 37.4107 36.4268 37.4514 37.3801 36.9294C37.9601 36.6074 38.3268 36.0927 38.4268 35.4381C38.5268 34.7914 38.3468 34.1521 37.8868 33.5347C35.9068 30.8821 28.6268 29.0167 27.2934 28.8414V28.8407C26.5268 28.7394 25.7001 28.6847 24.8801 28.9674C23.8268 29.3307 23.0734 30.2361 23.0068 31.2194C22.9401 32.1027 23.3334 33.3574 25.6134 34.3461ZM47.7934 45.8734C47.5668 45.8774 47.1201 45.9374 46.3068 46.2174C45.2134 46.5914 44.2268 47.2854 43.3201 47.9774C42.7001 48.4534 42.0668 48.9714 41.7601 49.6114C41.5401 50.0641 41.5068 50.7254 41.8401 51.0434C42.0868 51.2794 42.5534 51.3494 43.0001 51.2247C43.5601 51.0681 44.0734 50.6634 44.5134 50.2901C45.8601 49.1347 47.5801 46.7814 47.7934 45.8734ZM40.5334 52.4054C39.6334 51.5454 39.4401 50.0574 40.0601 48.7861C40.5534 47.7747 41.4068 47.0654 42.1734 46.4794C43.2068 45.6881 44.3468 44.8921 45.6934 44.4301C46.5068 44.1487 48.6801 43.4054 49.4868 44.8147C50.7534 47.0294 45.7934 51.6781 45.7401 51.7221C45.1534 52.2307 44.4268 52.7867 43.5068 53.0434C42.9134 53.2101 42.3068 53.2161 41.7601 53.0761C41.2934 52.9561 40.8668 52.7301 40.5334 52.4054ZM35.9801 83.5907C36.3601 81.0781 39.3934 79.7907 40.6801 79.3554C42.2134 78.8341 47.2801 78.1994 49.6801 78.8127C50.1734 78.9387 50.5468 79.1174 50.7601 79.3601C50.8401 79.4461 51.0401 79.6761 50.6668 80.4194C49.5801 82.6087 44.7601 84.2427 37.7734 84.7887C36.8534 84.8574 36.2868 84.7494 36.0801 84.4641C35.9601 84.2914 35.9201 83.9741 35.9801 83.5907ZM36.0734 86.5654C36.7068 86.7267 37.3734 86.7147 37.9201 86.6721C42.4868 86.3154 50.4334 85.1367 52.3601 81.2601C53.1334 79.7087 52.6868 78.6941 52.1868 78.1167C49.9068 75.5081 41.4001 77.1134 40.0668 77.5654C36.6668 78.7234 34.4934 80.8154 34.1134 83.3061C33.9801 84.1974 34.1268 84.9774 34.5468 85.5627C34.9468 86.1207 35.4934 86.4174 36.0734 86.5654ZM54.2068 85.8054C54.0401 85.7621 53.8734 85.7414 53.7134 85.7481C53.3801 85.7621 53.0001 85.9014 52.4801 86.1994C50.7801 87.1821 49.4401 88.7261 48.6934 90.5474L48.6534 90.6647C49.6201 90.6614 50.5534 90.2727 51.6868 89.4694L51.7029 89.458C52.3765 88.979 54.214 87.6725 55.1068 86.2354C54.8201 86.0321 54.5068 85.8821 54.2068 85.8054ZM47.1734 92.0514C46.8734 91.7501 46.4468 91.0601 46.9468 89.8361C47.8468 87.6274 49.4734 85.7547 51.5334 84.5647C52.0734 84.2554 52.7934 83.8954 53.6401 83.8601C55.0001 83.8034 56.2601 84.6007 56.9734 85.3674C57.2268 85.6374 57.3001 86.0301 57.1601 86.3721C56.3534 88.3201 54.2734 89.9534 52.7801 91.0107C51.7801 91.7174 50.2468 92.6467 48.4868 92.5641L48.4731 92.5633C48.3697 92.5579 48.1835 92.5482 47.9668 92.4927C47.7201 92.4281 47.4201 92.3007 47.1734 92.0514ZM96.0801 69.7061L95.7001 69.3627L95.6872 69.3512C94.5876 68.3662 92.1456 66.1789 91.8335 64.5161C92.1668 64.924 92.5468 65.3 92.9334 65.6581C97.5868 70.0094 102.807 73.6787 108.46 76.5954C103.547 75.6394 99.1535 72.4967 96.0801 69.7061ZM95.5401 62.8374C97.7068 63.3921 100.46 64.8481 102.807 66.4687V66.4674C106.527 69.0401 109.46 72.7081 111.153 76.8921C111.022 76.8898 110.887 76.8807 110.751 76.8716C110.688 76.8673 110.624 76.863 110.56 76.8594C110.3 76.4867 110.04 76.1141 109.787 75.7414C108.693 74.1281 107.66 72.6047 106.193 71.3054C104.502 69.8005 102.531 68.6395 100.627 67.5174L100.62 67.5134C99.2468 66.7041 97.5534 65.8607 95.9134 65.0447L95.8757 65.0259L95.8754 65.0258L95.8735 65.0249L95.8734 65.0248L95.8733 65.0248L95.8732 65.0247L95.8732 65.0247L95.8731 65.0246L95.873 65.0246L95.8729 65.0246C94.6457 64.4143 93.3877 63.7886 92.2668 63.1767C92.2842 63.1601 92.3002 63.1438 92.3162 63.1274C92.3491 63.0939 92.3819 63.0604 92.4268 63.0254C93.0801 62.4967 94.2001 62.4934 95.5401 62.8374ZM91.9668 63.5487C93.0549 64.1459 94.2721 64.7543 95.4643 65.3502L95.7001 65.4681C97.3335 66.2801 99.0201 67.1194 100.38 67.9201L100.387 67.9243L100.387 67.9243C102.272 69.035 104.222 70.1846 105.88 71.6587C107.3 72.9187 108.32 74.4187 109.4 76.0074C109.58 76.2774 109.767 76.5494 109.953 76.8201L109.947 76.8187C103.84 73.8267 98.2268 69.9581 93.2534 65.312C92.7401 64.8354 92.2401 64.3274 91.8734 63.7587C91.8934 63.6914 91.9268 63.6221 91.9668 63.5487ZM112.573 78.7394C112.86 78.7174 113.127 78.562 113.293 78.3181C113.453 78.0747 113.493 77.7694 113.393 77.4921C111.667 72.4261 108.287 67.9601 103.88 64.9147V64.9134C101.76 63.4487 94.5734 58.8727 91.2401 61.5527C90.3934 62.2334 89.9334 63.1107 89.9068 64.0881C89.8468 66.4621 92.2134 68.7827 94.4401 70.772L94.8134 71.1047C98.8601 74.786 103 77.1834 107.013 78.2101C108.9 78.6927 110.76 78.8734 112.573 78.7394ZM63.1134 48.8327C62.8734 48.9067 62.5334 48.9574 62.1468 48.8587C61.6334 48.7274 61.0401 48.3347 60.4934 47.3907C58.2468 43.5527 62.1534 35.4014 63.3268 33.4294C63.5134 33.1101 63.8734 32.9307 64.2401 32.9727C64.6134 33.0061 64.9268 33.2694 65.0401 33.6214L65.0704 33.716C65.7811 35.9372 66.5157 38.2331 66.6734 40.6561C66.7601 42.0001 65.5268 48.0947 63.1134 48.8327ZM50.9201 13.0841C50.3868 13.2387 49.8868 13.5207 49.3401 13.9754C48.2001 14.9254 47.6334 16.1121 47.7934 17.2314C47.8668 17.7587 48.1001 18.2807 48.5001 18.8287C49.1601 19.7147 50.0268 20.3254 50.9401 20.5587C51.1068 20.6007 51.2668 20.6307 51.4401 20.6481C52.6734 20.7734 54.0001 20.1821 54.9001 19.1014C55.5601 18.2961 55.8468 17.3907 55.7001 16.5547C55.6134 16.0781 55.3934 15.6794 55.2401 15.4194C54.3468 13.9441 52.7468 12.5554 50.9201 13.0841ZM61.3334 13.6867C61.3468 13.6307 61.3268 13.4474 61.3134 13.3587L61.313 13.3547L61.3129 13.3546C61.2864 13.1379 61.2597 12.9197 61.2001 12.7547C61.0401 12.2734 60.6801 11.9514 60.3001 11.9034C59.9134 11.8521 59.5468 12.0507 59.2801 12.4467C58.9801 12.8981 58.9401 13.5641 59.1801 14.1067C59.3468 14.4814 59.6334 14.7527 59.9134 14.7761C60.2201 14.7981 60.6201 14.5294 61.1134 13.9787C61.2468 13.8301 61.3201 13.7314 61.3334 13.6867ZM63.1868 13.1221C63.2201 13.3701 63.2668 13.7514 63.1668 14.1554C63.0468 14.6247 62.7734 14.9601 62.5268 15.2367C61.9334 15.8921 61.0134 16.7494 59.7801 16.6607C59.6334 16.6501 59.5001 16.6274 59.3601 16.5927C58.5534 16.3867 57.8468 15.7587 57.4534 14.8754C56.9401 13.7294 57.0401 12.3954 57.7068 11.3954V11.3947C58.3801 10.3934 59.4401 9.88339 60.5468 10.0307C61.6734 10.1794 62.6001 10.9907 62.9868 12.1454C63.1114 12.4884 63.1521 12.8308 63.1852 13.1084L63.1868 13.1221ZM53.3668 7.38872C53.4401 7.09072 53.5801 6.84939 53.7534 6.74139C53.8801 6.66005 53.9868 6.63605 54.1068 6.66605L54.2401 6.71739C54.5734 6.89605 54.8668 7.37939 54.8734 7.77539C54.8868 8.00672 54.7934 8.17005 54.7534 8.19205C54.6868 8.21939 54.4868 8.18405 54.1468 8.07672C53.4601 7.86005 53.3601 7.70939 53.3468 7.66872L53.3463 7.66636C53.3428 7.65213 53.324 7.57495 53.3668 7.38872ZM53.5868 9.88072L53.633 9.89491L53.633 9.89493L53.6331 9.89497C53.7279 9.92414 53.8324 9.95632 53.9468 9.98605C54.3668 10.0934 54.9134 10.1674 55.4668 9.94205C56.2734 9.61405 56.7934 8.72005 56.7668 7.71939C56.7334 6.64472 56.0601 5.54605 55.1201 5.04872C54.3468 4.63605 53.4801 4.67472 52.7334 5.14805C52.1468 5.52539 51.7201 6.16605 51.5334 6.95605C51.4201 7.44405 51.4268 7.87072 51.5534 8.26139C51.912 9.35153 53.0771 9.71968 53.5806 9.87875L53.5868 9.88072ZM86.9201 80.1647C87.3268 79.6207 87.7601 79.2494 88.2468 79.0274C89.2734 78.5581 90.5668 78.7581 91.8068 79.5794C92.4001 79.9747 92.8134 80.3741 93.1134 80.8381C94.1401 82.4314 93.2734 84.3667 92.1134 85.6461C91.9134 85.8674 91.5934 86.1907 91.1534 86.4101C90.5534 86.7127 89.8334 86.7674 89.0868 86.576C88.8868 86.5254 88.6868 86.4567 88.4801 86.3707C87.1934 85.8227 86.2468 84.7207 86.0134 83.4967C85.8068 82.4214 86.1401 81.2074 86.9201 80.1647ZM110.6 41.4414C110.44 41.6181 110.313 41.7274 110.2 41.7847C109.947 41.9107 109.547 41.8821 109.113 41.6954C108.407 41.3947 107.873 40.8107 107.76 40.2047C107.653 39.6494 107.86 38.9774 108.32 38.3587C108.527 38.0814 108.727 37.8961 108.92 37.8087C109.14 37.7101 109.413 37.7034 109.727 37.7834C110.013 37.8567 110.333 38.0027 110.647 38.2147C111.02 38.4607 111.26 38.6854 111.413 38.9241C111.867 39.6207 111.26 40.7147 110.6 41.4414ZM111.7 36.6421C110.46 35.8194 109.16 35.6194 108.133 36.0907C107.647 36.3161 107.213 36.6874 106.807 37.2261C106.027 38.2681 105.7 39.4827 105.907 40.5601C106.14 41.7841 107.087 42.8854 108.373 43.4334C108.573 43.5194 108.773 43.5881 108.973 43.6387C109.72 43.8301 110.44 43.7754 111.047 43.4727C111.48 43.2534 111.8 42.9301 112 42.7087C113.16 41.4294 114.033 39.4941 113.007 37.9001L113 37.8987C112.7 37.4361 112.287 37.0374 111.7 36.6421ZM96.0534 88.6487C95.5468 88.5201 94.9268 88.6747 94.4934 89.0461C94.1868 89.3134 94.0068 89.6821 94.0668 89.9394C94.1268 90.2394 94.5068 90.5494 95.1734 90.8627C95.3534 90.9487 95.4734 90.9914 95.5201 90.9921C95.5734 90.9887 95.7334 90.9181 95.8268 90.8761L95.8908 90.8476L95.891 90.8476C96.0573 90.7739 96.2266 90.699 96.3801 90.5927C96.7868 90.3061 96.9934 89.8914 96.9268 89.4887C96.8668 89.1074 96.5734 88.8094 96.1134 88.6674L96.0534 88.6487ZM95.5868 92.8794C95.3801 92.8881 95.1801 92.8581 95.0001 92.8121C94.7379 92.7452 94.5209 92.6436 94.3743 92.5749L94.3668 92.5714C93.5801 92.2007 92.4934 91.5661 92.2201 90.3527C92.0068 89.4001 92.4068 88.3501 93.2601 87.6134C94.2201 86.7934 95.5268 86.5027 96.6734 86.8627C97.8268 87.2201 98.6201 88.0901 98.7934 89.1907C98.9668 90.3034 98.4601 91.4327 97.4668 92.1381C97.1934 92.3294 96.8934 92.4701 96.5934 92.6034L96.5868 92.6063C96.3342 92.7166 95.9965 92.8642 95.5868 92.8794ZM98.8334 82.5014C98.8468 81.7774 98.9601 81.6401 99.0001 81.6127C99.0001 81.6114 99.0668 81.5701 99.2734 81.5574C99.4268 81.5487 99.5734 81.5614 99.7001 81.5941C99.8268 81.6254 99.9268 81.6747 100 81.7394C100.153 81.8707 100.2 82.0021 100.16 82.1954C100.087 82.5687 99.7068 82.9881 99.3334 83.1114C99.1201 83.1841 98.9334 83.146 98.9001 83.1134C98.8534 83.0567 98.8334 82.8514 98.8334 82.5014ZM99.9268 84.9061C100.947 84.5681 101.807 83.606 102.013 82.5647C102.187 81.7054 101.9 80.8841 101.233 80.3087C100.707 79.8521 99.9668 79.6234 99.1601 79.6714C98.6601 79.7014 98.2534 79.8307 97.9134 80.0661C96.9691 80.7257 96.9535 81.948 96.9468 82.4722L96.9468 82.4761C96.9401 82.9287 96.9334 83.6854 97.4268 84.2974C97.6934 84.6301 98.0668 84.8574 98.4934 84.9674C98.9401 85.0807 99.4401 85.0661 99.9268 84.9061ZM110.86 24.4954C110.853 24.8441 110.873 25.0507 110.92 25.1067C110.953 25.1314 111.133 25.1781 111.353 25.1034C111.733 24.9801 112.113 24.5607 112.187 24.1867C112.22 23.9947 112.173 23.8627 112.027 23.7314V23.7307C111.953 23.6667 111.847 23.6174 111.727 23.5867C111.6 23.5541 111.453 23.5407 111.293 23.5501C111.087 23.5627 111.027 23.6041 111.027 23.6054C110.987 23.6327 110.867 23.7701 110.86 24.4954ZM114.04 24.5581C113.827 25.5987 112.967 26.5614 111.947 26.8981C111.46 27.0581 110.96 27.0721 110.52 26.9587C110.093 26.8494 109.713 26.6207 109.447 26.2894C108.966 25.6902 108.966 24.9587 108.967 24.5029L108.967 24.4681L108.968 24.4389C108.981 23.9005 109.011 22.7068 109.94 22.0587C110.273 21.8234 110.68 21.6934 111.187 21.6634C111.993 21.6141 112.727 21.8427 113.26 22.3027C113.927 22.8774 114.207 23.6987 114.04 24.5581Z" fill="#424242"/>
</svg>
