<svg width="86" height="110" viewBox="0 0 86 110" fill="none" xmlns="http://www.w3.org/2000/svg">
<path fill-rule="evenodd" clip-rule="evenodd" d="M85.3333 67.0111C85.3333 68.337 85.3058 69.661 85.2554 70.979C84.8934 80.4628 83.2927 90.2499 77.9539 98.1461C72.6144 106.042 62.7865 111.573 53.3725 109.598C49.2051 108.723 45.4717 106.511 41.827 104.334C34.4207 99.9092 26.9962 95.473 20.1266 90.2738C13.0373 84.9076 6.40144 78.5116 2.88972 70.4081C0.919578 65.8613 0 61.1767 0 56.5941C0 40.5891 11.2257 25.8551 28.1247 22.827C37.7188 21.1076 47.5984 22.3316 57.1824 24.1079C61.4169 24.8934 65.7206 25.8194 69.4204 27.9971C73.3069 30.2841 76.2974 33.8348 78.5645 37.6968C83.7179 46.4765 85.3333 56.8107 85.3333 67.0111Z" fill="#D3E4D7"/>
<path fill-rule="evenodd" clip-rule="evenodd" d="M34.9727 68.3329C35.686 67.9136 36.3393 67.2136 36.966 66.1916C37.5327 65.2542 38.4127 63.4422 37.846 61.8376C37.7193 61.4722 37.506 61.1222 37.2327 60.8036C36.8127 60.3096 36.2393 59.8909 35.5793 59.6109C34.6127 59.2009 33.446 59.0382 32.0127 59.1116C30.2393 59.2042 28.886 60.2436 28.3193 61.9662C27.626 64.0436 28.2727 66.4196 29.8593 67.7342C31.3393 68.9562 33.486 69.2089 34.9727 68.3329ZM37.6927 48.3262C35.9127 48.4182 34.566 49.4589 33.9927 51.1802C33.306 53.2536 33.946 55.6282 35.5327 56.9476C37.0127 58.1689 39.166 58.4216 40.6527 57.5462C41.366 57.1262 42.0127 56.4269 42.6393 55.4069C43.2127 54.4702 44.0927 52.6576 43.526 51.0502C43.3993 50.6869 43.186 50.3362 42.9127 50.0176C42.4927 49.5236 41.9193 49.1056 41.2593 48.8242C40.286 48.4149 39.126 48.2522 37.6927 48.3262ZM28.726 32.0589C31.8193 33.5022 35.286 34.3382 38.746 34.4742C40.4793 34.5422 41.4593 34.4476 42.026 34.3149C33.2527 33.3842 24.926 29.5449 18.506 23.5142C21.1127 27.1662 24.6593 30.1602 28.726 32.0589ZM17.6727 18.9482C17.1593 19.0449 16.8193 19.1936 16.6727 19.3916C16.4793 19.6576 16.5393 20.1649 16.8327 20.8149C24.526 24.9922 32.686 28.7656 40.5793 32.4156L42.6327 33.3656C42.5993 33.2949 42.566 33.2249 42.5127 33.1422C42.106 32.4662 41.6127 31.8069 41.066 31.1669C39.866 29.7549 38.3993 28.4382 37.0527 27.2596C33.066 23.7869 28.3527 21.1442 23.4127 19.6189C21.786 19.1142 19.6527 18.5842 17.6727 18.9482ZM17.2527 21.5849L17.286 21.6422C23.946 28.6282 33.0593 33.0356 42.6793 33.9076L40.386 32.8456C32.6993 29.2942 24.7727 25.6302 17.2527 21.5849ZM56.8193 2.49556C56.0793 2.6229 55.4527 3.13556 54.9193 3.61023C49.266 8.61156 45.5727 15.9682 44.786 23.7982C44.4993 26.6502 44.2727 30.5716 45.346 33.3176L45.386 33.3076C47.046 32.9122 48.646 31.7982 49.8927 30.1689C50.9127 28.8396 51.7327 27.1536 52.4793 24.8649C53.5845 21.4828 54.211 17.8906 54.8169 14.4162L54.8193 14.4022L56.786 3.1429C56.8708 2.66748 56.828 2.52443 56.8198 2.49721L56.8193 2.49556ZM72.526 29.9329C65.6127 31.8702 59.806 35.5542 56.1127 40.3829C54.5127 42.4696 53.2327 44.8462 52.026 47.1962C57.566 40.6742 64.4527 34.8916 72.526 29.9329ZM75.0193 29.7469L74.9927 29.7069C74.886 29.5816 74.5393 29.5189 74.046 29.5716C72.9993 30.3069 72.1127 31.2902 71.2527 32.2582L71.0993 32.4342C65.0527 39.2276 58.206 45.2989 50.7327 50.4796C50.626 50.5569 50.486 50.6276 50.3393 50.6862L50.3327 50.7036C50.3505 50.698 50.3907 50.7017 50.4562 50.7078C50.5622 50.7176 50.7346 50.7336 50.986 50.7262C52.806 50.6729 54.8993 50.0829 57.206 48.9742C59.866 47.6929 62.266 45.9196 64.8993 43.9042C67.466 41.9416 69.7393 40.1389 71.5793 37.9436C73.026 36.2196 74.7993 33.4809 75.0393 30.2349L75.0402 30.2207C75.0476 30.1068 75.064 29.8504 75.0193 29.7469ZM71.8727 30.8682C63.4793 36.1429 56.446 42.3489 50.8927 49.3429C50.7727 49.5676 50.646 49.8109 50.546 50.0369C57.9527 44.8889 64.7527 38.8629 70.7393 32.1209L70.8993 31.9462C70.9406 31.8998 70.9818 31.8532 71.023 31.8067C71.302 31.4918 71.5823 31.1755 71.8727 30.8682ZM63.546 56.1342C63.1527 56.1229 62.6993 56.2502 62.1727 56.5262C60.1327 57.5869 58.6593 59.8509 58.3327 62.4356C58.0993 64.2716 58.4393 66.6182 59.2193 68.8156L59.4727 68.3882L59.4957 68.3496C61.5834 64.8417 63.9474 60.8696 64.3393 56.5176L64.346 56.4776L64.3327 56.4649C64.1727 56.2716 63.866 56.1436 63.546 56.1342ZM59.426 69.3862C60.2193 69.0116 60.9327 68.4876 61.546 67.6942C63.686 64.9536 64.7727 61.4416 64.606 57.9702C63.886 61.8836 61.7727 65.4476 59.8727 68.6296L59.426 69.3862ZM76.946 67.6476C74.6327 66.6789 71.9993 66.4329 69.5393 66.9516C66.3927 67.6149 63.4993 69.5176 60.9327 71.2456C63.3727 71.2382 65.8727 71.3709 68.306 71.5089C72.0793 71.7202 75.966 71.9336 79.6793 71.6056C79.826 71.0889 79.8593 70.5609 79.6927 70.0536C79.2993 68.8496 77.9793 68.0816 76.946 67.6476ZM68.326 76.2429C70.9727 76.5362 74.7327 76.4416 77.646 74.3276C78.166 73.9469 78.666 73.4456 79.0593 72.8856C73.226 74.6496 66.806 74.4902 61.0593 72.4676C61.7127 73.3922 62.466 74.1676 63.2993 74.6989C64.566 75.5062 66.2127 76.0102 68.326 76.2429ZM60.6393 71.8156C66.5993 74.0609 73.3527 74.2422 79.4127 72.2869C79.446 72.2236 79.4727 72.1596 79.4993 72.0956C75.8193 72.3976 71.9927 72.1896 68.2793 71.9802C65.7327 71.8356 63.1127 71.6916 60.5727 71.7149L60.6393 71.8156ZM45.1393 89.3022C45.886 91.7082 46.766 93.5029 47.906 94.9436C48.2327 95.3529 48.166 95.9482 47.7593 96.2722C47.3593 96.5896 46.7793 96.5309 46.4527 96.1449L46.426 96.1196C45.1527 94.5102 44.1393 92.4629 43.3393 89.8582C40.7193 81.3829 41.6193 72.5016 43.266 64.8809L43.146 64.7536C42.2527 63.4089 41.0527 62.2602 39.6793 61.4056C40.1993 63.1036 39.8193 65.1416 38.5727 67.1789C37.7793 68.4702 36.9193 69.3809 35.9327 69.9609C33.746 71.2462 30.7527 70.9282 28.6527 69.1889C28.366 68.9529 28.0993 68.6909 27.866 68.4102C26.2727 66.5482 25.7193 63.8036 26.526 61.3729C27.3393 58.9082 29.3593 57.3576 31.9193 57.2249C32.3793 57.2009 32.8193 57.2029 33.246 57.2222C31.8927 55.3802 31.4527 52.8509 32.1993 50.5856C33.0193 48.1222 35.0327 46.5729 37.5993 46.4396C39.3193 46.3502 40.7593 46.5609 41.9927 47.0842C43.586 47.7602 44.7993 48.9769 45.306 50.4216C45.9193 52.1596 45.546 54.2796 44.2527 56.3942C43.4593 57.6836 42.5993 58.5929 41.6127 59.1742C41.246 59.3876 40.8593 59.5402 40.4593 59.6662C41.7193 60.4196 42.8593 61.3889 43.806 62.5129C44.066 61.4496 44.3327 60.4129 44.5993 59.4149L45.106 57.5389C46.0993 53.9376 47.1193 50.2162 47.306 46.4896C47.506 42.5329 46.5927 39.2049 44.2527 35.3642L44.1727 35.2209C43.1793 36.3649 40.9527 36.4522 38.6727 36.3622C34.966 36.2149 31.2527 35.3202 27.926 33.7696C24.2993 32.0789 21.0527 29.5822 18.4527 26.5369C17.3193 25.2056 16.306 23.7682 15.4393 22.2469C14.5127 20.6062 14.4193 19.2676 15.1593 18.2662C15.606 17.6649 16.3193 17.2796 17.3327 17.0922C19.7193 16.6516 22.1327 17.2462 23.9727 17.8136C29.1593 19.4169 34.1127 22.1916 38.2927 25.8369C39.7927 27.1456 41.426 28.6242 42.7593 30.2502C42.546 28.0262 42.6993 25.6756 42.906 23.6076C43.7393 15.3129 47.6593 7.5089 53.666 2.19623C54.4793 1.47423 55.3927 0.792229 56.5393 0.679562C57.1127 0.623562 57.6193 0.748229 58.006 1.0429C58.946 1.76956 58.726 3.0449 58.6527 3.46623L56.6793 14.7262L56.6529 14.8775C56.0412 18.3751 55.4096 21.9869 54.2727 25.4522C53.4593 27.9496 52.546 29.8129 51.3927 31.3176C49.986 33.1536 48.1793 34.4589 46.2527 35.0309C48.4927 38.9129 49.3993 42.5056 49.1927 46.5869C49.1527 47.3762 49.0727 48.1609 48.9727 48.9422C49.1327 48.6109 49.3127 48.2829 49.4927 47.9656C49.6193 47.7362 49.7393 47.5129 49.846 47.3029L49.8489 47.2972C51.248 44.565 52.694 41.7411 54.6127 39.2336C58.7327 33.8529 65.266 29.8082 72.9993 27.8462C74.8393 27.3789 76.246 27.8082 76.7527 28.9936C76.9593 29.4649 76.9527 29.9362 76.9193 30.3756C76.706 33.3402 75.3593 36.3782 73.026 39.1576C71.066 41.5009 68.706 43.3729 66.046 45.4029C63.326 47.4842 60.846 49.3176 58.026 50.6762C55.4793 51.9022 53.1327 52.5522 51.0393 52.6149L51.0328 52.6151C50.6335 52.6252 49.5024 52.6541 48.8593 51.9002C48.806 51.8342 48.7527 51.7622 48.6993 51.6822C48.6587 51.6107 48.6297 51.536 48.6006 51.461C48.5914 51.4374 48.5822 51.4138 48.5727 51.3902C48.1355 53.6324 47.5338 55.8371 46.9441 57.9978L46.9327 58.0396L46.426 59.9042C45.1727 64.5576 43.9527 69.9982 43.6527 75.6549C46.3327 73.5969 49.426 72.0076 52.6993 71.0282C53.706 70.7269 54.7127 70.5476 55.686 70.3749C55.7402 70.3651 55.7942 70.3554 55.8481 70.3457C56.4709 70.2336 57.0754 70.1248 57.646 69.9856C56.6193 67.3502 56.1727 64.4669 56.4593 62.1982C56.8593 59.0089 58.7193 56.1929 61.2993 54.8502C62.126 54.4209 62.8727 54.2242 63.5993 54.2462C64.6127 54.2742 65.5393 54.7756 66.006 55.5676C66.3193 56.0842 66.4127 56.6529 66.4593 57.1909C66.766 60.5536 66.006 63.9929 64.3327 66.9202C65.8393 66.1236 67.446 65.4629 69.146 65.1016C71.9793 64.5069 75.006 64.7896 77.6727 65.9049C79.686 66.7422 81.006 67.9742 81.4927 69.4689C82.286 71.9289 80.6927 74.4496 78.7527 75.8542C75.3527 78.3269 71.0927 78.4516 68.1193 78.1202C65.706 77.8562 63.7993 77.2576 62.286 76.2922C60.726 75.3056 59.4193 73.6522 58.4327 71.7342C57.6327 71.9462 56.8193 72.0916 56.0193 72.2342L56.004 72.237C55.0887 72.4001 54.141 72.5691 53.2393 72.8376C49.6727 73.9049 46.3393 75.7402 43.586 78.1456C43.5793 81.8596 44.006 85.6302 45.1393 89.3022ZM22.5127 51.5416C22.0527 52.9216 22.4793 54.4876 23.5327 55.3729C24.506 56.1776 25.9127 56.3476 26.8793 55.7762C27.346 55.4982 27.786 55.0296 28.206 54.3376C28.5927 53.7102 29.186 52.4969 28.8127 51.4536C28.7327 51.2216 28.5993 51.0009 28.426 50.7989C28.1527 50.4776 27.7793 50.2056 27.346 50.0202C26.6927 49.7456 25.8993 49.6356 24.9127 49.6856C23.3327 49.7669 22.7327 50.8829 22.5127 51.5416ZM28.0793 48.2809C29.2927 48.7896 30.206 49.7176 30.5993 50.8249C31.0593 52.1456 30.786 53.7436 29.8193 55.3249C29.226 56.2889 28.5793 56.9676 27.8393 57.4029C26.1793 58.3789 23.9127 58.1449 22.326 56.8269C22.1127 56.6489 21.9127 56.4502 21.7327 56.2382C20.5327 54.8362 20.1127 52.7736 20.7193 50.9476C21.3393 49.0756 22.8727 47.8989 24.8193 47.7989C26.0927 47.7336 27.1593 47.8909 28.0793 48.2809Z" fill="#424242"/>
</svg>
