<svg width="99" height="109" viewBox="0 0 99 109" fill="none" xmlns="http://www.w3.org/2000/svg">
<path fill-rule="evenodd" clip-rule="evenodd" d="M53.9889 108.667C52.663 108.667 51.339 108.639 50.021 108.589C40.5372 108.227 30.7501 106.626 22.8539 101.287C14.9577 95.9477 9.42733 86.1198 11.4024 76.7057C12.2773 72.5384 14.4895 68.805 16.6665 65.1603C21.0908 57.7539 25.527 50.3295 30.7262 43.4598C36.0924 36.3706 42.4884 29.7347 50.5919 26.223C55.1387 24.2528 59.8233 23.3333 64.4059 23.3333C80.4109 23.3333 95.1449 34.559 98.173 51.458C99.8924 61.0521 98.6684 70.9316 96.8921 80.5157C96.1066 84.7502 95.1806 89.0538 93.0029 92.7537C90.7159 96.6402 87.1652 99.6307 83.3032 101.898C74.5235 107.051 64.1893 108.667 53.9889 108.667Z" fill="#D3E4D7"/>
<path fill-rule="evenodd" clip-rule="evenodd" d="M44.3805 32.6485C46.0165 32.9859 48.8745 34.0932 49.6378 37.7085C49.9258 39.0705 49.7638 40.6512 49.1271 42.6845C48.3358 45.2179 47.2491 46.8479 45.8085 47.6685C43.4098 49.0385 40.2405 48.0319 38.0025 46.9459C36.8738 46.3979 35.4571 45.6205 34.5011 44.4659C32.7025 42.2925 32.6971 38.7432 34.4865 36.2092C36.4585 33.4232 40.7131 31.8952 44.3805 32.6485ZM46.1825 63.7752C46.1218 64.1379 45.9725 64.6452 45.6125 65.0105C45.3431 65.2825 44.9631 65.4199 44.6605 65.3752C44.4871 65.3465 44.2898 65.2539 44.0591 65.0945C43.5038 64.7079 43.0171 63.9779 43.2091 63.3825C43.3158 63.0539 43.6465 62.7605 44.0518 62.6352C44.7565 62.4205 45.5445 62.5145 45.9358 62.8572C46.0865 62.9899 46.2751 63.2279 46.1825 63.7752ZM21.8145 49.9312C21.7238 50.0779 21.5451 50.2725 21.0545 50.2725H21.0505C20.5745 50.2705 20.1505 50.1539 19.8531 49.9439C19.5745 49.7465 19.3938 49.4412 19.3938 49.1719C19.3938 49.0105 19.4491 48.8159 19.5578 48.5899C19.8018 48.0732 20.3198 47.5645 20.8385 47.5645L20.9511 47.5732C21.2538 47.6185 21.5578 47.8665 21.7278 48.2072V48.2079C22.0265 48.8059 22.0618 49.5305 21.8145 49.9312ZM21.3625 37.8699C21.2978 37.9032 21.1505 37.9859 20.8365 37.8145C20.5265 37.6445 20.2905 37.4205 20.1725 37.1785C20.0745 36.9772 20.0618 36.7425 20.1431 36.5925C20.1925 36.5012 20.2945 36.4005 20.4398 36.2952C20.7038 36.1032 21.0138 35.9999 21.2718 35.9999C21.4218 35.9999 21.5525 36.0345 21.6485 36.1065C21.8031 36.2239 21.9031 36.4739 21.8938 36.7305C21.8731 37.2865 21.6038 37.7325 21.3625 37.8699ZM37.7318 20.6879C37.5491 20.4219 37.6578 19.8839 37.9711 19.4905C38.1131 19.3132 38.2205 19.2385 38.2831 19.2072C38.3438 19.1772 38.4178 19.1625 38.4971 19.1625C38.6191 19.1625 38.7538 19.1972 38.8738 19.2632C39.1045 19.3885 39.3185 19.6352 39.4751 19.9539C39.6338 20.2792 39.5451 20.4212 39.5065 20.4819C39.3331 20.7559 38.8418 20.9605 38.3605 20.9605H38.3438C38.0898 20.9585 37.8425 20.8492 37.7318 20.6879ZM59.0398 28.8639C59.2405 28.6132 59.7845 28.5565 60.2605 28.7465C60.4265 28.8112 60.5465 28.8832 60.6185 28.9585C60.7331 29.0825 60.7811 29.3185 60.7351 29.5372C60.6831 29.7965 60.5098 30.0732 60.2511 30.3165C59.9878 30.5659 59.8251 30.5219 59.7571 30.5012C59.4398 30.4152 59.0965 29.9985 58.9585 29.5305C58.8865 29.2845 58.9178 29.0159 59.0398 28.8639ZM65.0165 39.8105C65.1738 39.6845 65.4478 39.5419 65.9678 39.7299C66.3078 39.8539 66.7811 40.0885 67.0745 40.5092C67.3011 40.8218 67.3745 41.2139 67.2678 41.5085C67.2078 41.6752 67.0811 41.8585 66.8878 42.0525C66.4078 42.5305 65.6011 42.8832 65.0518 42.5885C64.7471 42.4252 64.5165 42.0479 64.4651 41.6272C64.3785 40.9005 64.6091 40.1359 65.0165 39.8105ZM58.3845 55.6299L58.4951 55.6359C58.6925 55.6592 58.9845 55.7479 59.2198 56.2512C59.4398 56.7205 59.5225 57.1965 59.4545 57.5899C59.3865 57.9679 59.1611 58.2972 58.8771 58.4312C58.7185 58.5059 58.4398 58.5732 58.2225 58.5425C57.5471 58.5419 56.7311 58.2179 56.5505 57.6172C56.4511 57.2879 56.5565 56.8592 56.8185 56.5259C57.2405 55.9912 57.8791 55.6299 58.3845 55.6299ZM33.6951 59.1165C33.4605 59.3832 33.1891 59.5632 32.9311 59.6239C32.7138 59.6792 32.4778 59.6339 32.3518 59.5252C32.2985 59.4772 32.2158 59.3752 32.1251 59.1672C31.9258 58.7025 31.9625 58.1552 32.2098 57.9479C32.3118 57.8619 32.4685 57.8159 32.6345 57.8159C32.7138 57.8159 32.7951 57.8259 32.8725 57.8472C33.4111 57.9892 33.7851 58.3505 33.8665 58.6172C33.8871 58.6859 33.9351 58.8459 33.6951 59.1165ZM9.67715 41.3152C8.69581 42.0239 7.44648 42.2005 6.57048 42.2232C4.92514 42.2879 3.19648 41.8245 1.75914 40.9732C1.31048 40.7092 0.729811 40.8545 0.465811 41.3045C0.198478 41.7525 0.347811 42.3319 0.796478 42.5985C2.45248 43.5812 4.41181 44.1159 6.34181 44.1159C6.43581 44.1159 6.52781 44.1145 6.62181 44.1125C8.25848 44.0679 9.69781 43.6312 10.7845 42.8465C11.7658 42.1379 12.4185 41.1972 12.8571 40.2745C16.6518 42.9639 21.3111 44.4159 25.9725 44.4159C27.8911 44.4159 29.8078 44.1732 31.6618 43.6745C31.7305 43.6559 31.7845 43.6145 31.8451 43.5825C31.9911 43.9625 32.1625 44.3285 32.3645 44.6779C29.6251 46.1499 26.5891 47.1539 23.5158 47.5932C23.4831 47.5172 23.4551 47.4392 23.4178 47.3645C22.9751 46.4765 22.1371 45.8399 21.2311 45.7045C19.6891 45.4665 18.4011 46.6179 17.8518 47.7772C17.6245 48.2532 17.5065 48.7185 17.5051 49.1659C17.5051 50.0479 17.9865 50.9365 18.7611 51.4859C19.3811 51.9252 20.1705 52.1585 21.0545 52.1612C22.0858 52.1612 22.9251 51.7232 23.4191 50.9259C23.6825 50.5019 23.8231 49.9912 23.8545 49.4525C27.2198 48.9612 30.5425 47.8399 33.5238 46.1972C33.7045 46.3792 33.8931 46.5505 34.0851 46.7139C31.9725 51.0339 28.2251 54.4785 23.7318 56.1899C23.6391 56.1245 23.5345 56.0772 23.4225 56.0492C21.7471 54.1012 18.8431 53.1792 15.4925 53.6065C13.5678 53.8505 11.7251 54.4372 10.0111 55.3492C9.55181 55.5945 9.37648 56.1665 9.62181 56.6279C9.86714 57.0879 10.4391 57.2572 10.9005 57.0172C12.4091 56.2125 14.0345 55.6959 15.7285 55.4812C17.0658 55.3105 18.6238 55.3945 19.9645 55.9019C17.0291 56.1985 14.1818 57.5299 12.1618 59.6659C11.8045 60.0452 11.8211 60.6432 12.1991 61.0019C12.5791 61.3605 13.1751 61.3432 13.5351 60.9652C15.5785 58.8025 18.6078 57.6092 21.6005 57.7285C19.5211 60.8292 16.7225 63.3325 13.6045 64.8585C13.1365 65.0879 12.9425 65.6532 13.1711 66.1218C13.3351 66.4572 13.6711 66.6512 14.0198 66.6512C14.1598 66.6512 14.3025 66.6212 14.4351 66.5559C17.7311 64.9419 20.6871 62.3365 22.9245 59.1225C23.2491 60.4745 23.0298 61.9499 22.6078 63.0772C21.8698 65.0439 20.4731 66.7505 19.1225 68.3992C18.7925 68.8032 18.8518 69.3985 19.2558 69.7292C19.4311 69.8725 19.6431 69.9425 19.8531 69.9425C20.1265 69.9425 20.3978 69.8245 20.5838 69.5965C21.9638 67.9099 23.5278 65.9985 24.3751 63.7405C25.1391 61.7039 25.1745 59.6279 24.5298 57.9052C29.3151 56.0452 33.3271 52.4012 35.6505 47.8272C35.9625 48.0145 36.2711 48.1832 36.5698 48.3385L36.5105 48.4819C35.9805 51.1499 34.9165 53.7565 33.4385 56.0465L33.3591 56.0205C32.5105 55.7959 31.6105 55.9825 30.9925 56.5025C29.9498 57.3812 29.9485 58.8859 30.3891 59.9112C30.5738 60.3419 30.8058 60.6772 31.1031 60.9405C31.5458 61.3292 32.1271 61.5359 32.7378 61.5359C32.9458 61.5359 33.1565 61.5119 33.3665 61.4619C34.0105 61.3099 34.6138 60.9319 35.1098 60.3679C35.7151 59.6859 35.9165 58.8692 35.6745 58.0712C35.5598 57.6912 35.3411 57.3365 35.0525 57.0259C36.5905 54.6319 37.7065 51.9212 38.2971 49.1425C38.5398 49.2425 38.7805 49.3359 39.0191 49.4219C39.2525 56.2399 38.9305 63.9412 35.3638 70.3265C35.2465 70.3272 35.1351 70.3559 35.0251 70.3998C32.6171 69.7152 29.8538 70.3545 26.5945 72.3852C26.1518 72.6612 26.0165 73.2445 26.2918 73.6872C26.5718 74.1319 27.1591 74.2625 27.5945 73.9885C29.5485 72.7699 31.2451 72.1278 32.7385 72.0345C30.8938 73.7658 29.6078 76.1172 29.2285 78.6078C29.1491 79.1232 29.5038 79.6052 30.0205 79.6832C30.5258 79.7659 31.0185 79.4099 31.0958 78.8919C31.4645 76.4719 32.8578 74.2038 34.8225 72.7365C35.1178 74.0265 35.1745 75.4252 34.9718 76.7185C34.6985 78.4732 34.1158 80.2132 33.5511 81.8952C33.3851 82.3905 33.6511 82.9258 34.1451 83.0919C34.2451 83.1252 34.3465 83.1405 34.4458 83.1405C34.8405 83.1405 35.2098 82.8919 35.3405 82.4965C35.9311 80.7399 36.5398 78.9225 36.8385 77.0112C37.0051 75.9499 37.0191 74.8279 36.8971 73.7285C37.4051 74.2892 37.8278 74.9612 38.1171 75.7085C38.7245 77.2799 38.7645 79.1459 38.2278 80.8265C38.0691 81.3239 38.3438 81.8552 38.8405 82.0132C38.9365 82.0452 39.0318 82.0585 39.1278 82.0585C39.5285 82.0585 39.8991 81.8032 40.0285 81.4019C40.6945 79.3172 40.6391 76.9939 39.8791 75.0272C39.2845 73.4878 38.2465 72.1745 36.9825 71.3059C40.6918 64.7059 41.1285 56.9219 40.9285 49.9739C41.2958 50.0512 41.6551 50.1072 42.0078 50.1479C43.2625 53.5119 43.8791 57.1725 43.7958 60.7565C43.6958 60.7799 43.5958 60.7999 43.4945 60.8312C42.5025 61.1365 41.7051 61.8932 41.4118 62.8012C40.9118 64.3452 41.8751 65.8765 42.9838 66.6472C43.4505 66.9699 43.8991 67.1632 44.3525 67.2385C44.5005 67.2632 44.6478 67.2738 44.7958 67.2738C45.5758 67.2738 46.3598 66.9412 46.9558 66.3392C47.5165 65.7719 47.8931 64.9945 48.0458 64.0892C48.2251 63.0238 47.9171 62.0812 47.1811 61.4365C46.7771 61.0825 46.2558 60.8465 45.6851 60.7259C45.7578 57.1659 45.1805 53.5405 44.0151 50.1659C44.2065 50.1459 44.3905 50.1085 44.5758 50.0752C51.6031 63.6132 54.7671 79.3898 53.4731 94.5852C53.4291 95.1059 53.8151 95.5619 54.3351 95.6059L54.4165 95.6099C54.9018 95.6099 55.3131 95.2385 55.3551 94.7452C56.6691 79.3005 53.4825 63.2712 46.3898 49.4805C46.5071 49.4225 46.6298 49.3752 46.7438 49.3105C47.4151 48.9279 48.0191 48.4225 48.5651 47.8005C51.2865 49.7945 53.6858 52.3079 55.5398 55.1245C55.4711 55.2012 55.3991 55.2745 55.3351 55.3565C54.6911 56.1732 54.4645 57.2492 54.7431 58.1632C55.2098 59.7185 56.8718 60.4299 58.2311 60.4319C58.7925 60.4319 59.2685 60.3358 59.6831 60.1405C60.5285 59.7425 61.1371 58.9125 61.3138 57.9179C61.4525 57.1325 61.3198 56.2799 60.9305 55.4499C60.4711 54.4712 59.6831 53.8705 58.7111 53.7585C58.1718 53.6972 57.6098 53.7992 57.0731 54.0225C55.0971 51.0365 52.5471 48.3725 49.6558 46.2579C50.0745 45.5252 50.4405 44.6785 50.7645 43.7312C55.8911 45.2565 60.8491 47.3465 65.5145 49.9585C65.3078 50.2492 65.1238 50.5552 64.9685 50.8819C64.3118 52.2619 64.1071 53.9205 64.3965 55.5512C64.5151 56.2345 64.7051 56.8012 64.9725 57.2799C65.2745 57.8159 65.6745 58.2585 66.0745 58.6552C66.8478 59.4365 67.6878 60.1672 68.5678 60.8279C68.7411 60.9545 68.9411 61.0165 69.1345 61.0165C69.4211 61.0165 69.7078 60.8852 69.8945 60.6385C70.2011 60.2212 70.1211 59.6292 69.7011 59.3165C68.8945 58.7105 68.1211 58.0399 67.4145 57.3239C67.1345 57.0439 66.8211 56.7145 66.6211 56.3592C66.4611 56.0665 66.3411 55.6959 66.2545 55.2245C66.1011 54.3565 66.1411 53.4919 66.3345 52.6965C67.8945 55.4338 70.5878 57.4899 73.6545 58.2312C73.7278 58.2492 73.8078 58.2579 73.8745 58.2579C74.3011 58.2579 74.6878 57.9672 74.7945 57.5345C74.9145 57.0279 74.6078 56.5172 74.1011 56.3952C71.3811 55.7385 69.0078 53.8605 67.7411 51.3692C67.5745 51.0332 67.5678 50.9125 67.5745 50.8852C67.6145 50.7759 67.6211 50.6632 67.6211 50.5525C67.6945 50.5825 67.7678 50.6192 67.8478 50.6292C70.2945 50.9345 72.6545 51.8332 74.6811 53.2279C74.8411 53.3412 75.0278 53.3945 75.2145 53.3945C75.5145 53.3945 75.8078 53.2519 75.9945 52.9859C76.2878 52.5559 76.1811 51.9672 75.7545 51.6725C74.0945 50.5312 72.2345 49.6892 70.3078 49.1792C71.5145 49.0285 72.6278 49.0839 73.6078 49.3399C74.7011 49.6239 75.6345 50.1572 76.3078 50.8792C76.6611 51.2592 77.2611 51.2825 77.6411 50.9245C78.0211 50.5685 78.0411 49.9705 77.6878 49.5899C76.7678 48.6059 75.5211 47.8865 74.0878 47.5112C72.8678 47.1959 71.5211 47.1279 70.0745 47.3045C69.4678 47.3805 68.9811 47.4845 68.5345 47.6352C67.9078 47.8445 67.3278 48.1705 66.8078 48.5812C66.7411 48.5139 66.6811 48.4459 66.5945 48.3979C61.7625 45.6752 56.6191 43.5019 51.2991 41.9199C51.3365 41.7652 51.3711 41.6059 51.4045 41.4445C51.4971 41.4565 51.5905 41.4678 51.6858 41.4525C55.2498 40.7839 59.0125 40.8212 62.5711 41.5465C62.5765 41.6485 62.5785 41.7512 62.5905 41.8545C62.7145 42.8832 63.3178 43.8025 64.1625 44.2545C64.5945 44.4852 65.0485 44.5845 65.5011 44.5845C66.5411 44.5845 67.5611 44.0532 68.2278 43.3872C68.6211 42.9872 68.8945 42.5798 69.0478 42.1432C69.3545 41.2759 69.1945 40.2325 68.6211 39.4212C68.1611 38.7685 67.4678 38.2605 66.6011 37.9519C65.5878 37.5865 64.6051 37.7225 63.8378 38.3345C63.4178 38.6699 63.0938 39.1412 62.8738 39.6825C59.2018 38.9439 55.3345 38.8979 51.6465 39.5452C51.6665 39.1192 51.6625 38.6852 51.6225 38.2452C56.0005 37.8719 60.3071 36.9145 64.4318 35.3892C67.1411 34.3885 70.4745 32.8545 72.4278 29.8892C73.2478 30.5359 74.1611 30.9792 75.0945 31.1512C75.4611 31.2185 75.8278 31.2472 76.1811 31.2472C77.1478 31.2472 78.0411 31.0385 78.7745 30.8359C80.3278 30.4025 81.8278 29.7719 83.2211 28.9619C83.6745 28.7005 83.8278 28.1219 83.5678 27.6712C83.3011 27.2165 82.7211 27.0665 82.2745 27.3272C81.0145 28.0565 79.6678 28.6259 78.2611 29.0172C77.0745 29.3472 76.2078 29.4352 75.4411 29.2939C74.6611 29.1499 73.8945 28.7219 73.2211 28.0839C73.3745 28.0952 73.5278 28.1085 73.6811 28.1085C76.1211 28.1085 78.2278 26.6712 79.0678 26.0105C79.6878 25.5225 80.5345 24.7425 80.7678 23.6032C80.8745 23.0912 80.5411 22.5932 80.0278 22.4899C79.5345 22.3845 79.0211 22.7172 78.9145 23.2292C78.8345 23.6319 78.5145 24.0452 77.9011 24.5265C76.3811 25.7212 74.6545 26.3412 73.2278 26.1952C73.1211 26.1845 73.0745 26.1592 73.0278 26.1679C73.0211 25.8539 73.4278 24.9532 74.1678 24.0919C75.0811 23.0332 76.3345 22.2399 77.5545 21.5405C78.0145 21.2819 78.1678 20.7039 77.9078 20.2512C77.6478 19.7972 77.0678 19.6412 76.6211 19.9005C75.2545 20.6845 73.8345 21.5859 72.7345 22.8619C72.4878 23.1479 71.9745 23.7872 71.6011 24.5412C71.6145 24.3532 71.6211 24.1672 71.6545 23.9585C71.9078 22.4845 72.6611 21.1172 73.7678 20.1092C74.1545 19.7585 74.1811 19.1612 73.8278 18.7752C73.4811 18.3899 72.8878 18.3612 72.4945 18.7125C71.0745 20.0012 70.1145 21.7512 69.7945 23.6412C69.6545 24.4619 69.6545 25.1879 69.7878 25.8612C69.9345 26.6052 70.2611 27.3392 70.7811 28.1045C70.8811 28.2619 71.0011 28.4092 71.1145 28.5565C71.0545 28.6112 70.9878 28.6612 70.9411 28.7325C69.3011 31.3205 66.2478 32.7032 63.7751 33.6179C59.7351 35.1119 55.5131 36.0425 51.2211 36.3859C51.0785 35.9472 50.9091 35.5259 50.7058 35.1299C53.3651 34.4472 55.9358 33.2825 58.2005 31.7332C58.5191 32.0125 58.8791 32.2205 59.2625 32.3245C59.4638 32.3792 59.6651 32.4059 59.8638 32.4059C60.4638 32.4059 61.0445 32.1625 61.5445 31.6939C62.0925 31.1779 62.4545 30.5639 62.5851 29.9212C62.7565 29.1039 62.5318 28.2425 61.9985 27.6712C61.7291 27.3819 61.3858 27.1585 60.9525 26.9885C59.9138 26.5785 58.4105 26.6225 57.5598 27.6892C57.0505 28.3305 56.8958 29.2185 57.1465 30.0672L57.1751 30.1465C54.9305 31.6905 52.3545 32.8292 49.7025 33.4372L49.5758 33.4945C49.2698 33.1499 48.9365 32.8319 48.5725 32.5439C50.1665 30.7865 51.4031 28.7499 52.1725 26.6199C52.2685 26.6572 52.3511 26.6999 52.4518 26.7359C53.1251 26.9745 53.6911 27.1132 54.2351 27.1692C54.4218 27.1892 54.6098 27.1979 54.7998 27.1979C56.0985 27.1979 57.4491 26.7512 58.6578 25.9119C59.7185 25.1759 60.6645 24.1679 61.6351 22.7412C61.9265 22.3099 61.8158 21.7225 61.3845 21.4292C60.9578 21.1379 60.3698 21.2465 60.0705 21.6799C59.2365 22.9085 58.4451 23.7599 57.5805 24.3605C56.5671 25.0639 55.4605 25.3999 54.4291 25.2892C54.1865 25.2645 53.9178 25.2032 53.6311 25.1232L53.6671 25.1039C54.5345 24.6272 55.5325 24.0552 56.4051 23.2845C57.3918 22.4125 58.0798 21.3892 58.3971 20.3259C58.5451 19.8259 58.2611 19.3005 57.7611 19.1519C57.2558 19.0012 56.7351 19.2879 56.5858 19.7872C56.3698 20.5112 55.8751 21.2312 55.1545 21.8685C54.5471 22.4039 53.8298 22.8465 53.1325 23.2399C53.4978 21.8185 53.9905 20.3845 54.8885 19.2772C55.2171 18.8719 55.1545 18.2772 54.7505 17.9492C54.3465 17.6212 53.7518 17.6805 53.4198 18.0872C52.0585 19.7672 51.5031 21.8479 51.0651 23.7599C50.9891 23.6799 50.9058 23.6025 50.8425 23.5172C50.3191 22.8079 50.2118 21.9072 50.2158 21.2772C50.2231 20.3765 50.4405 19.4459 50.6638 18.5705C50.7931 18.0652 50.4885 17.5512 49.9831 17.4225C49.4778 17.2952 48.9631 17.5985 48.8338 18.1039C48.5811 19.0919 48.3338 20.1499 48.3265 21.2639C48.3191 22.5819 48.6638 23.7499 49.3265 24.6432C49.6311 25.0539 50.0211 25.4152 50.4831 25.7419C49.7811 27.7985 48.5845 29.7725 47.0185 31.4505L46.9625 31.5419C46.2851 31.2205 45.5558 30.9632 44.7625 30.7992C44.4325 30.7305 44.0985 30.6819 43.7638 30.6439C45.3791 24.7159 45.4138 18.2919 43.8491 12.3612C44.8785 12.0279 45.8605 11.5005 46.7125 10.7799C48.6991 9.09719 49.9571 6.50052 50.1658 3.65785C50.2025 3.13652 49.8118 2.68452 49.2911 2.64719C48.8191 2.59519 48.3191 2.99852 48.2805 3.51985C48.1105 5.86052 47.0938 7.98119 45.4911 9.33785C45.1165 9.65585 44.7065 9.91852 44.2805 10.1419C44.9918 7.34319 45.3298 4.47119 45.2491 1.58452C45.2345 1.06319 44.7418 0.664519 44.2791 0.666519C43.7571 0.681186 43.3451 1.11652 43.3605 1.63785C43.4451 4.61919 43.0745 7.58852 42.2605 10.4605L42.2511 10.4919C42.1631 10.3572 42.0838 10.2092 42.0078 10.0645C40.8405 7.78985 40.2998 5.24185 40.4438 2.69319C40.4731 2.17185 40.0745 1.72652 39.5545 1.69652C38.9918 1.68919 38.5878 2.06719 38.5578 2.58585C38.3971 5.41785 38.9885 8.24785 40.2598 10.7845C40.0051 10.7345 39.7551 10.6672 39.5118 10.5805C38.8791 10.3559 38.2151 9.98252 37.4825 9.44252C36.6465 8.82319 36.0231 8.20985 35.5805 7.56852C35.2265 7.05519 34.8018 6.24452 34.7871 5.29919C34.7798 4.78252 34.3571 4.36852 33.8278 4.36852C33.3078 4.37519 32.8905 4.80519 32.8978 5.32652C32.9145 6.44985 33.3038 7.59585 34.0251 8.64185C34.5898 9.45785 35.3538 10.2172 36.3611 10.9605C37.2445 11.6145 38.0691 12.0732 38.8791 12.3605C39.6591 12.6385 40.4878 12.7732 41.3251 12.7732C41.5498 12.7732 41.7751 12.7619 42.0005 12.7425C43.5451 18.5285 43.4865 24.8212 41.8285 30.5845C41.6431 30.5932 41.4585 30.6025 41.2738 30.6199C41.4185 27.8392 41.0598 24.9925 40.2271 22.3305C40.5878 22.1079 40.8931 21.8239 41.1058 21.4885C41.5505 20.7825 41.5725 19.9432 41.1705 19.1212C40.8365 18.4439 40.3551 17.9205 39.7791 17.6059C39.0378 17.1979 38.1671 17.1619 37.4551 17.5099C37.1045 17.6812 36.7905 17.9425 36.4971 18.3099C35.7998 19.1832 35.4018 20.6339 36.1745 21.7579C36.6318 22.4239 37.4585 22.8419 38.3278 22.8499H38.3625L38.4118 22.8465C39.2305 25.4472 39.5638 28.2419 39.3665 30.9519C38.8851 31.0725 38.4125 31.2185 37.9525 31.3932C36.6058 25.9005 33.8218 20.8712 29.8598 16.8292C29.7578 16.7259 29.6365 16.6579 29.5085 16.6105C29.8418 15.9579 30.0731 15.2545 30.1771 14.5225C30.3598 13.2352 30.1878 11.8452 29.6531 10.2752C29.1011 8.65585 28.0038 6.42785 25.9045 5.01252C25.4745 4.72585 24.8858 4.83319 24.5925 5.26852C24.3011 5.70119 24.4158 6.28785 24.8491 6.57919C26.5111 7.70119 27.4058 9.53919 27.8638 10.8839C28.3005 12.1672 28.4465 13.2712 28.3065 14.2592C28.2478 14.6719 28.1145 15.0699 27.9465 15.4545C26.4871 12.4032 24.6151 10.0992 22.3618 8.61585C21.9251 8.32852 21.3405 8.44785 21.0525 8.88519C20.7665 9.32052 20.8865 9.90652 21.3218 10.1932C23.1571 11.4012 24.7738 13.3432 26.0465 15.8539C23.5651 15.7212 21.1505 14.5759 19.5118 12.6979C19.1685 12.3039 18.5691 12.2652 18.1785 12.6059C17.7851 12.9492 17.7445 13.5465 18.0878 13.9392C20.0885 16.2312 23.0498 17.6025 26.0791 17.7305C25.4271 18.1905 24.6811 18.5212 23.8898 18.6505C21.7225 19.0032 19.3018 17.9372 17.9971 16.0485C17.7005 15.6179 17.1098 15.5152 16.6838 15.8079C16.2538 16.1039 16.1471 16.6925 16.4438 17.1225C17.9438 19.2959 20.4845 20.6092 23.0285 20.6092C23.4178 20.6092 23.8085 20.5779 24.1958 20.5139C25.8738 20.2392 27.3878 19.3492 28.4818 18.1099L28.5091 18.1519C32.3265 22.0439 34.9905 26.9065 36.2178 32.2159C35.2898 32.7485 34.4518 33.3985 33.7458 34.1519C31.8505 33.0819 30.1785 31.5899 28.9111 29.8159C28.8458 29.7245 28.7631 29.6559 28.6758 29.5952C29.0111 28.4605 28.8871 27.1492 28.2951 25.8859C27.7031 24.6232 26.7625 23.5985 25.9318 22.6939C25.5798 22.3085 24.9798 22.2852 24.5985 22.6359C24.2145 22.9879 24.1885 23.5859 24.5411 23.9705C25.3138 24.8145 26.1145 25.6872 26.5851 26.6892C26.9898 27.5512 27.0591 28.4359 26.8231 29.1392C26.6385 28.4772 26.2931 27.8372 25.9411 27.3919C25.2898 26.5679 24.5965 25.7725 23.8785 25.0272C23.5151 24.6512 22.9191 24.6432 22.5431 25.0019C22.1665 25.3632 22.1558 25.9612 22.5171 26.3372C23.1925 27.0385 23.8451 27.7879 24.4598 28.5632C24.5851 28.7225 24.7031 28.9172 24.8011 29.1179C23.3385 28.9572 21.9105 28.3332 20.8258 27.3552C20.4378 27.0072 19.8425 27.0392 19.4918 27.4239C19.1411 27.8125 19.1725 28.4092 19.5598 28.7585C20.8825 29.9505 22.5471 30.7045 24.2945 30.9525C23.7858 31.0365 23.2171 31.0645 22.5485 31.0252C20.9711 30.9312 19.7925 30.5205 19.0418 29.8059C18.6671 29.4459 18.0698 29.4585 17.7058 29.8372C17.3465 30.2152 17.3611 30.8132 17.7391 31.1725C18.8198 32.2039 20.4011 32.7885 22.4345 32.9105C22.6945 32.9258 22.9418 32.9339 23.1811 32.9339C24.1351 32.9339 24.9411 32.8099 25.6791 32.5525C26.4598 32.2819 27.1291 31.8345 27.6591 31.2905C28.9958 33.0519 30.6851 34.5512 32.5898 35.6672C32.1125 36.4619 31.7691 37.3219 31.5518 38.2059C28.9158 38.2472 26.2451 37.7865 23.7751 36.8832L23.7825 36.7979C23.8125 35.9145 23.4418 35.0925 22.7885 34.5992C21.7038 33.7792 20.2318 34.1105 19.3291 34.7665C18.9491 35.0432 18.6725 35.3439 18.4865 35.6872C18.1065 36.3825 18.1025 37.2525 18.4771 38.0112C18.7685 38.6065 19.2705 39.1119 19.9311 39.4719C20.3438 39.6978 20.7665 39.8112 21.1798 39.8112C21.5671 39.8112 21.9438 39.7125 22.2938 39.5139C22.6391 39.3179 22.9371 39.0259 23.1765 38.6752C25.7498 39.6092 28.5265 40.1025 31.2858 40.1025C31.2645 40.6865 31.2945 41.2678 31.3811 41.8365C31.3111 41.8392 31.2411 41.8305 31.1711 41.8499C25.1678 43.4659 18.4485 42.1425 13.4971 38.4172C14.3098 34.9685 13.3485 31.2205 10.9578 28.6019C10.6071 28.2172 10.0111 28.1892 9.62381 28.5412C9.23781 28.8925 9.21048 29.4905 9.56314 29.8745C11.2971 31.7752 12.1338 34.5025 11.8258 37.0625C11.6858 36.9179 11.5411 36.7745 11.3945 36.6299C10.6378 35.8752 9.84648 35.1558 9.04314 34.4519C8.48314 33.9618 7.48914 32.7165 6.67048 32.7505C6.41714 32.7612 6.17448 32.9132 6.05514 33.1365C5.94581 33.3392 5.93781 33.5799 5.94781 33.8099C5.97848 34.5452 6.99581 35.1745 7.51181 35.6232C8.41781 36.4112 9.30981 37.2172 10.1605 38.0645C10.3078 38.2119 10.4578 38.3592 10.5958 38.5085C10.3378 38.5659 10.0331 38.6012 9.67715 38.6145C7.27114 38.7185 4.81781 38.0039 2.81448 36.6332C2.40114 36.3492 1.84048 36.4379 1.53248 36.8372C1.22581 37.2345 1.28514 37.8012 1.66514 38.1285L1.86981 38.3025C1.96581 38.3852 2.07448 38.4439 2.18914 38.4812C4.29581 39.8005 6.76781 40.5119 9.25314 40.5119C9.41848 40.5119 9.58514 40.5085 9.75114 40.5019C9.98714 40.4932 10.2565 40.4732 10.5398 40.4339C10.2778 40.7759 9.99714 41.0852 9.67715 41.3152Z" fill="#424242"/>
</svg>
