<svg width="120" height="141" viewBox="0 0 120 141" fill="none" xmlns="http://www.w3.org/2000/svg">
<path fill-rule="evenodd" clip-rule="evenodd" d="M64.3996 129.808C63.1188 130.151 61.8328 130.467 60.5466 130.76C51.2923 132.864 41.4244 133.851 32.4155 130.738C23.4064 127.624 15.5208 119.563 14.992 109.958C14.7586 105.706 15.9291 101.528 17.0886 97.4437C19.4452 89.1447 21.8087 80.825 25.0528 72.8438C28.4012 64.6072 32.8618 56.5421 39.7803 51.0527C43.6623 47.9728 47.9492 45.8721 52.3757 44.6861C67.8353 40.5437 84.9727 47.5734 92.2714 63.1129C96.4153 71.9351 97.7901 81.7948 98.5548 91.512C98.892 95.8055 99.1115 100.202 97.9656 104.34C96.7625 108.686 94.1067 112.493 90.9631 115.683C83.8163 122.933 74.2524 127.168 64.3996 129.808Z" fill="#D3E4D7"/>
<path fill-rule="evenodd" clip-rule="evenodd" d="M39.9589 58.745C42.2534 64.5578 45.3593 70.0099 49.1835 74.951C51.8704 78.4263 57.9092 84.1959 61.2013 83.802C60.4831 83.4473 59.8313 82.8418 59.2593 82.2297C52.3758 74.8659 46.6961 66.5326 41.0031 57.9279C37.3319 52.3799 33.674 46.7388 30.0959 41.137C31.2723 45.9553 33.4517 48.8139 35.5654 51.5862L35.5694 51.5915C37.1656 53.6801 38.815 55.8406 39.9589 58.745ZM61.9396 83.5757C62.0127 83.5385 62.0859 83.5005 62.1524 83.454L62.2521 83.3608C61.7334 82.4419 61.1681 81.5164 60.6161 80.6161C59.931 79.5176 59.2261 78.3811 58.6341 77.2586C57.3439 74.8266 56.0071 72.3121 54.5373 69.9114C51.8105 65.458 48.6182 61.35 45.3061 57.1833C41.9608 52.9748 38.5556 48.7782 35.1571 44.6622C33.7405 43.7133 32.3438 42.7219 30.9871 41.66C34.4122 47.005 37.8972 52.3786 41.3955 57.6684C47.0752 66.2552 52.7416 74.5704 59.6052 81.907C60.2902 82.6382 61.075 83.3608 61.9396 83.5757ZM56.0337 66.8174C53.8789 62.4112 51.1321 57.367 47.0486 53.3594C44.2856 50.6414 40.9313 48.4499 37.691 46.3328L37.6311 46.2937C37.3705 46.1247 37.1099 45.9534 36.8493 45.7821C36.7375 45.7086 36.6257 45.6351 36.5138 45.5618C39.5798 49.2939 42.6524 53.0886 45.6719 56.8906C48.9906 61.0685 52.2029 65.1892 54.9363 69.6646C56.4128 72.0786 57.7563 74.5991 59.0465 77.0377C59.6384 78.1462 60.3367 79.276 61.0151 80.3679C61.494 81.1464 61.9728 81.9436 62.4317 82.7413C62.5248 81.4046 61.6403 77.8075 56.7254 68.1888L56.6326 68.0065C56.382 67.5145 56.1761 67.1101 56.0337 66.8174ZM79.6771 19.0489C79.3645 19.6072 79.0386 20.1841 78.6927 20.7869C75.2676 26.8126 70.1466 35.8352 72.4943 39.3558C74.2168 35.4879 75.5802 31.4071 76.8904 27.4507L79.6771 19.0489ZM72.9731 39.7403C73.0263 39.7363 73.1327 39.7164 73.1926 39.6186C76.2519 34.9496 78.0077 28.3044 79.2048 21.9686L77.3493 27.5685C76.0059 31.6253 74.6158 35.7833 72.8534 39.725L72.9731 39.7403ZM70.9646 79.4038C70.6853 79.821 70.2995 80.3533 69.8539 80.9661C68.444 82.921 65.6507 86.7955 64.7395 89.5402C72.8601 77.9053 83.448 68.1901 95.7053 61.1078C91.1163 62.5896 86.6204 64.3568 82.6765 67.0323C78.5132 69.8609 74.6824 73.9071 70.9646 79.4038ZM101.638 59.2996L101.571 59.3192C100.354 59.6765 99.1304 60.0405 97.9067 60.4138C84.8646 67.5487 73.6116 77.6245 65.092 89.8363C67.473 88.0977 69.5014 85.8573 71.4634 83.6888C71.8957 83.2098 72.328 82.732 72.7603 82.2589C82.4704 71.7219 94.588 63.2303 107.803 57.7003L108.335 57.4781C109.173 57.1294 110.024 56.7721 110.849 56.3689C107.812 57.484 104.696 58.4003 101.638 59.2996ZM92.5571 71.6471L92.5728 71.6368C101.99 65.4527 112.432 58.5893 116.296 54.0733C115.385 54.5191 114.46 54.9264 113.523 55.3169C112.013 56.4548 110.237 57.1973 108.515 57.9133L107.983 58.1355C94.8274 63.6389 82.7696 72.0912 73.1128 82.5783C72.6738 83.0508 72.2415 83.5272 71.8092 84.0056C69.7675 86.2665 67.6525 88.6047 65.1253 90.3966C65.0588 90.4418 64.9856 90.4924 64.8991 90.5463C64.7728 90.6295 64.6065 90.7419 64.4602 90.8577C64.4585 90.8798 64.4565 90.9022 64.4545 90.9247C64.4482 90.9935 64.4419 91.0628 64.4469 91.1265C67.473 89.656 70.3394 87.397 73.1128 85.2046C73.9308 84.5578 74.7422 83.9191 75.547 83.3102C80.2582 79.7303 86.5098 75.6215 92.5571 71.6471ZM50.8601 22.1706C52.3277 30.7713 53.8448 39.6628 57.3373 47.8094C59.0332 51.7625 63.1766 57.0702 64.7794 56.7315L64.9523 56.6524L59.8978 47.2632C58.9268 45.464 57.9225 43.6016 57.0912 41.6733C54.8245 36.4065 53.8722 30.652 52.9507 25.0842L52.9411 25.0261L52.9367 24.9992C52.3195 21.2928 51.6817 17.4618 50.6666 13.8057C49.8286 10.7816 48.7046 7.83459 47.3412 5.00672C48.8975 10.6578 49.8884 16.4706 50.8528 22.1277L50.8601 22.1706ZM60.6514 28.8457L60.6427 28.8194L60.3633 27.9864C57.3838 19.0629 53.3069 11.6313 48.2391 5.77856C49.4029 8.33097 50.3739 10.9779 51.1188 13.6786C52.1497 17.3682 52.7882 21.2221 53.4 24.9489L53.4099 25.008C54.3312 30.5476 55.2835 36.2729 57.5301 41.4876C58.3482 43.396 59.3458 45.249 60.3101 47.0396L65.2716 56.2565C65.6108 55.6676 65.8967 54.4952 65.9433 52.4824C66.1094 45.1614 63.0841 36.1178 60.6514 28.8457ZM75.9593 52.9974L75.3541 53.9582C72.2149 58.9133 68.0649 65.4866 67.4996 71.5343C73.1527 65.1327 77.908 57.9944 81.6457 50.3166C82.1112 49.3598 82.5635 48.3963 83.0091 47.4308C83.0546 47.3333 83.1001 47.2356 83.1458 47.1378C83.9074 45.5047 84.6904 43.8256 85.5563 42.2129C86.0085 41.3659 86.4874 40.5255 86.9729 39.6831C88.3696 37.2345 89.7928 34.714 90.5643 32.0133C85.39 38.7829 80.4818 45.8193 75.9593 52.9974ZM67.6326 72.0646C76.0923 65.7395 83.2751 51.3419 87.6646 42.529C89.5401 38.7735 91.2227 34.8338 91.4488 30.8442C91.4222 30.8784 91.3956 30.9134 91.369 30.9483C91.3424 30.9832 91.3158 31.0182 91.2892 31.0524C90.6108 34.2283 88.9748 37.1187 87.3786 39.9167L87.3642 39.9419C86.8901 40.7712 86.4164 41.5999 85.9753 42.4358C85.1136 44.0411 84.3292 45.7185 83.5659 47.3507C83.5221 47.4443 83.4784 47.5378 83.4347 47.6311C83.333 47.8484 83.2316 48.0658 83.1302 48.2831C82.781 49.0317 82.4321 49.7796 82.0713 50.5222C78.3004 58.2712 73.4919 65.474 67.7855 71.9295L67.6326 72.0646ZM67.5993 72.0912L67.4464 72.1831L67.4397 72.211L67.5993 72.0912ZM74.2369 86.7217C71.079 89.2108 67.8211 91.7787 64.2141 93.301L64.1143 93.3216C63.9015 104.181 64.7861 116.084 70.7451 125.555C71.0178 125.997 70.8914 126.579 70.4458 126.856C70.2929 126.953 70.12 127 69.947 127C69.6345 127 69.3285 126.844 69.1489 126.559C62.3519 115.744 61.8797 102.086 62.312 90.1524C62.3719 88.5395 62.4517 86.9532 62.5381 85.3789C62.0127 85.6065 61.4541 85.7189 60.8754 85.7189C55.3154 85.7189 47.7802 76.2166 47.6937 76.1055C43.7565 71.024 40.5641 65.4161 38.2098 59.437C37.1673 56.7979 35.6797 54.8451 34.1107 52.7854L34.073 52.7359L34.0691 52.7308C31.41 49.2464 28.6588 45.6414 27.675 38.4814C27.6218 38.0822 27.8213 37.6923 28.1871 37.5113C28.5396 37.3297 28.9786 37.3962 29.2645 37.6797C32.0252 40.3808 35.363 42.5623 38.5876 44.6698L38.6554 44.7141C42.0007 46.8945 45.4524 49.1482 48.3721 52.0133C52.6551 56.2212 55.5017 61.4398 57.723 65.9883V65.989C57.8826 66.3104 58.1154 66.7688 58.408 67.3311C60.4365 71.3041 62.0726 74.7714 63.0901 77.588C63.6821 70.8423 64.5533 64.458 65.7039 58.3883C65.531 58.4722 65.3447 58.5434 65.1386 58.5826C64.9922 58.6126 64.8393 58.6259 64.6863 58.6259C61.0816 58.6259 56.599 50.8722 55.6081 48.5533C52.0233 40.1868 50.4804 31.1676 48.9972 22.4451L48.9964 22.4401C47.8128 15.499 46.5891 8.3227 44.3417 1.57467C44.2021 1.16746 44.3617 0.717661 44.7208 0.484777C45.08 0.249897 45.5588 0.291817 45.8714 0.584585C52.9079 7.08803 58.3881 16.1066 62.1524 27.3895L62.4317 28.2219C64.5666 34.6082 67.1471 42.3367 67.7124 49.2513C68.5437 45.9424 69.4682 42.7233 70.4924 39.5953C68.4974 34.9174 73.205 26.6326 77.0556 19.856L77.0567 19.8541C78.8657 16.6762 80.5682 13.674 80.7811 12.3153V12.3126C80.8542 11.7969 81.3397 11.447 81.8518 11.5228C82.3639 11.6007 82.7231 12.0811 82.6433 12.5961L82.4704 13.7339L82.4647 13.7714C81.2082 22.0834 79.4904 33.4474 74.7688 40.6532C74.3897 41.2261 73.7845 41.5781 73.0862 41.622L72.9532 41.6254C72.5807 41.6254 72.2282 41.5249 71.909 41.3559C69.0691 50.3013 67.0207 59.968 65.7172 70.5715C66.5818 64.3123 70.6454 57.8654 73.7579 52.9495L74.3631 51.992C79.6438 43.6115 85.4366 35.4087 91.5819 27.6118C91.8146 27.3103 92.2203 27.1879 92.5795 27.2884C92.9453 27.3935 93.2113 27.7102 93.2578 28.0895C93.8564 33.4305 91.7481 38.5606 89.3805 43.3075C84.286 53.5331 76.631 68.8921 67.0141 74.7654C66.8677 74.8579 66.6948 74.9038 66.5219 74.9038C66.3756 74.9038 66.2293 74.8699 66.0963 74.8007C65.8036 74.6516 65.6108 74.3615 65.5842 74.0348C65.5177 73.1951 65.5376 72.3447 65.6108 71.4904C65.0721 76.0809 64.6664 80.845 64.4003 85.8021C65.4644 83.9031 66.8744 81.8737 68.3309 79.8616C68.3799 79.7933 68.4281 79.7261 68.4756 79.6599C68.8409 79.1509 69.1604 78.7058 69.4017 78.3472C73.2591 72.6482 77.2562 68.4376 81.6191 65.4727C87.485 61.4924 94.3752 59.4676 101.039 57.51C106.912 55.7854 112.984 54.0008 118.245 50.8862C118.564 50.6959 118.963 50.7125 119.269 50.9287C119.575 51.1437 119.721 51.5176 119.648 51.8822C118.677 56.7417 106.512 64.7352 93.6301 73.1994L93.6103 73.2124L93.5178 73.2732C87.521 77.2153 81.3291 81.2857 76.6842 84.8127C75.9787 85.3483 75.268 85.9087 74.5472 86.477C74.4594 86.5463 74.3714 86.6156 74.2833 86.6851L74.2369 86.7217ZM67.0038 20.7376C66.2649 17.6 65.3184 14.4888 64.1905 11.4807C64.1192 12.8376 64.2034 14.2467 64.3137 15.7582C64.6831 20.6603 65.273 25.7644 68.1188 29.5496C68.2614 29.7381 68.3846 29.8873 68.4883 30.0053C68.4948 29.7951 68.4948 29.5211 68.4753 29.1665C68.3133 26.2899 67.5873 23.2113 67.0038 20.7376ZM69.2856 32.2431C69.1301 32.3048 68.981 32.3333 68.8254 32.3333C67.879 32.3333 67.0557 31.2429 66.6797 30.737C63.5098 26.53 62.8681 21.1031 62.4856 15.9054C62.3171 13.5883 62.2004 11.3261 62.6282 9.11613C62.6995 8.7391 62.9848 8.4448 63.3413 8.3675C63.8015 8.27053 64.936 8.25154 65.662 10.1448C66.9196 13.4276 67.9762 16.8371 68.7865 20.2778C69.3894 22.8268 70.1348 26.0011 70.3099 29.0519C70.3877 30.3986 70.3228 31.8314 69.2856 32.2431Z" fill="#424242"/>
</svg>
