<svg width="108" height="106" viewBox="0 0 108 106" fill="none" xmlns="http://www.w3.org/2000/svg">
<path fill-rule="evenodd" clip-rule="evenodd" d="M44.2669 11.5254C45.5477 11.1822 46.8337 10.8661 48.1199 10.5737C57.3742 8.4688 67.2421 7.48187 76.251 10.5951C85.2601 13.7089 93.1457 21.7705 93.6745 31.375C93.9079 35.6268 92.7374 39.8055 91.5779 43.8895C89.2213 52.1886 86.8578 60.5082 83.6137 68.4894C80.2653 76.726 75.8047 84.7912 68.8862 90.2806C65.0042 93.3604 60.7173 95.4611 56.2908 96.6472C40.8312 100.79 23.6938 93.7598 16.3951 78.2204C12.2512 69.3982 10.8764 59.5384 10.1117 49.8212C9.77447 45.5277 9.55496 41.131 10.7009 36.9937C11.904 32.6476 14.5598 28.8401 17.7034 25.6507C24.8502 18.4006 34.4141 14.1654 44.2669 11.5254Z" fill="#D3E4D7"/>
<path fill-rule="evenodd" clip-rule="evenodd" d="M11.1523 53.2297L9.94355 55.0908L9.93463 55.1045C9.77076 55.3571 9.58818 55.6385 9.56132 55.8537C9.51863 56.1843 9.79746 56.6311 10.0116 56.9393C10.8848 58.1992 12.0235 59.3105 13.3049 60.1553C14.2095 60.7499 14.9346 61.0046 15.5569 60.9215C15.9405 60.8707 16.3007 60.6601 16.5636 60.3704C15.5549 59.8187 14.617 59.1442 13.7919 58.3595C13.3489 57.9365 12.8747 57.4059 12.7306 56.678C12.6278 56.1677 12.7187 55.696 12.7919 55.3164L12.7933 55.3092C12.816 55.1931 12.7766 54.9614 12.7399 54.7562C12.7132 54.5978 12.6839 54.4209 12.6672 54.2341C12.1462 53.9339 11.6366 53.6052 11.1523 53.2297ZM14.6971 49.3637C13.7372 49.3637 12.6792 49.0568 11.5919 48.4476C11.1463 48.1982 10.7227 47.9151 10.3144 47.6135C10.2424 47.7567 10.1684 47.8999 10.097 48.0299C9.90086 48.3803 9.71808 48.7116 9.75144 48.9255C9.77545 49.0667 9.91353 49.2653 10.0576 49.4567C11.834 51.826 14.3516 53.4244 16.9638 53.8434C17.0452 53.8573 17.2647 53.8896 17.338 53.8692L17.3384 53.8691C17.3497 53.8651 17.5151 53.8074 17.7423 53.2706C17.827 53.0687 17.9024 52.8634 17.9697 52.6549C17.6042 52.4245 17.2987 52.1678 17.0632 51.8728C16.5682 51.2551 16.3708 50.5338 16.2254 49.9062C16.1805 49.7144 16.144 49.5212 16.1075 49.3282L16.1075 49.3281C16.0947 49.2601 16.0818 49.192 16.0686 49.1241C15.6403 49.2812 15.1814 49.3637 14.6971 49.3637ZM15.0873 34.2659C13.988 34.5701 12.958 35.463 11.9408 37.002C11.4091 37.8052 10.9382 38.6559 10.5432 39.5303L13.1588 40.744C14.0694 41.165 15.0106 41.5993 15.9559 41.7729C17.5175 42.0613 19.2525 41.6019 20.4673 40.5731C20.7995 40.2919 21.0116 40.0345 21.115 39.7857C21.2204 39.5297 21.2477 39.1944 21.2704 38.8143L21.2978 38.3939C21.3138 38.1609 21.3211 38.0342 21.3284 37.6567C19.1865 36.6516 17.0952 35.5211 15.0873 34.2659ZM16.9932 28.641C15.8118 29.3307 14.8425 30.3431 14.0487 31.2426L13.9953 31.304L14.1094 31.3858C16.7957 33.2251 19.6568 34.8433 22.6179 36.1989C23.6699 36.6793 24.7919 37.1571 25.9439 37.2614C27.6369 37.4145 29.4327 36.6701 30.5093 35.3587C31.3905 34.285 32.163 31.9382 31.5693 30.9443C31.5019 30.875 31.4472 30.7998 31.4039 30.7133L31.2651 30.5978C31.123 30.5675 30.9836 30.5166 30.8635 30.419L30.7595 30.2923C30.2598 30.0329 29.6308 29.7847 29.1505 29.5953L29.1395 29.591L29.1394 29.591L29.1393 29.5909C28.8075 29.46 28.5034 29.34 28.2593 29.2291C26.8578 28.5981 25.6671 28.1738 24.5117 27.8953C21.6633 27.2083 18.9944 27.4749 16.9932 28.641ZM39.4634 47.8491C39.6262 43.9006 39.1793 39.9659 38.142 36.156C37.7917 34.8697 37.4189 33.8613 36.7391 33.1268C35.9947 32.3196 34.9247 31.8887 33.6766 31.5739C33.794 33.4237 32.7947 35.5415 31.9749 36.5387C31.3238 37.3313 30.498 37.9623 29.5814 38.4084C29.3119 39.2043 30.1511 40.6034 30.7328 41.559C32.6706 44.7479 35.7352 47.2043 39.1926 48.3843C39.3033 48.4212 39.3827 48.4457 39.4267 48.4523C39.4018 48.4362 39.4105 48.3711 39.4259 48.2553C39.439 48.1569 39.457 48.0218 39.4634 47.8491ZM27.9304 49.8237C28.9177 52.6859 31.0096 55.1053 33.7026 56.5215C34.8726 54.151 35.7218 51.6847 36.2622 49.1498C33.876 47.9236 31.7554 46.1583 30.1438 44.0332L30.1398 44.0339C29.5714 44.0787 29.0031 44.5968 28.3534 45.662C28.0652 46.1371 27.7717 46.644 27.6423 47.1621C27.4635 47.8755 27.5575 48.7459 27.9304 49.8237ZM26.9092 57.4897C28.0318 57.8652 29.5954 57.6369 30.2619 56.5988L30.3566 56.5011C29.1745 55.5085 28.1546 54.3338 27.3594 53.0159C26.4982 53.5709 25.4163 53.6719 24.9586 53.7095C24.3783 53.7563 23.7866 53.788 23.1929 53.7973C23.321 54.1081 23.5004 54.4123 23.6845 54.6882C24.6685 56.1612 25.7525 57.1036 26.9092 57.4897ZM23.1569 38.9251C23.1269 39.4313 23.0788 39.9692 22.8634 40.4945C22.6419 41.0271 22.2617 41.5155 21.6967 41.9933C21.4885 42.1695 21.2677 42.3285 21.0416 42.4797C20.8815 43.0868 20.8755 43.5574 21.0303 43.8722C21.1683 44.1527 21.4732 44.3942 21.752 44.5948C22.852 45.3835 24.1421 45.9167 25.4843 46.1378L25.5084 46.1419C25.5869 46.1556 25.7135 46.1775 25.7838 46.1668C25.8465 46.1609 25.9199 46.1206 25.9659 46.0665L26.0533 45.9959C26.2521 45.5188 26.5002 45.0825 26.7344 44.6965C27.226 43.89 27.9658 42.8743 29.0458 42.413C28.4521 41.4323 27.7563 40.218 27.6449 39.0321C27.2347 39.1046 26.8204 39.1522 26.4022 39.1522C26.1914 39.1522 25.9813 39.1429 25.7705 39.1238C24.8586 39.0413 23.9941 38.778 23.1862 38.4678L23.1822 38.5199L23.1569 38.9251ZM19.0297 43.4181C18.6161 43.5402 18.1925 43.626 17.763 43.6755C17.6549 43.9322 17.5442 44.3058 17.5355 44.4595C17.5048 46.1404 17.6836 47.8345 18.0678 49.4871C18.1672 49.916 18.2946 50.3998 18.5454 50.7133C18.7322 50.9476 19.0437 51.1554 19.494 51.3488C21.1003 52.0352 22.9941 51.9943 24.8032 51.8444C25.6904 51.7725 26.2534 51.5811 26.4922 51.2987L26.4416 51.1799C26.3358 50.9325 26.23 50.6849 26.142 50.4295C25.8392 49.5524 25.6984 48.7638 25.6831 48.0319C25.503 48.0266 25.3295 48.0081 25.1708 47.9824C23.5445 47.7151 21.9775 47.0664 20.6427 46.1094C20.2011 45.7933 19.6528 45.3459 19.3299 44.6899C19.1418 44.3064 19.0437 43.884 19.0297 43.4181ZM9.75544 44.4595C9.77878 44.5928 10.0083 44.8377 10.0836 44.9169C10.7941 45.6719 11.6139 46.312 12.5224 46.8209C13.1108 47.1495 14.5937 47.8537 15.6563 47.263L15.7717 47.2254C15.671 46.2929 15.6277 45.3551 15.6457 44.4193C15.649 44.2464 15.697 43.9566 15.7844 43.6352L15.6103 43.6121C14.4317 43.3949 13.3819 42.9109 12.3649 42.4421L12.3577 42.4387L11.2203 41.9121C10.758 42.5272 10.3291 43.1687 9.9689 43.8524L9.9592 43.8715C9.89413 43.9996 9.73266 44.3174 9.75544 44.4595ZM22.3611 60.1579C22.8133 60.1836 23.4631 60.1889 23.8286 59.915C24.0854 59.721 24.2662 59.3561 24.475 58.9344C24.5491 58.7839 24.6344 58.6235 24.7218 58.4638C23.7773 57.8223 22.9014 56.9076 22.1082 55.7184C21.7274 55.1495 21.3518 54.4717 21.2064 53.6963C20.7014 53.6336 20.1998 53.5452 19.7068 53.4033C19.6381 53.6019 19.5674 53.7992 19.4853 53.9926C19.3412 54.3351 18.9003 55.3726 17.859 55.6669C17.6542 55.7243 17.4561 55.7461 17.2647 55.7461C17.0559 55.7461 16.8544 55.721 16.661 55.69C15.9925 55.5824 15.3335 55.3996 14.6851 55.1693C14.6891 55.3297 14.6831 55.4947 14.6484 55.6636C14.6024 55.9065 14.5543 56.1599 14.5844 56.3163C14.6284 56.5367 14.8852 56.804 15.1027 57.0112C17.0372 58.8532 19.6828 60.0002 22.3611 60.1579ZM15.3041 63.4478C16.7217 63.5329 18.1432 63.4669 19.5407 63.2577C20.1424 63.1693 20.8695 63.0142 21.191 62.6083C21.3158 62.446 21.4025 62.2084 21.4879 61.9444C20.4079 61.8164 19.3439 61.5524 18.322 61.1676C17.7656 62.0262 16.8317 62.6393 15.8064 62.7746C15.6417 62.7971 15.4796 62.807 15.3208 62.807C14.0767 62.807 12.9954 62.1972 12.257 61.7114C12.5411 62.3688 13.0701 62.9304 13.7332 63.1812C14.2128 63.3633 14.7705 63.4168 15.3041 63.4478ZM54.1371 33.6615C55.1889 32.414 56.5564 31.0295 58.4122 30.5516C58.6344 30.4935 58.8578 30.4553 59.082 30.4256C56.0755 30.153 53.099 29.5518 50.2633 28.6212C51.4647 30.027 52.5021 31.5664 53.36 33.2013C53.4201 33.225 53.4802 33.251 53.54 33.2793C53.7563 33.3815 53.9552 33.5105 54.1371 33.6615ZM51.194 33.1822C49.7906 30.7722 47.9499 28.6173 45.7639 26.8592L45.6925 26.7727C44.7413 26.3107 43.8074 25.823 42.9155 25.2819C40.8723 24.0405 38.9251 22.584 37.0486 20.8879C36.2221 23.9844 34.7799 26.908 32.8327 29.4693C34.5398 29.8006 36.6957 30.3055 38.1346 31.8649C39.1259 32.9393 39.6008 34.3279 39.9657 35.6696C41.055 39.6623 41.522 43.7857 41.3539 47.9243C41.2819 49.6857 40.3846 50.1563 39.857 50.2803C39.7189 50.3127 39.5842 50.3265 39.4548 50.3265C39.0889 50.3265 38.7725 50.2186 38.5788 50.1525L38.5762 50.1517C38.4612 50.1125 38.3489 50.0664 38.2366 50.0203L38.2366 50.0203L38.2365 50.0202C38.1632 49.9901 38.0899 49.96 38.0159 49.9319C37.4048 52.6351 36.4696 55.2624 35.2015 57.7438C35.1075 57.9246 34.8953 58.3325 34.4057 58.5074C34.2563 58.5608 34.1122 58.5819 33.9794 58.5819C33.6454 58.5819 33.3748 58.4524 33.2499 58.3926L33.2483 58.3919C32.7654 58.1589 32.3031 57.8916 31.8528 57.6059C31.0677 58.8248 29.5581 59.5316 27.9731 59.5316C27.4542 59.5316 26.9272 59.4471 26.4149 59.2887C26.338 59.4247 26.2641 59.5729 26.1881 59.7251L26.1727 59.756C25.8979 60.3123 25.5857 60.9426 24.9713 61.4046C24.501 61.7563 23.9747 61.9147 23.4604 61.9853C23.4333 62.0657 23.408 62.1465 23.3826 62.2274L23.365 62.2836L23.3608 62.2972C23.2164 62.7598 23.0532 63.2828 22.6839 63.754C21.9515 64.6852 20.7701 64.9663 19.8229 65.1082C18.7282 65.2712 17.6189 65.3537 16.5115 65.3537C16.0719 65.3537 15.631 65.3412 15.1914 65.3148C14.5083 65.2752 13.7759 65.2 13.0554 64.9274C11.1329 64.1982 9.87618 62.0553 10.1857 60.0411C9.54331 59.4148 8.95962 58.7278 8.45398 57.9972C8.03306 57.3914 7.56411 56.5724 7.68618 55.62C7.76657 54.9812 8.10365 54.4635 8.35087 54.0837L8.35392 54.0791L9.73743 51.9494C9.31584 51.5164 8.90959 51.0644 8.5407 50.572C8.25453 50.1926 7.97769 49.7669 7.88697 49.229C7.74723 48.3772 8.13055 47.6868 8.43836 47.1325L8.44064 47.1284C8.59407 46.8532 8.73816 46.5932 8.79152 46.3721L8.8202 46.3101L8.7008 46.1926C8.35993 45.8289 7.99571 45.3762 7.89098 44.7671C7.76356 44.0009 8.11978 43.3185 8.29122 42.9918C8.63809 42.3318 9.04501 41.7082 9.47794 41.1037C9.23779 40.9875 8.85022 40.7737 8.64943 40.315C8.39661 39.7303 8.63076 39.1898 8.73215 38.9588C9.18643 37.924 9.73276 36.9222 10.3591 35.9778C11.255 34.6209 12.2036 33.6574 13.2269 33.0496C13.1988 33.0307 13.1704 33.0125 13.142 32.9942C13.1069 32.9717 13.0717 32.9492 13.0374 32.9255C12.7472 32.7282 12.0642 32.2635 12.0201 31.4287C11.9795 30.747 12.4142 30.2523 12.6232 30.0144L12.6238 30.0138C13.517 29.0007 14.621 27.8557 16.0332 27.0301C18.4587 25.6138 21.628 25.2753 24.9586 26.0778C26.2321 26.386 27.5295 26.846 29.0438 27.5284C29.2686 27.6293 29.5474 27.7389 29.8503 27.8577C30.3085 28.0385 30.7895 28.2299 31.2451 28.4437C33.3017 25.7716 34.7526 22.6612 35.465 19.3759C32.0543 15.9712 28.8603 11.7138 25.7184 6.40844C25.4549 5.96231 25.6064 5.38947 26.0566 5.12813C26.5089 4.86811 27.0866 5.01594 27.3508 5.46207C32.5025 14.1669 37.7637 19.9587 43.9054 23.6874C51.2339 28.1388 60.8824 29.7762 69.4816 28.0966C70.4475 26.3563 71.0352 24.3883 71.1813 22.4038C71.22 21.8884 71.6996 21.4977 72.1926 21.5399C72.7129 21.5775 73.1045 22.0256 73.0678 22.5404C72.9404 24.251 72.5228 25.9511 71.8504 27.535C72.3093 27.4089 72.7649 27.2723 73.2165 27.1251L73.2652 26.9813C74.7675 24.4015 75.7847 21.4825 76.2057 18.5384C76.2797 18.0276 76.752 17.6792 77.2743 17.7438C77.7913 17.8158 78.1515 18.2903 78.0775 18.8011C77.7172 21.3215 76.9461 23.822 75.8361 26.1398C76.3878 25.9022 76.9321 25.6508 77.4691 25.3822C77.5071 25.2819 77.5558 25.1842 77.6305 25.0991C79.8125 22.611 81.5015 19.6386 82.5155 16.5018C82.6756 16.0101 83.2039 15.7349 83.7042 15.8966C84.2005 16.0537 84.4753 16.5797 84.3166 17.0714C83.6068 19.2683 82.5842 21.3875 81.3128 23.3403C81.4128 23.3442 81.5062 23.3634 81.6003 23.3984C85.0217 22.4658 88.6625 22.2137 92.182 22.6876C92.6996 22.7582 93.0612 23.2294 92.9912 23.7402C92.9191 24.2523 92.4448 24.6015 91.9278 24.5414C88.5531 24.088 85.0423 24.3447 81.7657 25.2852C81.655 25.3921 81.5149 25.4647 81.3661 25.5155C84.0878 25.7438 86.7834 26.4876 89.1942 27.7191C89.6571 27.9567 89.8399 28.5196 89.5998 28.9789C89.4317 29.3003 89.1015 29.4851 88.7599 29.4851C88.6125 29.4851 88.4644 29.4508 88.3263 29.3809C85.1711 27.7679 81.4869 27.0552 77.9467 27.3759C77.8748 27.3833 77.8049 27.3696 77.7353 27.356L77.7019 27.3495C77.0308 27.6683 76.3524 27.9692 75.6613 28.2411C76.83 28.5777 77.9894 28.9466 79.1281 29.3525C80.4109 29.8098 81.8471 30.4091 82.6662 31.7211C82.9417 32.1606 82.805 32.7374 82.3601 33.0086C82.2046 33.1037 82.0332 33.1485 81.8638 33.1485C81.5482 33.1485 81.238 32.9915 81.0606 32.7057C80.5583 31.9039 79.469 31.463 78.4857 31.1113C76.5038 30.4044 74.4606 29.8032 72.406 29.3228C72.3383 29.3415 72.2707 29.3605 72.203 29.3795L72.2024 29.3796L72.2018 29.3798C72.0031 29.4355 71.8043 29.4913 71.6035 29.5419C68.7311 30.2593 65.7186 30.609 62.6855 30.609C62.5597 30.609 62.4337 30.6032 62.3076 30.5975H62.3076H62.3076L62.3074 30.5975C62.2082 30.5929 62.109 30.5883 62.0097 30.5866C62.2312 30.6295 62.452 30.6744 62.6695 30.7232C66.7506 31.6353 70.655 33.1512 74.2712 35.2267C75.8141 36.1137 75.8161 37.1169 75.6813 37.6356C75.5438 38.1621 75.1714 38.5085 74.9694 38.6965L74.9669 38.6988C74.878 38.7812 74.7841 38.8582 74.6902 38.9351L74.6901 38.9352L74.69 38.9353C74.6298 38.9847 74.5695 39.0341 74.5106 39.0849C76.6453 40.8865 78.5578 42.9317 80.1801 45.1934L80.1822 45.1964C80.2961 45.3571 80.5599 45.7292 80.4936 46.2375C80.4142 46.7925 80.0046 47.0901 79.8492 47.2023C79.4156 47.5171 78.9587 47.7956 78.493 48.057C79.455 49.7247 79.0047 52.086 77.4624 53.6026C77.5538 53.7418 77.6579 53.8844 77.7653 54.0309C78.1348 54.5311 78.5537 55.0987 78.6792 55.8537C78.7766 56.4278 78.6765 56.9657 78.4991 57.4508C78.5704 57.524 78.6445 57.5966 78.7178 57.6686C79.0667 58.0124 79.4616 58.4018 79.7131 58.9508C80.2001 60.0134 79.9253 61.1313 79.591 62.0837C79.0801 63.5303 78.4157 64.9254 77.6139 66.2328C77.2576 66.8149 76.8481 67.422 76.2704 67.9216C75.4452 68.637 74.3505 69 73.2559 69C72.2953 69 71.338 68.7195 70.5642 68.1539C69.7031 68.4245 68.8165 68.6152 67.9287 68.7169C67.6998 68.7433 67.4524 68.7631 67.1935 68.7631C66.6159 68.7631 65.9901 68.6588 65.4418 68.2773C64.9088 67.9065 64.602 67.3699 64.3785 66.9772L63.1177 64.7717C62.5347 64.9386 61.941 65.0832 61.3293 65.1769C61.0985 65.2112 60.8584 65.2396 60.6149 65.2396C60.3547 65.2396 60.0886 65.2072 59.8211 65.1181C58.9974 64.8448 58.5586 64.1874 58.206 63.6592L58.2041 63.6563C58.03 63.3937 57.8659 63.1475 57.6925 62.9977L57.6498 62.9429L57.4897 62.9924C57.1962 63.071 56.8673 63.1422 56.5244 63.1422C56.2989 63.1422 56.0681 63.1119 55.8333 63.0347C55.1783 62.8169 54.7593 62.3166 54.4365 61.8547C54.0082 61.2455 53.6407 60.5988 53.3025 59.9388C53.0977 60.0853 52.7621 60.2985 52.3152 60.2985L52.2105 60.2952C51.5686 60.2432 51.1981 59.7873 51.0383 59.5907L51.0364 59.5884C50.3253 58.7086 49.6849 57.7636 49.1313 56.7783C48.3368 55.3587 47.9179 54.0784 47.8512 52.9004C47.8341 52.9092 47.8171 52.9183 47.8002 52.9276C47.7838 52.9365 47.7674 52.9456 47.751 52.9547L47.7508 52.9548C47.7328 52.9648 47.7148 52.9748 47.6967 52.9846C47.6813 52.993 47.6659 53.0012 47.6504 53.0093L47.648 53.0105C47.4259 53.1243 46.9989 53.3432 46.5003 53.3432C46.2882 53.3432 46.0648 53.3036 45.8379 53.2006C45.2102 52.9155 44.9701 52.3058 44.856 52.0127C44.3664 50.7582 43.8574 49.2587 43.7794 47.6359C43.6433 44.8542 44.8193 41.922 47.0914 39.3825C47.3583 39.0842 47.639 38.7908 47.9377 38.4984C47.8382 38.2936 47.7659 38.0804 47.7204 37.8582C47.5414 36.9962 47.8117 36.0398 48.4778 35.1649C49.057 34.407 50.0624 33.5492 51.194 33.1822ZM49.7518 36.9064C49.8184 36.7472 49.9181 36.5776 50.0473 36.4082C50.4888 35.8318 51.3234 35.1755 52.0496 35.051C51.6763 35.3333 51.3102 35.6409 50.9624 35.9342L50.9238 35.9669L50.9237 35.9669C50.6913 36.1634 50.478 36.3438 50.294 36.4833C50.1074 36.6259 49.9268 36.7668 49.7518 36.9064ZM50.7747 38.4934C50.9896 38.3194 51.2142 38.1431 51.4493 37.9636C51.541 37.8938 51.6395 37.8152 51.7435 37.7301C51.7832 37.8733 51.838 38.0109 51.908 38.1412C52.0952 38.4887 52.3663 38.7461 52.6471 38.9418C52.5738 38.9564 52.4986 38.9659 52.4226 38.9699C51.9317 39.0024 51.3878 38.8361 50.7747 38.4934ZM55.1238 39.578C54.573 40.3946 53.6003 40.9405 52.5222 40.9943C52.4542 40.9979 52.3861 41 52.318 41C51.428 41 50.5119 40.7038 49.5208 40.0972C49.4102 40.0291 49.3046 39.9599 49.2041 39.8895C48.9591 40.132 48.7284 40.3748 48.5089 40.6206L48.5069 40.6219C46.5637 42.7938 45.5558 45.2528 45.6665 47.5455C45.7326 48.9037 46.1848 50.2249 46.6191 51.3376L46.6484 51.4142L46.7799 51.3495C49.6743 49.8586 52.456 48.1104 55.0475 46.151C55.9687 45.4554 56.9193 44.6958 57.5484 43.7389C58.4789 42.3246 58.649 40.4081 57.9786 38.8552C57.7773 38.3872 57.4142 37.8492 56.9776 37.3588C56.8834 38.0418 56.4906 38.6857 55.8281 39.1971C55.5944 39.3763 55.3617 39.5021 55.1238 39.578ZM73.6661 37.065C73.5848 37.0082 73.4735 36.9305 73.3226 36.8436C69.8718 34.8638 66.1469 33.4178 62.2519 32.5473C60.9398 32.2523 59.8671 32.1091 58.8885 32.3612C57.8232 32.6358 56.9373 33.3716 56.0708 34.3186C57.7798 35.0789 59.208 36.9387 59.7177 38.122C60.1213 39.0598 60.2927 40.0735 60.2647 41.0812C60.8424 41.6989 62.4967 41.6164 63.6254 41.5518C67.3783 41.3445 71.0038 39.8095 73.6748 37.3333C73.7602 37.2541 73.8169 37.1954 73.8462 37.1598C73.8173 37.1705 73.7627 37.1324 73.6661 37.065ZM69.7097 47.8596C72.7262 48.3302 75.8661 47.63 78.3876 45.9352C76.816 43.8082 75.0096 41.9147 72.9924 40.2543C70.7817 41.7702 68.2142 42.8037 65.5619 43.2215V43.2228C65.3371 43.7415 65.5359 44.4807 66.1843 45.5485C66.4718 46.021 66.7893 46.514 67.1955 46.8697C67.7479 47.3581 68.569 47.6821 69.7097 47.8596ZM76.0836 52.3295C76.9461 51.5217 77.4664 50.0467 76.8521 48.9802L76.812 48.8628C75.3765 49.433 73.8509 49.7623 72.306 49.8441C72.402 50.8591 71.9738 51.8557 71.7937 52.2741C71.5655 52.8047 71.32 53.3373 71.0519 53.8613C71.3887 53.8936 71.7436 53.8784 72.0745 53.8448C73.8502 53.6712 75.1997 53.1617 76.0836 52.3295ZM75.9969 65.2633C76.73 64.0668 77.339 62.7905 77.806 61.4679C78.0168 60.8667 78.2049 60.1876 77.9927 59.723C77.906 59.5342 77.7393 59.3501 77.5405 59.1502C76.9214 60.0358 76.189 60.8449 75.3672 61.5597C75.8761 62.446 75.9875 63.5494 75.628 64.5116C75.1263 65.8639 73.9023 66.6486 73.0237 67.1204C73.7435 67.1772 74.492 66.9766 75.0263 66.5153C75.4098 66.182 75.7207 65.7167 75.9969 65.2633ZM66.5291 66.7482C66.8006 66.937 67.3323 66.9007 67.7105 66.8591C69.2428 66.6842 70.7657 66.2064 72.1185 65.4778C73.0751 64.9644 73.6414 64.4371 73.8536 63.8662C73.989 63.5052 73.9696 63.0914 73.8336 62.7265C72.8696 63.3514 71.829 63.8583 70.7417 64.2133C70.3501 64.3407 69.9112 64.4582 69.4476 64.4582C69.2168 64.4582 68.9826 64.4285 68.7445 64.3585C68.2362 64.2088 67.8595 63.91 67.5548 63.6683L67.5464 63.6616C67.4592 63.5916 67.238 63.5196 67.0418 63.4558L67.0417 63.4557L67.0314 63.4524C66.8767 63.4029 66.7046 63.3455 66.5298 63.2729C66.0175 63.589 65.4858 63.8814 64.9235 64.1302L66.0255 66.0586L66.028 66.063C66.1768 66.3246 66.3454 66.6209 66.5291 66.7482ZM61.0187 63.3317L61.0411 63.3283C63.9876 62.8783 66.5918 61.4211 68.1848 59.331L68.1883 59.3264C68.2363 59.2634 68.3666 59.0921 68.3823 59.0175C68.3843 59.0083 68.4136 58.8373 68.0374 58.3839C67.9382 58.2646 67.827 58.1572 67.7158 58.0498L67.7158 58.0498C67.6677 58.0033 67.6196 57.9569 67.5724 57.9094C67.2042 58.1134 66.8387 58.2572 66.4704 58.3252C66.2576 58.3648 66.0488 58.3813 65.8461 58.3813C65.2964 58.3813 64.7794 58.2612 64.3218 58.1417C64.1332 58.0922 63.9471 58.0353 63.7611 57.9785L63.7611 57.9785L63.761 57.9785C63.6918 57.9573 63.6226 57.9361 63.5533 57.9154C63.3759 59.2498 62.4367 60.5103 60.853 61.5148C60.4228 61.7887 59.9732 62.0276 59.5136 62.244C59.6069 62.3734 59.7003 62.5041 59.7824 62.6268L59.7865 62.6329L59.7865 62.633C60.0084 62.9653 60.2173 63.2779 60.4228 63.3455C60.5744 63.3978 60.8537 63.3562 61.0185 63.3317L61.0186 63.3317L61.0187 63.3317ZM55.9889 60.7883C56.0631 60.8941 56.2864 61.2125 56.4337 61.2607C56.5673 61.3052 56.8804 61.218 56.9899 61.1876L56.9927 61.1868C58.0026 60.9175 58.9572 60.4984 59.8318 59.9414C60.4048 59.5778 61.7276 58.607 61.6929 57.4039L61.7129 57.2871C60.833 56.9406 59.9752 56.5407 59.1453 56.088C58.9919 56.0048 58.7544 55.8266 58.507 55.5996L58.4049 55.7428C57.6598 56.676 56.7345 57.3696 55.8393 58.0394L54.8381 58.7905C55.1716 59.4821 55.5452 60.1566 55.9888 60.7882L55.9889 60.7883ZM49.8064 51.8398C49.5635 52.9413 49.8824 54.2605 50.7849 55.8715C51.2559 56.711 51.7969 57.5174 52.3926 58.2724L54.6986 56.5493C55.4998 55.9494 56.327 55.3297 56.9207 54.5839C57.9126 53.3439 58.3075 51.6168 57.9546 50.0758C57.8566 49.6527 57.7258 49.3472 57.5544 49.1426C57.3769 48.9327 57.1001 48.7578 56.7566 48.5513L56.3983 48.3348C56.1942 48.2101 56.0855 48.1441 55.7486 47.9599C53.8515 49.3656 51.8656 50.6684 49.8064 51.8398ZM65.4091 47.7158C65.0749 47.3191 64.8001 46.8987 64.5653 46.514C64.0737 45.7055 63.512 44.5829 63.6027 43.4247C63.2258 43.4445 62.8269 43.4643 62.4127 43.4643C61.5621 43.4643 60.6809 43.3765 59.9318 43.0703C59.741 43.6623 59.4789 44.2332 59.1327 44.7592C58.6337 45.5181 57.9953 46.151 57.3416 46.7133L57.3896 46.7423L57.7372 46.9522C58.108 47.1759 58.6117 47.4802 59.0053 47.9448C59.3741 48.3823 59.633 48.9439 59.7971 49.6626C59.8578 49.9279 59.9031 50.1959 59.9325 50.4651C60.3988 50.8855 60.8157 51.1092 61.1686 51.1205C61.4621 51.1152 61.8383 50.9779 62.1485 50.8268C63.3672 50.2335 64.4472 49.3531 65.2704 48.28L65.2797 48.2678C65.3262 48.2075 65.4069 48.1025 65.4325 48.0372C65.4605 47.9731 65.4585 47.892 65.4325 47.8286L65.4091 47.7158ZM76.239 55.1317C76.1403 54.9977 76.0369 54.8486 75.9355 54.6988C74.9209 55.2261 73.6941 55.5659 72.2606 55.7058C71.9858 55.7329 71.6943 55.754 71.3954 55.754C70.9498 55.754 70.4875 55.7078 70.0306 55.5666C69.7417 55.9744 69.4222 56.3612 69.0693 56.7228C69.2161 56.8759 69.3602 57.0317 69.4956 57.1947C69.7337 57.4798 70.4555 58.3483 70.232 59.4003C70.1433 59.8266 69.9205 60.1599 69.6951 60.4575C69.2875 60.9921 68.8159 61.4838 68.3082 61.9438C68.453 62.0157 68.5977 62.0969 68.7331 62.2051L68.7528 62.2207L68.7529 62.2207C68.9345 62.3645 69.1335 62.5222 69.2835 62.5667C69.5029 62.6308 69.8592 62.5311 70.1493 62.4381C72.6962 61.6052 74.9576 59.8246 76.3477 57.5537C76.5839 57.1683 76.8907 56.606 76.8147 56.1599C76.7613 55.8418 76.5199 55.5131 76.239 55.1317ZM70.0553 51.5409C70.4015 50.7377 70.4949 50.1596 70.3595 49.8171C70.0439 49.7893 69.7284 49.7557 69.4142 49.7062C68.4877 49.5617 67.7172 49.3168 67.0561 48.9888C66.9687 49.1426 66.8733 49.2858 66.7746 49.4138C65.774 50.7146 64.4639 51.7824 62.985 52.5037C62.518 52.7327 61.8957 52.9908 61.1979 52.9908L61.1059 52.9888C60.6803 52.9756 60.2527 52.8621 59.8264 52.6549C59.743 53.0753 59.621 53.4858 59.4649 53.885C59.643 54.0995 59.9265 54.3721 60.0612 54.4519C61.5541 55.2663 63.1511 55.9005 64.8048 56.3341C65.237 56.4463 65.732 56.5598 66.1236 56.4872C66.4224 56.4318 66.7546 56.2569 67.1328 55.954C68.499 54.8684 69.3442 53.1908 70.0553 51.5409ZM62.0355 36.1334C62.2611 36.0159 62.5917 35.9347 62.8909 36.2008C63.2925 36.5617 63.3232 37.1016 63.1828 37.4499C63.084 37.6933 62.7971 38.0178 62.3494 37.9761C61.9135 37.9725 61.4757 37.6003 61.4125 37.1797C61.3463 36.7377 61.6756 36.3183 62.0355 36.1334ZM62.3323 39.6667H62.3629C63.4642 39.6667 64.3956 39.0582 64.7979 38.0727C65.2375 36.9936 64.9438 35.7421 64.0682 34.957C63.2876 34.2603 62.1968 34.1374 61.2243 34.6385C60.1586 35.1867 59.5294 36.3326 59.6919 37.4255V37.4261C59.882 38.6705 61.0409 39.6541 62.3323 39.6667Z" fill="#424242"/>
</svg>
