<svg width="108" height="116" viewBox="0 0 108 116" fill="none" xmlns="http://www.w3.org/2000/svg">
<path fill-rule="evenodd" clip-rule="evenodd" d="M43.6004 21.5254C44.8812 21.1822 46.1672 20.8661 47.4534 20.5737C56.7077 18.4688 66.5756 17.4819 75.5845 20.5951C84.5936 23.7089 92.4792 31.7705 93.008 41.375C93.2414 45.6268 92.0709 49.8055 90.9114 53.8895C88.5548 62.1886 86.1913 70.5082 82.9472 78.4894C79.5988 86.726 75.1382 94.7912 68.2197 100.281C64.3377 103.36 60.0508 105.461 55.6243 106.647C40.1647 110.79 23.0273 103.76 15.7286 88.2204C11.5847 79.3982 10.2099 69.5384 9.44518 59.8212C9.10797 55.5277 8.88846 51.131 10.0344 46.9937C11.2375 42.6476 13.8933 38.8401 17.0369 35.6507C24.1837 28.4006 33.7476 24.1654 43.6004 21.5254Z" fill="#D3E4D7"/>
<path fill-rule="evenodd" clip-rule="evenodd" d="M36.9139 2.72068C36.9839 3.24535 37.3272 3.69735 37.6019 3.98535C37.8979 4.29401 38.2599 4.56935 38.6345 4.82935C38.5992 4.55468 38.5919 4.30268 38.5865 4.06468C38.5712 3.51201 38.5532 3.16335 38.3732 2.95801C37.9765 2.50135 37.2039 2.15735 37.0085 2.22068C36.9565 2.26001 36.8792 2.46135 36.9139 2.72068ZM40.5979 5.01401C40.6992 5.26068 40.8479 5.62335 40.7505 6.06601C40.6112 6.73668 39.9452 7.21201 39.2152 7.17335L39.1292 7.16601C38.6341 7.11477 38.2599 6.86026 38.0119 6.69159L38.0105 6.69068L38.0048 6.68679C37.4355 6.30239 36.7874 5.86475 36.2392 5.29335C35.5619 4.58868 35.1485 3.78335 35.0419 2.96668C34.9085 1.96401 35.3059 1.03135 36.0532 0.590679C37.2985 -0.139987 39.0225 0.827346 39.7959 1.71535C40.4302 2.43927 40.455 3.30585 40.4749 4.0035L40.4752 4.01335C40.4845 4.39535 40.4952 4.75668 40.5979 5.01401ZM45.1212 6.59001V6.58801C45.1405 6.16401 45.3245 5.78868 45.6219 5.61601C45.6599 5.63401 45.7652 5.73935 45.8559 5.94735C46.0832 6.46535 46.1085 7.06801 45.9252 7.60068C45.8525 7.81468 45.7945 7.86401 45.7945 7.86401C45.7092 7.93258 45.6404 7.97524 45.5969 8.00222C45.5558 8.02769 45.5372 8.03919 45.5485 8.04535C45.3659 7.94068 45.0919 7.21668 45.1212 6.59001ZM47.7139 8.21201C48.0465 7.23668 47.9999 6.13601 47.5865 5.19001C47.2192 4.35268 46.5872 3.82535 45.8545 3.74535C45.4865 3.71335 45.0725 3.78601 44.6985 3.98335C43.8445 4.43335 43.2839 5.39868 43.2345 6.50068C43.1879 7.47668 43.5372 9.14135 44.6885 9.72801C44.8592 9.81601 45.1039 9.90535 45.4079 9.92135C45.8339 9.94335 46.3725 9.82068 46.9745 9.33935C47.3025 9.07735 47.5439 8.70801 47.7139 8.21201ZM35.0879 69.7927L35.0787 69.7995C34.7911 70.0159 34.5039 70.232 34.1959 70.4174C32.7645 71.28 30.8312 71.4293 28.8899 70.8313C28.0685 70.578 27.5505 70.242 27.3505 69.8333C27.1385 69.4047 27.2565 68.758 27.6359 68.26C27.9972 67.784 28.5805 67.3793 29.4672 66.988C31.7585 65.978 35.1332 65.362 37.4959 66.2687C38.1605 66.5227 38.3739 67.158 38.4365 67.6473C38.4865 68.0287 38.5012 68.144 37.3279 68.562L37.3181 68.5655L37.318 68.5655C36.8818 68.7213 36.3886 68.8975 35.9485 69.1807C35.6539 69.3707 35.3712 69.5813 35.0879 69.7927ZM25.6812 58.034C24.8932 57.8693 24.1172 57.6267 23.3752 57.3127C22.5219 56.952 22.2845 56.6273 22.2345 56.4187C22.1852 56.2047 22.2825 55.8987 22.4959 55.5987C22.9212 55.0033 23.6479 54.5733 24.4925 54.4207C24.8252 54.36 25.1752 54.34 25.5419 54.3593C26.0372 54.386 26.5605 54.484 27.1112 54.654C27.5345 54.7847 29.1979 55.5113 29.9625 56.24L30.0459 56.3113L30.0639 56.3813C30.0019 56.4087 29.9112 56.4453 29.7752 56.4947C29.6685 56.52 29.5639 56.5467 29.4625 56.5813C28.8679 56.7813 28.4592 57.1667 28.0999 57.5073C27.9092 57.6873 27.7279 57.858 27.5585 57.9587C27.1599 58.1953 26.5599 58.2173 25.6812 58.034ZM32.7565 53.0253L32.7591 53.0211C32.9488 52.7114 33.1272 52.4202 33.2665 52.1573C33.5785 51.5713 33.8452 51.1 34.2125 50.796C34.3845 50.6527 34.5519 50.6053 34.5885 50.6073C34.6079 50.6213 34.7085 50.7127 34.8352 51.2127C35.0245 51.9607 35.2279 53.0407 34.8119 53.778C34.6445 54.0713 34.3599 54.3553 33.9125 54.6747C33.3019 55.1087 32.8079 55.2953 32.3785 55.2433C32.2059 55.2193 32.0165 55.0953 31.8659 54.776L31.8959 54.6167C32.0952 54.1013 32.4632 53.502 32.7565 53.0253ZM38.1712 59.774C38.4205 59.086 38.8632 58.7553 39.4839 58.788L39.5112 58.7893C39.8612 58.8107 40.2132 58.9967 40.4279 59.2713C41.1079 60.1467 40.8032 61.1507 40.1352 61.8227C39.1533 62.8139 39.0316 62.7249 38.7425 62.5136L38.7412 62.5127C38.0705 62.022 37.8085 60.7673 38.1712 59.774ZM45.3659 52.7387C45.0892 52.5913 44.9019 52.428 44.8365 52.274C44.7725 52.1247 44.7779 51.874 44.7932 51.6247C44.8479 50.738 45.1379 48.58 46.6572 47.7013C47.1259 47.4313 47.6899 47.31 48.2665 47.3407C48.6499 47.3607 49.0365 47.4487 49.4019 47.6053H49.4032C50.5545 48.0953 51.2552 49.1533 51.7899 50.124C51.8856 50.2974 51.923 50.4082 51.9405 50.46C51.9476 50.481 51.9515 50.4923 51.9545 50.494C51.8579 50.618 51.4199 50.8267 51.1259 50.9667L51.0828 50.9873L51.0828 50.9873C50.9141 51.0682 50.7398 51.1518 50.5665 51.2433C50.1005 51.4873 49.7152 51.7907 49.3412 52.0853L49.2806 52.133L49.2805 52.1331C49.0371 52.3247 48.7943 52.5157 48.5265 52.672C47.5785 53.2313 46.3399 53.256 45.3659 52.7387ZM40.2819 22.1987C40.1132 22.0687 39.9985 21.9293 39.9485 21.794C39.8312 21.4893 40.0432 21.0167 40.4112 20.7627C40.8199 20.48 41.4105 20.3547 42.2125 20.382L42.3399 20.3867C42.9219 20.4173 43.3765 20.524 43.7265 20.7087C44.6932 21.2193 44.9805 21.62 44.9985 21.674C44.7192 22.0593 43.3439 22.53 42.1645 22.6453C41.4232 22.7153 40.7392 22.5547 40.2819 22.1987ZM39.6145 15.136C39.0085 14.584 38.4332 13.7687 38.6405 13.1327C38.7885 12.6773 39.4025 12.344 40.0252 12.3767L40.0679 12.38C40.7172 12.4333 41.4025 12.7853 42.1645 13.4587C42.6425 13.8833 42.9645 14.2587 43.1752 14.6413C43.7059 15.6067 43.9765 16.9127 43.7512 17.1827C42.6965 17.3553 40.8412 16.2507 39.6145 15.136ZM47.5159 16.2967C47.6805 15.936 48.0292 15.5973 48.3405 15.308C48.5305 15.1313 48.7305 14.9547 48.9019 14.8927C49.2219 14.7833 49.7205 15.0873 49.8832 15.5073C50.0752 16.0027 49.9832 16.6847 49.6305 17.378C49.2839 18.0607 48.7532 18.6613 48.0979 19.1127C47.6468 19.424 47.2572 19.6341 47.0116 19.7666C46.969 19.7896 46.9307 19.8102 46.8972 19.8287C46.8712 18.8993 47.2912 16.8033 47.5152 16.2987L46.6572 15.9033L47.5159 16.2967ZM46.1892 41.688C45.5232 41.2187 44.9672 40.3113 45.1939 39.4893C45.3585 38.8927 45.9679 38.3753 46.6719 38.23C46.8812 38.188 47.0999 38.1727 47.3265 38.1847C47.8612 38.2127 48.4299 38.39 48.9599 38.7007C49.3221 38.9123 49.9378 39.5841 50.5358 40.2364L50.5358 40.2365L50.5445 40.246L50.684 40.3976L50.684 40.3977L50.6841 40.3978L50.6845 40.3982L50.6846 40.3983L50.6849 40.3987C50.9202 40.6547 51.1618 40.9176 51.4112 41.1753L51.3205 41.2167C51.0072 41.3467 50.6319 41.4147 50.2365 41.486C49.8599 41.5547 49.4845 41.6253 49.1219 41.74C48.9432 41.796 48.7685 41.8627 48.5945 41.93L48.5313 41.9542C48.3562 42.0213 48.1798 42.089 47.9965 42.13C47.4392 42.2533 46.7605 42.0933 46.1892 41.688ZM44.1285 30.3693C43.9512 30.19 43.6832 29.9173 43.6512 29.7427C43.6232 29.5847 43.7479 29.28 43.7885 29.1827C43.8945 28.928 44.0592 28.5713 44.2865 28.4287C44.4379 28.3327 44.6779 28.294 45.0045 28.3113C45.0685 28.3147 45.1352 28.32 45.2045 28.328H45.2065C46.6212 28.482 48.4459 29.356 48.8025 30.366C48.8265 30.4347 48.8759 30.5773 48.6999 30.8373C48.3092 31.4147 47.2612 31.906 46.6559 31.9293C45.7859 31.9887 44.9239 31.178 44.1285 30.3693ZM52.2885 23.6133C52.5745 23.522 53.0552 23.7147 53.4945 24.116C54.0032 24.5853 54.3505 25.148 54.4705 25.702C54.5939 26.2667 54.4759 26.8573 54.1652 27.2407C53.9599 27.492 53.6359 27.706 53.2292 27.8567C52.8765 27.9873 52.5652 28.042 52.2845 28.0093C51.7245 27.9447 51.0059 27.7667 50.7712 27.286C50.4979 26.7233 50.7712 25.65 51.4852 24.482C51.7179 24.106 51.9939 23.7073 52.2885 23.6133ZM56.5332 36.8173C57.0445 36.5453 57.7999 36.6893 58.2159 37.136C58.6439 37.5973 58.7559 38.374 58.4839 38.982C58.2172 39.5767 57.6245 40.0527 57.1392 40.4C56.5884 40.7921 56.0114 41.1429 55.4264 41.4985L55.4263 41.4986L55.4262 41.4986L55.4261 41.4987L55.426 41.4987L55.4259 41.4988L55.4119 41.5073C55.0625 41.7173 54.4952 41.4133 53.8845 40.9107C53.9329 40.7955 53.9786 40.6806 54.0241 40.5664C54.0462 40.5108 54.0683 40.4553 54.0905 40.4C54.3425 39.7613 54.7072 39.188 55.0965 38.5813L55.5019 37.9353C55.8492 37.4087 56.1585 37.0167 56.5332 36.8173ZM65.1052 37.586C64.7992 37.538 64.4572 37.2273 64.0612 36.64C63.7632 36.1987 63.4212 35.6227 63.4112 35.0807C63.4019 34.7267 63.6045 34.3573 63.8345 34.3067C64.5319 34.146 66.1212 35.362 66.3865 36.2353C66.4612 36.4747 66.3445 36.8173 66.0912 37.1073C65.8079 37.436 65.4012 37.636 65.1052 37.586ZM66.3905 61.1087C67.1559 61.6167 67.7132 62.776 67.2912 63.6293C66.8545 64.5113 65.5965 64.822 65.0759 64.9153C63.4812 65.2 61.7172 64.9847 59.9785 64.2927C59.2639 64.0093 58.3545 63.2947 58.2512 62.8007C58.2379 62.7393 58.2172 62.6353 58.4125 62.438C58.5592 62.2913 59.0532 62.13 59.3785 62.024C59.6212 61.9453 59.8525 61.8687 60.0439 61.7867L60.2612 61.6933C61.1892 61.296 62.0665 60.9207 62.9845 60.7113C63.7625 60.5347 65.2445 60.3493 66.3905 61.1087ZM57.2699 59.4C56.8159 59.3547 56.2599 59.1773 56.0612 58.816C55.9279 58.5753 55.9085 58.174 55.8925 57.8173L55.8919 57.8037C55.8381 56.7013 55.7825 55.5632 56.1025 54.556C56.1785 54.3133 56.2612 54.1453 56.3552 54.04C56.4792 53.9027 56.6985 53.8427 56.9305 53.8547C57.1665 53.8673 57.4185 53.954 57.6045 54.11C58.2372 54.6447 58.2852 55.4413 58.2912 56.69L58.2992 57.302C58.3325 58.5567 58.2545 59.2233 57.7345 59.3853C57.6312 59.4153 57.4739 59.4193 57.2699 59.4ZM62.6479 49.6587C61.6305 49.1213 60.6939 48.5707 60.3859 47.7587C60.1938 47.2559 60.2353 46.6175 60.2758 45.9965L60.2765 45.9847C60.3345 45.11 60.4119 44.348 60.8032 43.8653C60.9079 43.736 60.9859 43.6947 61.0125 43.6833L61.1445 43.6653C61.2332 43.67 61.3385 43.7007 61.4352 43.752C61.6332 43.858 61.8352 44.0473 62.0705 44.3507V44.352C63.2572 45.8753 63.6245 48.0333 62.9819 49.8087C62.9092 49.7847 62.8025 49.74 62.6479 49.6587ZM70.7279 39.3733C70.9965 39.388 71.2965 39.584 71.4612 39.8593C71.6579 40.1907 71.7165 40.6567 71.6205 41.1373C71.4965 41.7673 71.1339 42.304 70.6519 42.5753C70.1819 42.84 69.5419 42.884 69.0372 42.8927C68.6125 42.8927 68.1145 42.7007 67.8565 42.4053C67.6945 42.2207 67.6365 42.0247 67.6732 41.7867C67.7139 41.51 68.3392 40.7307 69.8859 39.712L69.8879 39.7107C70.0945 39.574 70.3999 39.3893 70.6632 39.374L70.7279 39.3733ZM69.5799 50.1667C70.1379 50.196 70.6912 50.2947 71.2179 50.4633V50.464C71.7665 50.6393 72.1465 50.8507 72.3785 51.1113C72.9312 51.7333 72.7865 52.8227 72.3585 53.5793C71.7712 54.6187 70.6692 55.3647 69.4859 55.5273C68.2965 55.688 67.0405 55.266 66.1932 54.424C65.8892 54.1227 65.6325 53.77 65.4265 53.3733C65.0612 52.666 64.9345 52.1367 65.0505 51.7973C65.1659 51.4633 65.5865 51.1273 66.3025 50.7973C67.3325 50.3207 68.4712 50.108 69.5799 50.1667ZM50.0665 70.6433L50.1305 70.4107C52.5859 68.494 54.8079 66.3727 56.7839 64.076C57.4179 65.0793 58.6059 65.78 59.2799 66.048C60.5552 66.5554 61.8499 66.8447 63.1079 66.9113C63.8925 66.9533 64.6639 66.908 65.4092 66.7753C67.1292 66.4687 68.3979 65.648 68.9832 64.468C69.7879 62.8473 69.0925 60.634 67.4345 59.5347C66.1512 58.6827 64.4219 58.448 62.5652 58.8693C61.6939 59.0673 60.8799 59.382 60.0925 59.7127C61.3819 57.7847 62.5179 55.7633 63.4932 53.6613L63.5332 53.7586L63.5332 53.7588C63.5975 53.9159 63.6619 54.0734 63.7492 54.2413C64.0439 54.8113 64.4179 55.3227 64.8599 55.764C65.8672 56.7653 67.2692 57.366 68.6892 57.4413C69.0412 57.46 69.3932 57.4467 69.7425 57.3993C71.4979 57.1573 73.1305 56.0507 74.0012 54.51C74.7632 53.1687 74.9932 51.2087 73.7899 49.856C73.3265 49.3347 72.6725 48.9453 71.7939 48.664C69.7739 48.018 67.4839 48.1687 65.5105 49.0813C65.4365 49.1153 65.3585 49.154 65.2805 49.1927C65.8639 47.4733 66.3445 45.7113 66.7232 43.9127C67.2905 44.4127 68.0492 44.736 68.8319 44.7773C68.9112 44.782 68.9905 44.7833 69.0699 44.7807C69.7965 44.7687 70.7392 44.694 71.5785 44.2213C72.5345 43.6847 73.2425 42.6693 73.4745 41.5067C73.6632 40.5593 73.5239 39.6313 73.0832 38.89C72.5345 37.98 71.5405 37.4253 70.5512 37.4873C69.8352 37.5307 69.2352 37.8767 68.8465 38.1353C68.3179 38.4827 67.8652 38.8213 67.4725 39.1533C67.4842 39.0426 67.4972 38.9322 67.5101 38.8218L67.5102 38.8214L67.5102 38.821L67.5103 38.8206L67.5103 38.8202L67.5103 38.8201L67.5103 38.82C67.5313 38.6414 67.5522 38.4628 67.5679 38.2827C68.2179 37.498 68.4539 36.532 68.1932 35.6827C67.7339 34.174 65.3139 32.054 63.4265 32.462C62.3099 32.7093 61.4919 33.854 61.5205 35.1227C61.5432 36.1547 62.0525 37.04 62.4945 37.696C62.9445 38.3627 63.6745 39.2707 64.8065 39.4507C64.8905 39.4647 64.9752 39.474 65.0599 39.4787C65.21 39.4862 65.3613 39.4659 65.512 39.4457H65.5121H65.5121H65.5121H65.5122H65.5122L65.5399 39.442C65.3239 41.3013 65.0065 43.13 64.5699 44.9153C64.3112 44.304 63.9752 43.722 63.5619 43.1913C63.3079 42.864 62.9025 42.3933 62.3219 42.0847C61.6572 41.7307 60.9172 41.6787 60.2825 41.9407C59.9279 42.0893 59.6079 42.3387 59.3345 42.678C58.5341 43.6644 58.4519 44.9339 58.3919 45.8605L58.3919 45.8613C58.3425 46.6093 58.2825 47.538 58.6192 48.4287C59.2058 49.9745 60.7456 50.7892 61.7663 51.3292L61.7663 51.3292L61.7665 51.3293C61.8865 51.3927 62.0959 51.498 62.3499 51.586C61.7072 53.0967 60.9759 54.5653 60.1672 55.99C60.1285 54.8593 59.9345 53.6067 58.8225 52.6673C57.6625 51.688 55.8905 51.7327 54.9519 52.776C54.6672 53.0913 54.4605 53.4787 54.3019 53.988C53.8785 55.3193 53.9459 56.696 54.0072 57.908C54.0299 58.4127 54.0619 59.1033 54.4072 59.7293C54.8285 60.4947 55.6445 61.024 56.6772 61.22C54.9985 63.3727 53.1039 65.38 51.0085 67.222C52.1565 62.9847 53.2165 58.6473 53.7472 54.2453C54.1905 50.56 54.2485 46.8547 53.9585 43.184C54.7592 43.548 55.5832 43.612 56.4039 43.1153C57.0239 42.7387 57.6445 42.36 58.2359 41.9367C58.9179 41.4507 59.7579 40.762 60.2085 39.7533C60.7959 38.4433 60.5499 36.8747 59.5992 35.8507C58.5892 34.7647 56.9239 34.47 55.6459 35.1507C54.8759 35.56 54.3619 36.2333 53.9219 36.8993L53.9039 36.9287L53.5045 37.564C53.4339 37.674 53.3632 37.7853 53.2925 37.8973C52.8052 35.1227 52.1039 32.388 51.2072 29.7153C51.4679 29.7873 51.7472 29.8487 52.0685 29.8853C52.1345 29.8933 52.2025 29.8993 52.2685 29.9027C52.7825 29.9293 53.3292 29.8367 53.8905 29.6267C54.6199 29.354 55.2052 28.9533 55.6299 28.4333C56.3059 27.6007 56.5639 26.4293 56.3172 25.3C56.1105 24.3567 55.5779 23.4667 54.7725 22.726C53.8059 21.836 52.6905 21.5053 51.7152 21.8127C50.8305 22.0953 50.2892 22.8213 49.8745 23.494V23.496C49.6225 23.9073 49.4192 24.3093 49.2532 24.7013C48.7699 23.618 48.2545 22.548 47.7019 21.4953C48.1119 21.3253 48.5939 21.0667 49.1712 20.668C50.0845 20.038 50.8252 19.1967 51.3145 18.234C51.9192 17.044 52.0365 15.8333 51.6452 14.8247C51.1659 13.584 49.6959 12.5993 48.2612 13.1167C47.7559 13.2987 47.3745 13.6273 47.0559 13.9213C46.6112 14.3347 46.1099 14.8327 45.7985 15.5093C45.7892 15.534 45.7292 15.7147 45.6472 15.9927C45.4285 14.8347 44.8679 13.7993 44.8305 13.7313C44.5125 13.1527 44.0625 12.6167 43.4145 12.0433C42.3365 11.09 41.2919 10.5847 40.2212 10.4967C38.6699 10.356 37.2685 11.2353 36.8425 12.55C36.4252 13.8347 36.9725 15.2867 38.3432 16.5327C38.5519 16.722 39.8125 17.8353 41.3252 18.528C40.5425 18.6093 39.8845 18.8313 39.3379 19.208C38.2365 19.9693 37.7519 21.3407 38.1819 22.4667C38.3585 22.9293 38.6725 23.3407 39.1199 23.6887C39.7779 24.2013 40.6159 24.4953 41.5372 24.544C41.8025 24.558 42.0725 24.5513 42.3472 24.5253C42.4685 24.5133 45.1925 24.2327 46.3519 22.9913C47.0839 24.43 47.7472 25.9 48.3459 27.3947C47.3412 26.8473 46.2232 26.5387 45.4112 26.4507C44.5279 26.3507 43.8325 26.4793 43.2759 26.832C42.5972 27.262 42.2459 27.9667 42.0419 28.4613C41.8659 28.8867 41.6812 29.454 41.7919 30.078C41.929 30.8278 42.442 31.3488 42.782 31.6941L42.7832 31.6953C43.7592 32.6867 44.9172 33.7353 46.4132 33.8147C46.5165 33.82 46.6199 33.8213 46.7272 33.8173C47.7465 33.778 49.1732 33.1733 50.0139 32.2087C50.6212 34.264 51.1092 36.352 51.4705 38.464C50.9059 37.8587 50.3952 37.3513 49.9152 37.07C48.7452 36.386 47.4625 36.142 46.2919 36.3793C44.8759 36.6713 43.7319 37.6933 43.3732 38.986C42.9612 40.4787 43.6719 42.2247 45.0985 43.2307C45.8072 43.732 46.6085 44.0147 47.3972 44.0567C47.7419 44.0753 48.0832 44.048 48.4139 43.972C48.7099 43.9053 48.9905 43.8013 49.2712 43.6933C49.4092 43.6393 49.5465 43.586 49.6899 43.542C49.9607 43.4559 50.241 43.4054 50.5224 43.3546L50.5225 43.3546L50.5739 43.3453L50.5754 43.3451C51.0503 43.2585 51.5404 43.1691 52.0405 42.9627L52.0479 42.9593C52.1759 44.45 52.2439 45.946 52.2485 47.446C51.7045 46.8167 51.0252 46.2427 50.1445 45.8673C48.6665 45.238 47.0125 45.3147 45.7125 46.066C44.0832 47.0073 43.0612 48.992 42.9072 51.508C42.8765 51.9893 42.8785 52.506 43.0992 53.0147C43.3352 53.5767 43.7999 54.0447 44.4772 54.406C45.1312 54.754 45.8599 54.9467 46.5985 54.986C47.6012 55.0393 48.6199 54.81 49.4839 54.3007C49.8459 54.088 50.1799 53.8293 50.5092 53.5693L50.5797 53.5139L50.5798 53.5138C50.8564 53.2961 51.1316 53.0796 51.4419 52.9173C51.594 52.838 51.7467 52.7646 51.893 52.6942L51.9405 52.6713L52.0065 52.6393L51.9904 52.8135L51.9734 53.0009L51.9734 53.0013L51.9734 53.0014C51.9427 53.3413 51.912 53.681 51.8712 54.02C51.2159 59.4713 49.7065 64.894 48.2472 70.1367C47.5625 72.5947 46.8779 75.0533 46.2739 77.526C46.2261 77.7205 46.1783 77.9216 46.1303 78.1238L46.1301 78.1245L46.0752 78.3553C45.0252 73.9933 43.0832 69.882 40.3459 66.28C39.8665 65.6493 39.3705 65.0793 38.8712 64.5333L38.9199 64.54C40.0419 64.5993 40.9472 63.688 41.5405 63.0893C42.9439 61.6773 43.0985 59.6313 41.9199 58.112C41.3725 57.4113 40.5179 56.9593 39.6319 56.904C38.0632 56.8353 36.9379 57.6387 36.3952 59.1273C36.1005 59.9387 36.0379 60.9453 36.2639 61.884C34.7412 60.3833 33.3892 58.9707 32.4919 57.1227C33.2925 57.134 34.1152 56.8487 35.0092 56.2133C35.4372 55.908 36.0525 55.4207 36.4565 54.708C37.2052 53.38 36.9352 51.8127 36.6665 50.75L36.6654 50.7456C36.5562 50.3159 36.3034 49.3219 35.3865 48.8953C34.6659 48.5607 33.7519 48.7273 33.0079 49.34C32.3234 49.9054 31.923 50.6607 31.6014 51.2673L31.5992 51.2713C31.4759 51.5033 31.3165 51.762 31.1465 52.0367L31.1415 52.0448C30.7649 52.6586 30.3568 53.3237 30.1052 54.0087C29.1299 53.41 28.0579 52.97 27.6692 52.8493C26.4219 52.4627 25.2392 52.3653 24.1559 52.562C22.8312 52.802 21.6645 53.5093 20.9579 54.502C20.4172 55.2607 20.2179 56.096 20.3972 56.8533C20.7243 58.2417 22.1639 58.8512 22.6389 59.0523L22.6399 59.0527C23.4945 59.414 24.3865 59.6933 25.2945 59.8827C25.6179 59.9507 26.0005 60.016 26.4099 60.038C27.0892 60.074 27.8439 59.9873 28.5252 59.5813C28.8745 59.3733 29.1525 59.1113 29.3972 58.8807C29.6365 58.654 29.8645 58.44 30.2245 58.3287C30.3912 58.2887 30.5565 58.2427 30.7079 58.176L30.8639 58.0927C31.9845 60.3267 33.6399 61.958 35.3699 63.6547C35.4042 63.6884 35.4387 63.7224 35.4733 63.7566L35.5321 63.8149L35.5326 63.8154C35.5864 63.8687 35.6402 63.922 35.6939 63.9747C33.1892 63.782 30.5319 64.4547 28.7059 65.2593V65.26C27.9545 65.5907 26.8739 66.144 26.1332 67.1147C25.3112 68.1947 25.1245 69.5887 25.6545 70.6673C26.0999 71.5727 26.9765 72.218 28.3325 72.6367C29.1325 72.8827 29.9359 73.026 30.7205 73.068C32.3472 73.1547 33.8952 72.804 35.1705 72.036C35.5365 71.816 35.8792 71.5607 36.2212 71.3047L36.2807 71.2603L36.2808 71.2602L36.2809 71.2601C36.5076 71.0908 36.7346 70.9213 36.9705 70.7693C37.2305 70.602 37.5845 70.4753 37.9612 70.3427C38.5925 70.1173 39.4919 69.7873 39.9832 69.0433C42.7352 73.216 44.4879 78.13 44.9585 83.0854C44.9685 83.1914 45.0005 83.2887 45.0419 83.3807C44.0805 88.9913 43.6552 95.6767 45.4885 102.017C45.6039 102.413 45.9559 102.677 46.3465 102.697C46.4499 102.703 46.5552 102.692 46.6585 102.661C47.1599 102.516 47.4479 101.993 47.3045 101.492C45.4472 95.076 45.6952 87.8233 48.1085 77.9753C48.7099 75.5207 49.3879 73.082 50.0665 70.6433ZM24.4439 47.6187C24.6459 47.5713 24.9325 47.6393 25.1305 47.6947C25.8832 47.9007 27.6372 48.892 28.0852 49.4587C27.9112 49.542 27.6679 49.562 27.3905 49.536C26.3012 49.4127 24.9712 48.5113 24.5359 47.9467C24.3572 47.718 24.3445 47.6133 24.4419 47.6187H24.4439ZM24.0245 45.7767C23.2485 45.954 22.6472 46.5287 22.4952 47.238C22.3665 47.838 22.5479 48.464 23.0392 49.1007C23.7905 50.0727 25.5859 51.232 27.1779 51.4127C27.2572 51.4213 27.3359 51.4287 27.4152 51.4327C28.1999 51.474 28.8912 51.2687 29.4205 50.8333C29.9339 50.4127 30.1539 49.822 30.0239 49.2127C29.6405 47.42 26.0945 45.9993 25.6305 45.8727C25.2005 45.756 24.6325 45.6387 24.0245 45.7767ZM29.4152 42.0507L29.4132 42.0547C29.1005 43.0413 29.0485 43.6427 29.0625 43.932C29.2979 43.776 29.7612 43.3627 29.8965 43.1193C30.1685 42.6267 30.1252 41.9387 29.7932 41.482C29.5712 41.5887 29.4759 41.8593 29.4152 42.0507ZM31.3192 40.3667C32.0872 41.424 32.1785 42.8947 31.5512 44.0327C31.1959 44.6753 29.9679 45.9133 28.7539 45.8487C28.5239 45.8367 28.2959 45.778 28.0745 45.6613C27.0579 45.124 26.9032 43.72 27.6132 41.4853C27.7465 41.062 27.9545 40.522 28.3979 40.0953C28.9705 39.544 29.8039 39.3673 30.4719 39.6547C30.7919 39.794 31.0672 40.026 31.3192 40.3667ZM71.1492 29.418C71.3665 29.3613 71.5772 29.4633 71.6865 29.53C71.9332 29.6833 72.1192 29.938 72.1705 30.1967C72.2832 30.7473 71.9732 31.44 71.4199 31.8787C70.7312 32.424 69.7905 32.7367 69.6159 32.7273C69.6154 32.7275 69.614 32.731 69.612 32.7359C69.598 32.771 69.5543 32.8805 69.5952 32.3873C69.6585 31.6053 69.9152 30.8407 70.3352 30.1787C70.6052 29.7513 70.8872 29.488 71.1492 29.418ZM68.6499 34.3247C68.9139 34.4647 69.1999 34.5347 69.4985 34.5507C70.6519 34.6113 71.9552 33.864 72.5939 33.3593C73.7179 32.468 74.2772 31.0787 74.0232 29.822C73.8692 29.0593 73.3679 28.35 72.6825 27.9247C72.0479 27.5307 71.3259 27.4153 70.6625 27.5933C69.9205 27.7907 69.2732 28.322 68.7372 29.1693C68.1559 30.0867 67.8025 31.146 67.7119 32.232C67.6025 33.5567 68.2525 34.1107 68.6499 34.3247ZM63.8656 27.8104C64.0168 28.098 64.1695 28.3883 64.3585 28.5773C64.4219 28.6413 64.4879 28.6867 64.5432 28.7153C64.7685 28.0953 64.7259 27.4033 64.4345 26.8353C64.2839 26.5407 63.9285 26.028 63.2372 25.8927C63.0072 25.8487 62.8892 25.8713 62.8405 25.888C62.8517 25.89 62.9568 26.0903 63.0003 26.1731L63.0004 26.1732L63.0025 26.1773L63.8552 27.7907L63.8656 27.8104ZM63.5965 24.038C64.6752 24.2473 65.5932 24.9533 66.1172 25.9753C66.7045 27.1233 66.7345 28.502 66.1985 29.6627C66.1192 29.8313 66.0065 30.04 65.8119 30.222C65.5592 30.454 65.2339 30.5947 64.8685 30.6327C64.7659 30.6433 64.6645 30.6453 64.5632 30.6393C64.0065 30.61 63.4572 30.3527 63.0172 29.9073C62.6259 29.514 62.3805 29.0473 62.1845 28.672L61.3319 27.0593C61.1452 26.7067 60.8385 26.1207 60.9912 25.4293C61.1225 24.838 61.5839 24.3333 62.1959 24.1127C62.6025 23.9633 63.0699 23.9353 63.5945 24.038H63.5965Z" fill="#424242"/>
</svg>
