<svg width="93" height="108" viewBox="0 0 93 108" fill="none" xmlns="http://www.w3.org/2000/svg">
<path fill-rule="evenodd" clip-rule="evenodd" d="M92.3333 73.9995C92.3333 55.2218 77.1109 39.9995 58.3333 39.9995C39.5556 39.9995 24.3333 55.2218 24.3333 73.9995C24.3333 92.7772 39.5556 108 58.3333 108C77.1109 108 92.3333 92.7772 92.3333 73.9995ZM32.3333 73.9995C32.3333 59.6401 43.9738 47.9995 58.3333 47.9995C72.6927 47.9995 84.3333 59.6401 84.3333 73.9995C84.3333 88.3589 72.6927 99.9995 58.3333 99.9995C43.9738 99.9995 32.3333 88.3589 32.3333 73.9995Z" fill="#EFEBE4"/>
<path fill-rule="evenodd" clip-rule="evenodd" d="M36.3333 17.9995C36.3333 8.05839 28.2744 -0.000488281 18.3333 -0.000488281C8.39213 -0.000488281 0.333252 8.05839 0.333252 17.9995C0.333252 27.9406 8.39213 35.9995 18.3333 35.9995C28.2744 35.9995 36.3333 27.9406 36.3333 17.9995ZM8.33325 17.9995C8.33325 12.4767 12.8104 7.99951 18.3333 7.99951C23.8561 7.99951 28.3333 12.4767 28.3333 17.9995C28.3333 23.5224 23.8561 27.9995 18.3333 27.9995C12.8104 27.9995 8.33325 23.5224 8.33325 17.9995Z" fill="#EFEBE4"/>
</svg>
