<svg width="17" height="16" viewBox="0 0 17 16" fill="none" xmlns="http://www.w3.org/2000/svg">
<path fill-rule="evenodd" clip-rule="evenodd" d="M16.0165 0H1.3165C0.966504 0 0.666504 0.3 0.666504 0.65V15.3C0.666504 15.7 0.966504 16 1.3165 16H9.1665V10H7.1665V7.5H9.1665V5.5C9.1665 3.45 10.4665 2.4 12.3165 2.4C13.2165 2.4 13.9665 2.5 14.1665 2.5V4.65H12.8665C11.8665 4.65 11.6165 5.15 11.6165 5.85V7.5H14.1165L13.6165 10H11.6165L11.6665 16H15.9665C16.3165 16 16.6165 15.7 16.6165 15.35V0.65C16.6665 0.3 16.3665 0 16.0165 0Z" fill="#1D3E31"/>
</svg>
