<svg width="572" height="936" viewBox="0 0 572 936" fill="none" xmlns="http://www.w3.org/2000/svg">
<g id="Group 5">
<path id="Fill 113" fill-rule="evenodd" clip-rule="evenodd" d="M417.346 635.552C417.092 645.139 415.366 652.603 412.101 658.361C405.305 670.377 389.422 677.213 374.28 674.667C358.029 671.905 344.044 658.03 340.539 640.865C337.574 626.663 342.793 614.049 354.708 606.314C364.345 600.072 373.079 596.533 381.416 595.507C387.109 594.807 392.755 595.414 397.641 597.156C400.81 598.271 403.688 599.842 406.027 601.867C416.371 610.718 417.522 626.791 417.346 635.552ZM336.701 543.444C333.787 529.225 338.955 516.628 350.919 508.871C360.553 502.625 369.241 499.112 377.622 498.054C383.319 497.364 388.964 497.966 393.849 499.709C397.018 500.823 399.899 502.399 402.229 504.41C412.585 513.279 413.739 529.358 413.513 538.14C413.251 547.714 411.569 555.146 408.306 560.909C401.508 572.92 385.578 579.783 370.439 577.241C354.169 574.447 340.237 560.555 336.701 543.444ZM302.809 408.688C278.293 421.586 250.931 429.661 223.727 432.034C187.957 435.146 151.409 428.59 118.742 413.715C187.344 429.817 260.39 423.11 324.896 394.464C321.5 397.65 315.089 402.226 302.809 408.688ZM89.5494 392.486C89.7735 390.527 91.5345 388.137 94.7043 385.414C106.966 374.972 123.866 370.111 137.155 367.101C177.481 357.908 220.707 357.364 262.218 365.477C276.263 368.256 291.691 371.512 305.653 376.494C312 378.742 318.055 381.336 323.577 384.393C324.277 384.752 324.788 385.104 325.302 385.46L307.276 387.092C237.989 393.377 166.362 399.875 96.3513 401.707C91.719 398.377 89.274 395.102 89.5494 392.486ZM102.801 405.625L102.341 405.361C170.623 403.308 240.196 396.987 307.656 390.844L327.793 389.029C257.656 421.467 176.887 427.386 102.801 405.625ZM291.405 130.163C293.201 124.741 295.492 118.682 300.11 114.84C300.247 114.97 301.125 115.744 302.468 119.458L333.88 205.332C343.591 231.859 353.639 259.289 359.519 287.179C363.5 306.022 364.563 320.983 362.814 334.273C360.694 350.548 354.065 364.666 344.145 374.045L343.908 374.274C325.488 359.543 311.373 331.468 301.951 310.563C276.081 253.168 272.243 187.426 291.405 130.163ZM446.763 380.158C453.037 331.931 478.53 283.18 518.678 242.105C482.579 308.753 457.997 376.363 445.703 443.709C444.663 422.601 444.025 401.015 446.763 380.158ZM534.864 230.672L535.208 230.843C535.964 231.404 536.924 233.387 537.299 234.144C548.62 257.593 547.289 283.66 544.162 301.391C540.195 323.961 531.656 345.543 521.724 369.408C511.541 393.904 502.007 415.79 488.703 435.307C477.157 452.215 465.014 464.676 452.618 472.325C449.848 474.035 448.265 474.493 448.001 474.782L447.978 474.635C448.759 473.642 449.446 472.592 449.876 471.63C480.93 405.844 504.08 336.393 518.799 265.141L519.157 263.308C521.244 253.162 523.453 242.803 527.764 233.521C530.971 231.183 533.623 230.231 534.864 230.672ZM446.438 463.115C456.936 392.445 480.841 321.316 517.893 251.198C516.994 254.975 516.236 258.781 515.461 262.56L515.052 264.41C500.543 335.067 477.535 404.016 446.812 469.309C446.601 467.344 446.505 465.151 446.438 463.115ZM553.321 467.762C555.866 463.743 558.498 461.048 561.268 459.553C563.522 458.338 566.159 457.998 568.041 458.697L568.184 458.732L568.298 459.035C583.045 490.871 582.497 528.002 582.063 560.744L582.017 564.718C567.824 552.615 556.082 537.717 550.354 524.063C542.279 504.849 543.43 483.271 553.321 467.762ZM593.652 547.643C592.576 555.593 589.73 562.076 585.732 567.845L585.8 560.816C586.235 531.171 586.621 498.026 575.956 468.033C590.996 491.417 597.515 520.095 593.652 547.643ZM646.06 510.524C661.029 497.091 680.257 488.262 700.159 485.72C709.054 484.593 721.272 484.634 728.813 491.402C731.997 494.25 733.878 498.042 734.928 502.208C710.514 519.334 682.733 533.403 655.745 547.032C638.334 555.809 620.483 564.89 603.608 574.701C614.478 552.462 626.913 527.707 646.06 510.524ZM731.729 529.2C720.001 555.5 694.329 571.195 674.82 579.75C659.247 586.591 645.823 589.686 633.818 589.159C625.919 588.811 617.598 586.453 609.373 582.66C657.278 573.687 702.394 549.111 735.753 513.556C735.268 519.009 733.809 524.483 731.729 529.2ZM735.806 507.995C701.643 545.782 654.129 571.539 603.855 579.823L602.991 579.392C620.495 569.071 639.223 559.588 657.446 550.404C684.01 537.001 711.354 523.135 735.641 506.323C735.713 506.873 735.784 507.423 735.806 507.995ZM608.148 790.992C594.487 785.571 581.212 776.657 566.415 762.974C543.875 742.067 525.836 717.65 511.026 691.892C520.481 664.214 536.233 638.165 556.675 616.504C561.876 611.006 567.804 606.02 573.522 601.204C578.494 597.015 583.547 592.755 588.242 588.086C602.75 597.428 618.416 603.656 633.171 604.252C647.517 604.886 663.121 601.407 680.897 593.583C702.822 583.985 731.838 566.082 745.503 535.35C753.325 517.859 754.281 494.022 738.945 480.152C729.594 471.743 715.521 468.487 698.223 470.739C675.287 473.679 653.187 483.827 635.935 499.28C625.603 508.584 617.114 519.588 609.862 531.134C609.746 504.159 601.254 477.291 585.679 455.22C583.204 451.68 580.282 448.113 576.045 445.787C569.644 442.166 561.218 442.4 554.086 446.259C548.963 449.013 544.577 453.363 540.567 459.644C528.063 479.266 526.44 506.216 536.426 529.912C543.515 546.777 558.143 564.966 575.797 579.118C572.107 582.646 567.996 586.085 563.775 589.655C557.722 594.745 551.465 600.014 545.696 606.128C526.935 626.007 511.861 649.391 501.526 674.369C480.977 633.979 467.667 591.405 457.737 554.152L453.789 539.207C449.204 521.772 444.532 503.974 438.554 486.579C439.226 487.102 439.854 487.657 440.599 488.095C441.289 488.436 441.946 488.722 442.58 488.966C450.092 491.631 457.857 486.84 460.542 485.197C474.794 476.389 488.453 462.499 501.192 443.819C515.295 423.126 525.144 400.504 535.663 375.204C545.972 350.5 554.835 328.09 559.041 304.015C564.089 275.426 561.267 248.991 550.887 227.598C549.36 224.421 547.521 221.129 544.204 218.69C535.952 212.505 524.489 215.157 513.611 225.755C467.881 270.281 438.795 324.437 431.773 378.195C428.509 403.26 429.79 428.626 431.026 453.168C431.127 455.049 431.189 457.077 431.229 459.172C431.251 462.091 431.316 465.083 431.533 468.019C429.101 462.205 426.516 456.449 423.636 450.82C408.742 421.717 388.09 400.453 357.043 382.518C368.103 370.848 375.399 354.578 377.801 336.231C379.772 321.193 378.647 304.63 374.293 284.075C368.222 255.107 357.946 227.175 348.062 200.137L316.694 114.232C315.517 111.019 311.94 101.303 302.52 100.029C298.663 99.5341 294.654 100.697 290.906 103.378C283.412 108.746 279.812 117.124 277.065 125.38C256.701 186.213 260.758 255.961 288.163 316.762C295.003 331.916 303.344 348.815 313.718 363.37C297.976 357.438 280.745 353.727 265.118 350.66C221.577 342.125 176.161 342.714 133.813 352.353C118.796 355.782 99.6973 361.316 84.9247 373.915C78.6535 379.267 75.2527 384.79 74.5634 390.742C73.4419 400.64 79.4432 409.541 92.426 417.201C104.516 424.275 117.286 430.18 130.463 434.87C160.658 445.569 193.138 449.879 225.027 447.086C254.277 444.523 283.583 435.868 309.853 422.062C326.009 413.565 341.086 404.054 343.392 392.154L344.52 392.827C376.095 410.076 395.734 429.48 410.175 457.693C423.789 484.258 431.607 514.121 439.131 543.045L443.124 558.069C445.269 566.05 447.568 574.299 450.02 582.706C438.965 578.705 427.19 576.549 415.447 576.37C417.714 573.897 419.782 571.293 421.469 568.348C425.98 560.374 428.301 550.634 428.64 538.528C429.142 518.703 423.248 502.522 412.047 492.934C402.758 484.952 389.485 481.376 375.742 483.066C365.104 484.374 354.285 488.674 342.726 496.173C325.477 507.363 317.725 526.151 321.897 546.497C325.786 565.179 338.951 580.942 355.695 588.291C352.662 589.864 349.606 591.61 346.515 593.616C329.309 604.775 321.517 623.598 325.741 643.927C329.875 663.994 344.687 680.797 363.174 687.324C365.913 688.335 368.809 689.083 371.739 689.572C393.245 693.222 415.256 683.452 425.264 665.8C429.78 657.835 432.095 648.086 432.426 635.966C432.914 616.864 427.395 601.225 417 591.54C429.934 591.968 442.842 595.127 454.41 600.869L455.751 601.272C474.825 660.656 504.115 725.788 556.168 774.026C572.129 788.872 587.339 799.003 602.599 805.059L602.885 805.128C606.692 806.496 610.945 804.582 612.447 800.784C613.968 796.912 612.049 792.521 608.148 790.992Z" fill="#EFEBE4"/>
<path id="Fill 114" fill-rule="evenodd" clip-rule="evenodd" d="M281.002 614.331C270.163 612.411 260.943 603.268 258.61 591.867C257.5 586.424 257.192 576.292 267.814 569.408C274.45 565.115 280.386 562.704 286.011 561.993C289.755 561.544 293.429 561.935 296.608 563.068C298.617 563.774 300.423 564.77 301.906 566.057C308.666 571.792 309.408 582.572 309.239 588.465C309.097 594.939 307.923 599.946 305.802 603.739C301.39 611.564 290.964 616.013 281.002 614.331ZM311.769 554.555C304.615 548.457 294.575 545.681 284.134 547.01C276.2 547.988 268.181 551.164 259.62 556.71C246.534 565.19 240.617 579.475 243.809 594.925C246.91 610.002 258.071 622.613 271.993 627.526C274.088 628.275 276.268 628.852 278.458 629.231C294.723 632.016 311.363 624.571 318.96 611.169C322.345 605.193 324.111 597.904 324.365 588.852C324.737 574.03 320.239 561.865 311.769 554.555Z" fill="#EFEBE4"/>
</g>
</svg>
