<svg width="145" height="153" viewBox="0 0 145 153" fill="none" xmlns="http://www.w3.org/2000/svg">
<path fill-rule="evenodd" clip-rule="evenodd" d="M72.667 152.667C112.431 152.667 144.667 120.431 144.667 80.6667C144.667 40.9022 112.431 8.66675 72.667 8.66675C32.9025 8.66675 0.666992 40.9022 0.666992 80.6667C0.666992 120.431 32.9025 152.667 72.667 152.667Z" fill="#E7EBE8"/>
<path fill-rule="evenodd" clip-rule="evenodd" d="M74.5721 130.359C69.895 130.855 65.0899 130.93 60.2859 130.586C61.512 130.287 62.7103 129.922 63.8585 129.504C72.5062 126.36 80.1209 120.215 85.7306 113.012C90.8622 106.424 94.8104 98.0071 93.7988 89.4751C92.6805 80.0448 85.0818 74.0499 76.7681 70.7104C67.6669 67.0544 55.4766 66.3788 45.8579 62.2956C45.0437 61.8033 44.2498 61.2609 43.4815 60.6567C37.1846 55.7104 32.3347 48.3164 30.256 40.5867C29.8356 36.5322 30.0511 32.3339 30.8098 28.2954C32.2386 24.454 34.6278 20.8801 37.0331 17.1293C37.5591 16.3088 36.5657 15.6119 35.8294 15.9284C35.8016 15.9401 35.776 15.9539 35.7483 15.9667C37.3639 13.5543 39.2686 11.1845 41.4807 9.70332C48.3943 5.71063 55.7071 3.10211 63.802 3.12023C63.8265 3.12236 63.85 3.12342 63.8745 3.12662C63.8831 3.12662 63.8863 3.12023 63.8937 3.12023C65.5669 3.12768 67.2721 3.24383 69.0157 3.48678C80.9948 5.15227 91.6636 11.9986 100.198 20.261C117.923 37.4231 130.082 64.7624 125.497 89.6221C120.973 114.141 97.8655 127.887 74.5721 130.359ZM42.7452 129.047C43.9094 129.399 45.0789 129.727 46.2527 130.027C46.6123 130.18 46.9826 130.302 47.3528 130.429C45.7725 130.245 44.2402 129.725 42.7452 129.047ZM10.962 105.543C10.4135 104.78 9.90241 103.998 9.40728 103.207C10.4584 104.753 11.5767 106.254 12.7377 107.698C14.5208 109.919 16.561 111.952 18.7389 113.838C18.7048 113.912 18.6771 113.987 18.6461 114.062C15.8109 111.522 13.2253 108.688 10.962 105.543ZM41.7442 6.48103C41.6952 6.47038 41.6407 6.46931 41.5799 6.49382C41.4689 6.53964 41.3612 6.59079 41.2502 6.63661C41.2214 6.57693 41.1787 6.52259 41.1285 6.47571C41.8584 6.17202 42.5904 5.87153 43.3363 5.603C42.7985 5.88431 42.2692 6.17841 41.7442 6.48103ZM80.3162 74.9631C80.0665 74.8597 79.8082 74.7819 79.55 74.7031C79.2822 74.4772 79.0101 74.2619 78.7358 74.0488C79.2864 74.3227 79.8307 74.6093 80.3642 74.9087C80.3482 74.9279 80.3322 74.946 80.3162 74.9631ZM90.2294 99.6257C91.2826 96.69 91.7895 93.5828 91.4459 90.3062C91.416 90.0089 91.114 89.9216 90.9294 90.0473C90.7608 85.5442 88.7109 82.2782 85.6922 79.5376C85.0839 78.7384 84.4255 77.9893 83.7244 77.3116C83.7437 77.2551 83.7586 77.1976 83.7778 77.1411C87.9661 80.3314 91.0265 84.6534 91.5419 90.4298C91.861 94.007 91.2559 97.5393 90.0181 100.917C90.1056 100.488 90.1814 100.058 90.2294 99.6257ZM75.8184 119.488C76.3562 119.029 76.878 118.551 77.3913 118.065C77.4607 118.074 77.529 118.081 77.5983 118.082C76.5472 119.014 75.4834 119.888 74.4227 120.694C74.0417 120.984 73.6554 121.264 73.2681 121.541C74.1303 120.883 74.9808 120.202 75.8184 119.488ZM27.7323 120.479C28.0898 120.709 28.4548 120.935 28.824 121.162C28.9552 121.313 29.1099 121.457 29.2583 121.603C28.6756 121.277 28.0994 120.94 27.5285 120.596C27.5958 120.557 27.6651 120.519 27.7323 120.479ZM25.882 119.255C25.7881 119.298 25.6921 119.341 25.595 119.382C23.8161 118.218 22.0981 116.965 20.4569 115.617C20.4868 115.525 20.5167 115.437 20.5487 115.347C22.2763 116.732 24.068 118.031 25.882 119.255ZM7.40116 44.4462C7.02554 45.8954 6.70862 47.3616 6.42691 48.8033C5.90617 49.9819 5.43132 51.2051 5.00448 52.454C5.03436 52.3091 5.06104 52.1609 5.09305 52.0171C5.27339 51.2009 5.4772 50.3612 5.69275 49.5141C6.21883 47.791 6.78865 46.0989 7.40116 44.4462ZM14.5869 30.3381C14.3682 30.5011 14.1441 30.6567 13.9328 30.8314C15.3392 28.5319 16.8822 26.3273 18.5319 24.2206C17.0892 26.1578 15.7671 28.1963 14.5869 30.3381ZM29.1441 13.549C32.3688 11.0289 35.8401 8.87963 39.53 7.18324C39.3614 7.32496 39.195 7.46562 39.0274 7.60628C35.4943 9.24938 32.1917 11.2473 29.1441 13.549ZM55.785 71.5447C54.5119 71.1675 53.1898 70.9075 51.7919 70.7967C50.235 70.1829 48.6269 69.696 46.9132 69.4637C46.5675 69.4157 46.2527 69.5106 46.004 69.6832C45.4886 68.8989 44.9402 68.1413 44.3586 67.4103C47.8949 69.4605 51.8154 70.5484 55.8095 71.322C55.7967 71.3966 55.7828 71.4701 55.785 71.5447ZM61.5067 125.929C61.6998 126.148 61.9858 126.298 62.2878 126.342C62.2323 126.367 62.1779 126.395 62.1213 126.421C61.4405 126.727 60.7501 127.023 60.0554 127.312C60.5495 126.874 61.0361 126.412 61.5067 125.929ZM5.37263 63.3143C5.36196 63.6244 5.35982 63.9334 5.36409 64.2413C5.10159 65.1236 4.83695 66.0059 4.57231 66.8871C4.25966 63.3121 4.77293 59.3727 5.81974 55.5622C5.84535 55.574 5.86989 55.5868 5.89443 55.5974C5.49321 58.0631 5.27019 60.7079 5.37263 63.3143ZM8.11397 54.7354C7.88561 55.5409 7.66793 56.3508 7.43531 57.1553C7.4193 57.1563 7.40223 57.1585 7.38515 57.1606C7.54628 55.5345 7.81092 53.6794 8.2655 51.8487C8.19187 52.8067 8.13958 53.77 8.11397 54.7354ZM13.0588 33.3504C12.6256 33.7681 12.2201 34.2136 11.8413 34.6835C12.3546 33.9109 12.8956 33.1672 13.4718 32.4639C13.3278 32.7548 13.1976 33.0553 13.0588 33.3504ZM27.4794 23.4588C27.5125 23.3991 27.5488 23.3384 27.5829 23.2787C27.5499 23.3394 27.5115 23.3991 27.4794 23.4588ZM30.4598 54.2559C30.0799 53.9277 29.699 53.6005 29.317 53.2745C29.4802 53.2521 29.6467 53.2329 29.81 53.2052C30.033 53.56 30.2603 53.9128 30.4886 54.2601C30.4801 54.2591 30.4705 54.2569 30.4598 54.2559ZM34.2426 64.1571C34.1637 63.5881 34.0634 63.0159 33.9417 62.4437C33.994 62.0782 34.0527 61.7138 34.1317 61.3568C34.3461 61.5145 34.5585 61.6733 34.7687 61.8342C34.7719 61.8448 34.7698 61.8555 34.773 61.8662C35.1785 63.1715 35.7696 64.5748 36.4974 65.9899C35.744 65.3815 34.9939 64.7698 34.2426 64.1571ZM39.9249 71.3071C39.7264 71.2719 39.5268 71.2517 39.3273 71.2368C38.3626 70.3641 37.4076 69.4829 36.4622 68.5888C37.6061 69.5095 38.7575 70.4174 39.9249 71.3071ZM38.7191 65.1993C40.1959 66.7422 41.5276 68.4205 42.7612 70.1851C42.6256 70.3044 42.5232 70.4515 42.4474 70.6113C42.2447 70.4632 42.0388 70.3215 41.8381 70.1712C40.4659 68.5111 39.2835 66.6644 38.3658 64.8615C38.4843 64.9723 38.6006 65.0863 38.7191 65.1993ZM43.7962 80.5893C43.6543 79.8849 43.3993 79.0772 43.0546 78.2301C43.188 78.2642 43.3278 78.3143 43.474 78.3857C43.7077 78.9451 43.9136 79.5301 44.0897 80.13C43.9873 80.2803 43.8891 80.4326 43.7962 80.5893ZM56.9609 86.467C57.2629 86.5426 57.5584 86.6343 57.8412 86.7568C57.9789 86.8175 58.1037 86.8762 58.2264 86.9348C58.2851 87.1681 58.3118 87.4047 58.3193 87.6434C58.2947 87.881 58.2595 88.1175 58.2211 88.352C57.6363 87.9716 57.0441 87.6029 56.4391 87.2448C56.4604 86.988 56.4732 86.7291 56.4775 86.468C56.6365 86.4723 56.7976 86.4702 56.9609 86.467ZM79.645 80.3719C79.6087 80.438 79.5756 80.5062 79.5383 80.5722C79.4294 80.4007 79.3217 80.2291 79.2096 80.0608C79.232 80.0352 79.2544 80.0086 79.2779 79.984C79.4017 80.1087 79.5223 80.2419 79.645 80.3719ZM17.6057 100.458C17.7434 100.453 17.8799 100.428 18.0155 100.407C17.9963 100.572 17.9845 100.734 17.9728 100.898C17.5886 101.981 17.3699 103.04 17.3485 104.036C17.1255 103.808 16.9014 103.582 16.6827 103.351C16.8662 102.358 17.1927 101.392 17.6057 100.458ZM13.6938 99.8505C14.0822 99.6918 14.4674 99.4733 14.8473 99.1867C15.0212 99.4264 15.2336 99.6342 15.4779 99.8132C15.415 99.9592 15.3605 100.106 15.3019 100.253C15.0938 100.528 14.8804 100.797 14.6648 101.062C14.334 100.662 14.0118 100.259 13.6938 99.8505ZM6.70008 87.1777C6.83133 86.158 7.13332 85.1403 7.56336 84.1472C7.69247 84.7951 7.82906 85.4387 7.98165 86.077C7.62951 86.5885 7.24963 87.0839 6.84627 87.5645C6.79825 87.4356 6.7481 87.3066 6.70008 87.1777ZM18.4124 29.6167C18.294 29.9044 18.1734 30.191 18.0571 30.4777C17.9002 30.6855 17.753 30.8996 17.5993 31.1085C17.865 30.6066 18.1318 30.1068 18.4124 29.6167ZM25.5875 28.7152C25.4274 28.5266 25.229 28.4478 25.0294 28.4723C25.3591 27.6752 25.707 26.8856 26.0826 26.1078C26.5063 25.2329 26.9576 24.3794 27.4336 23.5419C26.5788 25.1488 25.9781 26.8931 25.5875 28.7152ZM26.2822 47.2284C26.2918 47.0526 26.3024 46.8757 26.311 46.701C26.4657 46.8256 26.6204 46.9524 26.7773 47.0771C26.8541 47.302 26.9342 47.5247 27.0206 47.7474C26.7688 47.5801 26.5244 47.4064 26.2822 47.2284ZM30.2218 65.6095C29.6787 65.52 29.0523 65.8034 28.7994 66.2744C28.6575 66.5397 28.5433 66.8051 28.4366 67.0725C28.2552 66.6122 28.0845 66.1466 27.9212 65.6788C28.4921 65.3666 29.0694 65.0618 29.6499 64.7709C29.8281 64.9499 30.0074 65.1279 30.1877 65.3069C30.1994 65.4081 30.2101 65.5083 30.2218 65.6095ZM34.6748 70.9789C34.6567 70.5292 34.6396 70.0785 34.6246 69.6299C34.933 69.9208 35.2361 70.216 35.5455 70.5058C35.5615 70.5229 35.5797 70.541 35.5968 70.558C35.2798 70.6188 34.9725 70.7711 34.6748 70.9789ZM39.0061 78.6936C39.0018 78.7693 39.0061 78.846 39.0029 78.9206C37.9625 78.4688 36.9573 77.9488 36.2029 77.2253C36.1452 76.6797 36.0684 76.1267 35.951 75.5651C36.3427 75.0451 36.8282 74.6104 37.3713 74.3163C37.8515 74.8693 38.2997 75.5523 38.4608 75.7719C38.7863 76.213 39.0808 76.6765 39.3604 77.1496C39.1715 77.5748 39.0456 78.0841 39.0061 78.6936ZM60.7853 94.4907C59.4376 94.7113 58.1144 95.0683 56.8094 95.5286C56.9267 95.4391 57.0452 95.3538 57.1583 95.259C57.7825 94.8807 58.3534 94.3895 58.8539 93.813C59.4792 94.1071 60.1184 94.3266 60.765 94.4737C60.7714 94.479 60.7789 94.4843 60.7853 94.4907ZM62.5076 89.9184C62.9163 90.2764 63.3239 90.6568 63.7273 91.0564C63.3218 91.2855 62.8885 91.44 62.4297 91.5103C62.2579 91.3579 62.0808 91.2109 61.9047 91.0628C62.1789 90.7058 62.3806 90.3211 62.5076 89.9184ZM69.5834 91.2247C69.8001 91.1789 70.0177 91.1182 70.2354 91.0415C69.9719 91.3462 69.7168 91.6616 69.4575 91.9738C69.3764 91.8769 69.2932 91.782 69.2089 91.6883C69.3348 91.5348 69.4565 91.3782 69.5834 91.2247ZM76.6646 110.538C77.387 109.84 78.0753 109.108 78.7454 108.36C79.1371 108.166 79.5223 107.961 79.9022 107.746C78.5662 109.7 76.8919 111.419 75.0138 112.968C75.6039 112.179 76.162 111.369 76.6646 110.538ZM48.31 118.357C48.7699 118.037 49.2309 117.694 49.6887 117.331C49.3558 117.76 49.0132 118.154 48.6664 118.519C48.548 118.466 48.4295 118.411 48.31 118.357ZM20.5893 106.297C20.5306 106.453 20.4751 106.609 20.4249 106.766C20.1272 106.477 19.8893 106.097 19.7185 105.677C19.8274 105.771 19.9266 105.87 20.0483 105.959C20.2329 106.092 20.4111 106.196 20.5893 106.297ZM20.2681 103.461C20.028 103.09 19.8647 102.68 19.7804 102.232C20.2435 100.826 21.0812 99.4776 21.8292 98.3023C20.9179 100.086 20.3332 101.857 20.2681 103.461ZM17.3645 91.2141C17.4168 91.0617 17.4723 90.9029 17.531 90.741C17.5427 90.7207 17.5534 90.6994 17.5651 90.6802C17.6836 90.9562 17.8074 91.229 17.9322 91.5007C17.5748 92.2924 17.1607 93.1577 16.6923 93.9952C16.911 92.7666 17.2109 91.6531 17.3645 91.2141ZM15.4587 90.5492C15.2741 90.8028 15.0842 91.0532 14.8857 91.2919C15.2965 90.2444 15.8183 89.0286 16.4436 87.8224C16.481 87.8671 16.5183 87.9119 16.5557 87.9566C16.5621 87.9769 16.5664 87.9961 16.5728 88.0163C16.1694 88.8475 15.7885 89.6967 15.4587 90.5492ZM12.8049 97.5329C12.8956 97.664 12.9906 97.7919 13.0823 97.9229C12.9468 97.9773 12.8091 98.0231 12.6694 98.0561C12.7088 97.8803 12.7611 97.7077 12.8049 97.5329ZM12.1283 82.1195C12.3706 82.4722 12.6149 82.8238 12.8636 83.1733C12.6544 83.7125 12.4079 84.2431 12.1251 84.7589C11.9629 84.9922 11.82 85.2341 11.6642 85.4696C11.4828 85.0679 11.3014 84.6662 11.121 84.2634C11.4081 83.5271 11.7485 82.8121 12.1283 82.1195ZM9.24295 77.4373C9.29203 77.5268 9.34325 77.6132 9.39234 77.7016C9.36033 77.7613 9.32831 77.822 9.29524 77.8806C9.28136 77.7325 9.25789 77.5865 9.24295 77.4373ZM5.37263 75.1602C5.52416 75.8166 5.70449 76.473 5.90831 77.1304C5.61166 78.4528 5.51348 79.8508 5.66394 81.3277C5.67141 81.4076 5.70236 81.4822 5.74077 81.5494C5.61699 82.0832 5.51775 82.6171 5.42385 83.1509C5.08558 81.8946 4.79427 80.6042 4.54777 79.2904C4.70677 77.9062 4.99808 76.5252 5.37263 75.1602ZM12.4207 51.5269C12.3962 51.6111 12.3748 51.6964 12.3503 51.7805C12.1006 51.8892 11.8541 52.0384 11.6097 52.2153C11.6204 52.015 11.6332 51.8136 11.6471 51.6122C11.8648 51.8093 12.2447 51.7965 12.4207 51.5269ZM14.1643 40.5814C14.3607 39.7044 14.5826 38.8349 14.8206 37.9718C15.1621 37.324 15.5185 36.6835 15.893 36.0485C15.3211 37.5605 14.7512 39.0747 14.1643 40.5814ZM13.3715 48.6829C13.793 47.4629 14.2401 46.2556 14.7288 45.0696C14.7043 45.2625 14.6883 45.4543 14.6669 45.6471C14.1804 46.6381 13.7578 47.6536 13.3715 48.6829ZM25.9311 57.2384C25.8948 56.9464 25.8553 56.6555 25.8233 56.3646C25.9716 56.4616 26.1242 56.55 26.263 56.6662C26.391 56.7727 26.5063 56.8878 26.6258 57.0008C26.3974 57.0828 26.1648 57.1606 25.9311 57.2384ZM26.82 61.9876C26.8456 61.9727 26.8712 61.9578 26.8957 61.9429C27.3631 62.4288 27.8305 62.9126 28.3011 63.3953C27.982 63.5444 27.6534 63.6979 27.3279 63.8492C27.1444 63.2344 26.9747 62.6131 26.82 61.9876ZM25.4456 64.6771C25.0689 64.3777 24.6741 64.1156 24.2686 63.8748C24.2334 63.7874 24.1982 63.7 24.1629 63.6116C24.4905 63.3985 24.8224 63.1917 25.1564 62.9882C25.2983 63.5295 25.4488 64.0698 25.612 64.6047C25.5555 64.6271 25.5011 64.6548 25.4456 64.6771ZM72.3856 97.1259C72.265 96.7817 72.1359 96.4439 71.9929 96.1072C72.4486 95.8866 72.9063 95.6778 73.3684 95.4806C73.0365 96.0262 72.7089 96.575 72.3856 97.1259ZM81.9808 97.3752C80.9788 98.9384 80.0537 100.548 79.1253 102.162C78.9556 101.931 78.7134 101.746 78.4424 101.649C79.6535 100.369 80.7729 99.0109 81.7535 97.5606C81.8304 97.4988 81.9051 97.436 81.9808 97.3752ZM79.2779 94.6452C79.264 94.6591 79.2512 94.6729 79.2374 94.6868C79.2704 94.6335 79.2992 94.5781 79.3313 94.5248C79.3131 94.5653 79.295 94.6047 79.2779 94.6452ZM81.3875 90.9232C81.5369 90.6493 81.5625 90.3659 81.5081 90.1059C81.5199 90.0611 81.5241 90.0164 81.5295 89.9695C81.8293 90.4927 82.1164 90.9946 82.3789 91.4997C82.2956 91.5465 82.2145 91.5998 82.143 91.6691C82.0843 91.7234 82.0299 91.7831 81.9734 91.8374C81.7802 91.6339 81.5166 91.4986 81.2264 91.5093C81.1666 91.5114 81.1058 91.5188 81.0461 91.521C81.157 91.3206 81.2776 91.1256 81.3875 90.9232ZM76.2485 114.659C76.9239 114.111 77.5748 113.54 78.1959 112.946C78.4424 112.856 78.6835 112.75 78.9215 112.634C78.2941 113.522 77.6378 114.38 76.9538 115.206C76.7959 114.954 76.5494 114.763 76.2485 114.659ZM82.5923 104.083C83.0415 103.617 83.4566 103.124 83.8258 102.599C83.9197 102.607 84.0136 102.607 84.1086 102.593C83.987 102.963 83.8674 103.335 83.7319 103.7C83.4673 103.856 83.2058 104.013 82.9455 104.174C82.8366 104.13 82.7214 104.098 82.5923 104.083ZM75.7747 106.869C75.7907 106.864 75.8077 106.86 75.8237 106.856C75.4364 107.792 74.9615 108.717 74.4024 109.618C74.1282 109.839 73.855 110.054 73.5818 110.26C74.1634 109.041 74.9071 107.909 75.7747 106.869ZM68.097 113.037C68.0628 113.123 68.0255 113.209 67.9924 113.295C67.7854 113.363 67.5826 113.442 67.3767 113.515C67.6211 113.361 67.8665 113.205 68.097 113.037ZM62.1213 115.686C62.1939 115.606 62.2622 115.523 62.3347 115.443C62.435 115.427 62.5353 115.415 62.6367 115.396C62.6015 115.433 62.5641 115.47 62.5279 115.505C62.3934 115.566 62.2579 115.625 62.1213 115.686ZM53.4811 116.206C53.8311 116.565 54.1897 116.915 54.5557 117.258C53.7276 117.831 52.922 118.406 52.1344 118.985C51.8559 119.02 51.5764 119.047 51.2968 119.079C52.0939 118.21 52.8227 117.24 53.4811 116.206ZM49.3974 112.904C49.5916 112.679 49.8061 112.456 50.0174 112.232C50.2265 112.498 50.4399 112.759 50.6544 113.021C49.6802 114.007 48.6408 114.95 47.6751 115.758C48.1425 114.65 48.7838 113.619 49.3974 112.904ZM29.6104 106.734C29.6371 106.756 29.6627 106.78 29.6904 106.802C29.6051 106.949 29.524 107.096 29.4407 107.243C28.5113 107.709 27.9116 108.661 27.9127 110.342C27.8572 110.479 27.8006 110.614 27.7483 110.75C27.0793 110.179 26.47 109.547 25.9332 108.885C27.1956 108.636 28.4398 107.857 29.6104 106.734ZM25.4338 96.7753C25.8287 96.6005 26.1456 96.2233 26.1947 95.7662C26.5447 95.3133 26.8733 94.8978 27.155 94.5355C27.1711 94.5163 27.1881 94.495 27.2031 94.4758C27.0739 95.0938 26.9416 95.7012 26.8146 96.2798C26.7816 96.4364 26.7218 96.6666 26.6524 96.9255C26.3195 97.2239 25.9845 97.5233 25.6558 97.8217C25.4904 97.599 25.3271 97.3742 25.166 97.1493C25.2546 97.0236 25.3453 96.8978 25.4338 96.7753ZM17.2717 44.1116C17.1746 44.3887 17.0807 44.6657 16.9857 44.9428C17.0135 44.7734 17.0529 44.605 17.0839 44.4356C17.1479 44.3279 17.2055 44.2182 17.2717 44.1116ZM22.9774 41.1621C22.9923 40.5143 22.9849 39.8717 22.9625 39.2313C23.2911 40.1871 23.7052 41.1291 24.195 42.0508C23.8033 41.7418 23.3946 41.4466 22.9774 41.1621ZM23.8908 47.5833C23.4448 47.3542 22.9891 47.1379 22.5218 46.9375C22.5378 46.6743 22.557 46.4101 22.573 46.1469C22.9806 46.6147 23.4256 47.0558 23.9004 47.4746C23.8972 47.5108 23.894 47.546 23.8908 47.5833ZM22.1579 51.2904C22.2198 50.6905 22.2785 50.0916 22.3308 49.4917C22.7907 49.8902 23.2538 50.2877 23.7169 50.683C23.7137 50.8716 23.7073 51.0592 23.7062 51.2488C23.1951 51.2051 22.6786 51.2169 22.1579 51.2904ZM23.3477 56.9336C23.1823 57.1851 23.1076 57.5037 23.1737 57.8053C23.1492 57.9225 23.1247 58.0408 23.1001 58.158C22.6295 58.321 22.1739 58.499 21.7289 58.6886C21.5699 58.4201 21.4099 58.1548 21.2434 57.8916C21.3565 57.2576 21.46 56.6204 21.5582 55.9832C22.1664 55.704 22.8643 55.5846 23.5814 55.6273C23.5077 56.0652 23.4298 56.4989 23.3477 56.9336ZM24.3902 60.5832C24.4596 60.5747 24.5279 60.5662 24.5962 60.5576C24.641 60.7771 24.6869 60.9967 24.7349 61.2151C24.5311 61.3355 24.3251 61.4559 24.1235 61.5785C24.2142 61.2471 24.307 60.9167 24.3902 60.5832ZM31.4853 79.6292C31.5034 79.3873 31.5173 79.1454 31.5237 78.9004C31.7851 79.106 32.0402 79.317 32.2899 79.5344C32.308 79.7422 32.3272 79.9499 32.355 80.1609C32.0636 79.9872 31.7745 79.8072 31.4853 79.6292ZM38.5451 86.7557C38.4608 86.9188 38.3787 87.0818 38.289 87.2416C38.0905 87.1106 37.8899 86.9827 37.6946 86.8484C37.6562 86.7877 37.6135 86.7216 37.5762 86.662C37.4033 86.386 37.2465 86.1004 37.0896 85.8138C37.2091 85.7648 37.3244 85.7094 37.4439 85.6625C37.7939 86.0429 38.1631 86.4073 38.5451 86.7557ZM68.7927 102.585C68.6796 102.297 68.5558 102.015 68.4235 101.734C68.7543 101.087 69.0958 100.447 69.4383 99.8068C69.577 100.248 69.6901 100.692 69.7776 101.133C69.4522 101.619 69.1225 102.102 68.7927 102.585ZM55.5224 113.971C55.9632 114.298 56.438 114.572 56.9385 114.8C56.7741 114.962 56.6141 115.119 56.4604 115.274C56.0645 114.924 55.674 114.563 55.2952 114.182C55.372 114.114 55.4467 114.041 55.5224 113.971ZM52.652 109.899C52.7192 110.102 52.7843 110.307 52.8633 110.5C52.7523 110.648 52.6445 110.795 52.525 110.944C52.3735 110.746 52.2188 110.55 52.0672 110.353C52.2604 110.2 52.4514 110.044 52.652 109.899ZM50.4858 108.313C51.0332 108.01 51.586 107.702 52.1398 107.391C52.1409 107.417 52.143 107.443 52.1462 107.47C51.6383 107.783 51.1335 108.135 50.6352 108.508C50.585 108.443 50.5349 108.378 50.4858 108.313ZM47.8298 111.032C47.6452 110.851 47.451 110.692 47.2557 110.533C47.3102 110.375 47.3592 110.216 47.4094 110.059C47.6228 109.933 47.8352 109.807 48.0528 109.681C48.2118 109.894 48.373 110.103 48.533 110.314C48.2929 110.55 48.0561 110.785 47.8298 111.032ZM44.4973 120.474C44.5624 120.448 44.6275 120.422 44.6926 120.397C44.7011 120.442 44.7075 120.487 44.715 120.533C44.6424 120.512 44.5699 120.495 44.4973 120.474ZM29.4215 91.7746C29.7491 91.4091 30.0885 91.0532 30.4363 90.7069C30.0853 92.1209 29.5624 93.5285 28.967 94.8999C28.9616 94.9031 28.9563 94.9084 28.951 94.9116C29.1473 93.8343 29.3042 92.7741 29.4215 91.7746ZM15.718 56.2623C15.1354 58.1154 14.5602 59.9694 14.0427 61.8342C14.3682 59.7862 14.8548 57.769 15.3456 55.8883C15.4705 56.0045 15.5942 56.1302 15.718 56.2623ZM18.3388 52.9772C18.6568 51.9361 18.9673 50.8919 19.2629 49.8455C19.2917 49.9328 19.3152 50.0234 19.3472 50.1097C19.3547 50.13 19.3675 50.1428 19.376 50.1619C19.2768 50.9217 19.1828 51.6836 19.0996 52.4455C18.8457 52.6064 18.5917 52.7822 18.3388 52.9772ZM30.6935 86.8325C30.3744 87.0179 30.0362 87.215 29.6894 87.4239C29.6798 86.8335 29.6446 86.3423 29.5763 86.0056C29.5699 85.9704 29.5539 85.9385 29.5421 85.9054C29.6883 85.5474 29.8174 85.1904 29.9359 84.8324C29.9423 84.8217 29.9497 84.8121 29.9561 84.8015C30.0063 84.7205 30.05 84.6353 30.0949 84.5511C30.6604 85.1116 31.2505 85.6507 31.862 86.1697C31.4703 86.3871 31.0809 86.6087 30.6935 86.8325ZM52.3329 101.438C52.5154 101.008 52.6712 100.573 52.7875 100.135C53.1781 100.155 53.5686 100.171 53.9613 100.18C53.4053 100.582 52.8633 101.001 52.3329 101.438ZM34.265 94.8498C33.9086 95.8887 33.4402 96.9213 32.9525 97.8867C32.6484 98.0529 32.3486 98.2341 32.0508 98.4227C31.8267 98.3459 31.5963 98.2799 31.3636 98.217C31.5888 97.68 31.8097 97.1461 32.0135 96.6123C32.7829 96.0528 33.5351 95.4678 34.265 94.8498ZM34.3109 89.0478C34.4251 89.3717 34.5542 89.6967 34.6919 90.0196C34.423 90.3083 34.1541 90.5982 33.8809 90.8827C34.0559 90.2146 34.1989 89.6008 34.3109 89.0478ZM43.4356 106.083C43.9254 105.927 44.3991 105.718 44.8473 105.45C44.8751 105.487 44.9039 105.524 44.9316 105.56C44.4984 105.769 44.0673 106.024 43.6415 106.317C43.5754 106.238 43.5039 106.162 43.4356 106.083ZM37.1131 93.8972C36.8314 94.0954 36.5571 94.3149 36.2893 94.5493C36.4099 94.106 36.5112 93.6756 36.5945 93.2632C36.762 93.4795 36.9338 93.6937 37.1131 93.8972ZM42.5243 102.334C42.2084 102.626 41.8915 102.915 41.5724 103.202C41.2833 103.182 40.9962 103.141 40.7156 103.076C40.8639 102.253 40.9375 101.436 40.9204 100.631C40.9108 100.196 40.611 99.7024 40.1489 99.6193C39.5108 99.5053 38.862 99.5213 38.2154 99.631C38.7137 99.1654 39.2377 98.7114 39.7733 98.2767C40.6323 99.6651 41.5628 101.011 42.5243 102.334ZM44.5144 100.366C44.3415 100.115 44.1623 99.8676 43.9926 99.6161C44.302 99.7291 44.6275 99.8143 44.9636 99.8814C44.8174 100.043 44.6649 100.204 44.5144 100.366ZM38.782 101.786C38.67 101.734 38.5494 101.706 38.4277 101.683C38.6849 101.57 38.83 101.432 38.893 101.346C38.862 101.422 38.8215 101.563 38.782 101.786ZM48.6504 103.443C48.1884 103.665 47.737 103.921 47.3006 104.191C47.1661 104.013 47.0263 103.839 46.8919 103.661C47.1074 103.394 47.307 103.11 47.4884 102.815C48.4434 102.161 49.4134 101.527 50.393 100.921C49.948 101.746 49.3483 102.598 48.6504 103.443ZM61.4907 99.9709C61.5984 99.9592 61.7051 99.956 61.8129 99.9528C61.8727 99.9496 61.9324 99.9464 61.9922 99.9454C62.1309 99.9475 62.2696 99.955 62.4073 99.9688C62.4308 99.972 62.4532 99.9731 62.4756 99.9773C62.6303 99.9944 62.785 100.021 62.9387 100.056C63.0721 100.088 63.2044 100.115 63.3367 100.161C63.5203 100.225 63.6963 100.313 63.8692 100.412C63.9663 100.467 64.0613 100.531 64.1541 100.596C64.3099 100.707 64.4593 100.826 64.6001 100.959C64.6001 100.958 64.6012 100.957 64.6023 100.954C64.8082 101.148 64.9907 101.366 65.154 101.599C65.1721 102.49 65.1956 103.377 65.1838 104.247C65.155 106.543 64.1328 108.432 62.8427 110.189C62.2003 110.407 61.528 110.508 60.8931 110.458C60.8664 110.456 60.8419 110.447 60.8152 110.443C60.4791 110.588 60.1291 110.667 59.7737 110.67C59.6873 111 59.6073 111.328 59.5283 111.657C59.1367 111.565 58.7568 111.449 58.3961 111.304C58.649 111.065 58.9104 110.832 59.1633 110.591C59.078 110.569 58.9926 110.556 58.9062 110.523C57.9287 110.152 57.4016 109.298 57.0975 108.355C57.043 108.188 56.9993 108.016 56.9577 107.846C56.8937 107.583 56.8371 107.319 56.7987 107.061C56.7944 107.036 56.7955 107.01 56.7923 106.983C56.6898 106.741 56.6013 106.486 56.5436 106.205C56.5042 106.008 56.4914 105.811 56.4818 105.615C56.4786 105.53 56.4764 105.445 56.4775 105.36C56.4796 105.188 56.4839 105.015 56.5052 104.845C56.4273 104.915 56.3537 104.982 56.2769 105.052C56.2619 105.021 56.2438 104.992 56.2267 104.961C56.3228 104.899 56.4209 104.84 56.5159 104.779C56.6834 103.603 57.3066 102.481 58.1902 101.613C58.1614 101.551 58.1528 101.484 58.1368 101.418C58.8037 100.934 59.4824 100.466 60.1451 99.9784C60.4204 99.9997 60.6957 100.016 60.9678 100.055C61.1407 100.017 61.3157 99.9912 61.4907 99.9709ZM24.5588 90.1986C24.8149 89.9439 25.0689 89.6871 25.3335 89.4527C25.2876 89.5316 25.2364 89.6168 25.1927 89.6935C25.0305 89.977 24.8565 90.2679 24.6879 90.5545C24.6453 90.4362 24.6026 90.3179 24.5588 90.1986ZM23.1439 86.3146C23.1727 86.093 23.1994 85.8713 23.2228 85.6497C23.5451 86.1079 23.8439 86.5256 24.1085 86.8964C23.9442 87.1447 23.782 87.393 23.623 87.6444C23.4608 87.2022 23.3007 86.7589 23.1439 86.3146ZM19.0932 79.6942C19.1455 79.6495 19.201 79.61 19.2543 79.5663C19.3269 79.691 19.3995 79.8157 19.4731 79.9393C19.4944 80.1087 19.5179 80.2781 19.5446 80.4497C19.4912 80.7097 19.4518 80.9644 19.392 81.2276C19.2639 81.3192 19.1423 81.4194 19.0185 81.5174C19.0068 80.9047 19.0292 80.2941 19.0932 79.6942ZM20.4644 70.0423C20.3887 69.8963 20.3214 69.7482 20.2531 69.6011C20.299 69.6171 20.3449 69.632 20.394 69.6406C20.4185 69.7748 20.4356 69.9091 20.4644 70.0423ZM14.064 69.2005C14.1302 69.2857 14.2006 69.3774 14.2636 69.4605C14.3959 69.631 14.54 69.8015 14.6744 69.9719C14.5314 70.3364 14.3916 70.7008 14.2422 71.0631C14.1334 70.6784 14.0427 70.2884 13.9659 69.8942C13.9957 69.6619 14.031 69.4306 14.064 69.2005ZM23.0766 79.1209C23.7425 80.2099 24.2046 81.4247 24.498 82.6874C24.1789 82.2228 23.9132 81.7071 23.687 81.1679C23.6892 81.1562 23.6924 81.1413 23.6945 81.1295C23.7606 80.7438 23.6123 80.3048 23.2997 80.0831C23.209 79.7656 23.1332 79.4438 23.0766 79.1209ZM15.8557 61.1064C16.0926 61.9717 16.433 62.8316 16.8481 63.6691C16.5888 64.5258 16.3156 65.3793 16.0307 66.2297C15.6561 65.6564 15.2976 65.0789 14.9636 64.4992C15.2346 63.3633 15.5377 62.2338 15.8557 61.1064ZM15.6753 77.9573C15.5601 77.2668 15.431 76.5796 15.2901 75.8933C15.5388 75.872 15.7682 75.7516 15.8941 75.4809C15.9464 75.368 15.9923 75.2551 16.0424 75.1432C16.3433 75.2178 16.6443 75.2817 16.9473 75.3339C16.6816 75.9583 16.4639 76.6083 16.2814 77.2647C16.0712 77.4885 15.8674 77.7187 15.6753 77.9573ZM19.9138 86.9252C19.854 86.7366 19.7975 86.5437 19.7431 86.3466C19.9351 85.8543 20.1155 85.3545 20.2809 84.8537C20.3428 84.7589 20.4111 84.68 20.474 84.5884C20.522 84.761 20.5722 84.9336 20.6223 85.1062C20.3993 85.7179 20.1603 86.3242 19.9138 86.9252ZM33.8286 110.524C34.106 110.64 34.3685 110.764 34.6172 110.885C34.4347 111.141 34.248 111.394 34.0591 111.645C33.9769 111.269 33.899 110.894 33.8286 110.524ZM50.2671 106.15C50.7462 105.638 51.2626 105.13 51.793 104.626C51.9616 104.629 52.1248 104.654 52.2892 104.678C52.2636 104.811 52.2358 104.942 52.2155 105.075C51.5646 105.442 50.9126 105.8 50.2671 106.15ZM18.6909 45.0515C18.6824 45.3306 18.6792 45.6088 18.6803 45.8847C18.1638 48.1853 17.5139 50.4582 16.8214 52.7225C16.6528 52.5957 16.4821 52.4796 16.3135 52.3719C17.0305 49.9051 17.8469 47.4746 18.6909 45.0515ZM13.7546 55.2586C13.729 55.3555 13.6991 55.4514 13.6746 55.5495C13.3502 56.8122 13.0268 58.1558 12.7494 59.5379C12.3844 58.1676 12.2415 55.8809 13.7546 55.2586ZM59.2647 116.966C59.1367 117.023 59.0097 117.081 58.8806 117.139C58.8069 117.091 58.7365 117.037 58.6639 116.988C58.6789 116.979 58.6928 116.968 58.7077 116.956C58.8091 116.888 58.9126 116.819 59.014 116.749C59.0876 116.83 59.1708 116.905 59.2647 116.966ZM25.6857 68.7668C25.929 69.1131 26.1605 69.4722 26.3707 69.8505C25.8948 70.0316 25.4125 70.1947 24.9302 70.3577C24.864 70.3438 24.8043 70.3204 24.736 70.3087C25.2492 69.9815 25.6142 69.4392 25.5822 68.7647C25.6163 68.7657 25.6515 68.7647 25.6857 68.7668ZM14.6968 50.2728C14.7833 50.4624 14.9177 50.5978 15.0767 50.6958C14.9764 51.0165 14.8772 51.3362 14.7811 51.6569C14.6008 51.6058 14.4204 51.5653 14.2412 51.5397C14.3927 51.1167 14.5453 50.6958 14.6968 50.2728ZM82.5891 84.1813C83.9496 86.3839 84.8011 88.7079 85.197 91.0862C85.0028 90.6163 84.7851 90.1507 84.5194 89.6967C83.6743 88.2561 82.906 86.7462 82.1302 85.2384C82.2807 84.8857 82.4247 84.5298 82.5891 84.1813ZM24.3945 30.0919C24.5588 31.0968 24.7797 32.0845 25.0443 33.0563C24.9835 34.5865 25.0508 36.1412 25.2194 37.6948C24.5876 35.7245 24.2739 33.685 24.4233 31.5006C24.4446 31.1895 24.307 30.9923 24.1117 30.8879C24.2046 30.6215 24.2974 30.3562 24.3945 30.0919ZM21.9114 25.8755C22.6733 24.3059 23.5003 22.7672 24.403 21.2647C24.8491 20.8161 25.3004 20.3761 25.7572 19.9402C25.9204 19.7857 26.1178 19.6014 26.3281 19.4149C25.1233 21.1561 24.0082 22.9569 22.9625 24.7588C22.6103 25.1242 22.2593 25.4972 21.9114 25.8755ZM4.56164 71.3487C4.65341 71.3263 4.74305 71.2901 4.82308 71.2378C4.82948 71.4392 4.84229 71.6406 4.85616 71.8431C4.49442 72.9001 4.17322 73.9614 3.90432 75.0217C3.89045 74.9066 3.87551 74.7926 3.8627 74.6764C4.00996 73.5714 4.24259 72.4473 4.56164 71.3487ZM9.64951 80.8376C9.6367 80.7481 9.62923 80.6554 9.61643 80.5648C9.87893 80.1886 10.1457 79.8232 10.4167 79.4672C10.4754 79.5642 10.5331 79.6612 10.5917 79.7571C10.4733 80.4774 10.3004 81.1828 10.0774 81.8712C9.93122 81.527 9.78823 81.1817 9.64951 80.8376ZM8.33272 89.3813C8.14598 89.5422 7.95818 89.6957 7.76824 89.847C7.66259 89.6051 7.55909 89.3621 7.45771 89.1171C7.78531 88.7569 8.10437 88.3903 8.40742 88.011C8.35833 88.4681 8.33699 88.9242 8.33272 89.3813ZM10.2641 94.7742C10.2748 94.3554 10.309 93.959 10.3559 93.6351C10.3613 93.6297 10.3677 93.6276 10.3741 93.6223C10.4221 93.5807 10.4658 93.537 10.5128 93.4955C10.7966 94.1007 11.0997 94.6953 11.4219 95.2782C11.3259 95.5989 11.2448 95.9207 11.1584 96.2446C10.851 95.7609 10.5544 95.2707 10.2641 94.7742ZM81.1805 83.4216C81.2403 83.153 81.2243 82.9112 81.1528 82.7002C81.2211 82.5872 81.2798 82.4711 81.347 82.356C81.4388 82.4775 81.5241 82.6075 81.6159 82.7311C81.4878 82.9826 81.3619 83.2489 81.236 83.5271C81.2168 83.4919 81.1997 83.4557 81.1805 83.4216ZM73.9179 87.5176C74.0737 86.9902 74.1303 86.4382 74.1057 85.8724C74.4184 85.5122 74.7289 85.151 75.0426 84.793C75.223 85.0199 75.4033 85.2469 75.5847 85.4739C75.0064 86.1302 74.4547 86.8175 73.9179 87.5176ZM74.1282 91.8257C74.3181 91.5423 74.5134 91.262 74.7076 90.9829C75.3425 90.3062 75.9657 89.6147 76.5739 88.9103C76.0681 90.1911 75.5015 91.4528 74.9039 92.7048C74.3821 92.8774 73.8635 93.0671 73.3481 93.2717C73.6149 92.7943 73.8763 92.3138 74.1282 91.8257ZM69.3754 77.2903C69.8481 77.6195 70.3016 77.9712 70.7209 78.3644C70.8309 78.5871 70.9514 78.8013 71.0677 79.0186C71.0581 79.0815 71.0528 79.1412 71.0411 79.2051C70.5182 78.5413 69.9558 77.8987 69.3754 77.2903ZM69.6933 84.9155C70.1276 84.7408 70.5427 84.5298 70.9226 84.2623C71.0389 84.6076 71.1243 84.9496 71.1745 85.2895C70.7092 85.8223 70.2376 86.3487 69.7755 86.8857C69.6357 86.9198 69.5002 86.9635 69.3657 87.0126C69.5333 86.2858 69.6379 85.5794 69.6933 84.9155ZM66.809 85.297C66.7813 85.5708 66.7471 85.8489 66.697 86.1303C66.6489 86.4116 66.5871 86.6844 66.5188 86.9497C66.459 86.9454 66.3993 86.939 66.3395 86.9348C65.6245 86.3285 64.9662 85.6571 64.471 85.0988C64.678 85.0423 64.8776 84.9677 65.075 84.8878C65.2063 84.9347 65.329 84.9922 65.4645 85.0349C65.9265 85.1755 66.3715 85.2501 66.809 85.297ZM65.0206 81.4684C64.773 81.2936 64.5415 81.0986 64.3291 80.8855C64.1488 79.9244 63.6867 79.106 63.0315 78.4187C63.0081 78.2386 63.0027 78.0554 63.0081 77.8689C64.0282 78.2781 64.8584 78.9121 65.4805 79.7251C65.4421 80.3399 65.2841 80.942 65.0206 81.4684ZM68.161 73.6833C68.6145 73.9369 69.0382 74.2353 69.4138 74.5763C68.9837 74.3323 68.5356 74.1042 68.0554 73.9039C67.4365 73.646 66.7855 74.1543 66.6084 74.7404C65.6459 73.9614 64.7303 73.3328 63.9663 72.9161C63.7956 72.8223 63.6078 72.7765 63.4178 72.752C63.5117 72.7382 63.6046 72.7243 63.6963 72.7169C63.8052 72.7073 63.9161 72.7105 64.0261 72.7051C65.4463 72.9694 66.825 73.2923 68.161 73.6833ZM53.6316 78.1395C54.1523 78.0777 54.6442 78.0532 55.0817 78.0703C55.0839 78.0703 55.0849 78.0714 55.086 78.0714C55.0636 79.0336 55.2461 79.9872 55.6665 80.8866C55.5641 80.8663 55.4638 80.844 55.3592 80.828C54.942 79.8892 54.4202 79.025 53.7874 78.2972C53.7361 78.2397 53.6839 78.196 53.6316 78.1395ZM48.2577 73.7931C48.7262 73.9668 49.1914 74.1447 49.6588 74.3227C49.5233 74.5145 49.3942 74.7212 49.2704 74.9471C48.946 74.5486 48.6077 74.1639 48.2577 73.7931ZM45.3819 76.2961C45.9422 76.6488 46.5152 76.9578 47.0967 77.2221C46.9751 77.302 46.8534 77.3819 46.7339 77.4661C46.3615 77.0846 45.9315 76.7351 45.4566 76.4421C45.4321 76.3931 45.4065 76.3451 45.3819 76.2961ZM29.683 20.3025C29.1164 20.9429 28.6031 21.6196 28.1474 22.3282C28.7183 21.3905 29.318 20.472 29.9476 19.5758C29.8601 19.8177 29.7694 20.0585 29.683 20.3025ZM34.9907 13.8899C34.8103 14.1467 34.6535 14.4206 34.4806 14.6838C34.63 14.427 34.789 14.1734 34.949 13.9198C34.964 13.9102 34.9768 13.9006 34.9907 13.8899ZM9.45423 43.1782C9.65057 42.5293 9.86719 41.891 10.1009 41.2655C9.95683 41.7855 9.82024 42.3087 9.69219 42.8351C9.61323 42.9512 9.53213 43.0589 9.45423 43.1782ZM33.1414 123.614C33.2641 123.629 33.389 123.637 33.5138 123.645C34.8423 124.215 36.2082 124.662 37.5922 124.926C38.6486 125.621 39.7467 126.245 40.8767 126.728C38.2325 125.839 35.6458 124.804 33.1414 123.614ZM117.966 40.1498C107.211 20.1693 87.344 0.951791 63.3175 0.669415C58.6618 0.614005 53.9869 1.42384 49.5446 2.94121C31.3818 5.90349 17.3507 19.5449 9.07115 36.7539C6.27111 41.4456 4.43786 47.107 3.13495 51.4779C1.66771 56.4009 0.957029 61.831 0.896205 67.307C0.00625569 79.1167 1.68478 90.7911 6.33514 100.62C10.4797 109.38 17.2632 116.207 25.3453 121.267C25.3517 121.276 25.3581 121.282 25.3634 121.29C25.3751 121.293 25.3869 121.297 25.3976 121.302C29.6851 123.98 34.3397 126.159 39.1598 127.87C40.9717 129.109 42.8316 130.278 44.8527 130.982C47.5876 131.936 49.9395 131.906 52.4887 131.386C52.5485 131.389 52.6082 131.398 52.668 131.401C55.7412 131.936 58.808 132.305 61.8204 132.5C83.7458 133.917 107.754 126.383 120.502 107.562C134.191 87.3514 128.811 60.2998 117.966 40.1498Z" fill="black"/>
<path fill-rule="evenodd" clip-rule="evenodd" d="M68.1781 24.7424C67.4863 24.5935 66.7273 24.6541 65.9102 25.0159C65.8906 25.0244 65.8709 25.0372 65.8512 25.0467C63.6776 25.8574 62.2009 28.0427 62.0187 30.4716C61.795 33.4187 63.6569 35.5859 66.2882 36.42C68.2226 37.0339 70.1508 36.4987 71.3851 34.8539C72.1473 33.8358 72.3213 32.5112 72.2633 31.2398C72.4435 30.7674 72.5833 30.2759 72.6402 29.7599C72.9436 27.0469 70.6344 25.0042 68.1781 24.7424Z" fill="black"/>
<path fill-rule="evenodd" clip-rule="evenodd" d="M28.8692 140.557C29.8852 136.126 28.8398 131.786 25.8572 128.344C27.0932 128.529 28.3305 128.713 29.5665 128.897C28.8465 133.114 29.8158 137.128 32.4438 140.512C31.2105 140.406 29.9772 140.3 28.7438 140.194C27.6438 138.168 26.4212 136.232 25.0278 134.394C24.8451 134.154 22.8878 131.825 22.9052 131.804C23.4105 131.877 23.9172 131.95 24.4225 132.024C24.0798 132.526 23.9678 133.078 24.0852 133.681C24.6145 136.602 29.6705 138.306 31.4865 140.518C30.3012 140.496 29.1145 140.472 27.9292 140.448C26.2052 137.82 24.2598 135.408 22.0558 133.168C23.2412 133.19 24.4265 133.214 25.6132 133.237C27.2025 135.408 28.7918 137.578 30.3825 139.749C31.4158 141.161 27.8372 140.348 27.4398 140.157C25.6905 139.316 21.4145 136.32 19.7625 137.22C17.6172 138.389 22.0092 138.837 22.7225 138.924C24.3932 139.128 26.0652 139.29 27.7425 139.425C27.9318 140.018 28.1212 140.613 28.3105 141.206C24.7852 140.253 21.3065 139.166 17.8598 137.961C18.3425 137.528 18.8252 137.096 19.3078 136.664C22.5292 138.062 25.7812 139.376 29.0718 140.602C30.7425 141.225 30.3812 142.438 28.6505 142.174C26.2705 141.813 24.1172 142.362 22.0932 143.616C21.5652 143.106 21.0358 142.596 20.5078 142.085C23.1932 142.764 25.4758 142.189 27.9532 141.124C29.1718 140.601 29.7678 140.556 31.0852 140.857C31.7172 141.002 32.7838 141.425 32.7985 142.19C32.8052 142.546 32.7345 142.608 32.4372 142.802C31.4332 143.465 29.6238 142.86 28.8545 142.053C28.8118 142.006 28.7705 141.962 28.7278 141.918C27.7318 140.873 31.5172 141.184 32.2838 141.989C32.3265 142.033 32.3692 142.078 32.4118 142.122C31.2172 141.872 30.0225 141.621 28.8278 141.372C28.8638 141.298 28.8998 141.226 28.9345 141.156C29.5052 141.6 30.0772 142.044 30.6478 142.489C30.4958 142.453 30.3438 142.418 30.1918 142.384C30.7825 142.397 31.3758 142.412 31.9678 142.426C27.8825 144.118 24.4612 144.826 20.0705 143.717C19.9025 143.673 17.6078 142.728 18.4838 142.185C21.4638 140.337 24.5945 139.802 28.0452 140.328C27.9052 140.85 27.7638 141.376 27.6238 141.9C24.3332 140.673 21.0798 139.361 17.8598 137.961C15.3318 136.861 17.6878 136.097 19.3078 136.664C22.4198 137.75 25.5652 138.714 28.7478 139.574C29.8065 139.861 31.4732 141.528 29.3145 141.356C26.6105 141.14 14.4172 141.398 15.1611 136.204C15.9212 130.896 27.9518 138.397 29.7678 139.272C28.7865 139.406 27.8065 139.542 26.8252 139.678C25.2358 137.508 23.6452 135.337 22.0558 133.168C21.0612 131.809 24.9692 132.582 25.6132 133.237C27.8172 135.478 29.7625 137.89 31.4865 140.518C32.3972 141.908 28.5652 141.222 27.9292 140.448C26.8452 139.126 15.9758 132.621 21.4518 130.198C26.2958 128.056 30.9665 137.773 32.5865 140.76C33.1358 141.773 29.4038 141.109 28.8865 140.442C26.0465 136.782 24.9225 132.433 25.7025 127.862C25.9185 126.602 28.9878 127.925 29.4132 128.416C32.6052 132.098 33.8238 136.836 32.7332 141.592C32.4745 142.724 28.5958 141.752 28.8692 140.557Z" fill="#EB9078"/>
<path fill-rule="evenodd" clip-rule="evenodd" d="M31.0956 141.318C32.2743 141.48 32.757 141.569 33.6663 142.438C34.2116 142.961 34.329 143.782 34.8303 144.284C36.893 146.346 39.9503 145.594 42.537 145.306C46.873 144.824 51.0183 142.737 54.965 145.37C56.053 146.097 54.4596 146.724 53.6943 146.213C51.0556 144.452 46.9183 146.194 44.0663 146.576C41.7996 146.88 39.2943 147.129 36.9943 146.884C36.169 146.794 35.3556 146.742 34.6143 146.31C33.4063 145.606 32.3863 142.84 31.2796 142.688C30.2316 142.545 29.7796 141.137 31.0956 141.318Z" fill="#304227"/>
</svg>
