<svg width="151" height="287" viewBox="0 0 151 287" fill="none" xmlns="http://www.w3.org/2000/svg">
<path fill-rule="evenodd" clip-rule="evenodd" d="M131.591 99.0387C131.073 102.752 130.201 106.403 129.109 109.988C126.899 117.261 123.858 124.265 120.973 131.296C117.969 138.581 115.018 145.881 112.106 153.193C100.523 182.291 89.5514 211.631 79.1914 241.176C79.0741 241.767 78.8661 242.345 78.5541 242.912C77.8514 244.157 75.6941 243.323 76.1754 241.935C76.3434 241.433 76.5381 240.932 76.7074 240.417C77.1487 237.693 74.5501 234.623 71.6247 235.303C68.1541 236.125 65.9954 239.571 62.4474 240.417C61.4981 240.636 60.6274 239.801 60.8621 238.851C61.8221 234.853 62.5767 228.004 56.4794 228.144C51.1114 228.273 47.5887 233.427 43.2727 235.908C42.5714 236.317 41.5701 235.932 41.3741 235.124C40.7634 232.488 41.2701 229.828 40.8421 227.193C40.5167 225.228 39.2567 222.799 36.8647 223.209C35.0567 223.519 33.5487 225.099 32.1714 226.179C30.7141 227.321 29.2061 228.376 27.3861 228.891C26.7101 229.071 25.9567 228.645 25.7874 227.977C25.1501 225.484 25.3594 222.94 24.9687 220.42C24.6701 218.493 23.6434 215.884 21.4207 215.512C19.1327 215.127 16.1541 217.491 14.3621 218.712C12.3074 220.1 10.4234 221.705 8.66741 223.428C7.81008 224.263 6.02874 223.428 6.49674 222.193C10.5141 211.605 14.5434 201.027 18.5594 190.439C32.9887 152.488 47.4194 114.537 61.8487 76.6C62.0047 76.1627 62.3434 75.9187 62.7061 75.8027C64.0074 73.888 66.7754 73.2067 69.0901 73.644C70.8834 73.9907 72.5607 74.852 74.2114 75.572C76.2781 76.484 78.3594 77.3573 80.4381 78.2187C88.4847 81.5347 96.6754 84.516 104.97 87.1507C112.405 89.516 119.931 91.5973 127.51 93.4227C128.837 93.744 130.318 94.0653 131.15 95.2347C131.97 96.3787 131.761 97.7267 131.591 99.0387Z" fill="#EFEBE4"/>
<path fill-rule="evenodd" clip-rule="evenodd" d="M12.9341 273.975C15.1501 271.457 17.1541 269.179 19.1581 266.901C17.4701 267.135 16.1421 267.769 14.8274 268.432C11.7488 269.985 11.7514 269.992 12.9341 273.975ZM37.1381 273.24C33.5234 276.528 29.9901 279.744 26.4568 282.959C28.4328 283.633 29.8954 283.575 31.1674 282.151C32.9341 280.173 34.8021 278.267 36.7661 276.481C38.0381 275.325 38.0514 274.315 37.1381 273.24ZM15.0434 280.857C20.2488 275.509 25.4101 270.207 30.5728 264.905C30.4528 264.636 30.3328 264.368 30.2128 264.099C28.8154 264.271 26.8928 263.924 26.1101 264.701C21.9621 268.825 18.0688 273.204 14.1581 277.557C13.0354 278.807 13.4488 279.94 15.0434 280.857ZM18.1008 282.235C20.1314 282.753 21.4768 283.869 23.0674 282.181C26.5994 278.432 30.2968 274.836 33.9168 271.169C35.9914 269.067 35.9274 268.619 33.2768 266.707C28.3341 271.764 23.3781 276.835 18.1008 282.235ZM144.606 22.552C127.509 9.50533 108.538 2.19467 86.5488 4.14267C105.126 12.6587 124.33 19.248 144.606 22.552ZM67.7941 45.188C67.5154 45.9107 67.2781 46.8227 66.8328 47.6213C65.7661 49.532 66.2768 50.7987 68.2475 51.648C74.4381 54.3227 80.4661 57.4813 86.8475 59.5893C95.3435 62.396 104.081 64.524 112.779 66.6867C118.039 67.9933 123.417 68.8547 128.761 69.7973C129.514 69.9293 130.846 69.6213 131.121 69.1053C131.931 67.5867 132.346 65.8627 132.947 64.124C109.887 61.8813 88.9568 53.78 67.7941 45.188ZM59.4408 68.1853C64.2728 70.236 68.8634 72.2453 73.5008 74.1387C89.0528 80.4907 105.074 85.268 121.673 88.1133C123.501 88.4267 124.525 88.1667 125.134 86.1813C126.298 82.3867 127.785 78.6893 129.118 74.944C129.313 74.396 129.402 73.812 129.437 73.6653C118.299 71.032 107.313 68.624 96.4368 65.8093C85.4714 62.972 74.7261 59.4453 64.8488 53.248C63.0434 58.2307 61.3261 62.976 59.4408 68.1853ZM109.811 89.068C92.8674 136.02 75.9741 182.843 58.9514 230.015C61.3461 229.063 63.2434 228.103 65.2568 227.575C66.8021 227.168 68.5341 227.039 70.1061 227.281C71.4474 227.487 72.6781 228.399 73.5954 228.828C89.7408 184.089 106.397 137.932 123.125 91.5787C118.559 90.7173 114.265 89.908 109.811 89.068ZM58.3941 71.088C41.4421 118.071 24.6074 164.723 7.68878 211.613C10.0728 210.276 11.9448 208.932 14.0301 208.124C17.5754 206.748 20.0608 208.296 20.7714 211.985C20.9034 212.668 21.0168 213.355 21.1381 214.037C21.7781 213.58 22.0168 213.177 22.1448 212.743C23.2114 209.101 24.0608 205.384 25.3421 201.82C40.0688 160.853 54.8608 119.909 69.6328 78.9587C69.9168 78.172 70.1808 77.3813 70.4834 76.5053C66.4274 74.688 62.5754 72.9613 58.3941 71.088ZM81.9901 5.85467C81.7834 6.39067 81.4928 7.10667 81.2301 7.83333C77.8114 17.2893 74.3874 26.7427 70.9794 36.2027C68.8128 42.224 68.7154 42.5133 74.8688 44.7467C86.2448 48.8747 97.6528 52.9733 109.25 56.4173C116.297 58.5093 123.722 59.3493 130.977 60.7573C133.231 61.1947 134.455 60.508 135.265 58.144C138.681 48.1933 142.342 38.3253 145.911 28.4267C146.193 27.6493 146.457 26.8653 146.642 26.3373C123.971 22.712 102.782 15.3587 81.9901 5.85467ZM40.4501 272.581C41.0554 272.065 41.4301 271.791 41.7528 271.465C49.8288 263.263 57.8861 255.043 65.9835 246.86C67.8568 244.968 68.6514 242.667 68.9274 240.144C69.1821 237.823 69.3768 235.489 69.4768 233.157C69.6088 229.988 68.8648 229.276 65.9435 230.669C62.3714 232.372 59.1261 234.732 55.6834 236.713C54.8848 237.173 53.8634 237.251 52.9435 237.504C52.6781 236.527 52.0834 235.504 52.2141 234.581C52.5088 232.511 53.2794 230.509 53.6314 228.441C53.8688 227.04 53.7261 225.576 53.7541 224.139C52.1661 224.267 50.2821 223.899 49.0474 224.619C45.4808 226.7 42.2168 229.281 38.7461 231.531C37.7221 232.195 36.4035 232.413 35.2181 232.837C34.8341 231.583 34.0941 230.319 34.1381 229.08C34.2354 226.368 34.9088 223.677 35.0168 220.965C35.1554 217.437 33.8474 216.613 30.4914 217.844C26.6021 219.268 23.6794 221.923 21.0181 224.987C20.3208 225.789 19.0061 226.068 17.9768 226.585C17.6754 225.471 17.2901 224.369 17.1101 223.237C17.0181 222.655 17.3421 222.02 17.3888 221.401C17.5701 218.999 17.9181 216.585 17.8288 214.191C17.6954 210.573 16.5514 210 13.4461 211.789C9.72478 213.933 6.94078 216.973 5.32745 220.921C4.85412 222.083 4.69278 223.523 4.87145 224.765C6.18478 233.86 7.59278 242.943 9.03145 252.02C9.78078 256.757 10.6474 261.479 11.5048 266.447C12.5048 265.997 13.1914 265.66 13.8994 265.373C17.1701 264.045 20.3621 262.428 23.7434 261.476C30.0608 259.699 35.4141 262.124 38.4528 267.797C39.2194 269.229 39.7168 270.803 40.4501 272.581ZM38.5581 220.043C55.1341 174.109 71.5581 128.595 88.0288 82.956C83.1195 81.2173 78.4101 79.5507 73.5115 77.816C73.1061 78.8787 72.7368 79.8067 72.3968 80.7467C64.3488 103.043 56.2434 125.317 48.2754 147.64C40.0341 170.735 31.9248 193.876 23.7714 217.001C23.7128 217.169 23.8488 217.405 23.9048 217.657C25.4261 216.857 26.8421 216.012 28.3394 215.345C33.8288 212.899 36.4608 214.012 38.5581 220.043ZM91.0154 83.884C73.8728 131.385 56.8088 178.676 39.5341 226.544C40.7181 225.745 41.3634 225.211 42.0914 224.839C44.6648 223.523 47.1608 221.949 49.8821 221.056C53.6928 219.804 55.4794 220.685 57.6901 224.181C74.0515 178.843 90.3488 133.68 106.694 88.3853C101.415 86.8707 96.3701 85.4213 91.0154 83.884ZM140.766 15.6147C143.445 17.3853 146.089 19.2413 148.55 21.2907C150.049 22.5373 150.834 24.0093 149.973 26.3867C131.114 78.4667 112.378 130.588 93.6115 182.699C86.8981 201.343 80.1554 219.976 73.4488 238.623C72.6235 240.917 72.2488 243.433 71.0835 245.531C69.9381 247.588 68.1594 249.349 66.4728 251.057C55.1821 262.483 43.8701 273.887 32.4648 285.197C31.5874 286.069 29.8981 286.651 28.6488 286.555C24.5208 286.237 20.3688 285.783 16.3234 284.928C12.4754 284.116 10.5381 281.469 9.95012 277.485C7.68345 262.148 5.24745 246.836 2.77811 231.528C2.29011 228.504 1.29678 225.561 0.710115 222.548C0.546115 221.705 0.878115 220.703 1.19011 219.848C6.53012 205.193 11.9501 190.568 17.2568 175.903C29.7048 141.5 42.1021 107.079 54.5194 72.6653C62.8048 49.7067 71.0994 26.7507 79.3448 3.776C79.8821 2.27733 80.6301 1.41467 82.2941 1.248C85.8128 0.894667 89.3168 0.422667 92.8274 0C110.405 0.589333 126.271 6.032 140.766 15.6147Z" fill="#1A1919"/>
<path fill-rule="evenodd" clip-rule="evenodd" d="M86.6328 114.987C85.9462 113.961 84.8608 113 84.6702 111.891C84.4208 110.429 85.5662 109.46 87.1128 109.367C88.5328 109.283 90.2742 110.948 89.8555 112.204C89.5048 113.252 88.4462 114.071 87.7008 114.989C87.3448 114.989 86.9888 114.988 86.6328 114.987Z" fill="#1A1919"/>
<path fill-rule="evenodd" clip-rule="evenodd" d="M89.15 123.785C88.126 122.455 87.062 121.563 87.2233 121.188C87.6887 120.116 88.6487 119.252 89.4153 118.305C90.038 118.967 91.2353 119.699 91.162 120.272C91.0313 121.28 90.1247 122.189 89.15 123.785Z" fill="#1A1919"/>
<path fill-rule="evenodd" clip-rule="evenodd" d="M97.6169 113.421C96.2915 114.219 95.4715 115.095 94.9155 114.955C94.1755 114.767 93.6422 113.787 93.0195 113.145C93.6409 112.595 94.2715 111.593 94.8795 111.607C95.6089 111.623 96.3182 112.505 97.6169 113.421Z" fill="#1A1919"/>
<path fill-rule="evenodd" clip-rule="evenodd" d="M13.518 237.351C11.9434 237.151 10.7847 236.471 10.8527 234.727C10.918 233.068 11.7887 231.855 13.55 231.773C15.3394 231.692 16.3487 232.791 16.3447 234.517C16.3407 236.253 15.246 237.153 13.518 237.351Z" fill="#1A1919"/>
<path fill-rule="evenodd" clip-rule="evenodd" d="M49.2568 245.367C47.9768 246.388 47.0875 247.579 46.5008 247.448C45.6555 247.257 44.6315 246.188 44.4595 245.34C44.3541 244.815 45.6381 243.539 46.3901 243.46C47.1035 243.385 47.9368 244.431 49.2568 245.367Z" fill="#1A1919"/>
<path fill-rule="evenodd" clip-rule="evenodd" d="M28.1314 235.925C26.9914 236.823 26.2847 237.795 25.7061 237.724C25.0501 237.644 24.0607 236.647 24.0434 236.025C24.0274 235.405 24.9607 234.351 25.6087 234.24C26.1847 234.141 26.9394 235.079 28.1314 235.925Z" fill="#1A1919"/>
<path fill-rule="evenodd" clip-rule="evenodd" d="M93.5581 21.0134C93.5835 18.9374 91.2968 16.704 89.0781 16.6387C86.8235 16.572 84.5328 18.38 84.5635 20.1987C84.5995 22.348 87.0701 24.6267 89.3195 24.5867C91.6581 24.5467 93.5341 22.9667 93.5581 21.0134ZM89.0955 27.7427C85.1501 27.7054 81.3368 23.8974 81.3728 20.0307C81.4061 16.516 84.7795 13.4694 88.6501 13.46C92.9221 13.448 96.7741 17.068 96.7181 21.04C96.6648 24.824 93.3008 27.7827 89.0955 27.7427Z" fill="#1A1919"/>
<path fill-rule="evenodd" clip-rule="evenodd" d="M95.2075 40.3532C97.2768 39.6852 98.9021 39.3492 98.8541 37.4292C98.8115 35.6759 97.4568 34.8506 95.7728 34.8852C94.1568 34.9186 92.1808 35.2506 92.4541 37.2559C92.6088 38.3892 94.2421 39.3266 95.2075 40.3532ZM95.7621 43.0146C92.2008 43.0226 89.1141 40.4159 89.1048 37.3906C89.0941 34.1679 91.7715 31.6519 95.2368 31.6252C99.0728 31.5972 102.163 34.2132 102.159 37.4866C102.155 40.5679 99.3355 43.0052 95.7621 43.0146Z" fill="#1A1919"/>
<path fill-rule="evenodd" clip-rule="evenodd" d="M80.7368 30.712C83.4515 30.6587 85.6608 32.568 85.6702 34.9734C85.6795 37.2014 83.8608 38.892 81.3488 38.9907C78.7622 39.0907 76.4715 37.0854 76.4208 34.6774C76.3728 32.4334 78.1942 30.76 80.7368 30.712Z" fill="#1A1919"/>
<path fill-rule="evenodd" clip-rule="evenodd" d="M106.43 27.4534C106.338 29.0267 105.41 30.0214 103.663 30.14C101.979 30.2547 100.361 28.7627 100.349 27.196C100.337 25.576 101.878 23.9734 103.439 23.9827C104.965 23.9934 106.433 25.616 106.43 27.4534Z" fill="#1A1919"/>
<path fill-rule="evenodd" clip-rule="evenodd" d="M120.515 55.1267C119.882 54.2587 118.838 53.4494 118.706 52.5134C118.486 50.9467 119.619 49.6854 121.207 49.9254C122.139 50.0667 123.597 51.3641 123.565 52.0854C123.517 53.1241 122.327 54.1121 121.626 55.1214C121.257 55.1227 120.886 55.1241 120.515 55.1267Z" fill="#1A1919"/>
<path fill-rule="evenodd" clip-rule="evenodd" d="M130.281 45.0693C129.08 45.9586 128.148 47.0746 127.666 46.9106C126.774 46.6039 125.54 45.5293 125.565 44.8106C125.592 43.9999 126.848 43.2293 127.569 42.4399C128.334 43.1826 129.1 43.9239 130.281 45.0693Z" fill="#1A1919"/>
<path fill-rule="evenodd" clip-rule="evenodd" d="M130.289 49.7986C130.818 50.6826 131.779 51.5826 131.747 52.4466C131.718 53.1706 130.533 53.8519 129.858 54.5519C129.147 53.8666 127.91 53.2133 127.866 52.4879C127.813 51.6253 128.785 50.7013 129.313 49.8026C129.638 49.8013 129.963 49.7999 130.289 49.7986Z" fill="#1A1919"/>
<path fill-rule="evenodd" clip-rule="evenodd" d="M20.7874 183.264C21.1087 182.312 21.298 181.719 21.5087 181.135C24.594 172.568 27.682 164.001 30.77 155.436C30.8754 155.143 30.9034 154.749 31.1127 154.579C31.8594 153.972 32.6674 153.441 33.4514 152.881C33.6674 153.763 34.29 154.783 34.0367 155.504C30.8047 164.76 27.478 173.985 24.0567 183.176C23.794 183.883 22.6434 184.267 21.9047 184.801C21.4914 184.233 21.0807 183.667 20.7874 183.264Z" fill="#1A1919"/>
<path fill-rule="evenodd" clip-rule="evenodd" d="M61.1035 81.6972C59.4635 81.5159 58.4528 80.4279 58.4355 78.6506C58.4128 76.2999 60.4995 76.3239 61.9982 76.1252C63.6675 75.9052 64.6048 77.0492 64.6395 78.6919C64.6715 80.2626 63.0022 81.7079 61.1035 81.6972Z" fill="#1A1919"/>
<path fill-rule="evenodd" clip-rule="evenodd" d="M55.6047 87.9732C56.8141 87.0732 57.5194 86.1519 58.2527 86.1306C58.8127 86.1132 59.9461 87.3186 59.8621 87.8252C59.7407 88.5626 58.8461 89.5039 58.1034 89.6986C57.5967 89.8306 56.7887 88.8359 55.6047 87.9732Z" fill="#1A1919"/>
<path fill-rule="evenodd" clip-rule="evenodd" d="M115.667 101.375C115.379 102.259 115.202 102.856 114.991 103.441C109.435 118.851 103.893 134.263 98.2915 149.656C97.8368 150.905 97.7035 153.179 95.6248 152.385C93.6208 151.621 94.9555 149.816 95.4128 148.536C100.858 133.336 106.346 118.151 111.829 102.964C112.093 102.231 112.251 101.381 112.741 100.832C113.177 100.345 114.033 99.936 114.65 99.9973C115.065 100.04 115.387 100.967 115.667 101.375Z" fill="#1A1919"/>
<path fill-rule="evenodd" clip-rule="evenodd" d="M84.4634 177.957C84.6874 177.204 84.7794 176.827 84.9114 176.463C86.8394 171.111 88.7607 165.757 90.718 160.416C91.1154 159.333 91.574 157.872 93.0767 158.615C93.5994 158.873 93.8514 160.555 93.5754 161.369C91.7034 166.904 89.702 172.397 87.6114 177.855C87.354 178.527 86.3647 179.037 85.598 179.331C85.406 179.404 84.7687 178.341 84.4634 177.957Z" fill="#1A1919"/>
</svg>
