<svg width="225" height="222" viewBox="0 0 225 222" fill="none" xmlns="http://www.w3.org/2000/svg">
<path fill-rule="evenodd" clip-rule="evenodd" d="M185.718 171.891C185.414 166.769 176.883 166.102 173.258 165.389C164.411 163.646 155.707 162.999 146.711 163.51C142.389 163.754 141.085 164.447 140.443 167.094C140.146 166.934 139.681 167.094 139.703 167.509C140.131 175.685 140.505 183.95 141.699 192.066C142.639 198.458 146.105 201.698 152.105 203.583C162.962 206.993 180.537 207.203 183.749 193.523C184.583 189.965 184.629 186.201 184.978 182.577C185.323 178.998 185.935 175.503 185.718 171.891Z" fill="#9A6D3C"/>
<path fill-rule="evenodd" clip-rule="evenodd" d="M187.828 150.006C185.358 149.586 181.346 151.671 179.028 152.35C168.208 155.523 156.348 155.525 145.522 152.35C143.206 151.671 139.054 150.307 136.583 150.727C131.475 151.599 131.884 158.887 131.891 163.187C131.9 168.725 133.959 173.585 139.243 175.891C142.804 177.445 147.138 177.711 150.959 178.057C152.887 178.231 154.807 178.507 156.735 178.674C160.408 178.991 163.984 179.029 167.655 178.678C169.612 178.491 171.562 178.234 173.522 178.057C177.343 177.711 181.622 177.445 185.182 175.891C190.467 173.585 192.588 168.725 192.598 163.187C192.604 158.887 192.938 150.878 187.828 150.006Z" fill="#AC7941"/>
<path fill-rule="evenodd" clip-rule="evenodd" d="M188.79 149.112C185.025 146.171 178.889 146.358 174.423 146.366C167.249 146.38 160.05 146.306 152.893 146.864C149.321 147.144 144.017 146.412 136.583 148.743C135.262 149.159 133.965 151.038 134.014 151.966C134.07 153.023 134.689 153.459 135.781 153.755C140.485 155.028 145.05 156.331 149.907 156.92C154.779 157.511 159.703 157.648 164.606 157.542C167.263 157.486 169.918 157.359 172.569 157.19C174.65 157.056 195.615 154.439 188.79 149.112Z" fill="#D38B4C"/>
<path fill-rule="evenodd" clip-rule="evenodd" d="M182.39 151.619C181.206 148.232 172.922 149.276 170.191 149.151C160.423 148.703 150.914 148.927 141.443 151.295C140.913 151.427 140.835 151.962 141.038 152.335C140.763 152.71 141.038 153.268 141.443 153.41C147.545 155.542 154.795 155.214 161.138 155.019C168.105 154.804 175.055 153.87 181.886 152.507C182.254 152.434 182.513 151.971 182.39 151.619Z" fill="#9A6D3C"/>
<path fill-rule="evenodd" clip-rule="evenodd" d="M170.78 73.6137V73.6003L170.132 73.2963C165.728 77.3963 158.972 79.027 156.461 72.6603C155.38 69.8883 156.482 65.9057 158.72 62.6283C154.086 60.0017 148.46 58.7457 143.061 57.8937C144.417 61.5177 144.876 64.9083 139.853 65.9337C134.67 66.9883 136.117 64.2737 136.001 61.1697C135.972 60.175 135.704 58.6777 135.416 57.3443H135.328C134.346 57.3443 133.35 56.839 132.369 56.6817C127.764 56.031 119.622 55.3163 118.9 49.3123C118.64 47.1883 121.456 43.555 117.557 43.527C114.886 43.4977 112.073 47.8803 111.048 49.931C108.781 54.4923 110.658 60.567 112.462 64.911C113.226 66.759 113.934 68.5043 114.094 70.1497L114.108 70.3083C118.669 72.835 125.685 73.2523 123.837 79.387C122.668 83.343 119.116 83.9643 116.273 81.827C114.44 80.427 113.848 78.6083 113.488 76.6737C112.16 79.6763 110.773 82.5643 108.796 85.6963C107.525 87.7323 106.27 89.8537 105.272 92.047C109.344 93.303 113.157 97.4323 112.938 102.023C112.721 106.772 105.88 107.494 101.217 105.631C100.757 111.319 102.084 116.934 106.11 121.41C106.934 122.319 107.873 123.14 108.912 123.879C114.036 119.548 119.016 110.394 123.938 113.195C130.78 117.094 125.556 124.339 119.32 128.006C128.124 129.579 138.201 127.616 143.788 122.116C144.249 122.78 144.914 123.272 145.881 123.459C150.73 124.396 156.202 121.871 160.733 120.327C165.108 118.84 168.385 115.823 170.709 112.099C161.441 114.38 152.016 104.231 159.074 100.666C164.401 97.967 168.992 106.079 173.02 107.507C174.086 104.794 175.441 101.907 175.817 99.0923C177.017 89.9257 174.78 81.091 170.78 73.6137Z" fill="#557A61"/>
<path fill-rule="evenodd" clip-rule="evenodd" d="M167.543 86.4951C165.217 90.4498 161.013 90.7725 157.617 93.3818C155.001 95.3925 153.211 98.7018 151.537 101.462C149.487 104.832 147.625 108.123 146.317 111.855C145.65 113.758 145.313 115.668 145.115 117.591C144.635 115.007 144.205 112.415 143.89 109.828C143.511 106.704 143.415 103.562 143.185 100.428C144.594 93.6205 144.297 86.7458 147.29 80.2845C149.283 75.9845 151.347 72.5551 149.639 67.7951C149.554 67.5618 149.235 67.6565 149.271 67.8965C150.135 73.5285 147.05 77.6538 145.057 82.6111C143.215 87.1938 143.245 92.1578 142.851 97.0312C142.818 96.7618 142.801 96.4885 142.763 96.2165C141.641 88.2831 138.226 80.9698 132.949 75.0231L132.941 74.8711C131.406 71.5645 130.042 68.5725 129.895 64.8685C129.805 62.5471 130.087 59.8565 128.541 57.9658C128.343 57.7258 127.891 57.9165 127.921 58.2218C128.191 61.1231 128.294 64.1845 128.747 67.0618C129.091 69.2431 129.939 71.0578 130.939 72.8751C124.374 66.3605 116.555 61.2111 116.057 51.0045C116.041 50.6405 115.481 50.6365 115.489 51.0045C115.666 59.2258 120.171 64.5151 125.954 69.8765C126.119 70.0298 126.274 70.1858 126.438 70.3378C122.195 68.2805 117.103 67.5978 115.597 62.4685C115.503 62.1591 115.086 62.1765 114.987 62.4685C113.991 65.4191 116.787 67.4898 119.109 68.6405C122.631 70.3831 127.149 70.9391 129.939 73.8871L129.945 73.8911C136.585 81.1418 140.694 89.1458 141.81 99.6058C141.975 101.182 142.05 102.759 142.09 104.338C140.483 100.567 138.477 97.1591 134.875 94.6978C130.835 91.9352 123.418 92.8258 122.31 87.0165C122.257 86.7351 121.802 86.7365 121.746 87.0165C120.922 91.2405 124.707 92.6912 128.138 93.6591C131.586 94.6298 134.303 95.4951 137.002 98.0605C139.395 100.336 140.837 103.643 142.127 106.738C142.158 110.17 142.133 113.607 142.589 117.047C142.621 117.295 142.658 117.543 142.691 117.792C140.378 114.252 137.409 111.315 134.069 108.254C132.505 106.82 130.919 104.76 128.777 104.122C125.455 103.132 122.059 104.228 118.659 104.052C118.303 104.034 118.158 104.567 118.477 104.728C120.006 105.507 120.153 105.708 121.975 105.456C126.863 104.779 129.605 105.814 133.085 109.239C136.879 112.971 140.498 116.232 143.087 120.682C143.631 124.494 144.254 128.31 145.089 132.052C147.015 140.688 152.295 150.263 160.638 154.123C161.347 154.452 162.158 153.583 161.517 152.983C153.379 145.332 149.146 137.324 146.885 126.43C146.603 125.06 146.315 123.687 146.033 122.307C146.354 118.919 146.659 115.575 147.649 112.223C148.983 107.69 151.722 103.682 154.142 99.6765C156.621 95.5685 159.427 93.0351 163.795 91.1031C165.994 90.1298 167.135 88.8845 167.961 86.6712C168.054 86.4231 167.67 86.2778 167.543 86.4951Z" fill="#D3E4D7"/>
<path fill-rule="evenodd" clip-rule="evenodd" d="M223.673 61.5034C222.402 64.1594 220.641 66.3968 217.77 67.2768C212.717 68.8514 206.582 64.5048 208.977 59.1781C211.187 54.2701 217.437 54.7181 221.347 52.4234L221.306 52.3354C220.541 50.4594 219.733 48.6834 218.678 47.0381C216.339 43.3581 212.557 40.2248 208.11 39.9941C205.051 39.8341 202.034 41.5088 198.959 41.6688C193.387 41.9581 196.491 34.9274 196.361 32.2421C196.331 31.6501 195.782 31.3768 195.278 31.6074C192.535 32.8781 192.391 36.8901 191.293 39.3301C189.562 43.1848 185.403 40.2248 182.834 39.7768L176.555 41.7981C173.755 43.2421 171.17 45.0021 168.802 47.0381C169.019 47.5861 169.338 48.1208 169.771 48.6261C172.918 52.2781 179.399 53.1154 177.363 60.1741C175.993 64.9088 170.347 64.1301 166.391 61.1274C162.495 58.1821 163.563 54.3848 165.253 50.3874C160.186 55.7421 156.361 62.3541 153.95 69.3274C153.214 71.4634 152.607 73.7434 152.173 76.0968C152.637 76.2834 153.17 76.3994 153.79 76.4128C156.102 76.4581 157.63 73.6421 160.518 74.1048C163.145 74.5234 164.226 75.6634 165.469 78.0461C167.894 82.6941 168.659 91.4981 162.467 92.8701C158.497 93.7661 154.642 91.4568 151.726 88.2514C152.333 93.2608 154.065 98.0248 157.355 101.821C159.017 103.726 160.807 105.415 162.741 106.859C163.911 103.741 167.215 101.531 169.541 104.882C170.694 106.541 170.391 108.794 169.353 110.683C175.069 113.094 181.434 113.629 187.93 111.926C188.234 113.182 188.883 114.409 189.822 115.521C193.143 119.474 199.463 116.025 202.567 113.817C203.146 113.397 203.709 112.978 204.271 112.546C198.987 108.691 196.419 98.2128 201.427 96.0901C205.918 94.1981 206.667 100.262 209.122 102.413C210.234 103.394 211.863 103.942 213.175 104.159C216.394 100.203 220.113 95.8008 221.446 91.1541V91.1101C218.779 92.2928 216.483 92.7688 214.402 91.3261C211.615 89.4061 211.885 85.2061 214.599 83.2288C218.987 80.0381 217.519 84.2394 220.738 85.7688C221.273 86.0274 221.729 86.2008 222.191 86.2888C223.605 84.2234 223.278 82.1314 223.667 80.0088C224.694 74.2781 224.987 67.7528 223.673 61.5034Z" fill="#3E5A46"/>
<path fill-rule="evenodd" clip-rule="evenodd" d="M191.327 92.6725C194.191 87.0805 196.223 81.2672 203.123 79.8698C207.233 79.0378 211.365 78.6965 212.855 74.2032C212.981 73.8272 212.486 73.5872 212.221 73.8338C209.927 75.9832 207.931 77.0778 204.847 77.6618C202.373 78.1298 200.058 78.4392 197.887 79.7845C194.518 81.8698 193.01 85.5178 191.593 89.0778C192.055 83.7045 192.383 78.3218 192.661 72.9312L192.754 72.6578C192.755 72.2592 192.747 71.8658 192.734 71.4778C192.759 70.9752 192.785 70.4725 192.81 69.9698L192.939 69.6658L192.841 69.3765C192.853 69.1445 192.865 68.9138 192.875 68.6818C192.901 68.1405 192.913 67.6058 192.933 67.0672C193.223 65.9392 193.718 64.7858 193.97 64.0485C194.678 61.9712 195.554 60.3938 197.213 58.9018C199.541 56.8098 203.217 55.0725 203.166 51.4858C203.161 51.1312 202.694 51.0992 202.578 51.4058C201.466 54.3418 199.562 55.6592 197.109 57.4205C195.718 58.4178 194.185 59.7498 193.606 61.4258C193.467 61.8258 193.255 62.3365 193.023 62.9072C193.042 59.9978 192.97 57.0965 192.762 54.1698C192.355 48.4712 192.127 42.3845 195.041 37.2578C195.305 36.7938 194.619 36.4032 194.331 36.8432C189.822 43.7098 191.469 51.8952 191.475 59.6658C191.477 61.4672 191.425 63.2778 191.349 65.0938C191.138 64.6312 190.91 64.1712 190.639 63.7138C188.618 60.2952 184.55 57.9538 185.329 53.4832C185.382 53.1912 184.982 52.9752 184.825 53.2698C183.715 55.3498 183.817 57.1312 185.35 59.0192C187.985 62.2632 190.137 64.9432 191.165 68.5298C190.734 75.1218 189.895 81.7645 188.899 88.2792C187.95 86.6312 186.906 85.1058 186.121 83.8592C184.366 81.0738 183.025 78.3338 180.382 76.2712C176.778 73.4618 173.434 71.7258 170.397 68.0765C170.166 67.8005 169.698 68.0952 169.803 68.4218C171.861 74.7992 178.999 75.6912 182.537 80.7952C184.334 83.3912 186.966 86.9498 188.545 90.5832C188.329 91.9325 188.113 93.2752 187.89 94.6085C187.49 97.0192 187.131 99.4565 186.769 101.899C185.945 100.488 184.381 99.5805 183.122 98.6445C179.969 96.2965 174.762 97.7285 173.437 93.2365C173.314 92.8218 172.767 92.8565 172.63 93.2365C171.493 96.4085 175.106 97.7738 177.495 98.4032C179.722 98.9885 181.579 99.4965 183.523 100.767C184.989 101.725 185.803 103.018 186.379 104.459C185.101 112.759 183.521 121.038 179.593 128.49C175.287 136.66 168.185 144.336 166.91 153.748C166.793 154.615 168.055 155.392 168.485 154.411C172.289 145.674 178.466 138.755 182.834 130.383C187.409 121.615 188.831 112.138 190.117 102.487C192.103 98.7938 194.269 95.2165 198.107 93.1938C200.726 91.8165 203.789 91.6898 205.019 88.6005C205.107 88.3778 204.775 88.1992 204.623 88.3698C202.139 91.1738 197.946 90.8965 195.091 93.2445C193.177 94.8218 191.77 96.7618 190.573 98.8525C190.599 98.5912 190.63 98.3312 190.661 98.0712C191.33 96.7498 191.418 95.3005 191.149 93.8192C191.183 93.4725 191.211 93.1245 191.245 92.7765L191.327 92.6725Z" fill="#D3E4D7"/>
<path fill-rule="evenodd" clip-rule="evenodd" d="M190.489 109.006C189.734 110.585 188.686 111.914 186.979 112.438C183.977 113.374 180.33 110.791 181.755 107.625C183.067 104.707 186.782 104.974 189.106 103.61L189.081 103.559C188.626 102.443 188.147 101.387 187.519 100.41C186.13 98.2233 183.883 96.3607 181.239 96.2247C179.421 96.13 177.627 97.1247 175.801 97.2193C172.491 97.39 174.334 93.214 174.257 91.6167C174.239 91.2647 173.914 91.1033 173.614 91.2407C171.983 91.9953 171.898 94.3793 171.246 95.8287C170.217 98.1207 167.745 96.3607 166.218 96.094L162.487 97.2967C160.823 98.154 159.287 99.2007 157.881 100.41C158.009 100.737 158.198 101.054 158.455 101.354C160.325 103.525 164.175 104.022 162.966 108.217C162.151 111.03 158.798 110.569 156.447 108.783C154.13 107.033 154.766 104.777 155.769 102.401C152.759 105.583 150.485 109.514 149.051 113.657C148.615 114.926 148.255 116.279 147.995 117.678C148.271 117.791 148.59 117.859 148.958 117.867C150.329 117.893 151.241 116.221 152.955 116.495C154.517 116.745 155.159 117.422 155.898 118.837C157.338 121.601 157.794 126.833 154.113 127.649C151.755 128.179 149.465 126.807 147.731 124.902C148.091 127.879 149.119 130.71 151.077 132.967C152.063 134.099 153.126 135.103 154.277 135.961C154.973 134.107 156.937 132.795 158.318 134.786C159.003 135.771 158.823 137.11 158.206 138.234C161.603 139.667 165.385 139.985 169.246 138.973C169.427 139.718 169.814 140.449 170.37 141.107C172.343 143.458 176.102 141.409 177.946 140.095C178.289 139.846 178.622 139.598 178.958 139.341C175.818 137.05 174.291 130.823 177.269 129.561C179.937 128.438 180.382 132.041 181.839 133.318C182.501 133.902 183.607 134.229 184.389 134.357C186.303 132.007 188.113 129.39 189.446 126.627V126.602C188.113 127.303 186.355 127.587 185.121 126.729C183.465 125.589 183.551 123.094 185.166 121.918C187.774 120.022 186.865 122.518 188.779 123.427C189.095 123.581 189.35 123.685 189.625 123.737C190.466 122.509 190.262 121.265 190.494 120.005C191.103 116.599 191.269 112.721 190.489 109.006Z" fill="#557A61"/>
<path fill-rule="evenodd" clip-rule="evenodd" d="M166.041 120.471C167.109 122.015 168.674 124.13 169.611 126.289C169.485 127.09 169.355 127.887 169.222 128.681C168.985 130.114 168.771 131.561 168.554 133.014C168.066 132.177 167.137 131.634 166.389 131.079C164.515 129.683 161.422 130.535 160.633 127.865C160.559 127.618 160.234 127.639 160.154 127.865C159.478 129.751 161.626 130.563 163.046 130.935C164.369 131.283 165.473 131.587 166.627 132.341C167.498 132.91 167.982 133.679 168.325 134.535C167.565 139.467 166.626 144.387 164.291 148.817C163.889 149.581 163.439 150.335 162.975 151.09H165.577C165.794 150.71 166.014 150.331 166.217 149.941C168.938 144.731 169.782 139.098 170.547 133.363C171.726 131.167 173.011 129.042 175.295 127.839C176.851 127.022 178.67 126.946 179.402 125.11C179.454 124.978 179.257 124.871 179.166 124.973C177.691 126.639 175.201 126.475 173.502 127.871C172.363 128.807 171.527 129.961 170.818 131.203C170.831 131.049 170.851 130.893 170.87 130.738C171.267 129.954 171.321 129.091 171.161 128.213C171.179 128.006 171.197 127.799 171.217 127.591L171.267 127.53C172.967 124.207 174.177 120.751 178.275 119.923C180.717 119.429 183.173 119.225 184.059 116.554C184.133 116.33 183.838 116.187 183.683 116.334C182.319 117.613 181.131 118.262 179.301 118.609C177.829 118.887 176.454 119.071 175.163 119.871C173.161 121.11 172.265 123.278 171.422 125.394C171.698 122.201 171.893 119.002 172.057 115.798L172.113 115.635C172.114 115.399 172.109 115.165 172.102 114.935C172.117 114.637 172.133 114.338 172.147 114.039L172.223 113.858L172.165 113.686L172.186 113.273C172.202 112.951 172.209 112.634 172.219 112.313C172.393 111.642 172.687 110.957 172.835 110.521C173.258 109.285 173.777 108.347 174.763 107.461C176.146 106.217 178.331 105.185 178.301 103.054C178.298 102.843 178.019 102.823 177.951 103.006C177.29 104.751 176.161 105.534 174.701 106.581C173.875 107.174 172.963 107.966 172.619 108.961C172.538 109.198 172.411 109.502 172.273 109.841C172.283 108.113 172.242 106.386 172.118 104.649C171.877 101.262 171.741 97.6446 173.471 94.5979C173.629 94.3232 173.223 94.0899 173.051 94.3512C170.37 98.4339 171.35 103.297 171.353 107.915C171.354 108.985 171.323 110.061 171.278 111.141C171.154 110.866 171.017 110.594 170.857 110.321C169.655 108.289 167.238 106.897 167.701 104.242C167.731 104.066 167.494 103.939 167.401 104.114C166.742 105.35 166.801 106.41 167.714 107.53C169.278 109.459 170.558 111.051 171.167 113.183C170.914 117.101 170.415 121.049 169.822 124.919C169.259 123.941 168.638 123.033 168.17 122.293C167.127 120.638 166.331 119.01 164.761 117.783C162.619 116.114 160.631 115.082 158.827 112.914C158.689 112.749 158.411 112.923 158.475 113.118C159.695 116.909 163.938 117.439 166.041 120.471Z" fill="#D3E4D7"/>
<path fill-rule="evenodd" clip-rule="evenodd" d="M167.809 194.957C163.462 193.55 153.487 190.807 151.711 197.477C150.029 202.547 150.657 209.338 155.781 209.719C161.038 210.11 166.446 209.146 171.745 209.361C174.233 209.461 178.746 209.606 180.326 206.799C183.285 201.547 170.497 195.826 167.809 194.957Z" fill="#828D95"/>
<path fill-rule="evenodd" clip-rule="evenodd" d="M182.382 204.962C178.034 203.555 168.059 200.811 166.282 207.482C164.599 212.553 165.229 219.345 170.353 219.726C175.61 220.117 181.019 219.153 186.317 219.366C188.806 219.466 193.318 219.61 194.899 216.805C197.857 211.551 185.069 205.831 182.382 204.962Z" fill="#9CA9B3"/>
<path fill-rule="evenodd" clip-rule="evenodd" d="M167.68 207.206C163.58 202.71 157.8 200.077 152.17 198.53C144.428 191.167 129.456 187.918 122.091 187.487C123.306 187.558 127.958 178.645 128.666 177.459C130.795 173.895 132.755 170.229 134.511 166.466C137.964 159.07 142.404 150.514 143.68 142.429C145.076 133.602 142.691 122.147 136.786 114.843C133.168 110.369 127.947 112.77 124.251 115.79C119.076 120.013 113.822 123.921 107.87 126.969C106.659 127.589 105.204 128.302 104.347 129.407C103.343 130.633 102.642 133.093 98.5124 139.399C93.8018 146.594 85.6804 161.601 82.9698 170.145C80.1658 178.985 72.7858 203.25 81.9644 210.395C84.6871 212.515 87.8418 213.578 91.2084 214.053C91.5151 214.407 91.8378 214.747 92.1964 215.054C101.074 222.662 115.004 219.338 125.984 220.334C138.926 221.506 162.383 220.681 165.807 219.191C168.648 217.957 167.778 207.315 167.68 207.206Z" fill="#EFEBE4"/>
<path fill-rule="evenodd" clip-rule="evenodd" d="M109.046 142.297C102.864 151.793 97.9951 163.067 93.6991 173.805C89.0565 185.403 87.1418 197.239 89.4511 209.807C89.6178 210.717 90.7791 210.382 90.6645 209.485C89.0511 196.701 91.3885 184.426 96.2658 172.887C100.547 162.758 104.558 152.362 109.578 142.685C109.786 142.281 109.286 141.926 109.046 142.297Z" fill="#D5CDBE"/>
<path fill-rule="evenodd" clip-rule="evenodd" d="M153.271 199.988C147.683 195.552 139.802 195.012 133.195 194.5C128.314 194.118 123.901 195.219 119.406 196.302C119.765 195.779 119.639 194.812 118.985 194.504C118.059 194.07 117.139 193.814 116.405 192.991C115.714 192.214 115.338 191.084 114.983 190.078C114.675 189.208 113.385 189.763 113.633 190.654C114.386 193.367 115.691 196.02 118.315 196.56C116.094 197.086 113.846 197.583 111.497 197.863C110.779 197.947 110.899 199.33 111.615 199.302C118.275 199.031 124.609 196.53 131.307 196.922C138.775 197.358 145.666 199.848 152.97 201.082C153.515 201.175 153.662 200.299 153.271 199.988Z" fill="#D5CDBE"/>
<path fill-rule="evenodd" clip-rule="evenodd" d="M63.6806 67.1511C62.8232 65.7738 60.8926 64.2924 59.1472 64.8111C55.1766 65.9938 53.8912 69.5538 52.8086 73.1364C52.3192 74.7618 51.3926 76.1924 50.8432 77.7951C50.0046 80.2458 49.3246 82.7458 48.5006 85.2018C47.1619 89.1938 45.5326 93.1378 43.5979 96.8764C41.4992 100.935 38.4552 104.167 35.5086 107.6C32.2886 111.35 28.0432 118.806 32.4926 123.348C36.1232 127.054 41.9099 124.77 45.7379 122.523C57.5032 115.608 62.9699 100.074 65.8699 87.4938C67.3659 81.0058 67.3059 72.9831 63.6806 67.1511Z" fill="#D3E4D7"/>
<path fill-rule="evenodd" clip-rule="evenodd" d="M58.8111 192.43C58.5657 188.31 51.7031 187.773 48.7884 187.199C41.6724 185.799 34.6724 185.278 27.4377 185.689C23.9617 185.886 22.9124 186.442 22.3964 188.573C22.1591 188.443 21.7831 188.573 21.8004 188.906C22.1471 195.481 22.4457 202.129 23.4057 208.655C24.1631 213.797 26.9497 216.403 31.7751 217.921C40.507 220.661 54.6444 220.831 57.2244 209.829C57.8977 206.966 57.9351 203.939 58.215 201.023C58.4937 198.146 58.9844 195.335 58.8111 192.43Z" fill="#9C855E"/>
<path fill-rule="evenodd" clip-rule="evenodd" d="M60.5088 174.828C58.5208 174.49 55.2941 176.167 53.4301 176.715C44.7261 179.266 35.1901 179.267 26.4821 176.715C24.6168 176.167 21.2808 175.071 19.2928 175.408C15.1835 176.11 15.5128 181.971 15.5195 185.43C15.5261 189.883 17.1821 193.791 21.4341 195.647C24.2955 196.895 27.7808 197.11 30.8555 197.388C32.4061 197.528 33.9488 197.751 35.4995 197.884C38.4555 198.14 41.3288 198.17 44.2821 197.888C45.8581 197.738 47.4261 197.531 49.0008 197.388C52.0755 197.11 55.5155 196.895 58.3795 195.647C62.6288 193.791 64.3355 189.883 64.3435 185.43C64.3488 181.971 64.6168 175.528 60.5088 174.828Z" fill="#7A6749"/>
<path fill-rule="evenodd" clip-rule="evenodd" d="M61.2807 174.109C58.2513 171.745 53.318 171.894 49.7247 171.902C43.9553 171.913 38.166 171.853 32.41 172.302C29.538 172.527 25.2713 171.938 19.2927 173.813C18.2287 174.147 17.186 175.659 17.2247 176.405C17.27 177.254 17.77 177.606 18.6473 177.845C22.43 178.869 26.102 179.915 30.0073 180.389C33.9273 180.865 37.886 180.974 41.83 180.89C43.9673 180.845 46.102 180.742 48.2353 180.606C49.9073 180.499 66.7713 178.395 61.2807 174.109Z" fill="#9C855E"/>
<path fill-rule="evenodd" clip-rule="evenodd" d="M56.134 176.124C55.1793 173.402 48.518 174.242 46.322 174.142C38.4647 173.78 30.818 173.962 23.202 175.864C22.7727 175.971 22.7127 176.402 22.8753 176.702C22.654 177.003 22.8753 177.451 23.202 177.566C28.1073 179.279 33.9393 179.016 39.042 178.859C44.6447 178.688 50.234 177.936 55.7273 176.839C56.0247 176.78 56.2327 176.408 56.134 176.124Z" fill="#222625"/>
<path fill-rule="evenodd" clip-rule="evenodd" d="M41.6273 164.146C39.7153 161.413 37.2513 160.003 36.9326 156.381C36.6766 153.49 36.6926 150.573 36.5406 147.674C36.2899 142.89 36.0233 136.694 32.3873 133.106C30.9979 131.733 29.0219 131.413 27.1606 131.651C26.1406 131.779 25.1526 132.078 24.3286 132.722C22.6099 134.067 21.4646 135.901 18.9499 133.535C18.0766 132.711 17.2019 131.883 16.3313 131.054C13.9393 128.767 11.4286 126.243 8.01661 125.746C4.69395 125.263 2.42728 128.217 1.21661 130.871C-0.338053 134.274 -0.218053 138.206 0.549947 141.771C0.90328 143.406 1.74461 145.395 2.92595 146.617C4.56595 148.311 11.3379 151.823 7.21128 154.922C5.62595 156.11 3.73661 157.491 4.92061 159.734C6.89661 163.477 10.3366 166.731 13.3393 169.63C18.9153 175.011 28.2166 179.314 35.9046 175.974C36.6299 175.699 37.3219 175.358 37.9833 174.955C38.1126 174.885 38.1873 174.79 38.2379 174.687C41.9473 173.91 43.9819 167.51 41.6273 164.146Z" fill="#3E5A46"/>
<path fill-rule="evenodd" clip-rule="evenodd" d="M37.6288 172.175C36.6808 172.689 35.7008 172.341 34.7622 171.525L34.6942 171.321C32.3115 167.679 26.8395 161.222 32.4582 157.935C34.7022 156.625 34.3995 153.957 33.3688 151.97C33.2208 151.689 32.8275 151.894 32.8848 152.174C33.6369 156.046 29.7169 157.373 28.8315 160.346C28.0528 157.326 27.8888 154.146 27.1635 151.147C27.3915 148.182 28.2102 145.399 29.2582 142.19C30.0515 139.763 29.7115 137.426 27.7182 135.801C27.4475 135.579 27.0502 135.853 27.2248 136.182C29.4488 140.389 27.3475 143.267 26.3582 147.335C26.2875 147.625 26.2408 147.917 26.1942 148.209C26.0835 147.959 25.9715 147.711 25.8448 147.466C24.2662 144.371 20.8968 142.847 17.7702 141.838C12.3168 140.081 6.76485 138.934 4.48885 132.886C4.43952 132.758 4.22485 132.766 4.23418 132.921C4.47552 137.041 8.03152 139.854 11.6528 141.294C14.3795 142.381 17.2742 142.889 19.9688 144.083C23.0128 145.437 24.4595 147.669 25.2035 150.347C24.2048 148.633 22.6315 147.307 20.4128 146.422C18.8808 145.811 17.0302 146.021 15.2142 146.23C12.1355 146.586 9.14885 146.942 7.95685 143.301C7.87952 143.062 7.55418 143.117 7.53418 143.359C7.25018 146.658 9.87018 147.615 12.7195 147.69C13.7368 147.717 14.7475 147.61 15.7595 147.503C16.7715 147.397 17.7835 147.29 18.8022 147.317C23.1448 147.429 25.4328 151.742 25.6795 155.49C25.6942 155.726 25.8688 155.854 26.0502 155.874C26.4528 158.131 27.7782 163.039 29.6888 167.19C26.9728 165.403 24.0488 164.591 20.4448 164.703C13.4515 164.919 12.8235 158.145 14.9675 152.995C15.0475 152.806 14.7555 152.71 14.6528 152.863C12.3848 156.242 11.6488 160.742 14.4382 164.054C15.8875 165.773 18.3528 166.087 20.4448 166.023C24.5142 165.897 27.5462 167.097 30.7182 169.234C32.8382 173.058 35.4982 175.519 38.3622 173.126C38.9088 172.67 38.2115 171.859 37.6288 172.175Z" fill="#D3E4D7"/>
<path fill-rule="evenodd" clip-rule="evenodd" d="M59.1672 140.166C57.6366 139.813 55.9326 139.606 55.2992 138.133C54.8219 137.015 55.8872 135.326 56.3819 134.347C57.7179 131.699 59.8606 129.257 61.5446 126.762C66.2459 119.797 74.1939 107.487 65.6339 100.393C62.3219 97.646 57.8699 98.9967 54.9886 101.475C52.0446 104.007 50.7472 107.843 49.7646 111.222C49.3632 112.598 48.1259 116.594 46.2566 113.897C45.3032 112.522 44.7939 111.029 43.5726 109.794C40.7486 106.95 36.1152 110.197 34.1272 112.175C31.3046 114.986 29.9286 118.887 29.4179 122.511C29.1459 124.434 29.0766 126.353 29.2206 128.285C29.4192 130.899 30.5326 133.415 31.0539 135.985C31.3659 137.517 31.6726 139.751 29.5446 140.375C28.5366 140.667 27.3352 140.621 26.2806 140.793C24.2246 141.131 23.2406 142.551 22.9726 144.222C22.2886 148.498 25.6472 151.326 29.2019 153.713C30.2686 154.429 31.2899 155.17 32.2099 156.023C32.9819 156.742 34.2312 158.177 33.5886 159.241C33.2299 159.833 32.3179 160.401 31.7406 160.837C29.2192 162.735 28.8632 165.293 29.2579 168.021C29.6046 170.397 30.6899 172.753 32.8299 174.323C34.8846 175.829 37.7566 176.43 40.2366 177.202C40.4019 177.254 40.5312 177.214 40.6246 177.135C41.8552 177.557 44.1566 175.985 44.8939 175.494C47.7859 173.566 50.7352 171.285 52.4912 168.498C53.3952 167.059 53.4326 165.509 52.6686 164.035C52.4606 163.63 52.0499 163.257 51.7512 162.899C50.8859 161.858 51.9286 161.053 52.6286 160.449C53.4992 159.699 54.5432 159.11 55.4432 158.386C59.1446 155.415 62.7512 152.259 64.1206 147.934C65.2766 144.274 63.4659 141.159 59.1672 140.166Z" fill="#557A61"/>
<path fill-rule="evenodd" clip-rule="evenodd" d="M42.5007 126.9C45.2953 124.776 48.69 123.547 51.1167 121.035C53.322 118.75 54.9713 116.056 56.3193 113.336C57.782 110.387 57.5073 107.098 58.99 104.207C59.2153 103.77 58.4647 103.39 58.2393 103.83C56.8286 106.575 57.0407 109.691 55.782 112.503C54.2807 115.858 52.0727 119.286 49.102 121.832C46.4967 124.064 42.9393 125.223 40.4447 127.591C40.1753 127.847 39.9273 128.12 39.69 128.403C40.018 126.614 39.9113 125.006 39.1927 123.204L39.178 123.139C38.6247 121.987 38.2433 120.794 38.4447 119.534C38.6073 118.524 39.9633 118.006 40.8113 117.459C41.8433 116.795 42.2647 115.984 41.9313 114.904C41.7873 114.436 40.9473 114.634 41.0927 115.102C41.6033 116.77 38.9393 117.43 37.9593 118.554C37.7793 118.758 37.67 118.994 37.5873 119.242C37.5193 118.922 37.47 118.594 37.454 118.247C37.394 116.946 38.206 115.678 38.3233 114.376C38.3687 113.898 37.4953 113.9 37.454 114.376C37.3513 115.514 36.7233 116.543 36.6327 117.667C36.5326 118.86 36.7487 119.918 37.2127 121.043C37.6873 122.192 38.3593 123.27 38.79 124.439C39.4527 126.238 39.002 127.991 38.4833 129.755C38.4473 129.878 38.4807 129.979 38.5487 130.056C37.7527 131.468 37.258 133.028 37.05 134.524C36.314 139.844 38.2353 144.735 40.0487 149.675C40.1273 150.246 40.222 150.815 40.4233 151.348C40.478 151.499 40.606 151.576 40.7353 151.587C41.0993 152.626 41.4433 153.666 41.742 154.718C41.9927 155.599 42.078 156.468 42.058 157.332C41.7873 158.116 41.522 158.907 41.2647 159.703C41.1313 159.2 40.9847 158.676 40.854 158.1C40.3473 155.864 39.702 152.779 38.2287 150.947C35.6887 147.784 29.726 149.451 28.8753 145.263C28.826 145.022 28.414 145.01 28.3767 145.263C27.95 148.103 29.2633 148.943 31.882 149.614C35.3807 150.514 36.9273 151.007 38.3273 154.914C39.1287 157.144 41.0327 160.972 40.634 163.276V163.367C40.3167 164.271 39.9913 165.17 39.7153 166.072C39.5087 166.742 39.346 167.395 39.214 168.039C39.0633 167.84 38.898 167.644 38.6993 167.45C38.098 166.866 37.2793 166.339 36.498 166.034C34.598 165.294 34.526 164.283 34.222 162.476C34.182 162.228 33.8047 162.252 33.7473 162.476C33.3167 164.168 33.1833 165.716 34.7953 166.768C35.6367 167.318 36.6207 167.678 37.4887 168.211C38.766 168.999 38.8807 170.502 38.9073 171.851L38.9887 172.087C39.0967 173.06 39.3207 174.047 39.7153 175.071C39.89 175.526 40.7313 175.33 40.554 174.872C40.4647 174.642 40.4073 174.419 40.3353 174.194C40.474 174.143 40.5873 174.022 40.598 173.826C40.826 170.1 40.9513 166.491 42.5007 163.02C44.0287 159.6 47.53 158.103 50.6047 156.395C54.3873 154.292 57.7513 151.07 57.086 146.392C57.0487 146.134 56.642 146.158 56.5873 146.392C55.646 150.402 54.538 152.832 50.8953 155.05C48.6047 156.446 46.126 157.46 44.0393 159.171C43.3233 159.758 42.726 160.454 42.222 161.218C42.498 160.283 42.714 159.34 42.83 158.383C43.7407 155.994 44.754 153.647 45.5167 151.204C45.9167 149.924 46.0406 148.584 46.3447 147.282C46.7993 145.331 48.9967 143.795 50.0393 142.098C50.194 141.844 49.8847 141.535 49.634 141.691C47.33 143.122 45.6033 145.246 44.9967 147.898C44.418 150.444 43.6033 152.866 42.7633 155.288C42.494 153.654 41.9113 151.998 41.27 150.374C41.3913 148.816 40.766 147.08 40.1633 145.663C40.0087 143.3 39.9567 141.04 40.878 138.738C42.018 135.891 44.6793 133.968 47.8486 132.899C47.9806 132.855 48.1113 132.81 48.2433 132.768C48.3033 132.88 48.4233 132.972 48.6126 132.974C49.6087 132.986 50.4607 133.082 51.3567 133.482C51.9513 133.747 52.5007 134.007 53.1593 134.146C54.2766 134.38 55.086 133.662 55.7327 132.991C56.0887 132.62 55.4767 132.087 55.118 132.46C54.054 133.564 53.2233 133.563 51.7953 132.835C51.122 132.492 50.4007 132.344 49.654 132.276C53.1487 131.031 56.3127 129.482 57.0033 125.835C57.0953 125.363 56.2553 125.159 56.1646 125.636C55.6153 128.531 53.1847 130.326 50.1513 131.383C47.998 132.136 45.6993 132.603 43.8713 133.912C39.702 136.895 39.0887 140.954 39.278 145.278C38.2233 142.152 37.598 138.91 37.7887 135.652C37.982 132.306 39.5767 129.126 42.5007 126.9Z" fill="#D3E4D7"/>
<path fill-rule="evenodd" clip-rule="evenodd" d="M69.2233 154.431C65.3459 151.734 60.2099 151.44 56.4646 154.451C54.6406 155.916 53.7593 158.486 53.0406 160.612C51.3313 165.666 48.6499 161.171 45.7766 162.12C42.4499 163.22 39.7673 167.856 39.8459 171.31C39.8713 172.358 39.8966 175.076 40.7019 176.583C40.7033 178.406 42.3633 179.72 44.9513 179.234C49.3313 178.406 53.6433 177.275 58.1206 176.994C60.6353 176.835 63.1046 176.819 65.5726 176.24C67.5326 175.78 69.0953 174.634 70.0593 172.888C71.5966 170.106 68.4513 168.168 70.7099 165.54C73.4819 162.316 72.6739 156.834 69.2233 154.431Z" fill="#3E5A46"/>
<path fill-rule="evenodd" clip-rule="evenodd" d="M61.1739 167.383L61.2459 167.43C64.3672 168.051 68.7832 165.903 69.6125 162.642C69.6939 162.317 69.3499 162.059 69.0592 162.217C67.8325 162.885 66.9312 163.942 65.8285 164.782C64.6712 165.666 63.2379 166.339 61.7819 166.585C63.4832 164.055 64.1059 160.423 65.0259 157.903C65.2619 157.251 64.2832 156.897 63.9419 157.446C62.3405 160.023 62.1432 163.142 60.6579 165.799C59.0139 168.746 54.3152 168.478 51.4059 169.206C49.7525 169.621 48.3365 170.337 47.2339 171.314C47.2792 170.15 47.3819 168.985 47.6099 167.847C47.7872 166.971 48.0872 166.137 48.5085 165.351C48.8019 164.807 49.0819 164.578 49.0739 163.954C49.0712 163.739 48.8845 163.513 48.6565 163.533C47.1685 163.666 46.6539 165.762 46.3245 166.978C45.8299 168.787 45.8339 170.713 46.1045 172.561C45.1512 173.893 44.6445 175.55 44.7085 177.494C44.7272 178.099 45.7205 178.294 45.8112 177.643C46.0299 176.073 46.5072 174.889 47.1605 173.951L47.2939 173.875C52.1605 169.754 59.8765 178.637 64.1899 173.281C64.4259 172.989 64.2179 172.402 63.7752 172.569C59.9859 173.994 57.2939 172.898 53.5912 171.829C52.4739 171.506 51.4165 171.357 50.4152 171.429C52.8005 170.415 55.7605 170.107 58.5232 169.195C59.6099 168.835 60.4699 168.195 61.1739 167.383Z" fill="#D3E4D7"/>
<path fill-rule="evenodd" clip-rule="evenodd" d="M131.682 98.2405C129.035 92.5725 126.416 87.1739 122.742 82.0885C115.466 72.0232 109.956 62.5752 101.584 53.4005C94.9338 46.1112 82.9391 42.5925 74.0018 48.7965C51.1978 64.6245 52.0391 73.9312 53.6258 78.7392C54.0324 79.9645 54.5258 81.1419 55.0671 82.2939C55.7071 84.1205 56.4658 85.9045 57.2538 87.6325C62.5271 99.1579 72.0644 108.155 81.3858 116.418C86.3418 120.811 91.5018 125.39 97.1498 128.874C100.068 130.682 103.77 131.377 107.1 130.418C113.432 128.603 118.783 124.595 124.179 120.967C128.134 118.309 131.892 116.257 133.92 111.725C135.863 107.398 133.506 102.151 131.682 98.2405Z" fill="#D3E4D7"/>
<path fill-rule="evenodd" clip-rule="evenodd" d="M30.1915 126.199C29.3315 124.073 28.5288 121.241 26.9035 119.585C25.2048 117.851 23.5182 119.481 22.2195 121.571C18.5555 124.611 16.9955 129.854 20.3835 133.79C23.0942 136.937 29.7155 139.137 31.6088 133.863C32.4568 131.503 31.0568 128.333 30.1915 126.199Z" fill="#EFB189"/>
<mask id="mask0" mask-type="alpha" maskUnits="userSpaceOnUse" x="27" y="152" width="6" height="5">
<path fill-rule="evenodd" clip-rule="evenodd" d="M31.4394 156.637C29.9741 155.988 28.7581 155.068 27.7061 153.941C27.6274 153.449 27.5434 152.957 27.4487 152.47C28.0154 152.9 28.6061 153.313 29.2021 153.713C30.2021 154.385 31.1634 155.078 32.0381 155.868C31.8527 156.132 31.6501 156.386 31.4394 156.637Z" fill="white"/>
</mask>
<g mask="url(#mask0)">
<path fill-rule="evenodd" clip-rule="evenodd" d="M27.4487 157.274H33.2901V152.47H27.4487V157.274Z" fill="#86A9A0"/>
</g>
<path fill-rule="evenodd" clip-rule="evenodd" d="M33.2899 157.274C33.2552 157.265 33.2192 157.257 33.1832 157.246C32.5646 157.083 31.9846 156.878 31.4392 156.637C31.6499 156.386 31.8526 156.131 32.0379 155.867C32.0952 155.919 32.1526 155.971 32.2099 156.023C32.5446 156.335 32.9686 156.782 33.2899 157.274ZM27.7059 153.941C26.7886 152.959 25.9952 151.819 25.2686 150.563C25.9166 151.241 26.6606 151.873 27.4486 152.47C27.5432 152.957 27.6272 153.449 27.7059 153.941Z" fill="#91C1A2"/>
<path fill-rule="evenodd" clip-rule="evenodd" d="M21.1713 134.676C20.5433 134.676 19.8313 134.363 18.95 133.535C18.6446 133.247 18.3393 132.958 18.034 132.67C17.2713 129.54 16.7606 125.839 18.8713 123.53C19.8046 122.508 20.9806 121.87 22.27 121.49C22.254 121.516 22.2366 121.543 22.2193 121.571C18.5553 124.611 16.9953 129.854 20.3833 133.79C20.6473 134.095 20.9473 134.392 21.2753 134.674C21.2406 134.675 21.206 134.676 21.1713 134.676Z" fill="#E9EDED"/>
<path fill-rule="evenodd" clip-rule="evenodd" d="M22.9338 146.124C22.9285 146.119 22.9245 146.115 22.9205 146.11C22.4871 145.231 22.0685 144.346 21.6685 143.45C22.1178 143.695 22.5525 143.962 22.9671 144.255C22.8658 144.911 22.8591 145.532 22.9338 146.124ZM28.1791 140.607C28.2765 139.475 28.1485 138.307 27.6205 137.022C27.9898 136.992 28.3498 136.927 28.6951 136.822C29.4471 137.852 29.7325 139.062 29.6365 140.346C29.6058 140.356 29.5751 140.366 29.5445 140.375C29.1151 140.499 28.6511 140.562 28.1791 140.607Z" fill="#D3E4D7"/>
<path fill-rule="evenodd" clip-rule="evenodd" d="M29.2672 123.778C28.9085 122.853 28.5112 121.922 28.0259 121.093C28.5725 121.137 29.1099 121.195 29.6272 121.261C29.5459 121.679 29.4765 122.097 29.4179 122.511C29.3579 122.934 29.3085 123.355 29.2672 123.778Z" fill="#E9EDED"/>
<path fill-rule="evenodd" clip-rule="evenodd" d="M38.7033 155.894C38.5633 155.543 38.4353 155.215 38.3273 154.914C36.9273 151.007 35.3807 150.514 31.882 149.614C29.2633 148.943 27.95 148.103 28.3767 145.263C28.3953 145.138 28.5047 145.078 28.6167 145.078C28.7327 145.078 28.85 145.14 28.8753 145.263C29.726 149.451 35.6887 147.784 38.2287 150.947C39.026 151.939 39.5807 153.299 40.0033 154.691C39.594 155.127 39.1607 155.534 38.7033 155.894ZM41.2687 153.163C41.098 152.636 40.9193 152.111 40.7353 151.587C40.606 151.576 40.478 151.499 40.4233 151.348C40.222 150.815 40.1273 150.246 40.0487 149.675C38.2353 144.735 36.314 139.844 37.05 134.524C37.258 133.028 37.7527 131.468 38.5487 130.056C38.4807 129.979 38.4473 129.878 38.4833 129.755C39.002 127.991 39.4527 126.238 38.79 124.439C38.65 124.059 38.4847 123.688 38.3087 123.322C38.6753 123.468 39.042 123.623 39.406 123.788C39.93 125.359 39.982 126.81 39.69 128.403C39.9273 128.12 40.1753 127.847 40.4447 127.591C41.1767 126.896 41.9993 126.307 42.862 125.763C43.0647 125.911 43.2633 126.063 43.4567 126.22C43.1313 126.438 42.8127 126.663 42.5007 126.9C39.5767 129.126 37.982 132.306 37.7887 135.652C37.598 138.91 38.2233 142.152 39.278 145.278C39.0887 140.954 39.702 136.895 43.8713 133.912C44.8647 133.2 45.9967 132.738 47.1687 132.343C47.1727 132.363 47.1753 132.383 47.178 132.403C47.2127 132.636 47.242 132.872 47.2673 133.107C44.3567 134.21 41.9473 136.067 40.878 138.738C39.9567 141.04 40.0087 143.3 40.1633 145.663C40.766 147.08 41.3913 148.816 41.27 150.374C41.5073 150.976 41.738 151.583 41.946 152.192C41.7313 152.516 41.506 152.842 41.2687 153.163Z" fill="#B8D8B3"/>
<path fill-rule="evenodd" clip-rule="evenodd" d="M77.5034 119.618C75.15 119.263 72.9647 120.016 70.9234 121.151C69.5487 121.386 68.2394 122.132 67.0514 123.03C66.938 122.987 66.81 122.98 66.6834 123.078C64.6274 124.636 62.5154 125.462 60.994 127.636C59.8607 129.26 59.1594 131.448 58.8034 133.368C57.9514 137.967 58.678 142.284 62.8007 144.954C66.2967 147.216 70.918 146.682 74.4447 144.866C75.542 144.303 76.6927 143.596 77.8114 142.792C80.5634 141.33 82.9314 138.982 84.75 136.544C86.514 134.178 88.4607 129.984 87.1474 126.994C85.59 123.452 81.35 120.198 77.5034 119.618Z" fill="#E4E7E7"/>
<path fill-rule="evenodd" clip-rule="evenodd" d="M81.7724 127.07C79.2857 123.371 72.6737 128.903 70.4257 130.906C67.8977 133.158 60.8711 137.942 62.2164 142.029C63.0337 144.502 67.1204 144.65 69.1657 144.49C73.6724 144.134 77.6404 140.494 80.6364 137.453C82.2751 135.787 85.4604 132.123 84.5244 129.511C83.9351 127.862 82.9417 127.211 81.7724 127.07Z" fill="#BEBDD6"/>
<path fill-rule="evenodd" clip-rule="evenodd" d="M71.9673 129.885C69.9207 126.909 67.9887 123.839 65.9127 120.887C65.474 120.267 64.6287 121.153 65.0193 121.606C66.0327 124.362 67.8393 126.789 69.4833 129.197C71.2753 131.823 72.7927 134.942 74.906 137.305C75.2713 137.711 76.0087 137.37 75.8807 136.818C75.278 134.245 73.446 132.041 71.9673 129.885Z" fill="#9CA9B3"/>
<path fill-rule="evenodd" clip-rule="evenodd" d="M78.0181 115.005C76.7021 117.266 74.3155 119.035 71.7355 119.342C70.9781 117.022 69.7715 114.958 69.3768 112.49C68.7888 108.823 71.2755 106.37 74.9781 106.578C78.8288 106.795 79.5421 112.386 78.0181 115.005ZM77.6568 104.753C73.9395 102.31 68.1528 104.995 67.1035 109.082C66.3781 111.906 67.3368 115.773 68.9448 118.701C67.3741 117.303 65.4155 116.341 63.4888 116.738C63.2995 116.777 63.1248 116.839 62.9568 116.914C62.7381 116.546 62.5195 116.122 62.3101 115.783C62.1328 115.497 61.9635 115.209 61.8115 114.907L61.7608 114.781C62.9821 113.997 63.9621 112.945 64.4301 111.495C64.5675 111.065 64.2621 110.51 63.7715 110.514C60.2741 110.549 58.0088 113.529 55.1461 115.089C54.9608 115.191 54.8581 115.335 54.8008 115.491C54.6448 115.618 54.5501 115.863 54.6021 116.045L54.6981 116.381C54.7955 116.722 55.0848 116.949 55.4488 116.885C57.0035 116.618 58.7835 116.225 60.3661 115.525C60.5261 115.885 60.7755 116.239 60.9635 116.509C61.2328 116.898 61.5128 117.265 61.8475 117.597L61.9355 117.662C61.2595 118.407 60.8675 119.463 60.7088 120.409C60.5595 121.305 60.6421 122.193 60.8888 123.038C59.1048 121.478 56.9488 120.318 54.8368 120.386C50.7568 120.518 48.4581 125.593 45.0821 127.247C44.0421 127.614 44.8208 129.301 45.8648 128.817C48.4848 127.603 50.1968 125.241 52.3301 123.386C56.7275 119.567 59.8688 125.55 63.2528 127.533C63.3968 127.617 78.4381 118.789 79.8755 116.819C82.5848 113.11 81.4488 107.246 77.6568 104.753Z" fill="#908FA0"/>
<path fill-rule="evenodd" clip-rule="evenodd" d="M136.577 72.8674C135.709 69.1768 133.538 65.9488 130.699 63.1541C125.367 57.9061 117.697 54.1714 111.826 51.6741C102.758 47.8168 91.5486 42.8728 81.9219 48.0034C79.8326 49.1208 77.3753 51.0714 76.1033 53.1048C73.5139 57.2528 75.7833 60.9181 79.0539 63.7474C82.6299 66.8408 86.5353 69.5728 90.7659 71.6901C93.0846 72.8501 95.4779 73.9248 97.8846 74.8848C100.869 76.0754 111.345 78.5354 106.107 84.7421C103.851 87.4101 100.499 89.0554 97.4246 90.5808C92.2833 93.1368 86.8366 95.0754 82.3313 98.7354C80.1913 100.482 76.6153 103.673 77.0846 106.865C77.6566 110.698 81.8819 111.285 85.1059 111.329C90.3553 111.383 95.7659 109.107 100.713 107.594C107.066 105.631 112.853 102.354 118.562 99.0274C123.774 95.9781 129.571 92.1808 133.274 87.3034C136.313 83.2848 137.909 78.5314 136.577 72.8674Z" fill="#D3E4D7"/>
<path fill-rule="evenodd" clip-rule="evenodd" d="M84.9074 107.336C84.7421 106.264 83.9514 105.55 82.9381 104.954C82.5501 104.54 82.1194 104.155 81.6994 103.835C79.8581 102.427 78.2981 100.728 76.1314 99.8003C74.9981 99.315 73.7634 100.624 74.0874 101.724C74.4674 103.002 75.3341 103.951 76.3541 104.739C74.7168 104.722 73.1874 105.222 72.2008 106.623C70.1968 109.48 70.3288 115.674 74.4821 116.456C76.1661 116.772 77.8874 116.055 79.4021 115.403C81.0568 114.692 83.6448 113.763 84.9328 112.506C86.6048 110.875 86.2034 108.782 84.9074 107.336Z" fill="#EFB189"/>
<path fill-rule="evenodd" clip-rule="evenodd" d="M112.81 76.2005C112.271 76.9791 111.678 77.6885 111.054 78.3618C109.446 76.7391 108.71 74.5471 107.465 72.6751C105.842 70.2378 104.178 67.8991 102.158 65.7711C100.181 63.6925 97.9592 62.0285 95.4552 60.6458C92.8445 59.2045 89.2272 58.3325 87.3458 55.9711C87.1405 55.7138 86.7192 56.0485 86.8925 56.3205C88.2912 58.5271 90.2165 59.1671 92.3898 60.4325C95.3112 62.1311 97.9218 63.7418 100.411 66.0645C102.935 68.4205 104.807 71.3818 106.703 74.2378C107.838 75.9471 108.403 78.0378 110.046 79.3565C101.57 87.3445 87.2538 88.1085 81.4338 99.3085C81.2232 99.7098 81.7645 100 82.0245 99.6551C86.7658 93.3591 93.2805 89.8458 100.334 86.6925C104.953 84.6298 111.847 81.8138 113.479 76.4831C113.605 76.0671 113.038 75.8751 112.81 76.2005Z" fill="#959F97"/>
<path fill-rule="evenodd" clip-rule="evenodd" d="M122.354 95.6074C119.771 97.0821 117.53 99.1288 114.958 100.658C111.79 102.545 108.399 104.055 104.982 105.429C102.066 106.597 99.2084 107.495 96.1044 107.997C93.2591 108.454 89.9657 108.458 87.3137 109.625C86.9204 109.797 87.2031 110.431 87.6031 110.309C89.2217 109.813 90.8937 110.038 92.5551 109.839C94.1511 109.649 95.7471 109.346 97.3377 109.119C100.75 108.631 103.888 107.39 107.059 106.09C112.252 103.958 119.688 101.035 122.774 96.0288C122.938 95.7608 122.615 95.4594 122.354 95.6074Z" fill="#959F97"/>
<path fill-rule="evenodd" clip-rule="evenodd" d="M69.3097 51.93C66.2884 47.434 59.3764 36.6833 53.2137 39.1193C47.519 41.3713 50.1244 49.654 53.1457 52.982C54.6177 54.6033 56.1844 56.154 57.503 57.9046C58.6577 59.438 59.3937 61.194 60.3564 62.846C61.4244 64.6846 63.0417 66.086 65.203 65.2726C67.6044 64.3686 69.2404 60.9126 70.2644 58.7726C71.383 56.4326 70.7097 54.018 69.3097 51.93Z" fill="#EFB189"/>
<path fill-rule="evenodd" clip-rule="evenodd" d="M60.4178 15.9672C58.5658 12.4726 54.7991 8.27258 50.6458 8.02591C43.1018 1.89124 30.6658 5.81791 27.0818 13.9819C24.3471 20.2086 27.2351 35.6059 31.1338 41.0472C32.5884 43.0726 36.2671 40.4312 38.4924 39.5632C43.6244 37.5566 48.0764 36.0459 53.2444 38.8646C57.6151 41.2486 62.6418 41.3819 64.8231 36.1192C65.7164 33.9632 65.1631 31.5139 64.7378 29.3139C63.8498 24.7139 62.6284 20.1232 60.4178 15.9672Z" fill="#463532"/>
<path fill-rule="evenodd" clip-rule="evenodd" d="M59.1622 25.6445C57.8555 25.6618 56.9995 26.5378 56.4915 27.6711C56.1475 28.4391 56.0435 29.1778 56.0715 29.9058C52.5448 28.1085 49.2008 24.8805 46.8262 20.9951C44.3555 26.7045 41.0608 31.9698 39.2982 33.6618C37.2888 35.5898 33.2275 37.7445 30.3955 36.9498C31.3475 43.6231 35.1235 50.7805 39.4608 55.5325C41.5142 57.7791 45.1142 60.3111 48.0248 59.9031C58.1022 58.4925 62.8302 47.6005 61.3995 36.9125C62.1608 35.6471 62.6048 34.0231 62.7382 33.0191C63.0702 30.5271 62.6915 25.5925 59.1622 25.6445Z" fill="#EFB189"/>
<path fill-rule="evenodd" clip-rule="evenodd" d="M62.5792 17.3379C63.3246 13.9539 59.1126 5.93258 53.6992 2.40591C46.8419 -2.06476 36.8752 1.38191 31.4272 6.26991C28.8019 8.62324 25.6019 11.9472 24.3886 15.3286C23.1339 18.8246 23.4032 22.3299 24.0459 25.9272C24.6966 29.5779 25.7112 33.1592 25.8112 36.8766C25.0259 37.9286 24.3192 39.0446 23.6086 40.0592C21.3832 43.2486 19.4606 47.0552 19.2592 51.0032C19.1512 53.1406 19.7672 54.9912 22.1286 55.1552C25.1046 55.3592 28.0392 52.3272 30.0792 50.6219C36.6046 45.1686 42.3659 39.1432 47.8072 32.6286C48.9139 31.3046 52.7326 27.2606 53.9539 24.0486C56.4059 22.1672 58.8339 20.2592 61.2859 18.3952C61.9339 19.0872 63.1299 18.1779 62.6046 17.3779L62.5792 17.3379Z" fill="#F98B72"/>
<path fill-rule="evenodd" clip-rule="evenodd" d="M39.5179 18.9619C37.3019 18.7699 34.8833 20.9779 33.2993 22.2246C31.0273 24.0113 27.9753 25.1833 27.2899 28.2713C27.2486 28.4673 27.3526 28.6219 27.4913 28.7233C27.6299 30.3793 28.8273 32.4273 30.2339 32.4353C34.0659 32.4526 37.8939 28.8673 40.6153 26.5139C43.3073 24.1859 44.0259 19.3553 39.5179 18.9619Z" fill="#BF6854"/>
</svg>
