<svg width="213" height="212" viewBox="0 0 213 212" fill="none" xmlns="http://www.w3.org/2000/svg">
<path fill-rule="evenodd" clip-rule="evenodd" d="M165.279 150.974C167.813 161.762 181.673 161.595 190.235 158.907C194.966 157.42 197.698 154.866 198.439 149.824C199.381 143.424 199.675 136.906 200.014 130.46C200.031 130.131 199.665 130.006 199.43 130.131C198.925 128.044 197.895 127.496 194.487 127.306C187.394 126.903 180.53 127.412 173.554 128.787C170.695 129.351 163.967 129.875 163.726 133.916C163.557 136.764 164.038 139.519 164.311 142.34C164.585 145.199 164.622 148.166 165.279 150.974Z" fill="#9C855E"/>
<path fill-rule="evenodd" clip-rule="evenodd" d="M162.064 116.657C164.013 116.325 167.176 117.97 169.002 118.506C177.537 121.006 186.886 121.009 195.425 118.506C197.253 117.97 200.524 116.894 202.474 117.226C206.504 117.914 206.18 123.659 206.173 127.051C206.166 131.418 204.544 135.253 200.376 137.069C197.569 138.295 194.152 138.503 191.137 138.777C189.617 138.914 188.104 139.131 186.582 139.265C183.685 139.515 180.866 139.545 177.972 139.267C176.429 139.118 174.89 138.915 173.345 138.777C170.332 138.503 166.958 138.295 164.152 137.069C159.982 135.253 158.31 131.418 158.304 127.051C158.296 123.659 158.034 117.345 162.064 116.657Z" fill="#7A6749"/>
<path fill-rule="evenodd" clip-rule="evenodd" d="M174.097 122.324C176.186 122.454 178.282 122.554 180.375 122.6C184.242 122.684 188.125 122.575 191.967 122.11C195.797 121.644 199.398 120.618 203.106 119.614C203.967 119.38 204.457 119.036 204.501 118.202C204.539 117.471 203.517 115.99 202.474 115.66C196.613 113.823 192.429 114.399 189.611 114.179C183.969 113.738 178.291 113.798 172.634 113.786C169.113 113.78 164.275 113.632 161.305 115.951C155.922 120.152 172.455 122.215 174.097 122.324Z" fill="#9C855E"/>
<path fill-rule="evenodd" clip-rule="evenodd" d="M166.749 118.63C172.134 119.705 177.617 120.439 183.11 120.609C188.113 120.763 193.83 121.023 198.641 119.341C198.961 119.229 199.178 118.79 198.961 118.494C199.122 118.199 199.061 117.777 198.641 117.674C191.174 115.809 183.675 115.63 175.971 115.983C173.818 116.083 167.287 115.259 166.351 117.929C166.255 118.206 166.458 118.571 166.749 118.63Z" fill="#222625"/>
<path fill-rule="evenodd" clip-rule="evenodd" d="M193.442 119.954C196.117 117.509 198.779 114.669 199.941 112.065C202.129 107.166 196.463 105.871 193.218 103.247C190.597 101.13 187.897 96.6581 184.022 97.7434C180.179 98.8154 178.818 105.934 178.091 109.042C177.715 110.647 175.985 115.383 175.063 119.954H193.442Z" fill="#EFEBE4"/>
<path fill-rule="evenodd" clip-rule="evenodd" d="M203.175 82.9581C197.442 86.4581 195.631 95.0408 192.566 100.618C188.675 107.709 185.091 114.073 181.945 119.954H183.673C191.505 108.669 197.843 96.4994 204.446 84.5008C204.879 83.7168 204.173 82.3474 203.175 82.9581Z" fill="#6B7076"/>
<path fill-rule="evenodd" clip-rule="evenodd" d="M204.982 72.3299C202.786 74.4019 201.196 77.6593 199.985 80.3793C198.23 84.3193 196.137 88.0993 194.378 92.0086C193.525 93.9126 192.717 96.0059 194.72 97.4513C195.621 98.1019 196.601 98.4153 197.574 98.4033C197.796 98.5459 198.017 98.6873 198.24 98.8286C198.709 99.1806 199.433 99.0659 199.764 98.5819C202.686 94.3233 205.185 89.7979 207.489 85.1779C208.945 82.2566 211.285 79.1713 211.918 75.9019C212.866 71.0193 208.453 69.0619 204.982 72.3299Z" fill="#463532"/>
<path fill-rule="evenodd" clip-rule="evenodd" d="M41.3195 154.034C40.8182 151.325 38.8422 148.919 35.8635 148.277C31.9035 147.425 29.4808 150.739 25.5888 151.033C22.2888 151.279 12.3875 148.721 13.7675 154.982C14.3688 157.715 17.4875 159.767 19.5155 161.306C22.8315 163.825 27.5462 164.259 31.5328 164.042C34.3875 163.883 37.3288 162.511 39.3622 160.462C41.1635 158.647 41.7315 156.239 41.3195 154.034Z" fill="#232625"/>
<path fill-rule="evenodd" clip-rule="evenodd" d="M37.7741 162.598C42.5861 165.586 51.2141 165.338 57.2675 165.829C69.7755 166.847 82.8235 166.503 95.3701 166.005C106.595 165.555 118.777 165.478 129.103 162.007C132.619 160.825 142.337 158.115 137.303 149.618C133.099 142.525 127.211 136.618 119.169 131.363C114.114 128.055 94.2355 113.878 84.8741 118.027C84.8035 117.773 84.3421 117.602 84.0008 117.749L83.8621 117.807C83.7275 117.867 83.6488 117.942 83.6141 118.022C73.0155 126.247 65.5021 134.817 78.0261 144.791C78.5555 145.213 92.0915 149.45 92.7048 149.866C89.5795 149.614 70.0275 149.666 66.8608 149.578C59.4048 149.367 40.2501 152.491 38.2808 155.366C37.3155 156.774 35.7901 161.363 37.7741 162.598Z" fill="#D3E4D7"/>
<path fill-rule="evenodd" clip-rule="evenodd" d="M27.9102 175.241C32.4529 178.99 40.5929 178.678 46.3022 179.295C58.1036 180.573 70.4169 180.138 82.2542 179.514C92.8449 178.953 104.338 178.854 114.081 174.501C117.4 173.021 121.941 170.909 123.008 167.294C123.861 164.403 123.064 161.663 121.817 158.962C117.754 150.142 98.1369 128.95 90.5476 122.361C85.7782 118.215 67.7729 118.326 67.4516 118.511C67.4076 118.534 54.0716 140.397 65.8916 152.906C66.3889 153.434 79.1596 158.751 79.7382 159.273C76.7916 158.955 58.3436 159.021 55.3556 158.91C48.3196 158.645 30.2476 162.565 28.3889 166.17C27.4796 167.937 26.0396 173.694 27.9102 175.241Z" fill="#D3E4D7"/>
<path fill-rule="evenodd" clip-rule="evenodd" d="M29.0382 168.36C30.4169 167.188 31.7249 166.93 33.6036 166.91C36.7476 166.878 39.7769 166.843 42.9156 166.503C50.8742 165.64 58.8396 164.667 66.7582 163.523C79.6262 161.662 92.9062 156.52 106.097 157.578C99.8822 150.723 91.7262 145.572 84.3302 139.875C78.6769 135.516 72.0249 129.543 73.0249 122.131C73.0836 121.712 73.8009 121.695 73.7596 122.131C72.9996 129.955 81.5956 136.118 87.4982 140.579C94.6622 145.995 101.882 151.244 107.838 157.838C108.129 158.163 107.977 158.767 107.433 158.739C94.1796 158.034 81.5689 162.624 68.6676 164.652C62.6302 165.603 56.5582 166.362 50.4862 167.096C46.9902 167.519 43.5049 168.004 39.9969 168.338C36.7556 168.646 32.7622 167.794 29.9022 169.39C29.2129 169.775 28.4396 168.871 29.0382 168.36Z" fill="#959F97"/>
<path fill-rule="evenodd" clip-rule="evenodd" d="M117.59 52.6446C113.369 49.2832 109.166 46.7366 107.272 41.3806C105.181 35.4726 106.693 28.7686 106.152 22.6512C105.373 13.8432 98.2728 6.00456 90.6795 2.09123C82.9715 -1.87944 74.2968 0.233895 67.4048 4.84323C62.6328 8.03256 58.6542 13.2872 57.9968 19.1179C57.5382 23.1966 58.5248 27.1459 58.6182 31.2112C58.7248 35.9006 56.5168 40.8126 55.4368 45.3326C53.9795 51.4392 54.5968 57.4166 59.0848 62.0472C60.1995 63.1966 61.5302 64.0699 62.9715 64.7139C62.5995 66.1486 62.6822 67.6766 63.4355 69.1566C65.5902 73.3846 70.1235 73.0846 73.4035 75.9099C75.1568 77.4219 76.0622 80.0112 77.0088 82.0512C78.0662 84.3259 79.3355 86.4726 80.7582 88.5406C83.4648 92.4726 87.1075 95.4712 91.0875 98.0406C98.0488 102.531 107.96 104.703 114.584 98.4712C117.134 96.0739 117.1 92.6552 116.358 89.5112C114.976 83.6566 120.113 78.8272 122.652 73.8406C126.82 65.6579 124.532 58.1712 117.59 52.6446Z" fill="#463532"/>
<path fill-rule="evenodd" clip-rule="evenodd" d="M156.96 93.274C153.989 93.2686 150.933 94.4006 148.172 95.414C140.992 98.0513 131.497 98.5606 123.977 98.134C108.238 97.2446 93.9422 90.6526 84.2142 76.43C81.8835 73.022 72.3635 60.338 68.4409 67.3473C66.9502 70.0206 68.8635 73.8913 69.7715 76.542C71.8035 82.454 75.3315 87.5113 78.6369 92.6566C84.9089 102.422 94.2729 107.579 104.818 108.817C108.83 109.286 112.961 109.442 116.97 109.225C124.437 108.822 131.653 111.17 139.036 109.997C144.205 109.178 149.842 105.033 154.789 103.27C159.097 101.733 164.946 93.2873 156.96 93.274Z" fill="#EFEBE4"/>
<path fill-rule="evenodd" clip-rule="evenodd" d="M82.5183 42.2219C80.3316 38.7632 75.5663 41.2872 73.3076 44.0486L73.221 44.1019C71.3583 45.6659 71.0356 48.2686 70.753 50.4259C70.337 53.6486 69.653 56.8419 69.2743 60.0592C68.709 64.8792 77.025 67.8912 80.001 63.6006C82.6396 59.7979 81.569 54.6646 82.8356 50.4472C83.6316 47.8059 84.085 44.7006 82.5183 42.2219Z" fill="#EFB189"/>
<path fill-rule="evenodd" clip-rule="evenodd" d="M93.6034 16.8511C91.1834 20.7071 87.7101 23.7977 83.0381 25.0697C82.8888 25.1111 82.7368 25.1417 82.5861 25.1791C82.0368 25.6004 81.4781 26.0057 80.9034 26.3897C79.5008 27.3231 78.0381 28.1671 76.5168 28.8991C74.8634 29.6937 73.0608 30.1364 71.3141 30.6777C69.6488 31.1951 67.9381 31.7831 66.4714 32.7577C66.4754 33.1871 66.4848 33.6151 66.5221 34.0417C67.4928 45.1124 76.8368 55.1924 88.1981 50.5924C94.0061 48.2324 98.4741 26.9897 93.6034 16.8511Z" fill="#EFB189"/>
<path fill-rule="evenodd" clip-rule="evenodd" d="M67.4516 118.511C67.2516 119.268 70.3116 120.762 70.7863 120.979C72.4796 121.754 74.2489 122.252 76.0743 122.6C79.9583 123.339 84.0863 123.69 87.9769 122.899C89.1569 122.66 90.6609 122.74 91.5489 121.788C92.6423 120.618 92.2409 118.607 92.3649 117.159C93.0183 115.506 93.5089 114.211 93.7823 113.53C97.7689 103.656 101.998 94.1885 98.4796 83.6391C96.1249 76.5818 89.4183 72.5885 84.2223 67.8018C81.1129 64.9365 79.3089 61.4325 74.9836 60.2098C73.4383 59.7671 71.8903 59.3298 70.2716 59.3631C61.8116 59.5218 61.2703 72.1871 60.8009 78.1018C60.4516 82.4898 67.4836 118.388 67.4516 118.511Z" fill="#EFEBE4"/>
<path fill-rule="evenodd" clip-rule="evenodd" d="M160.886 81.8858C159.578 78.5044 157.175 78.8338 154.105 78.3244C148.341 77.3698 140.531 78.1591 134.789 79.1924C131.527 79.7778 130.479 81.8671 130.41 84.3991C129.314 88.8964 130.794 94.9644 131.551 99.2551C132.487 104.57 134.766 108.892 139.133 112.108C149.147 119.491 158.173 109.403 160.331 99.9724C161.413 95.2484 162.687 86.5351 160.886 81.8858Z" fill="#F98B72"/>
<path fill-rule="evenodd" clip-rule="evenodd" d="M158.642 82.263L158.574 82.159C158.042 81.407 157.041 81.1963 156.235 80.899C153.521 79.8963 150.197 79.9537 147.521 79.891C146.251 79.8603 132.069 79.607 133.811 82.6923C135.075 84.9323 137.714 84.391 139.966 84.4777C141.467 84.5377 142.975 84.6297 144.483 84.695C149.097 85.087 154.062 85.491 158.249 83.7843C158.943 83.5003 158.982 82.8257 158.642 82.263Z" fill="#222625"/>
<path fill-rule="evenodd" clip-rule="evenodd" d="M153.797 84.2805C151.37 84.4978 148.85 84.3232 146.421 84.2752C143.887 84.2245 141.358 84.1632 138.825 84.1512C138.186 84.1432 137.549 84.1072 136.913 84.0472C136.355 83.9472 135.798 83.8525 135.241 83.7538C133.425 83.6365 133.103 82.7312 134.277 81.0405C135.145 80.7818 136.042 80.5632 136.95 80.3618C141.717 80.4858 146.61 79.5472 151.393 79.7898C152.953 79.8845 154.483 80.1365 155.989 80.5405C160.531 81.5818 155.753 84.1072 153.797 84.2805ZM161.181 80.6565C158.763 77.7592 154.941 77.3018 151.393 76.9752C146.025 76.4765 140.19 76.9925 134.946 78.4045L134.85 78.4178C133.167 78.5858 130.291 79.3418 130.235 81.5298C130.061 88.4178 142.385 86.9058 146.421 87.0632C149.993 87.2045 155.179 87.9378 158.497 86.1672C160.353 85.1738 163.102 82.9592 161.181 80.6565Z" fill="#BF6854"/>
<path fill-rule="evenodd" clip-rule="evenodd" d="M174.941 54.4844C172.782 59.9404 169.644 62.143 164.27 64.259C161.837 65.215 159.916 66.9017 158.374 68.9857C156 72.1937 153.172 78.383 149.236 80.2297C151.218 77.1137 152.301 71.1644 152.566 69.799C153.349 65.743 153.572 61.6604 155.592 57.9764C156.942 55.511 158.502 53.6564 158.878 50.7737C159.417 46.639 159.286 42.423 159.601 38.2617C159.624 37.9644 159.182 37.859 159.048 38.111C156.036 43.735 158.822 49.959 154.393 55.251C152.377 57.6577 151.113 60.1857 150.485 63.239C150.057 65.327 149 76.5204 146.584 79.3697C149.012 72.8057 148.23 65.211 149.301 58.3897C149.989 54.0137 152.246 50.9297 154.458 47.2564C156.576 43.735 154.914 39.395 155.938 35.6177C156.016 35.3284 155.617 35.1684 155.462 35.4177C153.392 38.775 154.112 42.5604 152.19 45.931C150.354 49.1577 147.99 50.907 146.844 54.6284C145.768 58.119 145.597 61.9524 145.397 65.571C145.281 67.6404 145.189 69.711 145.041 71.7764C144.948 73.083 144.248 75.263 144.102 77.0884C143.729 74.0804 143.354 71.151 144.014 67.9617C144.965 63.375 145.784 59.1497 146.176 54.447C146.569 49.739 146.241 45.3564 145.292 40.735C144.122 35.0564 142.046 30.2737 146.32 25.275C146.47 25.1017 146.244 24.879 146.068 25.0257C138.596 31.251 143.333 40.9217 143.468 49.2297C143.566 55.2524 142.601 61.3737 141.212 67.191C140.904 68.4844 140.789 69.7204 140.814 70.927C140.581 69.7577 140.422 68.7244 140.33 68.0057C139.917 64.7897 140.41 61.5737 139.862 58.3564C138.746 51.803 133.224 47.411 129.136 42.6604C129.01 42.5137 128.761 42.707 128.868 42.8684C133.213 49.3724 138.544 54.0004 138.014 62.503C137.633 68.6697 138.45 73.951 141.245 79.1844C138.921 76.2684 137.362 71.027 136.573 69.2684C134.71 65.1097 128.236 63.559 127.514 59.4257C127.458 59.1044 126.974 59.1337 126.898 59.4257C126.18 62.2124 127.542 63.4457 129.572 65.2804C132.918 68.303 134.406 71.495 136.064 75.6164C137.313 78.7217 141.989 84.9684 145.71 82.9444C150.234 85.0964 154.901 79.4937 157.742 75.4084C158.861 73.8004 159.885 72.131 161.006 70.5244C162.921 67.779 165.618 66.5244 168.458 64.9937C172.842 62.6324 173.993 59.1977 175.313 54.587C175.382 54.343 175.03 54.2604 174.941 54.4844Z" fill="#3E5A46"/>
<path fill-rule="evenodd" clip-rule="evenodd" d="M90.9968 112.811C83.6955 111.128 79.4648 105.35 75.9142 99.1697C73.9062 95.6763 72.1342 92.0697 70.6275 88.331C69.3315 85.1177 69.5102 81.4257 67.5595 78.483C67.3955 78.235 66.9448 78.3857 67.0568 78.6964C68.2008 81.823 68.6968 85.027 69.6235 88.1737C69.2662 87.8284 68.8902 87.491 68.4915 87.159C66.7168 85.6737 65.3675 84.2164 63.9062 82.4364C63.7528 82.251 63.4622 82.415 63.4568 82.6244C63.4168 84.4497 64.9382 85.7284 66.2315 86.8164C67.6995 88.047 69.3595 89.1497 70.4835 90.687L70.5902 90.967C72.0888 94.5977 73.9368 98.091 75.9035 101.487C78.9262 106.699 84.0275 114.112 90.9328 113.275C91.1795 113.246 91.2782 112.874 90.9968 112.811Z" fill="#D5CDBE"/>
<path fill-rule="evenodd" clip-rule="evenodd" d="M2.61022 178.691C7.67289 179.586 13.3076 178.679 18.4169 178.562C22.8622 178.462 27.9969 178.694 31.7956 176.047C34.5902 174.101 36.3649 167.339 33.4116 165.613C33.3889 165.458 33.3062 165.314 33.1316 165.227C30.2409 163.837 25.6329 159.529 22.1129 160.934C20.5209 161.57 20.3289 162.537 19.4049 163.871C17.4196 166.747 14.7049 167.294 11.5929 168.407C7.54889 169.85 3.44889 171.474 0.755553 174.982C-0.404446 176.491 1.02889 178.41 2.61022 178.691Z" fill="#232625"/>
<path fill-rule="evenodd" clip-rule="evenodd" d="M99.9875 83.5511C98.3249 79.3564 91.2969 73.0164 92.2875 81.4671C93.0902 88.3284 91.3129 96.7271 89.4995 103.304C88.4302 107.18 87.3635 111.056 86.3569 114.947C85.8782 116.803 85.6035 118.872 84.9182 120.658C84.5555 121.603 83.4489 122.684 83.3862 123.658C83.2542 125.81 87.3062 125.626 88.4422 125.407C90.6075 124.991 91.8862 123.714 93.1702 121.971C95.7115 118.524 97.0302 114.291 98.3315 110.262C101.072 101.779 103.413 92.1924 99.9875 83.5511Z" fill="#EFEBE4"/>
<path fill-rule="evenodd" clip-rule="evenodd" d="M155.188 108.939C152.82 108.523 150.289 108.75 147.873 109.1C148.993 108.395 150.065 107.643 150.977 106.682C151.314 106.331 151.058 105.834 150.609 105.787C146.336 105.338 142.478 107.563 139.035 109.996C136.602 110.046 134.09 109.934 131.593 109.71C127.35 109.339 123.157 108.62 119.458 107.788C103.052 104.09 89.2355 95.0297 81.7302 79.2951C79.9208 75.5164 72.3328 61.3324 66.8422 67.5284C64.7448 69.8817 66.0248 74.0444 66.4742 76.8124C67.4835 82.9911 70.2195 88.5964 72.7168 94.2604C77.4542 104.987 86.3222 111.74 97.2075 114.846C101.354 116.032 105.677 116.943 109.934 117.439C116.978 118.271 124.165 118.496 131.289 118.655C132.217 118.671 133.129 118.704 134.058 118.719C139.66 118.848 145.406 119.215 150.961 118.384C155.797 117.648 163.606 110.38 155.188 108.939Z" fill="#EFB189"/>
<path fill-rule="evenodd" clip-rule="evenodd" d="M131.593 109.71C131.497 112.366 131.385 115.648 131.289 118.655C124.165 118.496 116.978 118.271 109.934 117.439C105.677 116.943 101.354 116.032 97.2075 114.846C86.3222 111.74 77.4542 104.987 72.7168 94.2604C70.2195 88.5964 67.4835 82.9911 66.4742 76.8124C66.0248 74.0444 64.7448 69.8817 66.8422 67.5284C72.3328 61.3324 79.9208 75.5164 81.7302 79.2951C89.2355 95.0297 103.052 104.09 119.458 107.788C123.157 108.62 127.35 109.339 131.593 109.71Z" fill="#EFEBE4"/>
<path fill-rule="evenodd" clip-rule="evenodd" d="M83.9743 68.8552C78.9476 65.6965 68.7623 59.1605 63.8356 66.0312C58.7209 73.1579 59.4116 83.9539 61.0103 92.0325C62.8529 101.355 65.7503 110.978 66.4023 120.435C66.3236 121.137 66.8876 121.463 67.4516 121.427C68.0143 121.463 68.5783 121.137 68.4996 120.435C69.5076 105.818 60.7023 91.5152 63.3383 76.9272C63.8703 73.9912 64.4063 71.0792 65.8863 68.4459C68.8076 63.2392 76.5303 68.0045 79.9943 70.0219C85.7503 73.3712 93.4543 78.8685 95.5223 85.5285C95.7929 86.3965 97.1983 86.2712 97.1516 85.3085C96.8036 78.2325 89.5489 72.3592 83.9743 68.8552Z" fill="#D5CDBE"/>
<path fill-rule="evenodd" clip-rule="evenodd" d="M76.8889 155.056C76.2303 154.674 75.4236 154.462 74.5836 154.298C74.6983 154.036 74.5196 153.692 74.1876 153.675C73.1889 153.627 72.1903 153.622 71.1929 153.636C68.4889 152.824 65.2809 151.356 63.5369 149.062C63.1716 148.584 62.3676 149.007 62.7049 149.55C63.8836 151.443 65.4796 152.787 67.3409 153.834C62.7209 154.222 58.1369 155.123 53.6369 156.183C48.5343 157.383 42.1369 158.708 38.2063 162.406C37.7756 162.81 38.3636 163.602 38.8476 163.235C43.3183 159.848 50.5076 158.746 55.9209 157.582C59.8103 156.746 63.7196 155.992 67.7009 155.806C68.9756 155.744 70.1196 155.739 71.2223 155.582C73.1116 156.28 75.3649 156.844 76.8889 156.066C77.2849 155.863 77.2529 155.268 76.8889 155.056Z" fill="#959F97"/>
<path fill-rule="evenodd" clip-rule="evenodd" d="M112.85 142.022C109.485 138.959 105.71 136.327 102.034 133.66C100.28 132.39 98.521 131.126 96.785 129.828C94.5076 128.127 95.2143 126.196 95.4076 123.803C95.4556 123.212 94.4583 123.074 94.369 123.662C93.9196 126.623 92.1623 128.027 94.5103 130.204C97.7423 133.2 101.605 135.628 105.14 138.244C109.526 141.492 113.948 145.014 117.186 149.456C119.929 153.216 120.3 157.986 122.486 161.991C122.656 162.3 123.133 162.155 123.134 161.816C123.177 153.751 118.56 147.215 112.85 142.022Z" fill="#959F97"/>
<path fill-rule="evenodd" clip-rule="evenodd" d="M82.3677 39.5977L91.5103 42.0017C91.5103 42.0017 87.1797 56.4377 82.3677 39.5977Z" fill="#FFFFFE"/>
<path fill-rule="evenodd" clip-rule="evenodd" d="M152.874 106.795C154.616 104.891 157.488 103.924 158.184 101.243C158.276 100.888 158.07 100.542 157.726 100.435C153.454 99.1285 148.444 103.12 144.578 104.378C141.052 105.526 137.076 106.283 133.373 106.279C130.03 106.275 126.922 104.967 123.629 104.883C122.956 104.867 122.58 112.315 122.604 115.519C122.613 116.836 122.361 121.359 124.212 121.851C125.524 122.199 127.048 121.984 128.376 121.87C130.764 121.663 133.149 121.45 135.538 121.238C139.953 120.846 144.388 120.951 148.792 120.386C152.073 119.964 155.144 118.958 157.937 117.182C159.882 115.946 162.338 113.962 162.25 111.419C162.125 107.804 156.328 106.844 152.874 106.795Z" fill="#BEBDD6"/>
<path fill-rule="evenodd" clip-rule="evenodd" d="M124.032 167.019C124.485 165.151 126.889 163.707 127.8 162.105C129.141 159.743 130.378 157.658 132.312 155.738C132.438 155.611 132.568 155.487 132.697 155.362C133.349 154.378 134.072 153.419 134.828 152.463C138.04 148.406 141.065 143.922 145.496 141.113C149.63 138.493 153.606 140.374 157.457 142.378C162.7 145.11 166.58 148.361 170.601 152.633C173.998 156.235 182.902 166.943 175.808 171.419C172.757 173.343 169.072 173.223 165.588 173.322C163.425 173.381 161.26 173.406 159.093 173.406C159.324 173.687 159.542 173.991 159.741 174.339C159.961 174.726 159.873 175.143 159.597 175.467C157.058 178.446 152.878 177.942 149.521 176.771C145.066 175.218 138.208 178.463 135.072 173.387C134.777 172.91 134.673 172.465 134.708 172.045C132.573 171.962 130.434 171.891 128.285 171.829C125.436 171.749 123.338 169.881 124.032 167.019Z" fill="#EFEBE4"/>
<path fill-rule="evenodd" clip-rule="evenodd" d="M138.989 177.59C140.465 178.271 141.372 179.89 141.322 181.496C142.565 182.088 143.218 183.722 141.973 185.207C140.888 186.498 138.594 186.436 137.133 186.083C135.51 185.69 134.042 184.46 133.293 182.983C131.485 179.419 135.541 175.992 138.989 177.59Z" fill="#959F97"/>
<path fill-rule="evenodd" clip-rule="evenodd" d="M120.514 174.214C121.902 173.499 123.801 173.866 124.834 175.035C124.976 175.197 125.092 175.366 125.185 175.541C125.417 175.642 125.641 175.774 125.854 175.953C126.53 176.519 126.656 177.555 126.377 178.345C126.04 179.309 125.293 179.91 124.372 180.277C123.232 180.73 121.977 180.382 120.941 179.842C119.921 179.31 119.066 178.749 118.714 177.565C118.288 176.125 119.302 174.839 120.514 174.214Z" fill="#959F97"/>
<path fill-rule="evenodd" clip-rule="evenodd" d="M122.486 182.475C123.323 182.186 124.241 182.406 124.858 183.04C125.213 183.403 125.423 183.896 125.553 184.38C125.777 185.222 125.401 185.735 124.818 186.282C124.598 186.488 124.347 186.626 124.09 186.702L123.881 186.871C123.087 187.362 122.15 187.002 121.455 186.504C119.813 185.331 120.867 183.036 122.486 182.475Z" fill="#959F97"/>
<path fill-rule="evenodd" clip-rule="evenodd" d="M99.0276 188.698C104.938 190.595 110.785 193.889 116.348 196.658C120.268 198.611 124.593 202.686 128.865 202.849C129.558 202.877 129.85 203.807 129.224 204.173L129.35 204.155C129.293 204.451 129.016 204.686 128.737 204.769C124.038 206.157 118.838 201.238 114.924 199.097C109.489 196.125 103.292 193.518 98.5982 189.437C98.2636 189.146 98.6169 188.566 99.0276 188.698Z" fill="#D5CDBE"/>
<path fill-rule="evenodd" clip-rule="evenodd" d="M100.964 194.286C103.441 195.68 111.7 198.694 111.356 192.896C111.814 189.399 102.984 186.915 100.853 185.926C96.6115 183.955 90.7662 178.311 87.0115 183.775C84.0848 188.031 98.8528 193.099 100.964 194.286Z" fill="#463532"/>
<path fill-rule="evenodd" clip-rule="evenodd" d="M111.55 210.323C111.772 210.829 112.278 210.982 112.764 210.903C113 211.15 113.33 211.306 113.708 211.343C116.508 211.629 118.648 210.585 121.317 209.926C123.946 209.277 126.686 208.711 129.214 207.714C131.974 206.627 134.79 205.527 137.172 203.77C138.832 203.407 140.412 202.501 140.412 201.043C140.412 200.483 140.274 200.041 140.049 199.682C141.084 197.814 141.12 195.001 139.218 193.855C138.85 193.633 138.366 193.637 137.998 193.855C136.349 194.83 136.521 196.714 136.936 198.434C135.885 198.438 134.822 198.657 134.108 198.903C133.929 198.965 133.753 199.043 133.574 199.107C133.356 197.867 132.862 196.705 131.877 195.855C131.18 195.255 130.173 195.493 129.876 196.383C129.402 197.802 129.725 199.191 130.057 200.585C129.261 200.955 128.465 201.342 127.669 201.726C127.616 200.41 127.358 199.133 126.548 197.963C126.178 197.429 125.342 197.185 124.854 197.745C123.669 199.102 123.696 200.773 123.71 202.489C123.713 202.825 123.765 203.162 123.828 203.502C123.001 203.858 122.169 204.182 121.326 204.471C121.013 203.311 120.392 202.229 119.553 201.323C119.064 200.793 118.14 200.938 117.792 201.549C117.116 202.731 117.505 204.13 117.541 205.457C116.588 205.658 115.658 205.902 114.856 206.274C114.401 205.043 113.601 203.937 112.482 203.29C111.864 202.931 110.962 203.245 110.796 203.977C110.322 206.059 110.705 208.383 111.55 210.323Z" fill="#D5CDBE"/>
</svg>
