<svg width="677" height="318" viewBox="0 0 677 318" fill="none" xmlns="http://www.w3.org/2000/svg">
<path fill-rule="evenodd" clip-rule="evenodd" d="M642.714 304.79C623.192 306.538 282.294 308.111 262.771 309.528C222.906 312.446 182.992 314.675 143.055 316.223C123.241 317.008 103.382 317.795 83.5709 317.971C73.7838 318.073 63.9993 317.921 54.2616 317.261C45.6562 316.703 36.4007 316.348 28.0598 313.89C20.421 311.634 16.0824 305.777 14.0084 297.919C11.5758 288.666 10.6117 278.776 9.26191 269.273C6.39427 249.017 4.20151 228.66 2.70589 208.255C-0.0430915 170.733 -0.379298 133.062 1.57367 95.4926C0.849338 91.0827 0.51066 86.6221 0.970472 82.2095C1.74177 74.9593 5.06675 68.4699 11.1902 64.7434C18.2999 60.3815 27.3132 59.7996 35.2932 58.633C54.5978 55.7447 74.0236 53.8921 93.4742 52.448C132.86 49.557 493.688 47.5309 533.121 45.147C553.1 43.9565 573.104 42.7125 593.111 41.546C602.97 40.964 612.851 40.4809 622.732 40.7371C627.77 40.8866 632.784 41.1936 637.772 41.8503C641.1 42.2827 644.546 42.9421 647.463 44.7653C654.595 49.2553 655.055 59.57 656.548 67.2526C658.501 77.3164 660.333 87.4309 662.019 97.5721C665.274 117.243 667.996 136.992 670.214 156.842C672.503 177.276 674.216 197.759 675.348 218.316C676.48 238.47 677.084 258.753 674.624 278.829C673.734 286.181 672.673 294.699 666.646 299.515C660.189 304.712 650.378 304.104 642.714 304.79Z" fill="#EFEBE4"/>
<path fill-rule="evenodd" clip-rule="evenodd" d="M84.1726 68.2839C89.4385 68.0723 94.7043 67.8607 99.9702 67.7478C103.034 67.6816 106.097 67.6375 109.161 67.6476C109.868 67.6497 110.592 67.6338 111.324 67.6177C111.492 67.614 111.661 67.6103 111.829 67.6068C111.548 66.9324 111.207 66.276 110.813 65.6417C110.65 65.9562 110.375 66.229 110.125 66.4766C110.088 66.5132 110.052 66.5493 110.017 66.5848C109.923 66.6817 109.769 66.5306 109.87 66.4331C109.915 66.3866 109.963 66.3389 110.013 66.2898C110.264 66.0424 110.551 65.7597 110.679 65.4318C109.863 64.1491 108.873 62.9467 107.843 61.8258C107.823 62.0156 107.816 62.2067 107.816 62.3992C107.816 62.6058 107.488 62.6051 107.495 62.3992C107.508 62.1132 107.535 61.8284 107.589 61.5524C106.906 60.8238 106.211 60.1273 105.542 59.4656C105.507 59.4322 105.472 59.3989 105.438 59.3657C105.385 59.3159 105.333 59.2661 105.281 59.2156C105.208 59.3914 105.134 59.5665 105.054 59.7403C104.973 59.9255 104.679 59.7631 104.779 59.5786C104.824 59.4885 104.87 59.3983 104.916 59.308L104.916 59.3074C104.967 59.2075 105.018 59.1074 105.067 59.0071C104.057 58.03 103.015 57.083 101.972 56.1359L101.972 56.1358C100.148 54.479 98.3239 52.8215 96.6727 51.0009C96.6459 50.9755 96.686 50.9381 96.7061 50.9635C98.353 52.7536 100.168 54.379 101.982 56.0041L101.982 56.0041L101.982 56.0042C103.042 56.9531 104.101 57.902 105.127 58.8834C105.495 58.1382 105.863 57.3976 106.398 56.7599C106.044 56.284 105.689 55.8128 105.308 55.3509C104.987 54.9593 104.665 54.5665 104.344 54.1737L104.024 53.7815C104.003 54.448 103.708 54.9981 103.405 55.5646C103.32 55.723 103.234 55.8828 103.154 56.0467C103.114 56.1383 102.967 56.0568 103.02 55.9659C103.109 55.8009 103.204 55.6405 103.298 55.4812L103.298 55.4812C103.623 54.9316 103.94 54.3941 103.977 53.722C103.101 52.6538 102.232 51.5842 101.363 50.5146L101.361 50.513C101.275 51.3612 101.04 52.1707 100.485 52.8905C100.358 53.0496 100.111 52.9173 100.204 52.7281C100.256 52.6297 100.308 52.5321 100.36 52.4349L100.361 52.4347C100.635 51.9246 100.905 51.4223 101 50.8352C101.034 50.6079 101.054 50.3793 101.067 50.1507C99.8632 48.6696 98.6592 47.1897 97.4352 45.7199C97.1409 46.8455 96.9603 47.9577 96.8466 49.1562C96.8332 49.36 96.5389 49.3647 96.5322 49.1562C96.4519 47.8782 96.7797 46.6122 97.1676 45.3944C96.4519 44.5328 95.7295 43.6772 95.0072 42.825C95.0061 42.826 95.0053 42.827 95.0049 42.828C95.0044 42.8288 95.0042 42.8297 95.004 42.8305C95.0038 42.8317 95.0038 42.8329 95.0038 42.8341C95.0038 42.8371 95.0038 42.8401 95.0005 42.8431C94.9492 42.9494 94.8969 43.0605 94.8432 43.1748L94.8427 43.1757C94.4262 44.0612 93.9196 45.138 93.1142 45.641C92.9738 45.7272 92.8132 45.5581 92.8935 45.4218C93.0481 45.1603 93.2469 44.9281 93.4464 44.6951L93.4464 44.695C93.6268 44.4844 93.8078 44.2731 93.957 44.0388C94.238 43.5997 94.4854 43.1425 94.7262 42.6813C94.7463 42.6372 94.7797 42.6138 94.8132 42.6051C94.1109 41.7776 93.3952 40.9555 92.6728 40.1387C91.4889 41.2048 90.305 42.2883 89.2147 43.4386C89.05 43.6108 88.8846 43.7952 88.7162 43.983C88.1457 44.619 87.54 45.2943 86.8067 45.6684C84.6459 46.77 82.0275 45.2834 80.0665 44.17L80.0658 44.1696L80.0641 44.1686C79.9318 44.0935 79.8025 44.0201 79.6765 43.9493C78.0378 43.0276 76.4793 41.9828 74.9743 40.8566C73.175 42.3398 71.4159 43.8771 69.6902 45.4626C70.0648 46.2807 70.5397 47.0213 71.2085 47.673C71.3624 47.8167 71.1216 48.0506 70.9878 47.8989C70.3457 47.2024 69.9042 46.4257 69.5631 45.5795C68.2856 46.7552 67.0348 47.9564 65.7973 49.1789C66.0414 49.4064 66.2871 49.6342 66.5328 49.8621C66.7787 50.0901 67.0246 50.3181 67.2689 50.5458C67.369 50.638 67.4755 50.7293 67.5833 50.8217L67.5833 50.8217L67.5834 50.8218C67.9295 51.1183 68.2889 51.4263 68.4929 51.8151C68.5732 51.9588 68.4193 52.1098 68.2789 52.0343C67.8533 51.8112 67.5102 51.4068 67.185 51.0235L67.1849 51.0234C67.0757 50.8947 66.9685 50.7683 66.8608 50.652C66.6611 50.4377 66.4613 50.223 66.2615 50.0083L66.2548 50.001L66.248 49.9937C66.0442 49.7748 65.8405 49.5559 65.6368 49.3373C64.7806 50.1888 63.9312 51.0477 63.0884 51.918C63.4161 52.2335 63.7439 52.5483 64.0783 52.8631C64.2307 53.0098 64.3905 53.1544 64.5514 53.3C64.9837 53.6912 65.4239 54.0897 65.7505 54.5549C65.8442 54.6845 65.6636 54.8657 65.5365 54.7741C65.0208 54.4109 64.5772 53.9166 64.1449 53.4347C63.9884 53.2603 63.8334 53.0876 63.677 52.9233L63.6133 52.8576L63.6131 52.8575L63.6122 52.8566C63.373 52.6102 63.1342 52.3643 62.9011 52.1179C62.4396 52.5951 61.9847 53.0737 61.5299 53.5563C61.5678 53.537 61.6045 53.5171 61.641 53.4973L61.6411 53.4973L61.6412 53.4972C61.6883 53.4717 61.7351 53.4463 61.7841 53.4226C62.0851 53.2742 62.4463 53.5817 62.259 53.8971C61.8777 54.5355 61.4363 55.1491 60.9547 55.7419C61.4162 56.1911 61.8041 56.7292 62.0984 57.2946C62.1787 57.4497 61.9714 57.6349 61.8443 57.4891C61.6337 57.24 61.442 56.985 61.2545 56.7354L61.2544 56.7353C61.0727 56.4935 60.8948 56.2567 60.7072 56.0354C59.7039 57.2352 58.54 58.3494 57.336 59.4095C57.965 60.3251 58.588 61.2414 59.2106 62.1572L59.3293 62.3317C59.4296 62.4741 59.1955 62.6111 59.1019 62.4661L58.9769 62.2741L58.9765 62.2736C58.3829 61.3618 57.7888 60.4494 57.1889 59.5365C56.4737 60.1675 55.7452 60.7793 55.0319 61.3783C54.6111 61.7317 54.1955 62.0807 53.791 62.4266C53.754 62.4596 53.7149 62.4921 53.676 62.5244C53.6447 62.5505 53.6135 62.5765 53.5836 62.6024C54.0987 63.6645 54.8144 64.605 55.6772 65.4826C55.8177 65.6303 55.5903 65.8569 55.4498 65.7092C54.5937 64.8409 53.8846 63.9072 53.3495 62.8611C52.7342 63.6044 52.1255 64.3523 51.5235 65.1009C51.8981 65.4752 52.0385 65.9792 52.0653 66.5093C52.0787 66.7151 51.7442 66.7165 51.7442 66.5093C51.7509 66.014 51.6038 65.6123 51.3496 65.3162C50.5871 66.2599 49.8379 67.2071 49.0888 68.1569C49.3831 68.3333 49.664 68.5646 49.9249 68.8393C50.454 68.8438 50.9831 68.8513 51.5133 68.8589L51.5139 68.8589H51.5141H51.5142C52.1836 68.8685 52.8548 68.8781 53.5301 68.8814C55.8566 68.893 58.1794 68.8819 60.504 68.8709H60.5044H60.5048C61.281 68.8672 62.0574 68.8635 62.8342 68.8607C69.0414 68.8373 75.2486 68.6381 81.449 68.3928C82.3569 68.3568 83.2647 68.3204 84.1726 68.2839ZM48.8679 68.4431C48.7676 68.5741 48.6674 68.705 48.5604 68.8366C48.7755 68.8356 48.9907 68.8362 49.2023 68.8369H49.2027H49.203L49.3564 68.8373C49.1958 68.6996 49.0353 68.5633 48.8681 68.443L48.8679 68.4431ZM46.3932 68.2899C46.7879 68.0145 47.1691 67.8628 47.537 67.8093C47.7989 67.4754 48.0638 67.1406 48.3277 66.8072L48.3284 66.8062C48.4552 66.646 48.5817 66.4861 48.7075 66.3268C47.4501 67.1643 46.1324 67.9296 44.7411 68.5887C44.7372 68.5914 44.7332 68.5921 44.7279 68.593L44.7279 68.593C44.7242 68.5936 44.7198 68.5944 44.7143 68.596C44.6742 68.7711 44.594 68.9142 44.4869 69.0305C45.2294 68.9563 45.9718 68.9068 46.7076 68.8788L46.7131 68.8694C46.7314 68.8382 46.7502 68.8062 46.7745 68.7758C46.877 68.6441 46.9814 68.5134 47.0857 68.3829C47.1787 68.2665 47.2716 68.1501 47.3631 68.0332C47.0554 68.0867 46.7544 68.2124 46.4467 68.3815C46.3865 68.4156 46.3397 68.3287 46.3932 68.2899ZM65.7049 32.7643C64.5806 31.7074 63.4606 30.6544 62.3326 29.6274C59.4115 26.9712 56.2521 24.5888 53.0928 22.2065L53.0928 22.2065C49.7267 19.6683 46.3607 17.1301 43.283 14.2608C43.7981 22.4018 44.03 30.5759 44.2614 38.7293L44.2614 38.7293L44.3063 40.3118C44.5672 49.5017 44.808 58.6849 44.7478 67.8802C47.6306 66.016 50.246 63.6852 52.7409 61.3265C52.7311 61.285 52.7181 61.2439 52.705 61.2027L52.705 61.2027C52.6913 61.1596 52.6775 61.1162 52.6673 61.0718C52.6138 60.8713 52.9215 60.7871 52.975 60.9869C52.9783 61.0029 52.9833 61.0185 52.9883 61.034C52.9934 61.0496 52.9984 61.0651 53.0017 61.0812C53.049 61.0361 53.0978 60.9909 53.1466 60.9457L53.1468 60.9455L53.147 60.9453C53.2017 60.8946 53.2565 60.8438 53.3094 60.7931C55.0752 58.7451 56.8879 56.7365 58.7474 54.7721C58.6069 54.7453 58.4598 54.7246 58.3059 54.7159C58.1989 54.7106 58.1989 54.5549 58.3059 54.5555C58.5066 54.5569 58.7072 54.5782 58.9012 54.6157C59.3962 54.095 59.8912 53.5756 60.3928 53.061C60.9614 52.4728 61.5366 51.8859 62.1185 51.3037C62.0766 51.2611 62.0365 51.2184 61.9963 51.1755C61.9596 51.1363 61.9227 51.097 61.8844 51.0578C61.7908 50.9582 61.9312 50.8118 62.0316 50.9067C62.1048 50.9726 62.1734 51.039 62.2411 51.1046L62.279 51.1413C64.5198 48.8935 66.8207 46.6991 69.2354 44.6464C69.2287 44.6324 69.222 44.6177 69.222 44.6037C69.2019 44.5381 69.2956 44.5134 69.3223 44.5729C71.0012 43.1479 72.7336 41.7903 74.5529 40.5331C71.443 38.1591 68.5604 35.449 65.7049 32.7643ZM48.9818 17.3595C48.8948 16.1697 48.7009 15.0241 48.4601 13.8704C46.7076 13.7474 44.9551 13.5723 43.2161 13.3096C43.2228 13.3177 43.2228 13.327 43.2228 13.335L43.4222 13.4717L43.4222 13.4717L43.4222 13.4717C43.9855 13.8576 44.5519 14.2456 45.1023 14.6491C46.3799 15.5795 47.6775 16.4745 48.9818 17.3595ZM56.821 16.3255C56.8143 16.1851 56.6872 14.9706 56.6003 14.2127C56.2689 14.2023 55.9375 14.1921 55.6059 14.1819L55.6059 14.1819C54.7196 14.1547 53.8323 14.1275 52.9415 14.0964C52.995 15.5007 53.1957 16.7145 53.8713 18.0219C53.9716 18.2097 53.7174 18.3454 53.597 18.1836C52.7275 17.0226 52.6807 15.4987 52.7007 14.087C51.3563 14.0375 50.0185 13.9747 48.6741 13.8845C49.0286 15.097 49.343 16.3235 49.3229 17.5921C49.8528 17.9503 50.3839 18.3071 50.9151 18.6639L50.9154 18.6641L50.9155 18.6641C52.7917 19.9243 54.6689 21.1851 56.4933 22.5149C59.7172 24.8597 62.7539 27.3194 65.7104 29.989C66.0715 30.315 66.4324 30.6415 66.7933 30.9682L66.7948 30.9695L66.7963 30.9709C69.3489 33.2809 71.9058 35.5948 74.6064 37.7345C77.4023 39.9522 80.4591 42.2128 83.8302 43.4727C84.867 43.8597 85.4957 44.0141 86.3118 43.202C86.7038 42.8146 87.0836 42.4175 87.4632 42.0206L87.4634 42.0204L87.4635 42.0204C88.1396 41.3135 88.8148 40.6076 89.5558 39.9596C92.927 36.9972 96.278 34.1545 99.8766 31.4575C103.415 28.7979 106.077 25.641 108.706 22.0938C108.834 21.9202 108.962 21.7463 109.091 21.5724C110.032 20.2969 110.977 19.0174 111.983 17.7886C110.913 18.3614 109.769 18.7872 108.579 19.0305C108.559 19.0339 108.552 19.0058 108.565 19.0018C110.064 18.7257 111.314 18.0546 112.465 17.2125C112.893 16.7071 113.328 16.2112 113.783 15.7306L113.742 15.7286C113.422 15.7126 113.114 15.6972 112.813 15.6965C111.294 15.6865 109.769 15.6724 108.244 15.6511C106.881 15.632 105.52 15.6109 104.158 15.5897L104.158 15.5897C102.459 15.5633 100.761 15.537 99.0606 15.5147C98.987 15.514 98.9134 15.5129 98.8399 15.5117C98.7663 15.5105 98.6927 15.5094 98.6191 15.5087C97.8633 16.8041 96.9402 18.0566 95.87 19.1107C95.7496 19.2317 95.5623 19.0472 95.6827 18.9216C96.3249 18.2294 96.8556 17.4558 97.3875 16.6805L97.3875 16.6804L97.3876 16.6803C97.659 16.2847 97.9308 15.8886 98.2178 15.5027C96.3784 15.4779 94.5389 15.4485 92.7062 15.4158C92.3007 16.126 91.8494 16.8088 91.3976 17.4922C90.6793 18.5787 89.9599 19.6669 89.422 20.87C89.402 20.9248 89.3016 20.8847 89.3284 20.8292C90.0508 18.9824 91.034 17.0935 92.1644 15.4064C88.0977 15.3322 84.0242 15.236 79.9508 15.0856C79.1615 15.0568 78.3655 15.0288 77.5762 15.002V17.1897C77.5762 17.2933 77.4157 17.2933 77.4157 17.1897V14.996C76.3206 14.959 75.223 14.9232 74.1259 14.8875L74.1255 14.8875C73.4403 14.8652 72.7554 14.8428 72.0714 14.8202L72.0915 18.1028C72.0915 18.2057 71.9309 18.2057 71.9309 18.1028C71.9343 17.5556 71.9393 17.0083 71.9443 16.4608L71.9443 16.4597C71.9493 15.9122 71.9543 15.3645 71.9577 14.8169C68.5464 14.7059 65.1418 14.5863 61.7306 14.4205C62.3392 15.5922 62.6402 16.9224 62.0984 18.1836C62.0316 18.3334 61.7908 18.2538 61.7975 18.1028C61.8063 17.8782 61.8252 17.6533 61.844 17.4283V17.4283C61.8959 16.8069 61.9479 16.1854 61.7908 15.5715C61.6837 15.1618 61.5366 14.7761 61.356 14.4031C61.2557 14.3981 61.1553 14.3935 61.055 14.3888C60.9547 14.3841 60.8543 14.3794 60.754 14.3744C59.4831 14.3096 58.2056 14.2641 56.928 14.2227C56.9648 14.4357 56.985 14.6343 56.9953 14.7347C56.9981 14.7623 57.0002 14.7824 57.0016 14.7935C57.0579 15.1823 57.1236 15.5748 57.1896 15.9693L57.1896 15.9693C57.3592 16.9818 57.5308 18.0071 57.5501 19.0158C57.5501 19.1682 57.3227 19.2451 57.2491 19.0967C56.9123 18.3793 56.877 17.5654 56.8427 16.7759V16.7759C56.8361 16.6246 56.8296 16.4742 56.821 16.3255ZM107.615 61.3973C107.756 60.7703 108.017 60.1975 108.452 59.7611C107.823 58.7798 107.174 57.8127 106.478 56.8709C105.998 57.5256 105.682 58.2708 105.364 59.0187L105.335 59.0886L105.414 59.1657C105.689 59.4306 105.963 59.695 106.231 59.9656C106.686 60.4275 107.154 60.9054 107.615 61.3973ZM93.6226 39.2885C93.4955 39.4031 93.3684 39.5178 93.2413 39.6321C97.4485 42.9652 100.955 47.2125 104.389 51.3718L104.389 51.3724L104.39 51.3732C105.132 52.2721 105.87 53.1669 106.612 54.0475C108.579 56.3823 110.177 58.8874 111.796 61.4682L111.836 61.5315C112.625 62.7858 113.417 64.0432 114.324 65.2172C114.692 65.6925 115.094 66.1276 115.508 66.55L115.51 66.446C115.543 64.6844 115.578 62.7575 116.425 61.5022C116.331 54.3383 116.003 47.1804 115.655 40.0237C115.448 35.6791 115.348 31.3231 115.267 26.9752L115.263 26.7745C115.198 23.6895 115.131 20.5527 115.308 17.4531C114.15 18.6823 113.1 20.003 112.084 21.3546C111.668 21.9091 111.256 22.4685 110.843 23.0287L110.842 23.0297L110.842 23.0306C108.908 25.6543 106.96 28.2973 104.612 30.5578C102.87 32.2322 100.903 33.6644 98.9347 35.0978L98.9347 35.0979C97.2453 36.3281 95.5546 37.5592 94.0038 38.9449C93.8768 39.0592 93.7497 39.1739 93.6226 39.2885ZM110.752 65.1409L110.753 65.139C110.759 65.002 110.973 65.0007 110.96 65.139C110.96 65.2493 110.933 65.3543 110.893 65.4552C111.334 66.1463 111.722 66.8608 112.043 67.6028C112.538 67.5934 113.04 67.5861 113.542 67.5867C112.52 66.3425 111.643 64.9149 110.871 63.6596C110.779 63.5095 110.688 63.3619 110.599 63.2174C110.381 62.8661 110.165 62.5152 109.949 62.1652C109.488 61.4182 109.03 60.6748 108.565 59.9388C108.157 60.4047 107.943 61.0103 107.863 61.6546C108.893 62.7602 109.896 63.9419 110.739 65.2085C110.739 65.1858 110.745 65.1637 110.752 65.1409ZM117.067 67.8066C117.401 67.8561 117.736 67.9149 118.057 67.9871C119.267 68.2538 119.361 70.3225 118.057 70.5117C115.995 70.809 113.825 70.7095 111.68 70.6112C110.637 70.5634 109.601 70.5159 108.585 70.5143C105.522 70.509 102.458 70.5424 99.395 70.6086C95.7949 70.6865 92.1924 70.7909 88.5904 70.8952H88.5903H88.5901C86.0153 70.9697 83.4406 71.0443 80.8671 71.1092C74.4727 71.2723 68.0715 71.3973 61.6704 71.2984C58.5668 71.2502 55.4699 71.0624 52.373 70.8124C49.363 70.5691 46.527 70.2971 43.6441 69.3781C43.6308 69.374 43.6241 69.3687 43.6174 69.3633C43.109 69.3373 42.6141 68.9977 42.6074 68.336C42.5374 59.2725 42.3527 50.2078 42.168 41.1465L42.1392 39.733C41.9586 30.9528 41.7847 22.1098 42.3131 13.335L42.1908 13.2176C42.0311 13.0644 41.8723 12.9121 41.7178 12.7555C41.5706 12.6078 41.7713 12.3371 41.9452 12.4614C41.9779 12.4837 42.0092 12.5056 42.0405 12.5273L42.0405 12.5274C42.0795 12.5546 42.1184 12.5817 42.1592 12.6092C42.1659 12.4173 42.2395 12.2288 42.3933 12.1192L42.3933 12.1192C42.4 11.9822 42.4067 11.8452 42.4201 11.7095C42.4469 11.2623 43.0823 11.2623 43.109 11.7095L43.1291 11.9521C47.8866 11.2374 52.7838 11.3058 57.622 11.3734C58.865 11.3908 60.1041 11.4081 61.3359 11.412C66.1602 11.4282 70.9844 11.625 75.8058 11.8217C77.3817 11.886 78.9574 11.9503 80.5327 12.0083C84.0502 12.1382 87.5678 12.308 91.0854 12.4777C93.9355 12.6152 96.7857 12.7528 99.6358 12.8692C102.693 12.9942 105.756 13.069 108.819 13.1185C110.338 13.1432 111.863 13.1653 113.388 13.1773C113.634 13.1794 113.886 13.1727 114.139 13.166C114.947 13.1446 115.775 13.1226 116.518 13.3805C117.542 13.1686 118.578 14.4539 117.608 15.2614C117.194 15.609 116.792 15.9746 116.405 16.3475C116.638 18.8402 116.76 21.3533 116.882 23.8605C116.941 25.0899 117.001 26.3179 117.073 27.5413C117.199 29.6428 117.347 31.7428 117.495 33.8428L117.495 33.8446C117.653 36.0936 117.812 38.3423 117.943 40.5926C118.438 49.225 118.913 57.8601 118.966 66.5093C118.973 67.5794 117.876 67.9376 117.127 67.5927C117.107 67.6643 117.087 67.7358 117.067 67.8066ZM66.6001 15.4827V19.1843C66.6001 19.3832 66.0667 19.3832 66.0667 19.1843V15.4827C66.0667 15.2838 66.6001 15.2838 66.6001 15.4827ZM81.7345 20.6393C82.3571 19.0528 82.711 17.3116 82.9976 15.4835C83.02 15.3333 82.8812 15.2684 82.8588 15.4194C82.599 17.2391 82.272 18.9849 81.6718 20.5782C81.6494 20.6439 81.7076 20.7035 81.7345 20.6393ZM104.503 19.655C104.132 20.027 103.743 20.3726 103.304 20.6379C103.074 20.7775 102.871 20.3739 103.102 20.2291C103.552 19.9447 103.957 19.5753 104.329 19.1665C104.434 19.0526 104.537 18.9325 104.639 18.8121C104.886 18.5224 105.134 18.2316 105.432 18.0255C105.567 17.9314 105.724 18.1183 105.646 18.2777C105.384 18.7915 104.96 19.2074 104.566 19.5936C104.545 19.6141 104.524 19.6346 104.503 19.655Z" fill="black"/>
<path fill-rule="evenodd" clip-rule="evenodd" d="M41.4823 7.97676C40.5773 7.88264 39.7071 7.69565 38.8549 7.33652C38.1444 7.0356 36.9493 6.57245 36.4906 5.86411C36.4029 5.77371 36.3152 5.68331 36.2264 5.59291C36.5074 5.11985 36.8301 5.09013 37.1932 5.50498C37.5654 5.7477 37.8925 6.07958 38.2231 6.38051C38.9988 7.08637 39.7611 7.81082 40.5289 8.52535C41.154 7.99533 41.7791 7.46531 42.4042 6.93529C40.665 5.80838 38.9269 4.68023 37.1887 3.55332C36.4928 3.10132 34.2544 3.83443 35.1358 4.95019C36.5625 6.75573 39.0224 6.95882 40.3344 8.81142C41.036 9.80335 43.1653 8.90677 42.5672 7.60773C42.0433 6.47215 40.1208 3.52855 41.3688 2.34468C40.7246 2.33105 40.0792 2.31619 39.435 2.30257C40.4041 4.39417 40.7009 6.67276 40.4053 8.98974C40.2265 10.3891 42.7246 10.0609 42.8854 8.80275C43.2305 6.10187 42.7887 3.51988 41.6667 1.09764C41.344 0.400442 40.1377 0.671644 39.7341 1.05554C37.3439 3.32174 39.2034 6.36069 40.3344 8.81142C41.0787 8.41019 41.823 8.00896 42.5672 7.60773C41.1979 5.67588 38.7796 5.53223 37.3675 3.74527C36.6828 4.21089 35.9981 4.67652 35.3146 5.14214C37.0527 6.27029 38.7908 7.3972 40.5289 8.52535C41.4261 9.10739 43.5543 8.00524 42.4042 6.93529C41.0101 5.63996 39.534 3.76879 37.7126 3.2462C36.3838 2.86603 34.6468 3.28831 33.9374 4.70128C32.2689 8.02382 38.7852 9.80087 40.6526 9.99405C41.8848 10.1228 43.1305 8.14641 41.4823 7.97676Z" fill="#B8B8D1"/>
<path fill-rule="evenodd" clip-rule="evenodd" d="M39.8472 9.9616C37.8571 10.5813 36.2695 11.6346 35.0707 13.1334C34.8895 13.3593 35.0832 13.6498 35.3507 13.7262C39.1684 14.8225 42.9174 12.4986 42.9999 9.05569C43.0112 8.5371 42.0736 8.5371 42.0624 9.05569C41.9911 11.994 38.8122 13.8703 35.6008 12.9483C35.6933 13.1463 35.787 13.3432 35.8808 13.5411C36.9333 12.2242 38.3522 11.2828 40.096 10.7405C40.6598 10.5652 40.4173 9.78515 39.8472 9.9616Z" fill="#304227"/>
<path fill-rule="evenodd" clip-rule="evenodd" d="M640.035 39.6819C639.795 33.2788 639.451 26.4146 640.739 20.0899C641.035 18.6397 641.202 16.0646 642.733 15.4153C644.524 14.6562 643.441 18.1132 643.34 19.3478C643.046 22.9589 642.32 26.4825 641.358 29.9852C641.089 30.9677 643.014 30.6149 643.336 30.0453C644.295 28.3456 645.625 25.4295 647.032 24.1936C648.061 23.2908 650.842 20.9273 650.647 23.6174C650.461 26.2068 645.851 30.2191 644.343 32.4087C643.687 33.3638 645.205 33.6643 645.858 33.1691C652.7 27.9889 647.82 34.9903 646.729 36.14C644.814 38.1599 642.362 39.5879 639.781 40.7049C640.268 40.88 640.759 41.055 641.248 41.2301C642.093 32.8895 642.937 24.5502 643.781 16.2109C643.875 15.2977 642.306 15.478 641.922 15.9732C640.03 18.415 640.414 21.237 640.194 24.2197C639.9 28.2162 639.412 32.0978 640.123 36.0643C640.274 36.9043 641.838 36.5032 642.086 35.9349C644.516 30.3484 647.789 25.419 652.049 20.926C651.486 20.7248 650.923 20.5236 650.361 20.3224C646.843 25.4635 640.68 31.6771 639.992 37.9887C639.894 38.8967 641.476 38.7269 641.853 38.2265C644.389 34.8584 646.557 31.3975 648.454 27.6649C647.813 27.5826 647.172 27.5003 646.531 27.4167C645.38 31.1989 644.068 34.908 642.582 38.5832C642.179 39.5787 643.936 39.6048 644.387 39.0091C645.911 36.9984 647.434 34.989 648.958 32.9784C649.468 32.3055 648.604 31.7712 647.921 31.9972C644.391 33.1652 642.057 35.023 640.42 38.2513C639.963 39.1541 641.574 39.2207 642.052 38.834C645.13 36.3452 647.762 33.6799 650.16 30.5797C650.916 29.6024 649.041 29.2431 648.473 29.9774C646.184 32.9339 643.659 35.5299 640.71 37.9156C641.253 38.1102 641.799 38.3049 642.342 38.4996C643.403 35.9506 645.39 34.2365 648.307 33.3572C647.962 33.0306 647.617 32.7027 647.271 32.3761C645.746 34.3854 644.224 36.3961 642.699 38.4055C643.302 38.5479 643.903 38.6903 644.505 38.8314C645.991 35.1563 647.303 31.4472 648.454 27.6649C648.788 26.5674 646.926 26.6432 646.531 27.4167C644.705 31.0108 642.612 34.3724 640.165 37.6229C640.785 37.7026 641.404 37.781 642.025 37.8607C642.677 31.8678 648.654 25.8868 652.049 20.926C652.767 19.8743 650.973 19.6757 650.361 20.3224C645.983 24.9422 642.658 29.9512 640.164 35.6867C640.817 35.6436 641.47 35.6005 642.125 35.5574C641.492 32.0272 641.89 28.6487 642.15 25.1251C642.34 22.5317 641.893 18.7926 643.608 16.5755C642.99 16.4971 642.369 16.4174 641.749 16.339C640.904 24.6783 640.06 33.0176 639.216 41.3568C639.141 42.0937 640.213 42.0845 640.683 41.882C646.07 39.5513 649.911 35.9284 652.352 30.8083C652.629 30.2256 651.95 29.9656 651.472 29.9617C648.613 29.9342 646.745 30.564 644.516 32.2506C645.021 32.5041 645.527 32.7589 646.031 33.011C648.499 29.4273 654.976 23.863 653.432 19.0133C653.318 18.6554 652.87 18.5169 652.512 18.5443C647.124 18.9533 643.586 25.9495 641.412 29.7971C642.072 29.8167 642.731 29.8363 643.39 29.8572C644.787 24.7723 647.079 16.9713 645.197 11.8042C645.056 11.4188 644.654 11.3456 644.277 11.3351C635.763 11.0856 637.844 35.6005 638.005 39.81C638.042 40.8316 640.07 40.5703 640.035 39.6819Z" fill="#B8B8D1"/>
</svg>
