<svg width="782" height="666" viewBox="0 0 782 666" fill="none" xmlns="http://www.w3.org/2000/svg">
<path fill-rule="evenodd" clip-rule="evenodd" d="M764.512 620.671C752.335 632.479 732.503 639.699 710.268 644.12C682.852 649.548 653.461 652.347 624.88 654.892C565.527 660.191 505.444 662.028 445.512 663.487C383.454 664.986 321.333 666.656 259.203 665.737C228.067 665.285 197.003 664.199 166.16 662.108C142.679 660.482 119.127 658.315 96.9626 653.433C75.7424 648.757 56.2755 641.743 42.4249 631.226C27.186 619.625 20.4749 605.351 15.7311 591.332C4.14137 557.234 11.1958 522.547 5.51597 487.996C-5.71682 420.007 6.17438 347.083 5.51597 278.72C4.93687 211.486 17.048 80.4157 20.6177 80.9607C48.5489 55.9596 100.39 47.3637 148.081 40.7673C207.799 32.5494 267.81 24.828 328.107 18.0646C387.246 11.4331 446.964 5.33777 506.904 1.58035C531.916 -0.00611293 558.53 -0.212661 581.353 6.71329C601.113 12.7252 614.599 23.536 623.793 34.9269C634.431 48.1987 640.92 62.4725 648.067 76.4518C656.531 93.1031 664.551 109.882 672.135 126.7C687.303 160.337 700.709 194.184 712.529 228.282C736.073 296.14 753.216 364.753 764.877 433.613C770.787 468.212 775.309 502.894 778.593 537.616C781.068 564.243 789.603 596.504 764.512 620.671Z" fill="#EFEBE4"/>
</svg>
