<svg width="330" height="244" viewBox="0 0 330 244" fill="none" xmlns="http://www.w3.org/2000/svg">
<path fill-rule="evenodd" clip-rule="evenodd" d="M235.253 192.458C222.019 206.424 203.99 203.935 185.008 206.961C163.706 210.356 141.685 205.113 122.408 195.829C104.062 187 72.7749 94.7799 95.8072 67.9726C97.0321 66.4744 98.3102 65.0591 99.6681 63.7214C101.559 61.7684 103.529 59.8662 105.606 58.0469C106.005 57.7018 106.431 57.5386 106.884 57.4583C116.283 50.398 142.111 41.6201 153.588 38.9741C175.049 34.0487 198.348 34.9851 218.717 43.7095C254.211 58.8763 262.492 100.345 258.897 139.057C257.06 158.882 248.989 177.984 235.253 192.458Z" fill="#D3E4D7"/>
<path fill-rule="evenodd" clip-rule="evenodd" d="M71.5166 42.3987C68.8384 38.0499 65.3334 34.1818 61.2249 31.0828C57.1378 27.9397 52.4884 25.6151 47.6715 23.8687C42.8294 22.1663 37.7733 21.1769 32.6959 20.6815C31.4252 20.5694 30.1505 20.5146 28.8759 20.4652L26.9645 20.4385C26.2694 20.4305 25.5025 20.4866 24.786 20.6081C24.0577 20.7309 23.328 20.9125 22.5836 21.2129C21.8459 21.52 21.0604 21.9286 20.3347 22.707C19.5983 23.4508 19.0919 24.798 19.2514 25.9222C19.3285 26.5391 19.5465 27.1893 19.9399 27.7101C20.3241 28.2295 20.8185 28.6234 21.297 28.857C22.2686 29.3537 23.2083 29.4539 24.1068 29.3924C25.0067 29.3177 25.8972 29.0626 26.7372 28.5099C27.1546 28.2281 27.5454 27.8583 27.8763 27.4137C28.0225 27.1813 28.1781 26.925 28.2857 26.69C28.3708 26.4643 28.4665 26.2427 28.5263 26.0103C28.7895 25.0757 28.7549 24.0917 28.5316 23.2411C28.0664 21.5294 27.0376 20.2596 25.8228 19.3076C24.5322 18.3396 23.195 17.8829 21.8925 17.5171C20.5925 17.1699 19.3391 16.967 18.1602 16.728C16.9825 16.4903 15.8833 16.1859 14.7695 15.8013C12.5498 15.0429 10.4497 13.8893 8.557 12.4393C4.72371 9.58995 1.74373 5.47217 0.333496 0.666748C0.867818 5.66844 3.51019 10.4378 7.30095 13.9481C9.20032 15.7065 11.3987 17.1699 13.7966 18.2381C14.9822 18.7869 16.2648 19.2101 17.5009 19.5426C18.7357 19.8724 19.9226 20.1461 20.9993 20.512C22.0599 20.8698 23.0794 21.3478 23.7387 21.9353C24.4471 22.5348 24.996 23.36 25.1383 24.0756C25.2114 24.4335 25.1954 24.7379 25.1077 25.0009C25.0878 25.069 25.0466 25.1304 25.0266 25.1972C24.9974 25.2399 24.9774 25.2439 24.9708 25.28C24.9176 25.3267 24.8552 25.3881 24.7528 25.4509C24.3594 25.734 23.3492 25.7406 23.0794 25.5137C22.9465 25.3908 23.0794 25.5203 23.0581 25.531C23.0741 25.4068 23.0448 25.4896 23.1618 25.3321C23.4223 25.0156 24.4351 24.5977 25.4054 24.4722C25.9145 24.3961 26.3877 24.3627 26.9326 24.3761L28.7416 24.4241C29.9472 24.4829 31.1501 24.5576 32.349 24.6698C41.9309 25.4723 51.4144 28.3016 59.4226 33.617C67.3431 38.9672 73.8347 46.9398 76.3335 56.6667C75.9494 51.6637 74.1523 46.7622 71.5166 42.3987Z" fill="#6F9157"/>
<path fill-rule="evenodd" clip-rule="evenodd" d="M324.85 229.065C322.172 224.716 318.667 220.848 314.558 217.749C310.471 214.606 305.822 212.282 301.005 210.535C296.163 208.833 291.107 207.843 286.029 207.348C284.758 207.236 283.484 207.181 282.209 207.132L280.298 207.105C279.603 207.097 278.836 207.153 278.119 207.275C277.391 207.397 276.661 207.579 275.917 207.879C275.179 208.187 274.394 208.595 273.668 209.374C272.932 210.117 272.425 211.464 272.585 212.589C272.662 213.206 272.88 213.856 273.273 214.377C273.657 214.896 274.152 215.29 274.63 215.524C275.602 216.02 276.542 216.12 277.44 216.059C278.34 215.984 279.23 215.729 280.07 215.176C280.488 214.895 280.879 214.525 281.21 214.08C281.356 213.848 281.511 213.591 281.619 213.356C281.704 213.131 281.8 212.909 281.86 212.677C282.123 211.742 282.088 210.758 281.865 209.908C281.4 208.196 280.371 206.926 279.156 205.974C277.865 205.006 276.528 204.549 275.226 204.184C273.926 203.836 272.672 203.633 271.493 203.394C270.316 203.157 269.217 202.852 268.103 202.468C265.883 201.709 263.783 200.556 261.89 199.106C258.057 196.256 255.077 192.139 253.667 187.333C254.201 192.335 256.843 197.104 260.634 200.615C262.534 202.373 264.732 203.836 267.13 204.905C268.315 205.453 269.598 205.877 270.834 206.209C272.069 206.539 273.256 206.813 274.333 207.178C275.393 207.536 276.413 208.014 277.072 208.602C277.78 209.201 278.329 210.026 278.472 210.742C278.545 211.1 278.529 211.404 278.441 211.667C278.421 211.736 278.38 211.797 278.36 211.864C278.331 211.906 278.311 211.91 278.304 211.946C278.251 211.993 278.188 212.055 278.086 212.117C277.693 212.4 276.682 212.407 276.413 212.18C276.28 212.057 276.413 212.187 276.391 212.198C276.407 212.073 276.378 212.156 276.495 211.999C276.756 211.682 277.768 211.264 278.739 211.139C279.248 211.063 279.721 211.029 280.266 211.043L282.075 211.091C283.28 211.149 284.483 211.224 285.682 211.336C295.264 212.139 304.748 214.968 312.756 220.284C320.676 225.634 327.168 233.606 329.667 243.333C329.283 238.33 327.486 233.429 324.85 229.065Z" fill="#6F9157"/>
</svg>
