<svg width="33" height="33" viewBox="0 0 33 33" fill="none" xmlns="http://www.w3.org/2000/svg">
<path fill-rule="evenodd" clip-rule="evenodd" d="M31.8782 20.2638C31.8512 20.7364 31.7976 21.2072 31.7212 21.6744C31.955 20.8176 32.0978 19.9298 32.1358 19.0216C32.2362 16.6164 31.6982 14.171 30.492 12.0776C29.4638 10.2928 28.0972 8.63579 26.4212 7.41939C26.3306 7.55459 26.2526 7.70279 26.1878 7.86359C26.1972 7.87019 26.2068 7.87634 26.2164 7.88248C26.226 7.88864 26.2356 7.89479 26.245 7.90139C28.3728 9.43199 30.0532 11.7774 30.9632 14.2308C31.3542 15.2848 31.6066 16.3938 31.7122 17.5164C31.8618 18.4232 31.9306 19.3414 31.8782 20.2638ZM27.6838 27.3338C29.264 25.7754 30.453 23.8054 30.9856 21.6422C31.3294 20.2454 31.4296 18.788 31.2798 17.3572C30.9496 15.3604 30.2194 13.391 29.0574 11.764C27.2538 9.29479 24.5822 7.50059 21.758 6.39199C21.3214 6.22059 20.8782 6.06279 20.4302 5.91939C19.9294 5.81719 19.4248 5.73619 18.9194 5.67719C16.8872 5.44079 14.806 5.49319 12.799 5.90559C10.7738 6.32179 8.94017 7.11919 7.17737 8.19139C6.12897 8.82899 5.11817 9.55999 4.34217 10.5222C3.55937 11.493 2.98877 12.6088 2.47437 13.739C1.58577 15.6914 1.00757 17.7554 1.05797 19.9176C1.08097 20.9048 1.22517 21.8894 1.49777 22.8348C2.37577 24.613 3.68457 26.1472 5.23657 27.3812C7.00577 28.788 9.03377 29.8086 11.1512 30.5802C11.5438 30.7232 11.9406 30.8588 12.3402 30.9864C13.1856 31.1136 14.0404 31.1892 14.899 31.2222C17.2152 31.3116 19.5712 31.1612 21.8154 30.551C24.0022 29.9564 26.0586 28.9366 27.6838 27.3338ZM25.079 29.784C27.2054 28.6816 28.9984 27.024 30.2466 25.03C30.5862 24.3154 30.8594 23.5694 31.0626 22.8048C29.7228 26.5606 26.6548 29.4402 22.843 30.6788C20.6818 31.381 18.3924 31.6634 16.1248 31.6622C15.6624 31.662 15.1988 31.652 14.7356 31.6314C15.337 31.761 15.9434 31.866 16.5532 31.9412C17.2168 31.8936 17.8778 31.8226 18.532 31.73C20.7866 31.4112 23.0482 30.8368 25.079 29.784ZM19.1354 32.0678C21.1982 32.007 23.2226 31.5346 25.0418 30.5202C25.9508 30.0136 26.7994 29.3994 27.5608 28.6926C27.408 28.813 27.2532 28.931 27.0946 29.044C25.2936 30.3278 23.2014 31.1686 21.0566 31.6778C20.4276 31.8272 19.7856 31.9578 19.1354 32.0678ZM4.64537 27.4316C3.89597 26.7964 3.20517 26.0942 2.59617 25.329C2.69517 25.4888 2.79757 25.6468 2.90657 25.8008C4.22697 27.6646 6.16057 29.047 8.26717 29.8972C8.59917 30.0312 8.93457 30.1524 9.27257 30.264C7.61417 29.523 6.03737 28.6112 4.64537 27.4316ZM1.29037 24.6334C3.04937 28.8776 7.29397 31.1966 11.6846 31.8072C12.6282 31.9384 13.585 32.0012 14.5436 32.0078C13.7752 31.8418 13.015 31.6384 12.265 31.4014C11.3458 31.2658 10.4366 31.0696 9.54797 30.7934C5.67337 29.5894 2.23617 26.9228 1.08977 22.9434C1.01157 22.7806 0.935566 22.6164 0.864566 22.4494C0.718166 22.1046 0.592166 21.752 0.484966 21.3942C0.597966 22.498 0.856566 23.5868 1.29037 24.6334ZM7.59577 7.33459C5.56277 8.60379 3.57517 10.0882 2.45197 12.2604C1.40877 14.278 0.671366 16.5498 0.471766 18.8428C0.496166 19.3776 0.560166 19.9098 0.667166 20.434C0.584966 19.0986 0.716366 17.75 1.04637 16.4516C1.30357 15.4386 1.67997 14.4776 2.11517 13.5292C2.60737 12.4572 3.13957 11.3894 3.86817 10.4554C5.24137 8.69439 7.33637 7.43799 9.36077 6.55079C11.1066 5.78559 12.9842 5.34859 14.8822 5.19319C15.5118 5.14159 16.149 5.11799 16.7884 5.12339C16.525 5.09339 16.2608 5.06879 15.9962 5.05119C15.3778 5.00979 14.7568 5.00619 14.1368 5.03559C13.7972 5.08879 13.46 5.14939 13.1264 5.21879C11.1904 5.62179 9.27977 6.28319 7.59577 7.33459ZM9.81257 5.76699C8.57597 6.12439 7.41797 6.65839 6.40957 7.46779C6.08037 7.73199 5.76237 8.01139 5.45317 8.30099L5.45977 8.29609L5.45983 8.29604L5.45989 8.29599L5.45995 8.29595L5.46002 8.2959C5.54394 8.23359 5.62807 8.17112 5.71297 8.10999C6.56237 7.49859 7.43037 6.89919 8.36457 6.42319C8.84197 6.17999 9.33117 5.96039 9.82917 5.76239L9.81257 5.76699ZM24.8766 7.05859C24.9262 6.88119 24.959 6.70399 24.9754 6.52779C22.6648 5.33439 20.027 4.79839 17.3986 4.78619C18.26 4.91219 19.1126 5.09779 19.9468 5.33819C20.1252 5.38959 20.3032 5.44419 20.4808 5.50039C22.0164 5.81059 23.5064 6.32059 24.8766 7.05859ZM25.521 7.42939C25.5714 7.29599 25.6242 7.16399 25.6802 7.03379C25.5902 7.14179 25.493 7.24779 25.385 7.35059C25.405 7.36251 25.4252 7.374 25.4455 7.38549L25.4456 7.38553L25.4456 7.38555C25.4709 7.39987 25.4961 7.4142 25.521 7.42939ZM29.5844 9.99999C30.6426 11.3494 31.4906 12.8582 31.984 14.5058C32.9498 17.7314 32.7022 21.2602 31.1642 24.2702C30.985 24.6208 30.7908 24.9642 30.5824 25.2986C30.1316 26.2302 29.5676 27.1068 28.8932 27.9C27.5232 29.5112 25.763 30.7896 23.794 31.568C21.6568 32.4128 19.3398 32.6384 17.0614 32.4092C16.944 32.3974 16.827 32.3838 16.7098 32.37C13.7262 32.6074 10.6738 32.3402 7.92837 31.2872C5.94317 30.5258 4.06157 29.3646 2.68597 27.7206C1.42437 26.2128 0.572566 24.3934 0.221366 22.4576C0.00236589 21.2504 -0.0528341 20.017 0.0499659 18.7958C0.0133659 17.9584 0.0711659 17.1164 0.224566 16.2918C0.616366 14.1866 1.54837 12.2244 2.84557 10.5276C3.52857 9.63439 4.31977 8.80239 5.13657 8.03079C5.98917 7.22499 6.92297 6.48019 7.99697 5.99079C9.09157 5.49199 10.2526 5.18919 11.4322 4.96859C12.3622 4.79459 13.293 4.64199 14.2394 4.60659C17.8446 4.09799 21.6978 4.43119 24.984 6.06679C24.9172 5.06519 24.3242 4.15939 23.3348 3.65519C23.0474 3.50879 23.3006 3.07739 23.5872 3.22359C24.8368 3.86019 25.504 5.05319 25.4754 6.32699L25.5065 6.34358C25.5195 6.35043 25.5325 6.35729 25.5454 6.36439C26.7332 4.42199 25.1306 1.83079 23.6818 0.425389C23.45 0.200589 23.8038 -0.152611 24.0354 0.0717889C25.45 1.44419 26.8628 3.79459 26.3328 5.78759C27.4266 4.02999 29.0764 2.69059 31.0792 1.98059C31.3838 1.87259 31.5138 2.35579 31.212 2.46279C29.0982 3.21219 27.3822 4.72919 26.3814 6.70339C27.2856 5.83019 28.7044 5.64959 29.8664 6.45519C30.1294 6.63739 29.8798 7.07099 29.6142 6.88679C28.628 6.20319 27.4232 6.33479 26.679 7.09739C27.7854 7.91219 28.7214 8.89939 29.5844 9.99999ZM12.097 13.4314C12.2492 13.3456 12.5088 13.4128 12.5376 13.6106C12.6712 14.5256 12.6876 15.43 12.5664 16.3476C12.5332 16.5992 12.1404 16.811 12.0074 16.499C11.7132 15.8094 11.5922 15.1072 11.675 14.3634C11.6936 13.9638 11.8062 13.5952 12.097 13.4314ZM20.775 13.819C20.7388 13.5524 20.6462 13.3048 20.4254 13.123C20.281 13.0042 20.0082 13.012 19.9384 13.2118C19.8952 13.2612 19.8648 13.325 19.86 13.4036L19.8468 13.622C19.8459 13.637 19.847 13.6507 19.8481 13.6643L19.8481 13.6644L19.8486 13.6704C19.7366 14.2946 19.6118 15.1966 19.9668 15.6232C19.968 15.6342 19.9689 15.6451 19.9698 15.6561L19.9698 15.6561L19.9698 15.6562C19.9708 15.6687 19.9719 15.6812 19.9734 15.6938C19.9988 15.8988 20.1446 16.0196 20.3532 15.983C20.6824 15.9256 20.7702 15.6234 20.7886 15.3038C20.8814 14.8208 20.9244 14.2796 20.775 13.819ZM23.6436 18.2548L23.9828 18.4642C24.2632 18.6374 24.0844 19.0398 23.8206 19.0272C23.643 19.8442 22.7066 20.8152 22.2296 21.2278C21.0422 22.2552 19.4446 22.5238 17.9208 22.6758C14.67 23 11.346 22.3324 8.93097 20.0596C8.89977 20.141 8.83997 20.208 8.74197 20.235C8.59657 20.2748 8.39997 20.1868 8.37277 20.0254C8.29617 19.568 8.43137 19.104 8.79117 18.7974C9.08397 18.548 9.51037 18.9702 9.21557 19.2216C9.16397 19.2654 9.11837 19.3152 9.07917 19.369C11.0034 21.3354 13.7308 22.24 16.4574 22.1684C17.8154 22.1328 19.3426 22.031 20.6202 21.5224C21.421 21.2036 22.0406 20.6706 22.5342 19.968C22.562 19.9284 22.6078 19.8704 22.6633 19.8002L22.6634 19.8001C22.9164 19.4798 23.37 18.9057 23.2332 18.6654C23.0872 18.409 23.3826 18.0936 23.6436 18.2548ZM11.0968 17.3216C11.0016 17.304 10.9068 17.2898 10.8122 17.2784C10.7652 17.2254 10.7002 17.1856 10.6154 17.1744C10.1934 17.1188 9.77357 17.1034 9.34857 17.1274C9.19877 17.136 9.03077 17.258 9.04857 17.4274C9.08037 17.7296 9.29417 17.9064 9.59937 17.923C9.92168 17.9403 10.2483 17.9308 10.5737 17.9214H10.5737H10.5737C10.722 17.917 10.87 17.9127 11.0172 17.911C11.3462 17.907 11.4384 17.3848 11.0968 17.3216ZM22.3228 16.4832C22.7674 16.4166 23.1294 16.4446 23.4884 16.7314C23.6148 16.8326 23.5962 17.0514 23.4884 17.1558C22.9282 17.6972 22.0607 17.6194 21.2971 17.551C21.1316 17.5361 20.9709 17.5217 20.8194 17.5142C20.4896 17.4978 20.4006 17.011 20.7398 16.925L21.6624 16.691C21.8338 16.5598 22.1148 16.5146 22.3228 16.4832Z" fill="black"/>
</svg>
